<?xml version="1.0" encoding="UTF-8"?>
<svg width="325px" height="53px" viewBox="0 0 325 53" version="1.1" xmlns="http://www.w3.org/2000/svg" xmlns:xlink="http://www.w3.org/1999/xlink">
    <!-- Generator: Sketch 42 (36781) - http://www.bohemiancoding.com/sketch -->
    <title>Bhurjiman. I shall g</title>
    <desc>Created with Sketch.</desc>
    <defs></defs>
    <g id="Page-1" stroke="none" stroke-width="1" fill="none" fill-rule="evenodd">
        <g id="menu-copy" transform="translate(-84.000000, -669.000000)" fill="#FFFFFF">
            <path d="M96.298,681.226 C96.298,682.436 95.704,683.448 94.516,684.24 C93.746,684.768 92.624,685.252 91.15,685.692 C88.18,686.572 86.398,687.056 85.826,687.122 C85.562,687.122 85.364,687.034 85.21,686.858 C85.034,686.682 84.968,686.462 84.968,686.22 C84.968,685.846 85.1,685.56 85.386,685.384 C85.606,685.274 85.98,685.186 86.508,685.098 C86.508,684.746 86.508,683.338 86.53,680.874 L86.53,676.98 C86.53,676.672 86.53,675.924 86.574,674.714 C86.596,673.526 86.618,672.932 86.618,672.888 C86.046,672.954 85.738,672.976 85.694,672.976 C84.99,672.976 84.66,672.69 84.66,672.074 C84.66,671.678 84.77,671.436 84.99,671.304 C85.122,671.216 85.386,671.15 85.804,671.106 C88.004,670.93 89.786,670.82 91.15,670.82 C92.184,670.82 93.042,671.018 93.724,671.37 C94.582,671.854 95.022,672.58 95.022,673.548 C95.022,674.428 94.472,675.308 93.416,676.188 C92.756,676.76 91.678,677.442 90.182,678.256 C92.052,678.41 93.394,678.608 94.186,678.85 C95.594,679.334 96.298,680.126 96.298,681.226 Z M93.13,673.636 C93.13,672.976 92.404,672.646 90.996,672.646 C90.644,672.646 90.226,672.668 89.698,672.69 C88.994,672.734 88.576,672.756 88.422,672.756 C88.378,673.768 88.356,674.582 88.356,675.242 L88.356,677.266 C91.524,675.682 93.13,674.472 93.13,673.636 Z M94.45,681.512 C94.45,681.028 93.79,680.632 92.514,680.368 C91.854,680.258 90.446,680.104 88.29,679.906 L88.29,684.548 C92.382,683.448 94.45,682.436 94.45,681.512 Z M106.267338,686.176 C106.201338,685.604 106.135338,685.142 106.091338,684.746 C105.959338,683.712 105.893338,682.744 105.893338,681.82 C105.893338,681.688 105.893338,681.336 105.937338,680.786 C105.981338,680.236 106.025338,679.928 106.025338,679.862 C106.025338,679.51 105.893338,679.18 105.673338,678.872 C105.453338,678.608 105.189338,678.454 104.859338,678.454 C104.463338,678.454 103.605338,678.96 102.329338,679.972 C101.097338,680.918 100.261338,681.688 99.777338,682.282 C100.019338,680.258 100.195338,678.96 100.305338,678.388 L100.965338,674.934 C101.185338,673.658 101.383338,672.712 101.515338,672.074 C101.625338,671.458 101.691338,671.106 101.691338,670.996 C101.691338,670.688 101.581338,670.38 101.361338,670.072 C101.163338,669.764 100.921338,669.61 100.635338,669.61 C100.283338,669.61 100.041338,669.984 99.909338,670.71 L98.633338,677.728 C98.237338,679.752 98.061338,681.82 98.061338,683.932 C98.061338,684.064 98.061338,684.306 98.083338,684.636 L98.083338,685.23 C98.083338,685.538 98.193338,685.846 98.413338,686.132 C98.655338,686.396 98.941338,686.528 99.271338,686.528 C99.447338,686.528 99.645338,686.286 99.909338,685.802 C100.085338,685.472 100.239338,685.12 100.393338,684.768 C100.965338,683.734 102.241338,682.48 104.221338,681.006 L104.331338,683.668 C104.419338,685.78 104.903338,686.814 105.827338,686.814 C106.091338,686.814 106.223338,686.594 106.267338,686.176 Z M117.292676,678.696 C117.292676,678.08 117.028676,677.772 116.500676,677.772 C116.236676,677.772 116.016676,677.926 115.796676,678.234 C113.024676,682.304 111.132676,684.328 110.098676,684.328 C109.922676,684.328 109.834676,684.24 109.834676,684.064 C109.834676,683.712 109.966676,682.898 110.252676,681.578 C110.516676,680.302 110.648676,679.444 110.648676,679.048 C110.648676,678.124 110.340676,677.64 109.746676,677.64 C109.526676,677.64 109.350676,677.75 109.196676,677.97 C109.020676,678.19 108.932676,678.41 108.932676,678.63 C108.932676,678.696 108.932676,678.784 108.954676,678.872 L108.954676,679.114 C108.954676,679.466 108.778676,680.412 108.470676,681.974 C108.162676,683.316 108.030676,684.196 108.030676,684.636 C108.030676,685.164 108.206676,685.56 108.558676,685.846 C108.888676,686.11 109.306676,686.242 109.834676,686.242 C111.000676,686.242 112.650676,685.01 114.806676,682.524 C114.630676,683.976 114.542676,684.878 114.542676,685.252 C114.432676,685.428 114.388676,685.582 114.388676,685.758 C114.388676,686.022 114.498676,686.22 114.718676,686.352 C114.916676,686.484 115.158676,686.572 115.422676,686.572 C115.730676,686.572 115.972676,686.44 116.148676,686.176 C116.324676,685.934 116.412676,685.648 116.412676,685.318 C116.412676,685.252 116.390676,685.076 116.346676,684.79 C116.302676,684.526 116.280676,684.306 116.280676,684.13 C116.280676,683.822 116.368676,683.096 116.566676,681.952 C116.786676,680.698 116.962676,679.84 117.138676,679.378 C117.226676,679.07 117.292676,678.85 117.292676,678.696 Z M126.778014,678.454 C126.778014,678.718 126.558014,678.982 126.118014,679.202 C125.678014,679.466 125.282014,679.576 124.930014,679.576 C124.908014,679.576 124.776014,679.532 124.512014,679.444 C122.730014,680.324 121.630014,682.106 121.234014,684.79 C121.124014,685.494 121.036014,685.956 120.970014,686.176 C120.838014,686.572 120.618014,686.77 120.354014,686.77 C120.090014,686.77 119.826014,686.616 119.606014,686.352 C119.386014,686.066 119.298014,685.758 119.298014,685.384 C119.298014,685.318 119.342014,685.032 119.474014,684.504 C119.584014,684.02 119.650014,683.492 119.650014,682.898 C119.650014,682.37 119.584014,681.666 119.496014,680.808 C119.100014,680.258 118.902014,679.488 118.902014,678.52 C118.902014,678.3 118.968014,678.08 119.100014,677.86 C119.210014,677.684 119.364014,677.574 119.540014,677.574 C119.958014,677.574 120.288014,677.816 120.530014,678.256 C120.706014,678.652 120.860014,679.312 120.992014,680.236 C122.334014,678.212 123.874014,677.2 125.590014,677.2 C125.876014,677.2 126.140014,677.332 126.404014,677.596 C126.646014,677.86 126.778014,678.146 126.778014,678.454 Z M134.415352,670.776 C134.415352,670.556 134.239352,670.248 133.931352,669.874 C133.601352,669.5 133.337352,669.302 133.139352,669.302 C132.479352,669.302 132.171352,669.632 132.171352,670.248 C132.171352,670.424 132.237352,670.644 132.391352,670.886 C132.435352,671.546 132.721352,671.854 133.271352,671.854 C133.579352,671.854 133.865352,671.766 134.085352,671.546 C134.305352,671.37 134.415352,671.106 134.415352,670.776 Z M132.743352,678.014 C132.743352,680.038 132.589352,681.886 132.303352,683.558 C131.841352,686.11 131.093352,688.068 130.059352,689.432 C129.223352,690.51 128.277352,691.06 127.243352,691.06 C125.769352,691.06 125.021352,689.982 125.021352,687.87 C125.021352,686.88 125.219352,686 125.593352,685.164 C125.901352,684.504 126.209352,684.174 126.539352,684.174 C126.803352,684.174 127.023352,684.262 127.221352,684.438 C127.397352,684.614 127.507352,684.856 127.507352,685.12 C127.507352,685.384 127.419352,685.67 127.265352,685.956 C126.891352,686.594 126.715352,687.254 126.715352,687.914 C126.715352,688.75 126.935352,689.168 127.419352,689.168 C127.969352,689.168 128.497352,688.75 129.003352,687.914 C129.883352,686.396 130.455352,684.526 130.719352,682.26 C130.763352,681.798 130.829352,680.39 130.917352,678.014 C130.939352,677.332 131.247352,676.98 131.863352,676.98 C132.435352,676.98 132.743352,677.332 132.743352,678.014 Z M139.74269,670.468 C139.74269,669.544 139.36869,669.06 138.62069,668.972 C138.00469,669.192 137.69669,669.522 137.69669,669.984 C137.69669,670.908 138.00469,671.48 138.64269,671.7 C138.81869,671.766 138.95069,671.788 139.01669,671.788 C139.50069,671.788 139.74269,671.348 139.74269,670.468 Z M138.73069,678.982 C138.73069,678.058 138.24669,677.596 137.27869,677.596 C136.92669,677.772 136.77269,678.014 136.77269,678.3 C136.77269,678.388 136.79469,678.564 136.83869,678.828 C136.24469,681.314 135.95869,682.986 135.95869,683.844 C135.95869,685.648 136.44269,686.55 137.45469,686.55 C137.58669,686.55 137.71869,686.484 137.85069,686.352 C137.98269,686.22 138.07069,686.11 138.07069,685.978 C138.07069,685.582 137.91669,685.252 137.63069,684.988 C137.67469,683.668 137.91669,682.172 138.35669,680.456 L138.73069,678.982 Z M156.202028,685.076 C156.202028,685.01 156.092028,684.79 155.872028,684.438 C155.344028,683.646 155.036028,682.106 154.948028,679.862 C154.926028,679.334 154.684028,679.07 154.200028,679.07 C153.078028,679.07 151.494028,680.478 149.426028,683.25 C149.184028,682.59 149.074028,681.402 149.074028,679.73 C149.074028,679.158 149.030028,678.762 148.964028,678.586 C148.854028,678.322 148.612028,678.168 148.260028,678.168 C147.688028,678.168 146.126028,679.4 143.530028,681.842 C143.948028,679.95 144.168028,678.74 144.168028,678.168 C144.168028,676.804 143.838028,676.1 143.200028,676.1 C142.914028,676.1 142.650028,676.21 142.408028,676.43 C142.144028,676.65 141.990028,676.936 141.968028,677.288 C142.188028,677.728 142.298028,678.168 142.298028,678.586 C142.298028,679.07 142.122028,680.06 141.792028,681.6 C141.440028,683.184 141.286028,684.284 141.286028,684.944 C141.286028,686.176 141.616028,686.792 142.298028,686.792 C142.760028,686.792 143.090028,686.484 143.266028,685.868 C143.838028,683.888 145.136028,682.216 147.138028,680.852 C147.270028,682.678 147.578028,684.086 148.106028,685.054 C148.370028,685.582 148.722028,685.846 149.118028,685.846 C149.514028,685.846 149.932028,685.516 150.372028,684.834 C151.296028,683.47 152.198028,682.37 153.100028,681.556 C153.452028,684.592 154.090028,686.11 155.014028,686.11 C155.806028,686.11 156.202028,685.78 156.202028,685.076 Z M165.511366,680.896 C165.511366,680.984 165.467366,681.138 165.379366,681.38 C165.071366,682.304 164.939366,683.184 164.939366,684.064 C164.939366,684.328 164.983366,684.724 165.093366,685.23 C165.181366,685.758 165.247366,686.022 165.247366,686.088 C165.247366,686.308 165.137366,686.528 164.961366,686.704 C164.763366,686.836 164.543366,686.924 164.323366,686.924 C163.685366,686.924 163.311366,686.066 163.201366,684.394 C161.969366,685.626 160.869366,686.242 159.879366,686.242 C159.241366,686.242 158.691366,685.978 158.229366,685.428 C157.745366,684.9 157.525366,684.306 157.525366,683.624 C157.525366,682.348 158.273366,680.984 159.791366,679.576 C161.243366,678.212 162.563366,677.508 163.773366,677.508 C164.059366,677.508 164.345366,677.64 164.631366,677.86 C164.895366,678.08 165.049366,678.344 165.049366,678.608 C165.049366,678.718 165.027366,678.828 165.005366,678.916 C165.137366,679.312 165.225366,679.752 165.225366,680.258 C165.401366,680.478 165.511366,680.698 165.511366,680.896 Z M163.509366,680.258 C163.509366,679.73 163.377366,679.444 163.113366,679.444 C162.695366,679.444 161.969366,679.95 160.957366,680.918 C159.835366,681.996 159.285366,682.876 159.285366,683.58 C159.285366,684.13 159.505366,684.394 159.967366,684.394 C160.627366,684.394 161.397366,683.91 162.233366,682.898 C163.069366,681.886 163.509366,681.006 163.509366,680.258 Z M175.524704,679.686 C175.524704,679.356 175.370704,679.092 175.106704,678.872 C174.842704,678.674 174.556704,678.564 174.248704,678.542 C172.466704,679.532 170.794704,680.984 169.232704,682.876 C169.232704,681.776 169.342704,680.654 169.562704,679.488 C169.672704,678.96 169.782704,678.476 169.892704,678.036 C169.892704,677.684 169.782704,677.376 169.562704,677.09 C169.342704,676.848 169.056704,676.716 168.726704,676.716 C168.462704,676.716 168.308704,676.892 168.220704,677.2 C167.736704,678.982 167.494704,680.72 167.494704,682.436 C167.494704,685.054 167.934704,686.352 168.858704,686.352 C169.078704,686.352 169.298704,686.154 169.518704,685.802 C169.650704,685.538 169.782704,685.252 169.936704,684.988 C170.684704,683.756 171.960704,682.458 173.786704,681.072 L173.456704,683.888 C173.368704,684.702 173.324704,685.12 173.324704,685.142 C173.324704,685.494 173.434704,685.802 173.654704,686.088 C173.874704,686.352 174.138704,686.484 174.468704,686.484 C174.776704,686.484 174.952704,686.264 174.996704,685.868 C175.348704,682.766 175.524704,680.698 175.524704,679.686 Z M180.588042,685.494 C180.588042,684.57 180.214042,684.086 179.488042,684.086 C179.092042,684.086 178.762042,684.284 178.454042,684.68 C178.124042,685.076 177.970042,685.472 177.970042,685.824 C177.970042,686.066 178.102042,686.396 178.388042,686.792 C178.674042,687.188 178.982042,687.408 179.312042,687.408 C179.796042,687.408 180.126042,687.122 180.302042,686.594 C180.478042,685.978 180.588042,685.604 180.588042,685.494 Z M194.036717,671.106 C194.036717,670.446 193.728717,670.094 193.156717,670.094 C192.716717,670.094 192.276717,670.666 191.858717,671.766 C191.506717,672.756 191.330717,673.592 191.330717,674.274 C191.330717,674.67 191.506717,674.956 191.858717,675.154 L191.132717,680.456 C190.890717,682.238 190.780717,683.668 190.780717,684.724 C190.780717,686.176 191.154717,686.902 191.946717,686.902 C192.166717,686.902 192.364717,686.792 192.540717,686.594 C192.716717,686.396 192.826717,686.198 192.826717,685.978 C192.826717,685.89 192.738717,685.692 192.606717,685.384 C192.518717,685.208 192.474717,684.988 192.474717,684.746 C192.474717,684.174 192.584717,682.942 192.848717,681.094 L193.750717,674.142 C193.926717,672.646 194.036717,671.634 194.036717,671.106 Z M209.575393,678.014 C209.575393,677.86 209.531393,677.684 209.443393,677.508 C209.355393,676.848 208.805393,676.518 207.793393,676.518 C207.133393,676.518 206.715393,676.716 206.495393,677.068 C205.461393,677.442 204.955393,678.146 204.955393,679.158 C204.955393,679.774 205.219393,680.764 205.747393,682.084 C206.275393,683.404 206.561393,684.24 206.561393,684.548 C206.561393,685.076 206.187393,685.318 205.461393,685.318 C205.197393,685.318 204.823393,685.296 204.383393,685.23 C203.943393,685.186 203.701393,685.142 203.657393,685.142 C203.459393,685.142 203.283393,685.274 203.151393,685.494 C202.975393,685.714 202.909393,685.956 202.909393,686.198 C202.909393,686.814 203.679393,687.144 205.263393,687.144 C206.231393,687.144 207.001393,686.924 207.573393,686.506 C208.079393,686.088 208.343393,685.582 208.343393,684.944 C208.343393,684.284 208.057393,683.25 207.529393,681.864 C206.979393,680.5 206.715393,679.686 206.715393,679.422 C206.715393,679.004 207.001393,678.784 207.573393,678.784 C207.705393,678.784 207.903393,678.806 208.167393,678.806 C208.431393,678.85 208.629393,678.85 208.739393,678.85 C208.959393,678.85 209.157393,678.784 209.333393,678.608 C209.487393,678.476 209.575393,678.278 209.575393,678.014 Z M219.060731,686.176 C218.994731,685.604 218.928731,685.142 218.884731,684.746 C218.752731,683.712 218.686731,682.744 218.686731,681.82 C218.686731,681.688 218.686731,681.336 218.730731,680.786 C218.774731,680.236 218.818731,679.928 218.818731,679.862 C218.818731,679.51 218.686731,679.18 218.466731,678.872 C218.246731,678.608 217.982731,678.454 217.652731,678.454 C217.256731,678.454 216.398731,678.96 215.122731,679.972 C213.890731,680.918 213.054731,681.688 212.570731,682.282 C212.812731,680.258 212.988731,678.96 213.098731,678.388 L213.758731,674.934 C213.978731,673.658 214.176731,672.712 214.308731,672.074 C214.418731,671.458 214.484731,671.106 214.484731,670.996 C214.484731,670.688 214.374731,670.38 214.154731,670.072 C213.956731,669.764 213.714731,669.61 213.428731,669.61 C213.076731,669.61 212.834731,669.984 212.702731,670.71 L211.426731,677.728 C211.030731,679.752 210.854731,681.82 210.854731,683.932 C210.854731,684.064 210.854731,684.306 210.876731,684.636 L210.876731,685.23 C210.876731,685.538 210.986731,685.846 211.206731,686.132 C211.448731,686.396 211.734731,686.528 212.064731,686.528 C212.240731,686.528 212.438731,686.286 212.702731,685.802 C212.878731,685.472 213.032731,685.12 213.186731,684.768 C213.758731,683.734 215.034731,682.48 217.014731,681.006 L217.124731,683.668 C217.212731,685.78 217.696731,686.814 218.620731,686.814 C218.884731,686.814 219.016731,686.594 219.060731,686.176 Z M228.810069,680.896 C228.810069,680.984 228.766069,681.138 228.678069,681.38 C228.370069,682.304 228.238069,683.184 228.238069,684.064 C228.238069,684.328 228.282069,684.724 228.392069,685.23 C228.480069,685.758 228.546069,686.022 228.546069,686.088 C228.546069,686.308 228.436069,686.528 228.260069,686.704 C228.062069,686.836 227.842069,686.924 227.622069,686.924 C226.984069,686.924 226.610069,686.066 226.500069,684.394 C225.268069,685.626 224.168069,686.242 223.178069,686.242 C222.540069,686.242 221.990069,685.978 221.528069,685.428 C221.044069,684.9 220.824069,684.306 220.824069,683.624 C220.824069,682.348 221.572069,680.984 223.090069,679.576 C224.542069,678.212 225.862069,677.508 227.072069,677.508 C227.358069,677.508 227.644069,677.64 227.930069,677.86 C228.194069,678.08 228.348069,678.344 228.348069,678.608 C228.348069,678.718 228.326069,678.828 228.304069,678.916 C228.436069,679.312 228.524069,679.752 228.524069,680.258 C228.700069,680.478 228.810069,680.698 228.810069,680.896 Z M226.808069,680.258 C226.808069,679.73 226.676069,679.444 226.412069,679.444 C225.994069,679.444 225.268069,679.95 224.256069,680.918 C223.134069,681.996 222.584069,682.876 222.584069,683.58 C222.584069,684.13 222.804069,684.394 223.266069,684.394 C223.926069,684.394 224.696069,683.91 225.532069,682.898 C226.368069,681.886 226.808069,681.006 226.808069,680.258 Z M234.885407,671.128 C234.885407,670.864 234.687407,670.556 234.335407,670.16 C233.983407,669.808 233.675407,669.61 233.411407,669.61 C233.125407,669.61 232.861407,670.028 232.619407,670.82 C231.761407,673.548 231.343407,676.364 231.343407,679.268 C231.343407,680.016 231.387407,681.05 231.475407,682.37 C231.321407,682.634 231.255407,683.118 231.255407,683.8 C231.255407,684.548 231.409407,685.23 231.739407,685.868 C232.047407,686.506 232.421407,686.836 232.861407,686.836 C232.971407,686.836 233.103407,686.77 233.257407,686.638 C233.389407,686.528 233.477407,686.418 233.477407,686.308 C233.477407,686.242 233.455407,686.11 233.433407,685.934 C233.389407,685.736 233.389407,685.604 233.389407,685.516 C233.169407,682.832 233.059407,680.94 233.059407,679.884 C233.059407,677.354 233.389407,674.824 234.049407,672.294 L234.203407,672.074 C234.643407,671.854 234.885407,671.546 234.885407,671.128 Z M240.278745,671.128 C240.278745,670.864 240.080745,670.556 239.728745,670.16 C239.376745,669.808 239.068745,669.61 238.804745,669.61 C238.518745,669.61 238.254745,670.028 238.012745,670.82 C237.154745,673.548 236.736745,676.364 236.736745,679.268 C236.736745,680.016 236.780745,681.05 236.868745,682.37 C236.714745,682.634 236.648745,683.118 236.648745,683.8 C236.648745,684.548 236.802745,685.23 237.132745,685.868 C237.440745,686.506 237.814745,686.836 238.254745,686.836 C238.364745,686.836 238.496745,686.77 238.650745,686.638 C238.782745,686.528 238.870745,686.418 238.870745,686.308 C238.870745,686.242 238.848745,686.11 238.826745,685.934 C238.782745,685.736 238.782745,685.604 238.782745,685.516 C238.562745,682.832 238.452745,680.94 238.452745,679.884 C238.452745,677.354 238.782745,674.824 239.442745,672.294 L239.596745,672.074 C240.036745,671.854 240.278745,671.546 240.278745,671.128 Z M256.059421,679.356 C256.059421,679.642 255.861421,680.126 255.509421,680.83 C255.399421,681.05 255.333421,681.622 255.289421,682.568 C255.091421,687.056 253.177421,689.828 249.569421,690.884 C249.129421,690.994 248.711421,691.06 248.315421,691.06 C247.699421,691.06 247.391421,690.73 247.391421,690.092 C247.391421,689.806 247.501421,689.542 247.765421,689.3 C248.029421,689.036 248.315421,688.926 248.579421,688.926 C248.777421,688.926 248.953421,688.948 249.085421,689.014 C251.681421,688.574 253.133421,686.88 253.441421,683.976 C252.781421,684.614 251.989421,684.922 251.065421,684.922 C250.273421,684.922 249.635421,684.68 249.195421,684.174 C248.733421,683.69 248.513421,683.008 248.513421,682.15 C248.513421,680.698 248.997421,679.378 249.987421,678.19 C251.021421,676.936 252.275421,676.298 253.749421,676.298 C254.365421,676.298 254.893421,676.54 255.289421,677.002 C255.663421,677.464 255.861421,678.08 255.861421,678.828 C255.993421,679.004 256.059421,679.18 256.059421,679.356 Z M253.947421,679.444 C253.903421,678.762 253.639421,678.41 253.177421,678.41 C252.429421,678.41 251.747421,678.85 251.153421,679.708 C250.603421,680.5 250.339421,681.292 250.339421,682.062 C250.339421,682.854 250.603421,683.25 251.175421,683.25 C251.879421,683.25 252.495421,682.898 253.001421,682.172 C253.397421,681.622 253.661421,680.874 253.793421,679.906 C253.793421,679.818 253.859421,679.664 253.947421,679.444 Z M266.336759,685.604 C266.336759,686.308 265.588759,686.682 264.114759,686.682 C262.442759,686.682 261.210759,685.934 260.418759,684.416 L259.758759,684.416 C259.186759,684.416 258.636759,684.306 258.064759,684.064 C257.316759,683.756 256.964759,683.36 256.964759,682.876 C256.964759,682.26 257.250759,681.952 257.822759,681.952 C257.954759,681.952 258.174759,682.062 258.482759,682.282 C258.790759,682.502 259.076759,682.612 259.384759,682.612 L259.890759,682.612 C259.824759,682.238 259.802759,681.93 259.802759,681.71 C259.802759,680.654 260.066759,679.664 260.594759,678.74 C261.210759,677.662 261.980759,677.112 262.926759,677.112 C263.476759,677.112 264.004759,677.376 264.532759,677.904 C265.060759,678.432 265.324759,679.026 265.324759,679.642 C265.324759,681.27 264.224759,682.678 262.024759,683.866 C262.552759,684.504 263.124759,684.812 263.784759,684.812 C263.960759,684.812 264.246759,684.79 264.620759,684.746 C264.994759,684.702 265.280759,684.658 265.456759,684.658 C265.676759,684.658 265.896759,684.768 266.072759,684.944 C266.248759,685.164 266.336759,685.384 266.336759,685.604 Z M263.586759,679.73 C263.586759,679.554 263.498759,679.4 263.366759,679.224 C263.190759,679.092 263.014759,679.004 262.838759,679.004 C262.442759,679.004 262.134759,679.334 261.914759,679.994 C261.694759,680.544 261.606759,681.116 261.606759,681.71 L261.606759,682.106 C262.926759,681.248 263.586759,680.456 263.586759,679.73 Z M275.030097,678.278 C275.030097,677.574 274.392097,677.2 273.116097,677.134 C272.192097,677.112 271.642097,677.09 271.488097,677.09 C271.796097,675.638 272.082097,674.472 272.346097,673.57 C272.544097,672.954 272.720097,672.426 272.852097,671.964 C272.786097,671.304 272.478097,670.974 271.906097,670.974 C271.510097,670.974 271.246097,671.216 271.114097,671.678 C270.718097,672.998 270.234097,674.802 269.662097,677.134 C269.134097,677.134 268.804097,677.2 268.628097,677.288 C268.364097,677.42 268.232097,677.684 268.232097,678.08 C268.232097,678.718 268.562097,679.026 269.244097,679.026 L268.584097,682.194 C268.298097,683.624 268.166097,684.68 268.166097,685.34 C268.166097,686.528 268.518097,687.144 269.244097,687.144 C269.464097,687.144 269.662097,687.056 269.882097,686.88 C270.080097,686.682 270.190097,686.484 270.190097,686.264 C270.190097,685.912 270.080097,685.67 269.860097,685.494 C269.904097,684.526 270.036097,683.404 270.300097,682.172 C270.388097,681.754 270.630097,680.698 271.026097,678.982 C271.246097,678.982 271.642097,679.004 272.258097,679.004 C272.874097,679.026 273.248097,679.026 273.402097,679.026 C273.622097,679.246 273.908097,679.334 274.216097,679.334 C274.414097,679.334 274.612097,679.224 274.788097,679.004 C274.942097,678.784 275.030097,678.542 275.030097,678.278 Z M290.722773,682.392 L290.722773,680.918 C290.722773,679.378 290.370773,678.586 289.688773,678.586 C289.336773,678.586 289.006773,678.894 288.676773,679.466 C287.994773,680.676 287.466773,681.534 287.070773,682.018 C286.542773,682.678 286.036773,683.008 285.552773,683.008 C285.200773,683.008 285.046773,682.81 285.046773,682.414 C285.046773,682.062 285.112773,681.38 285.244773,680.368 C285.376773,679.356 285.464773,678.74 285.464773,678.542 C285.464773,678.014 285.376773,677.53 285.200773,677.134 C285.002773,676.65 284.716773,676.408 284.364773,676.408 C283.704773,676.408 283.396773,676.694 283.396773,677.244 C283.396773,677.376 283.418773,677.552 283.506773,677.816 C283.572773,678.08 283.616773,678.256 283.616773,678.388 C283.616773,678.828 283.550773,679.488 283.440773,680.412 C283.330773,681.336 283.286773,682.04 283.286773,682.48 C283.286773,683.206 283.484773,683.8 283.902773,684.262 C284.298773,684.746 284.826773,684.966 285.530773,684.966 C286.652773,684.966 287.796773,684.152 288.962773,682.524 C288.962773,683.272 288.896773,683.976 288.786773,684.658 C288.258773,687.584 286.322773,689.058 282.956773,689.102 C282.428773,689.036 282.032773,688.992 281.768773,688.97 C281.218773,688.992 280.932773,689.278 280.932773,689.85 C280.932773,690.642 281.614773,691.06 282.978773,691.06 C285.134773,691.06 286.872773,690.466 288.236773,689.322 C289.886773,687.914 290.722773,685.626 290.722773,682.392 Z M299.460111,681.16 C299.460111,682.656 299.086111,683.888 298.382111,684.9 C297.656111,685.912 296.754111,686.396 295.698111,686.396 C294.774111,686.396 294.004111,686.022 293.388111,685.318 C292.772111,684.592 292.486111,683.668 292.486111,682.546 C292.486111,681.6 292.684111,680.698 293.124111,679.862 C293.564111,678.938 294.180111,678.278 294.928111,677.904 C295.104111,677.838 295.346111,677.706 295.654111,677.53 C295.918111,677.354 296.116111,677.244 296.292111,677.244 C296.336111,677.244 296.512111,677.288 296.820111,677.376 C297.590111,677.64 298.228111,678.124 298.734111,678.806 C299.218111,679.51 299.460111,680.302 299.460111,681.16 Z M297.722111,681.49 C297.722111,680.566 297.502111,679.95 297.084111,679.686 C296.732111,679.686 296.446111,679.62 296.226111,679.488 C295.610111,679.488 295.104111,679.862 294.708111,680.566 C294.356111,681.182 294.202111,681.842 294.202111,682.546 C294.202111,683.074 294.334111,683.536 294.620111,683.932 C294.884111,684.35 295.236111,684.548 295.676111,684.548 C296.204111,684.548 296.666111,684.218 297.106111,683.558 C297.502111,682.92 297.722111,682.238 297.722111,681.49 Z M310.507449,678.696 C310.507449,678.08 310.243449,677.772 309.715449,677.772 C309.451449,677.772 309.231449,677.926 309.011449,678.234 C306.239449,682.304 304.347449,684.328 303.313449,684.328 C303.137449,684.328 303.049449,684.24 303.049449,684.064 C303.049449,683.712 303.181449,682.898 303.467449,681.578 C303.731449,680.302 303.863449,679.444 303.863449,679.048 C303.863449,678.124 303.555449,677.64 302.961449,677.64 C302.741449,677.64 302.565449,677.75 302.411449,677.97 C302.235449,678.19 302.147449,678.41 302.147449,678.63 C302.147449,678.696 302.147449,678.784 302.169449,678.872 L302.169449,679.114 C302.169449,679.466 301.993449,680.412 301.685449,681.974 C301.377449,683.316 301.245449,684.196 301.245449,684.636 C301.245449,685.164 301.421449,685.56 301.773449,685.846 C302.103449,686.11 302.521449,686.242 303.049449,686.242 C304.215449,686.242 305.865449,685.01 308.021449,682.524 C307.845449,683.976 307.757449,684.878 307.757449,685.252 C307.647449,685.428 307.603449,685.582 307.603449,685.758 C307.603449,686.022 307.713449,686.22 307.933449,686.352 C308.131449,686.484 308.373449,686.572 308.637449,686.572 C308.945449,686.572 309.187449,686.44 309.363449,686.176 C309.539449,685.934 309.627449,685.648 309.627449,685.318 C309.627449,685.252 309.605449,685.076 309.561449,684.79 C309.517449,684.526 309.495449,684.306 309.495449,684.13 C309.495449,683.822 309.583449,683.096 309.781449,681.952 C310.001449,680.698 310.177449,679.84 310.353449,679.378 C310.441449,679.07 310.507449,678.85 310.507449,678.696 Z M328.906125,670.314 C328.906125,669.852 328.532125,669.61 327.828125,669.61 C327.476125,669.61 326.992125,669.764 326.354125,670.072 C325.694125,670.38 325.188125,670.666 324.880125,670.952 C322.768125,672.822 321.470125,675.946 320.964125,680.324 C320.216125,680.5 319.732125,680.588 319.490125,680.588 C319.006125,680.588 318.786125,680.896 318.786125,681.49 C318.786125,681.71 318.852125,681.93 319.028125,682.128 C319.204125,682.348 319.380125,682.436 319.578125,682.436 C319.688125,682.436 320.084125,682.392 320.744125,682.26 C320.304125,686.22 319.776125,688.442 319.204125,688.926 C318.830125,689.256 318.654125,689.586 318.654125,689.894 C318.654125,690.202 318.742125,690.488 318.962125,690.73 C319.182125,690.95 319.446125,691.06 319.710125,691.06 C320.018125,691.06 320.370125,690.73 320.722125,690.07 C321.558125,688.486 322.174125,685.78 322.570125,681.864 C324.902125,681.336 326.354125,681.006 326.970125,680.896 C327.102125,680.94 327.234125,680.962 327.366125,680.962 C327.718125,680.962 328.026125,680.852 328.290125,680.632 C328.576125,680.412 328.730125,680.148 328.730125,679.796 C328.730125,679.202 328.422125,678.894 327.806125,678.894 C327.498125,678.894 327.036125,678.96 326.420125,679.07 C325.606125,679.224 324.396125,679.488 322.768125,679.884 C323.076125,677.42 323.802125,675.286 324.924125,673.482 C325.584125,672.426 326.662125,671.744 328.180125,671.436 C328.664125,671.348 328.906125,670.974 328.906125,670.314 Z M336.037463,681.16 C336.037463,682.656 335.663463,683.888 334.959463,684.9 C334.233463,685.912 333.331463,686.396 332.275463,686.396 C331.351463,686.396 330.581463,686.022 329.965463,685.318 C329.349463,684.592 329.063463,683.668 329.063463,682.546 C329.063463,681.6 329.261463,680.698 329.701463,679.862 C330.141463,678.938 330.757463,678.278 331.505463,677.904 C331.681463,677.838 331.923463,677.706 332.231463,677.53 C332.495463,677.354 332.693463,677.244 332.869463,677.244 C332.913463,677.244 333.089463,677.288 333.397463,677.376 C334.167463,677.64 334.805463,678.124 335.311463,678.806 C335.795463,679.51 336.037463,680.302 336.037463,681.16 Z M334.299463,681.49 C334.299463,680.566 334.079463,679.95 333.661463,679.686 C333.309463,679.686 333.023463,679.62 332.803463,679.488 C332.187463,679.488 331.681463,679.862 331.285463,680.566 C330.933463,681.182 330.779463,681.842 330.779463,682.546 C330.779463,683.074 330.911463,683.536 331.197463,683.932 C331.461463,684.35 331.813463,684.548 332.253463,684.548 C332.781463,684.548 333.243463,684.218 333.683463,683.558 C334.079463,682.92 334.299463,682.238 334.299463,681.49 Z M344.796801,681.16 C344.796801,682.656 344.422801,683.888 343.718801,684.9 C342.992801,685.912 342.090801,686.396 341.034801,686.396 C340.110801,686.396 339.340801,686.022 338.724801,685.318 C338.108801,684.592 337.822801,683.668 337.822801,682.546 C337.822801,681.6 338.020801,680.698 338.460801,679.862 C338.900801,678.938 339.516801,678.278 340.264801,677.904 C340.440801,677.838 340.682801,677.706 340.990801,677.53 C341.254801,677.354 341.452801,677.244 341.628801,677.244 C341.672801,677.244 341.848801,677.288 342.156801,677.376 C342.926801,677.64 343.564801,678.124 344.070801,678.806 C344.554801,679.51 344.796801,680.302 344.796801,681.16 Z M343.058801,681.49 C343.058801,680.566 342.838801,679.95 342.420801,679.686 C342.068801,679.686 341.782801,679.62 341.562801,679.488 C340.946801,679.488 340.440801,679.862 340.044801,680.566 C339.692801,681.182 339.538801,681.842 339.538801,682.546 C339.538801,683.074 339.670801,683.536 339.956801,683.932 C340.220801,684.35 340.572801,684.548 341.012801,684.548 C341.540801,684.548 342.002801,684.218 342.442801,683.558 C342.838801,682.92 343.058801,682.238 343.058801,681.49 Z M354.722139,670.468 C354.722139,670.622 354.656139,671.084 354.524139,671.876 C354.304139,673.108 354.172139,674.054 354.172139,674.692 C354.150139,675.044 354.128139,675.308 354.128139,675.44 C354.062139,675.704 353.952139,675.924 353.776139,676.078 C353.644139,678.146 353.600139,679.796 353.600139,681.006 C353.600139,683.294 353.732139,685.186 353.996139,686.704 C354.084139,687.32 354.150139,687.672 354.150139,687.76 C354.150139,687.98 354.062139,688.178 353.886139,688.354 C353.688139,688.53 353.490139,688.618 353.292139,688.618 C352.852139,688.618 352.588139,688.31 352.500139,687.738 C352.412139,687.254 352.258139,686.044 352.038139,684.108 C351.730139,684.746 351.268139,685.34 350.608139,685.868 C349.904139,686.44 349.244139,686.726 348.672139,686.726 C347.902139,686.726 347.308139,686.484 346.890139,686 C346.472139,685.538 346.274139,684.9 346.274139,684.086 C346.274139,683.008 346.802139,681.732 347.858139,680.28 C348.892139,678.85 349.860139,678.124 350.784139,678.124 C351.114139,678.124 351.510139,678.344 351.972139,678.74 C352.236139,675.044 352.610139,672.206 353.094139,670.27 C353.182139,669.83 353.468139,669.61 353.930139,669.61 C354.458139,669.61 354.722139,669.896 354.722139,670.468 Z M351.466139,681.248 C351.202139,681.072 351.004139,680.676 350.850139,680.06 C350.762139,680.06 350.696139,680.038 350.696139,680.038 C350.344139,680.038 349.684139,680.698 348.738139,681.974 C348.166139,682.744 347.902139,683.426 347.902139,684.02 C347.902139,684.57 348.100139,684.834 348.496139,684.834 C348.936139,684.834 349.420139,684.592 349.926139,684.064 C350.322139,683.646 350.674139,683.162 350.938139,682.612 C351.070139,682.304 351.246139,681.842 351.466139,681.248 Z M371.558814,679.686 C371.558814,679.356 371.404814,679.092 371.140814,678.872 C370.876814,678.674 370.590814,678.564 370.282814,678.542 C368.500814,679.532 366.828814,680.984 365.266814,682.876 C365.266814,681.776 365.376814,680.654 365.596814,679.488 C365.706814,678.96 365.816814,678.476 365.926814,678.036 C365.926814,677.684 365.816814,677.376 365.596814,677.09 C365.376814,676.848 365.090814,676.716 364.760814,676.716 C364.496814,676.716 364.342814,676.892 364.254814,677.2 C363.770814,678.982 363.528814,680.72 363.528814,682.436 C363.528814,685.054 363.968814,686.352 364.892814,686.352 C365.112814,686.352 365.332814,686.154 365.552814,685.802 C365.684814,685.538 365.816814,685.252 365.970814,684.988 C366.718814,683.756 367.994814,682.458 369.820814,681.072 L369.490814,683.888 C369.402814,684.702 369.358814,685.12 369.358814,685.142 C369.358814,685.494 369.468814,685.802 369.688814,686.088 C369.908814,686.352 370.172814,686.484 370.502814,686.484 C370.810814,686.484 370.986814,686.264 371.030814,685.868 C371.382814,682.766 371.558814,680.698 371.558814,679.686 Z M388.37349,682.392 L388.37349,680.918 C388.37349,679.378 388.02149,678.586 387.33949,678.586 C386.98749,678.586 386.65749,678.894 386.32749,679.466 C385.64549,680.676 385.11749,681.534 384.72149,682.018 C384.19349,682.678 383.68749,683.008 383.20349,683.008 C382.85149,683.008 382.69749,682.81 382.69749,682.414 C382.69749,682.062 382.76349,681.38 382.89549,680.368 C383.02749,679.356 383.11549,678.74 383.11549,678.542 C383.11549,678.014 383.02749,677.53 382.85149,677.134 C382.65349,676.65 382.36749,676.408 382.01549,676.408 C381.35549,676.408 381.04749,676.694 381.04749,677.244 C381.04749,677.376 381.06949,677.552 381.15749,677.816 C381.22349,678.08 381.26749,678.256 381.26749,678.388 C381.26749,678.828 381.20149,679.488 381.09149,680.412 C380.98149,681.336 380.93749,682.04 380.93749,682.48 C380.93749,683.206 381.13549,683.8 381.55349,684.262 C381.94949,684.746 382.47749,684.966 383.18149,684.966 C384.30349,684.966 385.44749,684.152 386.61349,682.524 C386.61349,683.272 386.54749,683.976 386.43749,684.658 C385.90949,687.584 383.97349,689.058 380.60749,689.102 C380.07949,689.036 379.68349,688.992 379.41949,688.97 C378.86949,688.992 378.58349,689.278 378.58349,689.85 C378.58349,690.642 379.26549,691.06 380.62949,691.06 C382.78549,691.06 384.52349,690.466 385.88749,689.322 C387.53749,687.914 388.37349,685.626 388.37349,682.392 Z M397.110828,681.16 C397.110828,682.656 396.736828,683.888 396.032828,684.9 C395.306828,685.912 394.404828,686.396 393.348828,686.396 C392.424828,686.396 391.654828,686.022 391.038828,685.318 C390.422828,684.592 390.136828,683.668 390.136828,682.546 C390.136828,681.6 390.334828,680.698 390.774828,679.862 C391.214828,678.938 391.830828,678.278 392.578828,677.904 C392.754828,677.838 392.996828,677.706 393.304828,677.53 C393.568828,677.354 393.766828,677.244 393.942828,677.244 C393.986828,677.244 394.162828,677.288 394.470828,677.376 C395.240828,677.64 395.878828,678.124 396.384828,678.806 C396.868828,679.51 397.110828,680.302 397.110828,681.16 Z M395.372828,681.49 C395.372828,680.566 395.152828,679.95 394.734828,679.686 C394.382828,679.686 394.096828,679.62 393.876828,679.488 C393.260828,679.488 392.754828,679.862 392.358828,680.566 C392.006828,681.182 391.852828,681.842 391.852828,682.546 C391.852828,683.074 391.984828,683.536 392.270828,683.932 C392.534828,684.35 392.886828,684.548 393.326828,684.548 C393.854828,684.548 394.316828,684.218 394.756828,683.558 C395.152828,682.92 395.372828,682.238 395.372828,681.49 Z M408.158166,678.696 C408.158166,678.08 407.894166,677.772 407.366166,677.772 C407.102166,677.772 406.882166,677.926 406.662166,678.234 C403.890166,682.304 401.998166,684.328 400.964166,684.328 C400.788166,684.328 400.700166,684.24 400.700166,684.064 C400.700166,683.712 400.832166,682.898 401.118166,681.578 C401.382166,680.302 401.514166,679.444 401.514166,679.048 C401.514166,678.124 401.206166,677.64 400.612166,677.64 C400.392166,677.64 400.216166,677.75 400.062166,677.97 C399.886166,678.19 399.798166,678.41 399.798166,678.63 C399.798166,678.696 399.798166,678.784 399.820166,678.872 L399.820166,679.114 C399.820166,679.466 399.644166,680.412 399.336166,681.974 C399.028166,683.316 398.896166,684.196 398.896166,684.636 C398.896166,685.164 399.072166,685.56 399.424166,685.846 C399.754166,686.11 400.172166,686.242 400.700166,686.242 C401.866166,686.242 403.516166,685.01 405.672166,682.524 C405.496166,683.976 405.408166,684.878 405.408166,685.252 C405.298166,685.428 405.254166,685.582 405.254166,685.758 C405.254166,686.022 405.364166,686.22 405.584166,686.352 C405.782166,686.484 406.024166,686.572 406.288166,686.572 C406.596166,686.572 406.838166,686.44 407.014166,686.176 C407.190166,685.934 407.278166,685.648 407.278166,685.318 C407.278166,685.252 407.256166,685.076 407.212166,684.79 C407.168166,684.526 407.146166,684.306 407.146166,684.13 C407.146166,683.822 407.234166,683.096 407.432166,681.952 C407.652166,680.698 407.828166,679.84 408.004166,679.378 C408.092166,679.07 408.158166,678.85 408.158166,678.696 Z M93.328,716.176 C93.262,715.604 93.196,715.142 93.152,714.746 C93.02,713.712 92.954,712.744 92.954,711.82 C92.954,711.688 92.954,711.336 92.998,710.786 C93.042,710.236 93.086,709.928 93.086,709.862 C93.086,709.51 92.954,709.18 92.734,708.872 C92.514,708.608 92.25,708.454 91.92,708.454 C91.524,708.454 90.666,708.96 89.39,709.972 C88.158,710.918 87.322,711.688 86.838,712.282 C87.08,710.258 87.256,708.96 87.366,708.388 L88.026,704.934 C88.246,703.658 88.444,702.712 88.576,702.074 C88.686,701.458 88.752,701.106 88.752,700.996 C88.752,700.688 88.642,700.38 88.422,700.072 C88.224,699.764 87.982,699.61 87.696,699.61 C87.344,699.61 87.102,699.984 86.97,700.71 L85.694,707.728 C85.298,709.752 85.122,711.82 85.122,713.932 C85.122,714.064 85.122,714.306 85.144,714.636 L85.144,715.23 C85.144,715.538 85.254,715.846 85.474,716.132 C85.716,716.396 86.002,716.528 86.332,716.528 C86.508,716.528 86.706,716.286 86.97,715.802 C87.146,715.472 87.3,715.12 87.454,714.768 C88.026,713.734 89.302,712.48 91.282,711.006 L91.392,713.668 C91.48,715.78 91.964,716.814 92.888,716.814 C93.152,716.814 93.284,716.594 93.328,716.176 Z M103.825338,715.604 C103.825338,716.308 103.077338,716.682 101.603338,716.682 C99.931338,716.682 98.699338,715.934 97.907338,714.416 L97.247338,714.416 C96.675338,714.416 96.125338,714.306 95.553338,714.064 C94.805338,713.756 94.453338,713.36 94.453338,712.876 C94.453338,712.26 94.739338,711.952 95.311338,711.952 C95.443338,711.952 95.663338,712.062 95.971338,712.282 C96.279338,712.502 96.565338,712.612 96.873338,712.612 L97.379338,712.612 C97.313338,712.238 97.291338,711.93 97.291338,711.71 C97.291338,710.654 97.555338,709.664 98.083338,708.74 C98.699338,707.662 99.469338,707.112 100.415338,707.112 C100.965338,707.112 101.493338,707.376 102.021338,707.904 C102.549338,708.432 102.813338,709.026 102.813338,709.642 C102.813338,711.27 101.713338,712.678 99.513338,713.866 C100.041338,714.504 100.613338,714.812 101.273338,714.812 C101.449338,714.812 101.735338,714.79 102.109338,714.746 C102.483338,714.702 102.769338,714.658 102.945338,714.658 C103.165338,714.658 103.385338,714.768 103.561338,714.944 C103.737338,715.164 103.825338,715.384 103.825338,715.604 Z M101.075338,709.73 C101.075338,709.554 100.987338,709.4 100.855338,709.224 C100.679338,709.092 100.503338,709.004 100.327338,709.004 C99.931338,709.004 99.623338,709.334 99.403338,709.994 C99.183338,710.544 99.095338,711.116 99.095338,711.71 L99.095338,712.106 C100.415338,711.248 101.075338,710.456 101.075338,709.73 Z M109.284676,701.128 C109.284676,700.864 109.086676,700.556 108.734676,700.16 C108.382676,699.808 108.074676,699.61 107.810676,699.61 C107.524676,699.61 107.260676,700.028 107.018676,700.82 C106.160676,703.548 105.742676,706.364 105.742676,709.268 C105.742676,710.016 105.786676,711.05 105.874676,712.37 C105.720676,712.634 105.654676,713.118 105.654676,713.8 C105.654676,714.548 105.808676,715.23 106.138676,715.868 C106.446676,716.506 106.820676,716.836 107.260676,716.836 C107.370676,716.836 107.502676,716.77 107.656676,716.638 C107.788676,716.528 107.876676,716.418 107.876676,716.308 C107.876676,716.242 107.854676,716.11 107.832676,715.934 C107.788676,715.736 107.788676,715.604 107.788676,715.516 C107.568676,712.832 107.458676,710.94 107.458676,709.884 C107.458676,707.354 107.788676,704.824 108.448676,702.294 L108.602676,702.074 C109.042676,701.854 109.284676,701.546 109.284676,701.128 Z M118.330014,708.388 C118.330014,710.808 116.570014,712.656 113.072014,713.932 C113.138014,714.812 113.182014,715.714 113.182014,716.638 C113.182014,717.65 113.072014,718.684 112.852014,719.696 C112.654014,720.598 112.324014,721.06 111.862014,721.06 C111.620014,721.06 111.400014,720.95 111.224014,720.774 C111.048014,720.576 110.960014,720.356 110.960014,720.114 C110.960014,720.048 111.026014,719.718 111.180014,719.124 C111.312014,718.508 111.400014,717.518 111.400014,716.11 C111.400014,715.406 111.378014,714.878 111.334014,714.526 C110.718014,714.482 110.432014,714.174 110.432014,713.602 C110.432014,713.14 110.718014,712.81 111.334014,712.59 C111.312014,712.48 111.312014,712.304 111.312014,712.084 C111.312014,710.368 111.576014,708.828 112.104014,707.486 C112.874014,705.55 113.952014,704.582 115.338014,704.582 C116.306014,704.582 117.076014,704.978 117.604014,705.748 C118.088014,706.452 118.330014,707.332 118.330014,708.388 Z M116.570014,708.014 C116.570014,707.596 116.460014,707.222 116.262014,706.914 C116.020014,706.606 115.712014,706.43 115.338014,706.43 C114.722014,706.43 114.172014,707.09 113.710014,708.388 C113.292014,709.576 113.094014,710.786 113.094014,711.974 C115.404014,711.138 116.570014,709.818 116.570014,708.014 Z M142.20669,715.076 C142.20669,715.01 142.09669,714.79 141.87669,714.438 C141.34869,713.646 141.04069,712.106 140.95269,709.862 C140.93069,709.334 140.68869,709.07 140.20469,709.07 C139.08269,709.07 137.49869,710.478 135.43069,713.25 C135.18869,712.59 135.07869,711.402 135.07869,709.73 C135.07869,709.158 135.03469,708.762 134.96869,708.586 C134.85869,708.322 134.61669,708.168 134.26469,708.168 C133.69269,708.168 132.13069,709.4 129.53469,711.842 C129.95269,709.95 130.17269,708.74 130.17269,708.168 C130.17269,706.804 129.84269,706.1 129.20469,706.1 C128.91869,706.1 128.65469,706.21 128.41269,706.43 C128.14869,706.65 127.99469,706.936 127.97269,707.288 C128.19269,707.728 128.30269,708.168 128.30269,708.586 C128.30269,709.07 128.12669,710.06 127.79669,711.6 C127.44469,713.184 127.29069,714.284 127.29069,714.944 C127.29069,716.176 127.62069,716.792 128.30269,716.792 C128.76469,716.792 129.09469,716.484 129.27069,715.868 C129.84269,713.888 131.14069,712.216 133.14269,710.852 C133.27469,712.678 133.58269,714.086 134.11069,715.054 C134.37469,715.582 134.72669,715.846 135.12269,715.846 C135.51869,715.846 135.93669,715.516 136.37669,714.834 C137.30069,713.47 138.20269,712.37 139.10469,711.556 C139.45669,714.592 140.09469,716.11 141.01869,716.11 C141.81069,716.11 142.20669,715.78 142.20669,715.076 Z M152.264028,715.604 C152.264028,716.308 151.516028,716.682 150.042028,716.682 C148.370028,716.682 147.138028,715.934 146.346028,714.416 L145.686028,714.416 C145.114028,714.416 144.564028,714.306 143.992028,714.064 C143.244028,713.756 142.892028,713.36 142.892028,712.876 C142.892028,712.26 143.178028,711.952 143.750028,711.952 C143.882028,711.952 144.102028,712.062 144.410028,712.282 C144.718028,712.502 145.004028,712.612 145.312028,712.612 L145.818028,712.612 C145.752028,712.238 145.730028,711.93 145.730028,711.71 C145.730028,710.654 145.994028,709.664 146.522028,708.74 C147.138028,707.662 147.908028,707.112 148.854028,707.112 C149.404028,707.112 149.932028,707.376 150.460028,707.904 C150.988028,708.432 151.252028,709.026 151.252028,709.642 C151.252028,711.27 150.152028,712.678 147.952028,713.866 C148.480028,714.504 149.052028,714.812 149.712028,714.812 C149.888028,714.812 150.174028,714.79 150.548028,714.746 C150.922028,714.702 151.208028,714.658 151.384028,714.658 C151.604028,714.658 151.824028,714.768 152.000028,714.944 C152.176028,715.164 152.264028,715.384 152.264028,715.604 Z M149.514028,709.73 C149.514028,709.554 149.426028,709.4 149.294028,709.224 C149.118028,709.092 148.942028,709.004 148.766028,709.004 C148.370028,709.004 148.062028,709.334 147.842028,709.994 C147.622028,710.544 147.534028,711.116 147.534028,711.71 L147.534028,712.106 C148.854028,711.248 149.514028,710.456 149.514028,709.73 Z M169.518704,710.874 C169.518704,712.238 168.572704,713.602 166.724704,714.988 C164.986704,716.286 163.446704,716.946 162.126704,716.946 C161.312704,716.946 160.828704,716.594 160.674704,715.89 C160.718704,715.494 160.916704,715.208 161.268704,714.988 C161.180704,714.196 161.158704,713.338 161.158704,712.392 C161.158704,711.006 161.246704,709.334 161.422704,707.398 C161.686704,704.89 162.038704,702.844 162.478704,701.26 C162.764704,700.16 163.116704,699.61 163.556704,699.61 C164.172704,699.61 164.502704,700.006 164.502704,700.798 C164.502704,701.37 164.348704,702.25 164.040704,703.438 C163.974704,703.658 163.798704,703.856 163.534704,704.01 C163.270704,705.946 163.072704,708.256 162.896704,710.94 C164.348704,709.18 165.734704,708.278 167.032704,708.278 C167.714704,708.278 168.308704,708.542 168.792704,709.048 C169.276704,709.532 169.518704,710.148 169.518704,710.874 Z M167.802704,710.918 C167.802704,710.456 167.494704,710.214 166.922704,710.214 C166.570704,710.214 166.064704,710.5 165.426704,711.05 C164.766704,711.6 164.194704,712.194 163.754704,712.854 C163.248704,713.558 163.006704,714.064 163.006704,714.35 L163.006704,714.922 C163.600704,714.746 164.128704,714.526 164.590704,714.218 C166.724704,712.964 167.802704,711.864 167.802704,710.918 Z M180.324042,708.696 C180.324042,708.85 180.258042,709.07 180.170042,709.378 C179.994042,709.84 179.818042,710.698 179.598042,711.952 C179.400042,713.096 179.312042,713.822 179.312042,714.13 C179.312042,714.306 179.334042,714.526 179.378042,714.79 C179.422042,715.076 179.444042,715.252 179.444042,715.318 C179.444042,715.648 179.356042,715.934 179.180042,716.176 C179.004042,716.44 178.762042,716.572 178.454042,716.572 C178.190042,716.572 177.948042,716.484 177.750042,716.352 C177.530042,716.22 177.420042,716.022 177.420042,715.758 C177.420042,715.582 177.464042,715.428 177.574042,715.252 C177.574042,714.878 177.662042,713.976 177.838042,712.524 C175.682042,715.01 174.032042,716.242 172.866042,716.242 C172.338042,716.242 171.920042,716.11 171.590042,715.846 C171.238042,715.56 171.062042,715.164 171.062042,714.636 C171.062042,714.196 171.194042,713.316 171.502042,711.974 C171.810042,710.412 171.986042,709.466 171.986042,709.114 L171.986042,708.872 C171.964042,708.784 171.964042,708.696 171.964042,708.63 C171.964042,708.41 172.052042,708.19 172.228042,707.97 C172.382042,707.75 172.558042,707.64 172.778042,707.64 C173.372042,707.64 173.680042,708.124 173.680042,709.048 C173.680042,709.444 173.548042,710.302 173.284042,711.578 C172.998042,712.898 172.866042,713.712 172.866042,714.064 C172.866042,714.24 172.954042,714.328 173.130042,714.328 C174.164042,714.328 176.056042,712.304 178.828042,708.234 C179.048042,707.926 179.268042,707.772 179.532042,707.772 C180.060042,707.772 180.324042,708.08 180.324042,708.696 Z M189.65538,712.392 C189.65538,715.626 188.81938,717.914 187.16938,719.322 C185.80538,720.466 184.06738,721.06 181.91138,721.06 C180.54738,721.06 179.86538,720.642 179.86538,719.85 C179.86538,719.278 180.15138,718.992 180.70138,718.97 C180.96538,718.992 181.36138,719.036 181.88938,719.102 C185.25538,719.058 187.19138,717.584 187.71938,714.658 C187.82938,713.976 187.89538,713.272 187.89538,712.524 C186.72938,714.152 185.58538,714.966 184.46338,714.966 C183.75938,714.966 183.23138,714.746 182.83538,714.262 C182.41738,713.8 182.21938,713.206 182.21938,712.48 C182.21938,712.04 182.26338,711.336 182.37338,710.412 C182.48338,709.488 182.54938,708.828 182.54938,708.388 C182.54938,708.256 182.50538,708.08 182.43938,707.816 C182.35138,707.552 182.32938,707.376 182.32938,707.244 C182.32938,706.694 182.63738,706.408 183.29738,706.408 C183.64938,706.408 183.93538,706.65 184.13338,707.134 C184.30938,707.53 184.39738,708.014 184.39738,708.542 C184.39738,708.74 184.30938,709.356 184.17738,710.368 C184.04538,711.38 183.97938,712.062 183.97938,712.414 C183.97938,712.81 184.13338,713.008 184.48538,713.008 C184.96938,713.008 185.47538,712.678 186.00338,712.018 C186.39938,711.534 186.92738,710.676 187.60938,709.466 C187.93938,708.894 188.26938,708.586 188.62138,708.586 C189.30338,708.586 189.65538,709.378 189.65538,710.918 L189.65538,712.392 Z M213.598055,715.076 C213.598055,715.78 213.202055,716.11 212.410055,716.11 C211.486055,716.11 210.848055,714.592 210.496055,711.556 C209.594055,712.37 208.692055,713.47 207.768055,714.834 C207.328055,715.516 206.910055,715.846 206.514055,715.846 C206.118055,715.846 205.766055,715.582 205.502055,715.054 C204.974055,714.086 204.666055,712.678 204.534055,710.852 C202.532055,712.216 201.234055,713.888 200.662055,715.868 C200.486055,716.484 200.156055,716.792 199.694055,716.792 C199.012055,716.792 198.682055,716.176 198.682055,714.944 C198.682055,714.284 198.836055,713.184 199.188055,711.6 C199.518055,710.06 199.694055,709.07 199.694055,708.586 C199.694055,708.168 199.584055,707.728 199.364055,707.288 C199.386055,706.936 199.540055,706.65 199.804055,706.43 C200.046055,706.21 200.310055,706.1 200.596055,706.1 C201.234055,706.1 201.564055,706.804 201.564055,708.168 C201.564055,708.74 201.344055,709.95 200.926055,711.842 C203.522055,709.4 205.084055,708.168 205.656055,708.168 C206.008055,708.168 206.250055,708.322 206.360055,708.586 C206.426055,708.762 206.470055,709.158 206.470055,709.73 C206.470055,711.402 206.580055,712.59 206.822055,713.25 C208.890055,710.478 210.474055,709.07 211.596055,709.07 C212.080055,709.07 212.322055,709.334 212.344055,709.862 C212.432055,712.106 212.740055,713.646 213.268055,714.438 C213.488055,714.79 213.598055,715.01 213.598055,715.076 Z M222.929393,712.392 C222.929393,715.626 222.093393,717.914 220.443393,719.322 C219.079393,720.466 217.341393,721.06 215.185393,721.06 C213.821393,721.06 213.139393,720.642 213.139393,719.85 C213.139393,719.278 213.425393,718.992 213.975393,718.97 C214.239393,718.992 214.635393,719.036 215.163393,719.102 C218.529393,719.058 220.465393,717.584 220.993393,714.658 C221.103393,713.976 221.169393,713.272 221.169393,712.524 C220.003393,714.152 218.859393,714.966 217.737393,714.966 C217.033393,714.966 216.505393,714.746 216.109393,714.262 C215.691393,713.8 215.493393,713.206 215.493393,712.48 C215.493393,712.04 215.537393,711.336 215.647393,710.412 C215.757393,709.488 215.823393,708.828 215.823393,708.388 C215.823393,708.256 215.779393,708.08 215.713393,707.816 C215.625393,707.552 215.603393,707.376 215.603393,707.244 C215.603393,706.694 215.911393,706.408 216.571393,706.408 C216.923393,706.408 217.209393,706.65 217.407393,707.134 C217.583393,707.53 217.671393,708.014 217.671393,708.542 C217.671393,708.74 217.583393,709.356 217.451393,710.368 C217.319393,711.38 217.253393,712.062 217.253393,712.414 C217.253393,712.81 217.407393,713.008 217.759393,713.008 C218.243393,713.008 218.749393,712.678 219.277393,712.018 C219.673393,711.534 220.201393,710.676 220.883393,709.466 C221.213393,708.894 221.543393,708.586 221.895393,708.586 C222.577393,708.586 222.929393,709.378 222.929393,710.918 L222.929393,712.392 Z M240.756069,706.65 C240.756069,706.056 240.404069,705.748 239.722069,705.748 C239.612069,705.748 239.436069,705.858 239.194069,706.034 C238.050069,706.914 236.268069,707.64 233.892069,708.234 C234.024069,706.474 234.266069,704.604 234.596069,702.602 C234.794069,701.304 234.904069,700.578 234.904069,700.446 C234.904069,699.896 234.596069,699.61 234.024069,699.61 C233.540069,699.61 233.254069,699.874 233.166069,700.38 C233.056069,701.04 232.990069,701.568 232.946069,701.92 C232.814069,702.58 232.704069,703.13 232.638069,703.57 C232.462069,704.714 232.308069,706.276 232.132069,708.256 C231.956069,710.06 231.890069,711.204 231.890069,711.666 C231.890069,711.798 231.890069,712.062 231.912069,712.48 C231.934069,712.92 231.956069,713.184 231.956069,713.272 C231.956069,713.36 231.912069,713.47 231.846069,713.646 C231.758069,713.844 231.736069,713.998 231.736069,714.086 C231.736069,715.362 232.088069,716 232.814069,716 C233.078069,716 233.276069,715.912 233.452069,715.736 C233.628069,715.56 233.738069,715.34 233.738069,715.076 C233.738069,714.966 233.716069,714.724 233.694069,714.372 C233.672069,714.02 233.672069,713.734 233.672069,713.536 C233.672069,712.964 233.672069,712.282 233.716069,711.446 C235.344069,713.184 236.510069,714.416 237.258069,715.142 C238.050069,715.956 238.578069,716.352 238.820069,716.352 C239.480069,716.352 239.832069,716.022 239.832069,715.384 C239.832069,715.164 239.480069,714.724 238.776069,714.042 C236.752069,712.084 235.388069,710.72 234.706069,709.928 C235.850069,709.686 236.994069,709.312 238.182069,708.784 C239.898069,708.036 240.756069,707.332 240.756069,706.65 Z M250.175407,716.176 C250.109407,715.604 250.043407,715.142 249.999407,714.746 C249.867407,713.712 249.801407,712.744 249.801407,711.82 C249.801407,711.688 249.801407,711.336 249.845407,710.786 C249.889407,710.236 249.933407,709.928 249.933407,709.862 C249.933407,709.51 249.801407,709.18 249.581407,708.872 C249.361407,708.608 249.097407,708.454 248.767407,708.454 C248.371407,708.454 247.513407,708.96 246.237407,709.972 C245.005407,710.918 244.169407,711.688 243.685407,712.282 C243.927407,710.258 244.103407,708.96 244.213407,708.388 L244.873407,704.934 C245.093407,703.658 245.291407,702.712 245.423407,702.074 C245.533407,701.458 245.599407,701.106 245.599407,700.996 C245.599407,700.688 245.489407,700.38 245.269407,700.072 C245.071407,699.764 244.829407,699.61 244.543407,699.61 C244.191407,699.61 243.949407,699.984 243.817407,700.71 L242.541407,707.728 C242.145407,709.752 241.969407,711.82 241.969407,713.932 C241.969407,714.064 241.969407,714.306 241.991407,714.636 L241.991407,715.23 C241.991407,715.538 242.101407,715.846 242.321407,716.132 C242.563407,716.396 242.849407,716.528 243.179407,716.528 C243.355407,716.528 243.553407,716.286 243.817407,715.802 C243.993407,715.472 244.147407,715.12 244.301407,714.768 C244.873407,713.734 246.149407,712.48 248.129407,711.006 L248.239407,713.668 C248.327407,715.78 248.811407,716.814 249.735407,716.814 C249.999407,716.814 250.131407,716.594 250.175407,716.176 Z M259.924745,710.896 C259.924745,710.984 259.880745,711.138 259.792745,711.38 C259.484745,712.304 259.352745,713.184 259.352745,714.064 C259.352745,714.328 259.396745,714.724 259.506745,715.23 C259.594745,715.758 259.660745,716.022 259.660745,716.088 C259.660745,716.308 259.550745,716.528 259.374745,716.704 C259.176745,716.836 258.956745,716.924 258.736745,716.924 C258.098745,716.924 257.724745,716.066 257.614745,714.394 C256.382745,715.626 255.282745,716.242 254.292745,716.242 C253.654745,716.242 253.104745,715.978 252.642745,715.428 C252.158745,714.9 251.938745,714.306 251.938745,713.624 C251.938745,712.348 252.686745,710.984 254.204745,709.576 C255.656745,708.212 256.976745,707.508 258.186745,707.508 C258.472745,707.508 258.758745,707.64 259.044745,707.86 C259.308745,708.08 259.462745,708.344 259.462745,708.608 C259.462745,708.718 259.440745,708.828 259.418745,708.916 C259.550745,709.312 259.638745,709.752 259.638745,710.258 C259.814745,710.478 259.924745,710.698 259.924745,710.896 Z M257.922745,710.258 C257.922745,709.73 257.790745,709.444 257.526745,709.444 C257.108745,709.444 256.382745,709.95 255.370745,710.918 C254.248745,711.996 253.698745,712.876 253.698745,713.58 C253.698745,714.13 253.918745,714.394 254.380745,714.394 C255.040745,714.394 255.810745,713.91 256.646745,712.898 C257.482745,711.886 257.922745,711.006 257.922745,710.258 Z M276.824083,715.076 C276.824083,715.01 276.714083,714.79 276.494083,714.438 C275.966083,713.646 275.658083,712.106 275.570083,709.862 C275.548083,709.334 275.306083,709.07 274.822083,709.07 C273.700083,709.07 272.116083,710.478 270.048083,713.25 C269.806083,712.59 269.696083,711.402 269.696083,709.73 C269.696083,709.158 269.652083,708.762 269.586083,708.586 C269.476083,708.322 269.234083,708.168 268.882083,708.168 C268.310083,708.168 266.748083,709.4 264.152083,711.842 C264.570083,709.95 264.790083,708.74 264.790083,708.168 C264.790083,706.804 264.460083,706.1 263.822083,706.1 C263.536083,706.1 263.272083,706.21 263.030083,706.43 C262.766083,706.65 262.612083,706.936 262.590083,707.288 C262.810083,707.728 262.920083,708.168 262.920083,708.586 C262.920083,709.07 262.744083,710.06 262.414083,711.6 C262.062083,713.184 261.908083,714.284 261.908083,714.944 C261.908083,716.176 262.238083,716.792 262.920083,716.792 C263.382083,716.792 263.712083,716.484 263.888083,715.868 C264.460083,713.888 265.758083,712.216 267.760083,710.852 C267.892083,712.678 268.200083,714.086 268.728083,715.054 C268.992083,715.582 269.344083,715.846 269.740083,715.846 C270.136083,715.846 270.554083,715.516 270.994083,714.834 C271.918083,713.47 272.820083,712.37 273.722083,711.556 C274.074083,714.592 274.712083,716.11 275.636083,716.11 C276.428083,716.11 276.824083,715.78 276.824083,715.076 Z M287.211421,710.874 C287.211421,712.238 286.265421,713.602 284.417421,714.988 C282.679421,716.286 281.139421,716.946 279.819421,716.946 C279.005421,716.946 278.521421,716.594 278.367421,715.89 C278.411421,715.494 278.609421,715.208 278.961421,714.988 C278.873421,714.196 278.851421,713.338 278.851421,712.392 C278.851421,711.006 278.939421,709.334 279.115421,707.398 C279.379421,704.89 279.731421,702.844 280.171421,701.26 C280.457421,700.16 280.809421,699.61 281.249421,699.61 C281.865421,699.61 282.195421,700.006 282.195421,700.798 C282.195421,701.37 282.041421,702.25 281.733421,703.438 C281.667421,703.658 281.491421,703.856 281.227421,704.01 C280.963421,705.946 280.765421,708.256 280.589421,710.94 C282.041421,709.18 283.427421,708.278 284.725421,708.278 C285.407421,708.278 286.001421,708.542 286.485421,709.048 C286.969421,709.532 287.211421,710.148 287.211421,710.874 Z M285.495421,710.918 C285.495421,710.456 285.187421,710.214 284.615421,710.214 C284.263421,710.214 283.757421,710.5 283.119421,711.05 C282.459421,711.6 281.887421,712.194 281.447421,712.854 C280.941421,713.558 280.699421,714.064 280.699421,714.35 L280.699421,714.922 C281.293421,714.746 281.821421,714.526 282.283421,714.218 C284.417421,712.964 285.495421,711.864 285.495421,710.918 Z M296.740759,710.896 C296.740759,710.984 296.696759,711.138 296.608759,711.38 C296.300759,712.304 296.168759,713.184 296.168759,714.064 C296.168759,714.328 296.212759,714.724 296.322759,715.23 C296.410759,715.758 296.476759,716.022 296.476759,716.088 C296.476759,716.308 296.366759,716.528 296.190759,716.704 C295.992759,716.836 295.772759,716.924 295.552759,716.924 C294.914759,716.924 294.540759,716.066 294.430759,714.394 C293.198759,715.626 292.098759,716.242 291.108759,716.242 C290.470759,716.242 289.920759,715.978 289.458759,715.428 C288.974759,714.9 288.754759,714.306 288.754759,713.624 C288.754759,712.348 289.502759,710.984 291.020759,709.576 C292.472759,708.212 293.792759,707.508 295.002759,707.508 C295.288759,707.508 295.574759,707.64 295.860759,707.86 C296.124759,708.08 296.278759,708.344 296.278759,708.608 C296.278759,708.718 296.256759,708.828 296.234759,708.916 C296.366759,709.312 296.454759,709.752 296.454759,710.258 C296.630759,710.478 296.740759,710.698 296.740759,710.896 Z M294.738759,710.258 C294.738759,709.73 294.606759,709.444 294.342759,709.444 C293.924759,709.444 293.198759,709.95 292.186759,710.918 C291.064759,711.996 290.514759,712.876 290.514759,713.58 C290.514759,714.13 290.734759,714.394 291.196759,714.394 C291.856759,714.394 292.626759,713.91 293.462759,712.898 C294.298759,711.886 294.738759,711.006 294.738759,710.258 Z M310.673435,701.788 C310.673435,701.568 310.585435,701.348 310.431435,701.15 C310.277435,700.952 310.079435,700.842 309.859435,700.842 C309.595435,700.842 309.353435,700.952 309.111435,701.15 C308.847435,701.37 308.671435,701.634 308.605435,701.898 C308.473435,702.338 308.429435,702.646 308.429435,702.8 C308.429435,702.932 308.451435,703.042 308.495435,703.174 C308.231435,704.12 308.033435,705.572 307.879435,707.508 C307.769435,709.048 307.703435,710.148 307.681435,710.764 C307.637435,711.292 307.637435,711.622 307.637435,711.754 C307.637435,711.996 307.703435,712.194 307.879435,712.37 C308.033435,712.546 308.231435,712.634 308.495435,712.634 C309.045435,712.634 309.331435,712.26 309.375435,711.468 C309.507435,707.882 309.859435,704.934 310.431435,702.624 C310.519435,702.272 310.607435,701.986 310.673435,701.788 Z M309.485435,716.132 C309.485435,715.45 309.287435,714.988 308.913435,714.768 C308.693435,714.636 308.539435,714.57 308.407435,714.57 C308.099435,714.57 307.813435,714.68 307.593435,714.9 C307.351435,715.12 307.241435,715.362 307.241435,715.67 C307.241435,716.154 307.395435,716.506 307.703435,716.704 C307.945435,717.012 308.209435,717.188 308.517435,717.188 C309.155435,717.188 309.485435,716.836 309.485435,716.132 Z" id="Bhurjiman.-I-shall-g"></path>
        </g>
    </g>
</svg>