<?xml version="1.0" encoding="UTF-8"?>
<svg width="245px" height="188px" viewBox="0 0 245 188" version="1.1" xmlns="http://www.w3.org/2000/svg" xmlns:xlink="http://www.w3.org/1999/xlink">
    <!-- Generator: Sketch 42 (36781) - http://www.bohemiancoding.com/sketch -->
    <title>Group 3</title>
    <desc>Created with Sketch.</desc>
    <defs>
        <polygon id="path-1" points="135.495254 0 270.990268 0 270.990268 207.699223 135.495254 207.699223 0.000239623459 207.699223 0.000239623459 0 135.495254 0"></polygon>
    </defs>
    <g id="Page-1" stroke="none" stroke-width="1" fill="none" fill-rule="evenodd">
        <g id="landing" transform="translate(-700.000000, -509.000000)">
            <g id="Group-3" transform="translate(687.000000, 499.000000)">
                <g id="Page-1">
                    <mask id="mask-2" fill="white">
                        <use xlink:href="#path-1"></use>
                    </mask>
                    <g id="Clip-2"></g>
                    <path d="M254.627413,42.9556241 C252.942946,31.9146732 250.75833,24.6523965 248.130184,21.3682037 C245.450136,18.0186639 233.530797,15.2848681 212.697737,13.2442897 C193.599699,11.3734787 169.363328,10.3434211 144.456272,10.3434211 C118.037307,10.3434211 93.096548,11.5371831 73.5388029,13.7178871 C71.9540964,13.8957388 70.3977003,14.0769589 68.8851178,14.2682841 C44.6130225,17.311973 30.0689086,21.8835694 25.6551875,27.8517056 C17.7512027,38.5389743 13.2114332,62.0248266 13.5093661,90.6744405 C13.6374368,102.791259 14.6828982,114.660164 16.4576886,124.094387 C18.8714844,136.934738 21.9431592,141.849912 24.0954211,143.711965 C25.7266375,145.123326 29.0800679,145.781512 34.6491215,145.781512 C40.6131721,145.781512 47.9651048,144.996 52.8277473,144.475245 C55.395228,144.201731 57.4214414,143.984132 58.2330052,143.984132 C62.1310731,144.43954 69.4311035,150.473023 72.8168885,160.205013 C73.0945998,161.001303 73.3332157,161.788162 73.5388029,162.568284 C74.9826316,168.029139 74.7264902,173.060859 73.5388029,177.532077 C71.4836051,185.274688 66.6351177,191.33175 62.9763398,195.014088 C62.5065225,195.488359 62.4438353,196.230755 62.8300696,196.775763 C63.0949737,197.148982 63.5182811,197.355802 63.9523734,197.355802 C64.605534,197.192098 68.2926223,195.43177 73.5388029,192.260082 C77.8156905,189.67517 83.1279286,186.153841 88.3700649,181.85778 C95.260943,176.211663 100.693837,170.348621 104.517759,164.431011 C109.168074,157.238124 111.44908,149.94351 111.30281,142.732433 C114.935974,142.016311 131.2569,141.805449 147.074307,141.602671 C199.745745,140.924948 243.87891,139.767565 250.453656,132.435899 C253.102023,129.480463 255.054091,122.452627 256.253237,111.548433 C257.296676,102.078505 257.70111,89.9455181 257.396436,77.38407 C257.095133,64.9075058 256.110337,52.6822243 254.627413,42.9556241 Z" id="Fill-1" fill="#3C4651" mask="url(#mask-2)"></path>
                </g>
                <path d="M78.9399999,48.986 C78.9399999,48.842 78.8859999,48.68 78.7779999,48.5 C78.6699999,48.356 78.5259999,48.266 78.3819999,48.248 C78.0399999,48.248 77.5539999,48.338 76.9419999,48.482 C75.2139999,48.914 72.3519999,49.58 68.3559999,50.516 C67.9599999,50.624 67.7619999,50.876 67.7619999,51.308 C67.7619999,51.776 67.9599999,52.01 68.3739999,52.01 C69.1839999,51.92 70.6239999,51.596 72.7119999,51.02 C72.4959999,53.81 72.4059999,55.736 72.4059999,56.816 C72.4059999,58.976 72.4779999,60.812 72.6579999,62.324 C72.6939999,62.756 72.9459999,62.99 73.3959999,62.99 C73.8999999,62.99 74.1519999,62.63 74.1519999,61.928 L74.1519999,60.722 C74.1519999,60.434 74.0619999,60.218 73.9179999,60.074 C73.8639999,59.318 73.8459999,58.508 73.8459999,57.662 C73.8459999,55.754 73.9539999,53.432 74.2059999,50.714 C75.2139999,50.39 75.8979999,50.21 76.2579999,50.138 C76.4019999,50.264 76.6179999,50.336 76.8699999,50.354 L78.4359999,49.742 C78.7599999,49.616 78.9399999,49.364 78.9399999,48.986 Z M85.5819999,57.824 C85.5819999,57.896 85.5459999,58.022 85.4739999,58.22 C85.2219999,58.976 85.1139999,59.696 85.1139999,60.416 C85.1139999,60.632 85.1499999,60.956 85.2399999,61.37 C85.3119999,61.802 85.3659999,62.018 85.3659999,62.072 C85.3659999,62.252 85.2759999,62.432 85.1319999,62.576 C84.9699999,62.684 84.7899999,62.756 84.6099999,62.756 C84.0879999,62.756 83.7819999,62.054 83.6919999,60.686 C82.6839999,61.694 81.7839999,62.198 80.9739999,62.198 C80.4519999,62.198 80.0019999,61.982 79.6239999,61.532 C79.2279999,61.1 79.0479999,60.614 79.0479999,60.056 C79.0479999,59.012 79.6599999,57.896 80.9019999,56.744 C82.0899999,55.628 83.1699999,55.052 84.1599999,55.052 C84.3939999,55.052 84.6279999,55.16 84.8619999,55.34 C85.0779999,55.52 85.2039999,55.736 85.2039999,55.952 C85.2039999,56.042 85.1859999,56.132 85.1679999,56.204 C85.2759999,56.528 85.3479999,56.888 85.3479999,57.302 C85.4919999,57.482 85.5819999,57.662 85.5819999,57.824 Z M83.9439999,57.302 C83.9439999,56.87 83.8359999,56.636 83.6199999,56.636 C83.2779999,56.636 82.6839999,57.05 81.8559999,57.842 C80.9379999,58.724 80.4879999,59.444 80.4879999,60.02 C80.4879999,60.47 80.6679999,60.686 81.0459999,60.686 C81.5859999,60.686 82.2159999,60.29 82.8999999,59.462 C83.5839999,58.634 83.9439999,57.914 83.9439999,57.302 Z M94.3479999,54.35 C94.3479999,53.864 94.0599999,53.612 93.5019999,53.612 C93.4119999,53.612 93.2679999,53.702 93.0699999,53.846 C92.1339999,54.566 90.6759999,55.16 88.7319999,55.646 C88.8399999,54.206 89.0379999,52.676 89.3079999,51.038 C89.4699999,49.976 89.5599999,49.382 89.5599999,49.274 C89.5599999,48.824 89.3079999,48.59 88.8399999,48.59 C88.4439999,48.59 88.2099999,48.806 88.1379999,49.22 C88.0479999,49.76 87.9939999,50.192 87.9579999,50.48 C87.8499999,51.02 87.7599999,51.47 87.7059999,51.83 C87.5619999,52.766 87.4359999,54.044 87.2919999,55.664 C87.1479999,57.14 87.0939999,58.076 87.0939999,58.454 C87.0939999,58.562 87.0939999,58.778 87.1119999,59.12 C87.1299999,59.48 87.1479999,59.696 87.1479999,59.768 C87.1479999,59.84 87.1119999,59.93 87.0579999,60.074 C86.9859999,60.236 86.9679999,60.362 86.9679999,60.434 C86.9679999,61.478 87.2559999,62 87.8499999,62 C88.0659999,62 88.2279999,61.928 88.3719999,61.784 C88.5159999,61.64 88.6059999,61.46 88.6059999,61.244 C88.6059999,61.154 88.5879999,60.956 88.5699999,60.668 C88.5519999,60.38 88.5519999,60.146 88.5519999,59.984 C88.5519999,59.516 88.5519999,58.958 88.5879999,58.274 C89.9199999,59.696 90.8739999,60.704 91.4859999,61.298 C92.1339999,61.964 92.5659999,62.288 92.7639999,62.288 C93.3039999,62.288 93.5919999,62.018 93.5919999,61.496 C93.5919999,61.316 93.3039999,60.956 92.7279999,60.398 C91.0719999,58.796 89.9559999,57.68 89.3979999,57.032 C90.3339999,56.834 91.2699999,56.528 92.2419999,56.096 C93.6459999,55.484 94.3479999,54.908 94.3479999,54.35 Z M98.7579999,49.292 C98.7579999,48.536 98.4519999,48.14 97.8399999,48.068 C97.3359999,48.248 97.0839999,48.518 97.0839999,48.896 C97.0839999,49.652 97.3359999,50.12 97.8579999,50.3 C98.0019999,50.354 98.1099999,50.372 98.1639999,50.372 C98.5599999,50.372 98.7579999,50.012 98.7579999,49.292 Z M97.9299999,56.258 C97.9299999,55.502 97.5339999,55.124 96.7419999,55.124 C96.4539999,55.268 96.3279999,55.466 96.3279999,55.7 C96.3279999,55.772 96.3459999,55.916 96.3819999,56.132 C95.8959999,58.166 95.6619999,59.534 95.6619999,60.236 C95.6619999,61.712 96.0579999,62.45 96.8859999,62.45 C96.9939999,62.45 97.1019999,62.396 97.2099999,62.288 C97.3179999,62.18 97.3899999,62.09 97.3899999,61.982 C97.3899999,61.658 97.2639999,61.388 97.0299999,61.172 C97.0659999,60.092 97.2639999,58.868 97.6239999,57.464 L97.9299999,56.258 Z M106.534,56.834 C106.534,56.564 106.408,56.348 106.192,56.168 C105.976,56.006 105.742,55.916 105.49,55.898 C104.032,56.708 102.664,57.896 101.386,59.444 C101.386,58.544 101.476,57.626 101.656,56.672 C101.746,56.24 101.836,55.844 101.926,55.484 C101.926,55.196 101.836,54.944 101.656,54.71 C101.476,54.512 101.242,54.404 100.972,54.404 C100.756,54.404 100.63,54.548 100.558,54.8 C100.162,56.258 99.9639999,57.68 99.9639999,59.084 C99.9639999,61.226 100.324,62.288 101.08,62.288 C101.26,62.288 101.44,62.126 101.62,61.838 C101.728,61.622 101.836,61.388 101.962,61.172 C102.574,60.164 103.618,59.102 105.112,57.968 L104.842,60.272 C104.77,60.938 104.734,61.28 104.734,61.298 C104.734,61.586 104.824,61.838 105.004,62.072 C105.184,62.288 105.4,62.396 105.67,62.396 C105.922,62.396 106.066,62.216 106.102,61.892 C106.39,59.354 106.534,57.662 106.534,56.834 Z M114.184,56.564 C114.184,56.798 114.022,57.194 113.734,57.77 C113.644,57.95 113.59,58.418 113.554,59.192 C113.392,62.864 111.826,65.132 108.874,65.996 C108.514,66.086 108.172,66.14 107.848,66.14 C107.344,66.14 107.092,65.87 107.092,65.348 C107.092,65.114 107.182,64.898 107.398,64.7 C107.614,64.484 107.848,64.394 108.064,64.394 C108.226,64.394 108.37,64.412 108.478,64.466 C110.602,64.106 111.79,62.72 112.042,60.344 C111.502,60.866 110.854,61.118 110.098,61.118 C109.45,61.118 108.928,60.92 108.568,60.506 C108.19,60.11 108.01,59.552 108.01,58.85 C108.01,57.662 108.406,56.582 109.216,55.61 C110.062,54.584 111.088,54.062 112.294,54.062 C112.798,54.062 113.23,54.26 113.554,54.638 C113.86,55.016 114.022,55.52 114.022,56.132 C114.13,56.276 114.184,56.42 114.184,56.564 Z M112.456,56.636 C112.42,56.078 112.204,55.79 111.826,55.79 C111.214,55.79 110.656,56.15 110.17,56.852 C109.72,57.5 109.504,58.148 109.504,58.778 C109.504,59.426 109.72,59.75 110.188,59.75 C110.764,59.75 111.268,59.462 111.682,58.868 C112.006,58.418 112.222,57.806 112.33,57.014 C112.33,56.942 112.384,56.816 112.456,56.636 Z M126.802,58.04 C126.802,59.264 126.496,60.272 125.92,61.1 C125.326,61.928 124.588,62.324 123.724,62.324 C122.968,62.324 122.338,62.018 121.834,61.442 C121.33,60.848 121.096,60.092 121.096,59.174 C121.096,58.4 121.258,57.662 121.618,56.978 C121.978,56.222 122.482,55.682 123.094,55.376 C123.238,55.322 123.436,55.214 123.688,55.07 C123.904,54.926 124.066,54.836 124.21,54.836 C124.246,54.836 124.39,54.872 124.642,54.944 C125.272,55.16 125.794,55.556 126.208,56.114 C126.604,56.69 126.802,57.338 126.802,58.04 Z M125.38,58.31 C125.38,57.554 125.2,57.05 124.858,56.834 C124.57,56.834 124.336,56.78 124.156,56.672 C123.652,56.672 123.238,56.978 122.914,57.554 C122.626,58.058 122.5,58.598 122.5,59.174 C122.5,59.606 122.608,59.984 122.842,60.308 C123.058,60.65 123.346,60.812 123.706,60.812 C124.138,60.812 124.516,60.542 124.876,60.002 C125.2,59.48 125.38,58.922 125.38,58.31 Z M134.884,55.826 C134.884,55.574 134.776,55.34 134.578,55.124 C134.362,54.908 134.146,54.8 133.912,54.8 C132.508,54.8 131.248,55.628 130.15,57.284 C130.042,56.528 129.916,55.988 129.772,55.664 C129.574,55.304 129.304,55.106 128.962,55.106 C128.818,55.106 128.692,55.196 128.602,55.34 C128.494,55.52 128.44,55.7 128.44,55.88 C128.44,56.672 128.602,57.302 128.926,57.752 C128.998,58.454 129.052,59.03 129.052,59.462 C129.052,59.948 128.998,60.38 128.908,60.776 C128.8,61.208 128.764,61.442 128.764,61.496 C128.764,61.802 128.836,62.054 129.016,62.288 C129.196,62.504 129.412,62.63 129.628,62.63 C129.844,62.63 130.024,62.468 130.132,62.144 C130.186,61.964 130.258,61.586 130.348,61.01 C130.672,58.814 131.572,57.356 133.03,56.636 C133.246,56.708 133.354,56.744 133.372,56.744 C133.66,56.744 133.984,56.654 134.344,56.438 C134.704,56.258 134.884,56.042 134.884,55.826 Z M141.796,49.292 C141.796,49.418 141.742,49.796 141.634,50.444 C141.454,51.452 141.346,52.226 141.346,52.748 C141.328,53.036 141.31,53.252 141.31,53.36 C141.256,53.576 141.166,53.756 141.022,53.882 C140.914,55.574 140.878,56.924 140.878,57.914 C140.878,59.786 140.986,61.334 141.202,62.576 C141.274,63.08 141.328,63.368 141.328,63.44 C141.328,63.62 141.256,63.782 141.112,63.926 C140.95,64.07 140.788,64.142 140.626,64.142 C140.266,64.142 140.05,63.89 139.978,63.422 C139.906,63.026 139.78,62.036 139.6,60.452 C139.348,60.974 138.97,61.46 138.43,61.892 C137.854,62.36 137.314,62.594 136.846,62.594 C136.216,62.594 135.73,62.396 135.388,62 C135.046,61.622 134.884,61.1 134.884,60.434 C134.884,59.552 135.316,58.508 136.18,57.32 C137.026,56.15 137.818,55.556 138.574,55.556 C138.844,55.556 139.168,55.736 139.546,56.06 C139.762,53.036 140.068,50.714 140.464,49.13 C140.536,48.77 140.77,48.59 141.148,48.59 C141.58,48.59 141.796,48.824 141.796,49.292 Z M139.132,58.112 C138.916,57.968 138.754,57.644 138.628,57.14 C138.556,57.14 138.502,57.122 138.502,57.122 C138.214,57.122 137.674,57.662 136.9,58.706 C136.432,59.336 136.216,59.894 136.216,60.38 C136.216,60.83 136.378,61.046 136.702,61.046 C137.062,61.046 137.458,60.848 137.872,60.416 C138.196,60.074 138.484,59.678 138.7,59.228 C138.808,58.976 138.952,58.598 139.132,58.112 Z M150.148,61.676 C150.148,62.252 149.536,62.558 148.33,62.558 C146.962,62.558 145.954,61.946 145.306,60.704 L144.766,60.704 C144.298,60.704 143.848,60.614 143.38,60.416 C142.768,60.164 142.48,59.84 142.48,59.444 C142.48,58.94 142.714,58.688 143.182,58.688 C143.29,58.688 143.47,58.778 143.722,58.958 C143.974,59.138 144.208,59.228 144.46,59.228 L144.874,59.228 C144.82,58.922 144.802,58.67 144.802,58.49 C144.802,57.626 145.018,56.816 145.45,56.06 C145.954,55.178 146.584,54.728 147.358,54.728 C147.808,54.728 148.24,54.944 148.672,55.376 C149.104,55.808 149.32,56.294 149.32,56.798 C149.32,58.13 148.42,59.282 146.62,60.254 C147.052,60.776 147.52,61.028 148.06,61.028 C148.204,61.028 148.438,61.01 148.744,60.974 C149.05,60.938 149.284,60.902 149.428,60.902 C149.608,60.902 149.788,60.992 149.932,61.136 C150.076,61.316 150.148,61.496 150.148,61.676 Z M147.898,56.87 C147.898,56.726 147.826,56.6 147.718,56.456 C147.574,56.348 147.43,56.276 147.286,56.276 C146.962,56.276 146.71,56.546 146.53,57.086 C146.35,57.536 146.278,58.004 146.278,58.49 L146.278,58.814 C147.358,58.112 147.898,57.464 147.898,56.87 Z M157.708,55.826 C157.708,56.042 157.528,56.258 157.168,56.438 C156.808,56.654 156.484,56.744 156.196,56.744 C156.178,56.744 156.07,56.708 155.854,56.636 C154.396,57.356 153.496,58.814 153.172,61.01 C153.082,61.586 153.01,61.964 152.956,62.144 C152.848,62.468 152.668,62.63 152.452,62.63 C152.236,62.63 152.02,62.504 151.84,62.288 C151.66,62.054 151.588,61.802 151.588,61.496 C151.588,61.442 151.624,61.208 151.732,60.776 C151.822,60.38 151.876,59.948 151.876,59.462 C151.876,59.03 151.822,58.454 151.75,57.752 C151.426,57.302 151.264,56.672 151.264,55.88 C151.264,55.7 151.318,55.52 151.426,55.34 C151.516,55.196 151.642,55.106 151.786,55.106 C152.128,55.106 152.398,55.304 152.596,55.664 C152.74,55.988 152.866,56.528 152.974,57.284 C154.072,55.628 155.332,54.8 156.736,54.8 C156.97,54.8 157.186,54.908 157.402,55.124 C157.6,55.34 157.708,55.574 157.708,55.826 Z M163.09,55.466 C163.09,55.682 163.018,55.844 162.892,55.952 C162.748,56.096 162.586,56.15 162.406,56.15 C162.316,56.15 162.154,56.15 161.938,56.114 C161.722,56.114 161.56,56.096 161.452,56.096 C160.984,56.096 160.75,56.276 160.75,56.618 C160.75,56.834 160.966,57.5 161.416,58.616 C161.848,59.75 162.082,60.596 162.082,61.136 C162.082,61.658 161.866,62.072 161.452,62.414 C160.984,62.756 160.354,62.936 159.562,62.936 C158.266,62.936 157.636,62.666 157.636,62.162 C157.636,61.964 157.69,61.766 157.834,61.586 C157.942,61.406 158.086,61.298 158.248,61.298 C158.284,61.298 158.482,61.334 158.842,61.37 C159.202,61.424 159.508,61.442 159.724,61.442 C160.318,61.442 160.624,61.244 160.624,60.812 C160.624,60.56 160.39,59.876 159.958,58.796 C159.526,57.716 159.31,56.906 159.31,56.402 C159.31,55.574 159.724,54.998 160.57,54.692 C160.75,54.404 161.092,54.242 161.632,54.242 C162.46,54.242 162.91,54.512 162.982,55.052 C163.054,55.196 163.09,55.34 163.09,55.466 Z M177.994,49.166 C177.994,48.788 177.688,48.59 177.112,48.59 C176.824,48.59 176.428,48.716 175.906,48.968 C175.366,49.22 174.952,49.454 174.7,49.688 C172.972,51.218 171.91,53.774 171.496,57.356 C170.884,57.5 170.488,57.572 170.29,57.572 C169.894,57.572 169.714,57.824 169.714,58.31 C169.714,58.49 169.768,58.67 169.912,58.832 C170.056,59.012 170.2,59.084 170.362,59.084 C170.452,59.084 170.776,59.048 171.316,58.94 C170.956,62.18 170.524,63.998 170.056,64.394 C169.75,64.664 169.606,64.934 169.606,65.186 C169.606,65.438 169.678,65.672 169.858,65.87 C170.038,66.05 170.254,66.14 170.47,66.14 C170.722,66.14 171.01,65.87 171.298,65.33 C171.982,64.034 172.486,61.82 172.81,58.616 C174.718,58.184 175.906,57.914 176.41,57.824 C176.518,57.86 176.626,57.878 176.734,57.878 C177.022,57.878 177.274,57.788 177.49,57.608 C177.724,57.428 177.85,57.212 177.85,56.924 C177.85,56.438 177.598,56.186 177.094,56.186 C176.842,56.186 176.464,56.24 175.96,56.33 C175.294,56.456 174.304,56.672 172.972,56.996 C173.224,54.98 173.818,53.234 174.736,51.758 C175.276,50.894 176.158,50.336 177.4,50.084 C177.796,50.012 177.994,49.706 177.994,49.166 Z M184.744,55.826 C184.744,55.574 184.636,55.34 184.438,55.124 C184.222,54.908 184.006,54.8 183.772,54.8 C182.368,54.8 181.108,55.628 180.01,57.284 C179.902,56.528 179.776,55.988 179.632,55.664 C179.434,55.304 179.164,55.106 178.822,55.106 C178.678,55.106 178.552,55.196 178.462,55.34 C178.354,55.52 178.3,55.7 178.3,55.88 C178.3,56.672 178.462,57.302 178.786,57.752 C178.858,58.454 178.912,59.03 178.912,59.462 C178.912,59.948 178.858,60.38 178.768,60.776 C178.66,61.208 178.624,61.442 178.624,61.496 C178.624,61.802 178.696,62.054 178.876,62.288 C179.056,62.504 179.272,62.63 179.488,62.63 C179.704,62.63 179.884,62.468 179.992,62.144 C180.046,61.964 180.118,61.586 180.208,61.01 C180.532,58.814 181.432,57.356 182.89,56.636 C183.106,56.708 183.214,56.744 183.232,56.744 C183.52,56.744 183.844,56.654 184.204,56.438 C184.564,56.258 184.744,56.042 184.744,55.826 Z M190.702,58.04 C190.702,59.264 190.396,60.272 189.82,61.1 C189.226,61.928 188.488,62.324 187.624,62.324 C186.868,62.324 186.238,62.018 185.734,61.442 C185.23,60.848 184.996,60.092 184.996,59.174 C184.996,58.4 185.158,57.662 185.518,56.978 C185.878,56.222 186.382,55.682 186.994,55.376 C187.138,55.322 187.336,55.214 187.588,55.07 C187.804,54.926 187.966,54.836 188.11,54.836 C188.146,54.836 188.29,54.872 188.542,54.944 C189.172,55.16 189.694,55.556 190.108,56.114 C190.504,56.69 190.702,57.338 190.702,58.04 Z M189.28,58.31 C189.28,57.554 189.1,57.05 188.758,56.834 C188.47,56.834 188.236,56.78 188.056,56.672 C187.552,56.672 187.138,56.978 186.814,57.554 C186.526,58.058 186.4,58.598 186.4,59.174 C186.4,59.606 186.508,59.984 186.742,60.308 C186.958,60.65 187.246,60.812 187.606,60.812 C188.038,60.812 188.416,60.542 188.776,60.002 C189.1,59.48 189.28,58.922 189.28,58.31 Z M204.49,61.244 C204.49,61.19 204.4,61.01 204.22,60.722 C203.788,60.074 203.536,58.814 203.464,56.978 C203.446,56.546 203.248,56.33 202.852,56.33 C201.934,56.33 200.638,57.482 198.946,59.75 C198.748,59.21 198.658,58.238 198.658,56.87 C198.658,56.402 198.622,56.078 198.568,55.934 C198.478,55.718 198.28,55.592 197.992,55.592 C197.524,55.592 196.246,56.6 194.122,58.598 C194.464,57.05 194.644,56.06 194.644,55.592 C194.644,54.476 194.374,53.9 193.852,53.9 C193.618,53.9 193.402,53.99 193.204,54.17 C192.988,54.35 192.862,54.584 192.844,54.872 C193.024,55.232 193.114,55.592 193.114,55.934 C193.114,56.33 192.97,57.14 192.7,58.4 C192.412,59.696 192.286,60.596 192.286,61.136 C192.286,62.144 192.556,62.648 193.114,62.648 C193.492,62.648 193.762,62.396 193.906,61.892 C194.374,60.272 195.436,58.904 197.074,57.788 C197.182,59.282 197.434,60.434 197.866,61.226 C198.082,61.658 198.37,61.874 198.694,61.874 C199.018,61.874 199.36,61.604 199.72,61.046 C200.476,59.93 201.214,59.03 201.952,58.364 C202.24,60.848 202.762,62.09 203.518,62.09 C204.166,62.09 204.49,61.82 204.49,61.244 Z" id="Taking-orders-from" fill="#FAD720"></path>
                <path d="M58.34,97.2 C61.28,97.2 63.34,95.64 63.34,93.02 L63.34,92.98 C63.34,90.66 61.82,89.6 58.86,88.88 C56.16,88.24 55.52,87.76 55.52,86.68 L55.52,86.64 C55.52,85.72 56.36,84.98 57.8,84.98 C58.9,84.98 59.94,85.34 61.02,86.04 C61.22,86.16 61.42,86.22 61.66,86.22 C62.3,86.22 62.82,85.72 62.82,85.08 C62.82,84.6 62.56,84.26 62.28,84.1 C61.02,83.26 59.6,82.8 57.84,82.8 C55.06,82.8 53.06,84.46 53.06,86.86 L53.06,86.9 C53.06,89.48 54.74,90.36 57.72,91.08 C60.32,91.68 60.88,92.22 60.88,93.22 L60.88,93.26 C60.88,94.3 59.92,95.02 58.4,95.02 C56.88,95.02 55.64,94.5 54.48,93.58 C54.32,93.46 54.1,93.36 53.76,93.36 C53.12,93.36 52.6,93.86 52.6,94.5 C52.6,94.9 52.8,95.24 53.08,95.44 C54.64,96.6 56.44,97.2 58.34,97.2 Z M69,97.22 C67.02,97.22 65.26,96.08 65.26,93.96 L65.26,93.92 C65.26,91.64 67.04,90.52 69.62,90.52 C70.8,90.52 71.64,90.7 72.46,90.96 L72.46,90.7 C72.46,89.2 71.54,88.4 69.84,88.4 C68.92,88.4 68.16,88.56 67.5,88.82 C67.36,88.86 67.24,88.88 67.12,88.88 C66.56,88.88 66.1,88.44 66.1,87.88 C66.1,87.44 66.4,87.06 66.76,86.92 C67.76,86.54 68.78,86.3 70.16,86.3 C71.74,86.3 72.92,86.72 73.66,87.48 C74.44,88.24 74.8,89.36 74.8,90.74 L74.8,95.94 C74.8,96.6 74.28,97.1 73.62,97.1 C72.92,97.1 72.44,96.62 72.44,96.08 L72.44,95.68 C71.72,96.54 70.62,97.22 69,97.22 Z M69.68,95.46 C71.28,95.46 72.5,94.54 72.5,93.2 L72.5,92.48 C71.88,92.24 71.06,92.06 70.1,92.06 C68.54,92.06 67.62,92.72 67.62,93.82 L67.62,93.86 C67.62,94.88 68.52,95.46 69.68,95.46 Z M81.24,97.18 C81.88,97.18 82.38,97.08 82.9,96.9 C83.24,96.76 83.54,96.4 83.54,95.96 C83.54,95.4 83.06,94.96 82.52,94.96 C82.44,94.96 82.2,95.02 81.92,95.02 C81.1,95.02 80.62,94.64 80.62,93.7 L80.62,88.52 L82.52,88.52 C83.1,88.52 83.58,88.06 83.58,87.48 C83.58,86.9 83.1,86.44 82.52,86.44 L80.62,86.44 L80.62,84.64 C80.62,83.98 80.08,83.44 79.42,83.44 C78.74,83.44 78.2,83.98 78.2,84.64 L78.2,86.44 L77.8,86.44 C77.22,86.44 76.76,86.9 76.76,87.48 C76.76,88.06 77.22,88.52 77.8,88.52 L78.2,88.52 L78.2,94.08 C78.2,96.4 79.46,97.18 81.24,97.18 Z M85,99.34 C85,99.64 85.2,99.9 85.62,99.9 C86.18,99.9 86.96,99.56 87.5,99.04 C88.12,98.4 88.48,97.48 88.48,96.12 L88.48,95.9 C88.48,94.82 87.94,94.14 87.04,94.14 C86.22,94.14 85.68,94.72 85.68,95.48 L85.68,95.64 C85.68,96.36 86.24,96.84 86.82,97 C86.86,97.88 86.38,98.5 85.46,98.8 C85.2,98.86 85,99.06 85,99.34 Z M99.34,95.88 C99.34,96.56 99.9,97.1 100.56,97.1 C101.24,97.1 101.78,96.56 101.78,95.88 L101.78,84.04 C101.78,83.36 101.26,82.82 100.56,82.82 L100.52,82.82 C100.16,82.82 99.8,82.9 99.32,83.04 L97.2,83.72 C96.7,83.86 96.38,84.26 96.38,84.78 C96.38,85.34 96.88,85.82 97.46,85.82 C97.58,85.82 97.76,85.8 97.9,85.76 L99.34,85.32 L99.34,95.88 Z M108.84,97.2 C111.04,97.2 112.76,96.1 112.76,93.88 L112.76,93.84 C112.76,91.94 111.02,91.24 109.48,90.76 C108.24,90.36 107.1,90.04 107.1,89.26 L107.1,89.22 C107.1,88.62 107.64,88.18 108.58,88.18 C109.32,88.18 110.2,88.46 111.06,88.9 C111.22,88.98 111.34,89.02 111.54,89.02 C112.1,89.02 112.54,88.6 112.54,88.04 C112.54,87.62 112.3,87.3 111.96,87.12 C110.94,86.58 109.76,86.26 108.64,86.26 C106.54,86.26 104.88,87.48 104.88,89.48 L104.88,89.52 C104.88,91.54 106.62,92.18 108.18,92.62 C109.42,93 110.54,93.28 110.54,94.1 L110.54,94.14 C110.54,94.84 109.94,95.28 108.9,95.28 C107.94,95.28 106.88,94.94 105.86,94.26 C105.72,94.18 105.54,94.12 105.34,94.12 C104.78,94.12 104.36,94.56 104.36,95.1 C104.36,95.5 104.56,95.8 104.82,95.94 C106.04,96.78 107.5,97.2 108.84,97.2 Z M118.78,97.18 C119.42,97.18 119.92,97.08 120.44,96.9 C120.78,96.76 121.08,96.4 121.08,95.96 C121.08,95.4 120.6,94.96 120.06,94.96 C119.98,94.96 119.74,95.02 119.46,95.02 C118.64,95.02 118.16,94.64 118.16,93.7 L118.16,88.52 L120.06,88.52 C120.64,88.52 121.12,88.06 121.12,87.48 C121.12,86.9 120.64,86.44 120.06,86.44 L118.16,86.44 L118.16,84.64 C118.16,83.98 117.62,83.44 116.96,83.44 C116.28,83.44 115.74,83.98 115.74,84.64 L115.74,86.44 L115.34,86.44 C114.76,86.44 114.3,86.9 114.3,87.48 C114.3,88.06 114.76,88.52 115.34,88.52 L115.74,88.52 L115.74,94.08 C115.74,96.4 117,97.18 118.78,97.18 Z M128.78,95.96 C128.78,95.78 128.84,95.6 128.94,95.4 L134.14,83.8 C134.42,83.18 134.92,82.8 135.62,82.8 L135.74,82.8 C136.44,82.8 136.92,83.18 137.2,83.8 L142.4,95.4 C142.5,95.58 142.54,95.76 142.54,95.92 C142.54,96.58 142.04,97.1 141.38,97.1 C140.8,97.1 140.4,96.76 140.18,96.24 L139.04,93.62 L132.24,93.62 L131.06,96.32 C130.86,96.82 130.44,97.1 129.92,97.1 C129.28,97.1 128.78,96.6 128.78,95.96 Z M133.18,91.44 L138.1,91.44 L135.64,85.78 L133.18,91.44 Z M144.92,99.1 L144.92,87.54 C144.92,86.86 145.44,86.32 146.12,86.32 C146.8,86.32 147.34,86.86 147.34,87.54 L147.34,88.2 C148.12,87.1 149.22,86.22 150.94,86.22 C153.42,86.22 155.84,88.18 155.84,91.7 L155.84,91.74 C155.84,95.24 153.44,97.22 150.94,97.22 C149.18,97.22 148.08,96.34 147.34,95.36 L147.34,99.1 C147.34,99.78 146.8,100.3 146.12,100.3 C145.46,100.3 144.92,99.78 144.92,99.1 Z M150.36,95.12 C152.02,95.12 153.38,93.82 153.38,91.74 L153.38,91.7 C153.38,89.66 152,88.32 150.36,88.32 C148.72,88.32 147.28,89.68 147.28,91.7 L147.28,91.74 C147.28,93.76 148.72,95.12 150.36,95.12 Z M158.34,95.9 C158.34,96.58 158.88,97.1 159.54,97.1 C160.22,97.1 160.76,96.56 160.76,95.9 L160.76,92.78 C160.76,90.28 161.94,88.96 163.66,88.66 C164.2,88.56 164.62,88.14 164.62,87.5 C164.62,86.8 164.18,86.3 163.42,86.3 C162.36,86.3 161.32,87.3 160.76,88.62 L160.76,87.54 C160.76,86.86 160.22,86.32 159.54,86.32 C158.86,86.32 158.34,86.86 158.34,87.54 L158.34,95.9 Z M166.56,83.72 C166.56,84.44 167.16,84.92 167.94,84.92 C168.72,84.92 169.32,84.44 169.32,83.72 L169.32,83.6 C169.32,82.88 168.72,82.42 167.94,82.42 C167.16,82.42 166.56,82.88 166.56,83.6 L166.56,83.72 Z M166.74,95.9 C166.74,96.58 167.28,97.1 167.94,97.1 C168.62,97.1 169.16,96.58 169.16,95.9 L169.16,87.54 C169.16,86.86 168.62,86.32 167.94,86.32 C167.26,86.32 166.74,86.86 166.74,87.54 L166.74,95.9 Z M172.46,95.9 C172.46,96.58 173,97.1 173.66,97.1 C174.34,97.1 174.88,96.58 174.88,95.9 L174.88,83.5 C174.88,82.84 174.34,82.3 173.66,82.3 C172.98,82.3 172.46,82.84 172.46,83.5 L172.46,95.9 Z M183.38,95.84 C183.38,96.56 183.94,97 184.7,97 L192.64,97 C193.24,97 193.72,96.52 193.72,95.92 C193.72,95.32 193.24,94.84 192.64,94.84 L186.96,94.84 L189.84,92.44 C192.32,90.42 193.48,89.22 193.48,87.02 L193.48,86.98 C193.48,84.48 191.6,82.8 188.86,82.8 C186.66,82.8 185.36,83.64 184.22,85.06 C184.04,85.28 183.94,85.56 183.94,85.82 C183.94,86.44 184.44,86.94 185.06,86.94 C185.46,86.94 185.74,86.76 185.92,86.56 C186.78,85.52 187.56,85 188.68,85 C189.96,85 190.94,85.8 190.94,87.18 C190.94,88.44 190.24,89.34 188.32,90.96 L184.02,94.62 C183.6,94.96 183.38,95.36 183.38,95.84 Z M202,97.24 C198.32,97.24 195.92,94.04 195.92,90.04 L195.92,90 C195.92,86 198.36,82.76 202.04,82.76 C205.7,82.76 208.12,85.96 208.12,89.96 L208.12,90 C208.12,94 205.68,97.24 202,97.24 Z M202.04,95.02 C204.22,95.02 205.58,92.78 205.58,90.04 L205.58,90 C205.58,87.24 204.16,84.98 202,84.98 C199.84,84.98 198.46,87.18 198.46,89.96 L198.46,90 C198.46,92.76 199.86,95.02 202.04,95.02 Z M212.82,95.88 C212.82,96.56 213.38,97.1 214.04,97.1 C214.72,97.1 215.26,96.56 215.26,95.88 L215.26,84.04 C215.26,83.36 214.74,82.82 214.04,82.82 L214,82.82 C213.64,82.82 213.28,82.9 212.8,83.04 L210.68,83.72 C210.18,83.86 209.86,84.26 209.86,84.78 C209.86,85.34 210.36,85.82 210.94,85.82 C211.06,85.82 211.24,85.8 211.38,85.76 L212.82,85.32 L212.82,95.88 Z M219.92,96 C219.92,96.7 220.52,97.1 221.18,97.1 C221.68,97.1 222.06,96.84 222.36,96.28 L228.16,85.28 C228.36,84.9 228.5,84.46 228.5,84.1 C228.5,83.4 228.06,83 227.38,83 L219.52,83 C218.92,83 218.44,83.48 218.44,84.08 C218.44,84.68 218.92,85.16 219.52,85.16 L225.58,85.16 L220.14,95.24 C220.02,95.46 219.92,95.8 219.92,96 Z" id="Sat,-1st-April-2017" fill="#FFFFFF"></path>
            </g>
        </g>
    </g>
</svg>