<?xml version="1.0" encoding="UTF-8"?>
<svg width="176px" height="177px" viewBox="0 0 176 177" version="1.1" xmlns="http://www.w3.org/2000/svg" xmlns:xlink="http://www.w3.org/1999/xlink">
    <!-- Generator: Sketch 42 (36781) - http://www.bohemiancoding.com/sketch -->
    <title>Group 8</title>
    <desc>Created with Sketch.</desc>
    <defs>
        <path d="M158.758731,64.3746163 C149.890944,61.0778198 140.715035,57.6765621 138.205858,52.1387239 C135.69668,46.606457 139.145418,37.3943691 142.480855,28.4998433 C142.960307,27.2156666 143.344422,26.2086603 142.297089,24.9899459 C141.227648,23.744768 140.235584,23.9996534 138.859405,24.3102515 C133.143288,25.5832857 127.228205,26.9050685 122.392235,26.9050685 C119.223984,26.9050685 116.817052,26.3507276 115.051232,25.2072253 C109.972082,21.916 107.938211,12.2804959 105.967898,2.9667324 C105.681885,1.62266453 105.455286,0.583623472 103.932646,0.136529395 C102.422441,-0.335635377 101.607235,0.495876036 100.716035,1.3998139 C94.0562129,8.16750898 87.1739364,15.1636259 81.1345004,15.1691972 C75.1061181,15.1636259 68.2293684,8.18422277 61.5750734,1.43184868 C60.6203147,0.458269992 59.8589948,-0.309171865 58.3308282,0.136529395 C56.8206238,0.589194738 56.5884972,1.60595074 56.3080109,2.9333048 C54.3321717,12.2693534 52.2913922,21.916 47.2080966,25.2127965 C45.4422767,26.3562988 43.040872,26.916211 39.8726206,26.916211 C35.0145431,26.916211 29.0676814,25.5777144 23.3197854,24.2879664 C22.0182185,23.9996534 21.0413525,23.7545177 19.9677671,24.9899459 C18.9370146,26.1919465 19.292113,27.1989528 19.7729466,28.4664157 C23.1139112,37.3846194 26.5737025,46.6120283 24.0645248,52.1498664 C21.5594922,57.6765621 12.3891109,61.0778198 3.52685004,64.3690451 C2.28055143,64.8370314 1.25532574,65.196378 1.02319916,66.8064738 C0.802126239,68.3733923 1.63253141,69.021052 2.71717045,69.8372424 C10.3165523,75.5171478 18.1701679,81.3878691 19.033734,87.4215499 C19.8917733,93.4440882 13.9974165,101.312108 8.29788011,108.922457 C7.4840554,110.01164 6.85676098,110.865436 7.51583464,112.307001 C8.16385465,113.742995 9.21118763,113.836314 10.5486788,113.92824 C19.9940196,114.570328 29.7585343,115.22913 33.7254116,119.830996 C37.6646548,124.423111 36.9364959,134.238289 36.2290625,143.727547 C36.1157626,145.098079 36.0356237,146.170547 37.3841685,147.050807 C38.706461,147.905997 39.6681282,147.38369 40.8550135,146.730459 C47.9196751,142.802717 55.2330438,138.74405 60.830334,138.74405 C61.7795658,138.74405 62.6597124,138.862439 63.4638652,139.096433 C69.2615026,140.81099 73.913706,149.493807 78.4097766,157.895276 C79.0564149,159.080563 79.5648827,159.999822 81.1345004,159.999822 C82.7054999,159.999822 83.2181127,159.080563 83.8661328,157.884134 C88.3622034,149.488236 93.0144067,140.805418 98.8106625,139.092254 C99.6092884,138.858261 100.494962,138.738479 101.445575,138.738479 C107.041484,138.738479 114.354853,142.802717 121.415369,146.730459 C122.607781,147.38369 123.568067,147.905997 124.890359,147.050807 C126.207125,146.19144 126.153238,145.146827 126.050992,143.797188 C125.333887,134.281466 124.593292,124.434254 128.550498,119.830996 C132.495268,115.244451 142.221095,114.575899 151.629129,113.92824 C153.027416,113.836314 154.095474,113.76528 154.754548,112.295859 C155.41224,110.854294 154.786327,110.006068 153.971121,108.912708 C148.271584,101.306537 142.378609,93.4440882 143.236649,87.4104074 C144.100215,81.3878691 151.93725,75.5227191 159.525578,69.8483849 C160.582583,69.0530867 161.47931,68.4068199 161.247183,66.8009026 C161.020584,65.2228415 160.027137,64.8426026 158.758731,64.3746163" id="path-1"></path>
        <filter x="-50%" y="-50%" width="200%" height="200%" filterUnits="objectBoundingBox" id="filter-2">
            <feOffset dx="-15" dy="17" in="SourceAlpha" result="shadowOffsetOuter1"></feOffset>
            <feColorMatrix values="0 0 0 0 0.132332265   0 0 0 0 0.137421157   0 0 0 0 0.141873937  0 0 0 0.258689991 0" type="matrix" in="shadowOffsetOuter1"></feColorMatrix>
        </filter>
    </defs>
    <g id="Page-1" stroke="none" stroke-width="1" fill="none" fill-rule="evenodd">
        <g id="landing" transform="translate(-1098.000000, -185.000000)">
            <g id="Group-7" transform="translate(1112.000000, 185.000000)">
                <g id="Group-6">
                    <g id="Page-1">
                        <g id="Group-8">
                            <g id="Fill-1">
                                <use fill="black" fill-opacity="1" filter="url(#filter-2)" xlink:href="#path-1"></use>
                                <use fill="#93BE59" fill-rule="evenodd" xlink:href="#path-1"></use>
                            </g>
                            <path d="M36.7431999,103.943431 C36.7431999,105.654831 38.0963999,107.008031 39.8077999,107.008031 C41.5191998,107.008031 42.8723998,105.654831 42.8723998,103.943431 L42.8723998,95.983431 L53.6183996,95.983431 C55.1705996,95.983431 56.4043996,94.749631 56.4043996,93.197431 C56.4043996,91.6452311 55.1705996,90.4114311 53.6183996,90.4114311 L42.8723998,90.4114311 L42.8723998,84.4812312 L55.4093996,84.4812312 C56.9615995,84.4812312 58.1953995,83.2474312 58.1953995,81.6952312 C58.1953995,80.1430313 56.9615995,78.9092313 55.4093996,78.9092313 L39.8077999,78.9092313 C38.0963999,78.9092313 36.7431999,80.2624313 36.7431999,81.9738312 L36.7431999,103.943431 Z M59.8862559,103.943431 L59.8862559,81.9738312 C59.8862559,80.2624313 61.2394559,78.9092313 62.9508558,78.9092313 L72.6222556,78.9092313 C76.1644556,78.9092313 78.9106555,79.9042313 80.7414555,81.7350312 C82.2936555,83.2872312 83.1294554,85.4762312 83.1294554,88.1030311 L83.1294554,88.1826311 C83.1294554,92.560631 80.9404555,95.267031 77.5574556,96.660031 L81.8160555,101.834031 C82.4130555,102.590231 82.8110555,103.227031 82.8110555,104.182231 C82.8110555,105.893631 81.3782555,107.008031 79.9056555,107.008031 C78.5126555,107.008031 77.5972556,106.331431 76.8808556,105.416031 L70.9108557,97.8540309 L66.0154558,97.8540309 L66.0154558,103.943431 C66.0154558,105.654831 64.6622558,107.008031 62.9508558,107.008031 C61.2394559,107.008031 59.8862559,105.654831 59.8862559,103.943431 Z M66.0154558,92.441231 L72.2242557,92.441231 C75.2092556,92.441231 76.9206556,90.8492311 76.9206556,88.5010311 L76.9206556,88.4214311 C76.9206556,85.7946312 75.0898556,84.4414312 72.1048557,84.4414312 L66.0154558,84.4414312 L66.0154558,92.441231 Z M88.7605117,106.769231 L104.401911,106.769231 C105.914311,106.769231 107.148111,105.575231 107.148111,104.062831 C107.148111,102.550431 105.914311,101.316631 104.401911,101.316631 L91.7853117,101.316631 L91.7853117,95.466031 L102.411911,95.466031 C103.924311,95.466031 105.158111,94.272031 105.158111,92.759631 C105.158111,91.2472311 103.924311,90.0134311 102.411911,90.0134311 L91.7853117,90.0134311 L91.7853117,84.3618312 L104.202911,84.3618312 C105.715311,84.3618312 106.949111,83.1678312 106.949111,81.6554313 C106.949111,80.1430313 105.715311,78.9092313 104.202911,78.9092313 L88.7605117,78.9092313 C87.0491118,78.9092313 85.6959118,80.2624313 85.6959118,81.9738312 L85.6959118,103.704631 C85.6959118,105.416031 87.0491118,106.769231 88.7605117,106.769231 Z M112.460768,106.769231 L128.102167,106.769231 C129.614567,106.769231 130.848367,105.575231 130.848367,104.062831 C130.848367,102.550431 129.614567,101.316631 128.102167,101.316631 L115.485568,101.316631 L115.485568,95.466031 L126.112167,95.466031 C127.624567,95.466031 128.858367,94.272031 128.858367,92.759631 C128.858367,91.2472311 127.624567,90.0134311 126.112167,90.0134311 L115.485568,90.0134311 L115.485568,84.3618312 L127.903167,84.3618312 C129.415567,84.3618312 130.649367,83.1678312 130.649367,81.6554313 C130.649367,80.1430313 129.415567,78.9092313 127.903167,78.9092313 L112.460768,78.9092313 C110.749368,78.9092313 109.396168,80.2624313 109.396168,81.9738312 L109.396168,103.704631 C109.396168,105.416031 110.749368,106.769231 112.460768,106.769231 Z" id="FREE" fill="#FFFFFF"></path>
                            <path d="M37.4966,71.7597076 C37.4966,72.5049077 38.0636001,72.9423077 38.8412001,72.9423077 L44.9972004,72.9423077 C45.5966004,72.9423077 46.0826004,72.4725077 46.0826004,71.8731076 C46.0826004,71.2737076 45.5966004,70.7877076 44.9972004,70.7877076 L41.0444002,70.7877076 L42.8912003,69.3621075 C44.9000004,67.8069075 45.8720004,66.8673074 45.8720004,64.9719073 L45.8720004,64.9395073 C45.8720004,62.8173072 44.3168004,61.4403072 41.9678002,61.4403072 C40.2506002,61.4403072 39.1814001,62.0559072 38.2742001,63.1089072 C38.0960001,63.3195072 37.9826001,63.6111073 37.9826001,63.8865073 C37.9826001,64.5183073 38.4848001,65.0205073 39.1166001,65.0205073 C39.5054001,65.0205073 39.7970001,64.8423073 39.9590001,64.6641073 C40.5908002,63.9837073 41.0930002,63.6759073 41.8058002,63.6759073 C42.6968003,63.6759073 43.3286003,64.1943073 43.3286003,65.1501073 C43.3286003,66.0897074 42.7778003,66.7215074 41.3684002,67.8717075 L38.1446001,70.5123076 C37.7234,70.8525076 37.4966,71.2737076 37.4966,71.7597076 Z M52.2194008,73.1367077 C49.1900006,73.1367077 47.1974005,70.5933076 47.1974005,67.3047074 L47.1974005,67.2723074 C47.1974005,63.9837073 49.2386006,61.4079071 52.2518008,61.4079071 C55.2488009,61.4079071 57.273801,63.9513073 57.273801,67.2399074 L57.273801,67.2723074 C57.273801,70.5609076 55.2488009,73.1367077 52.2194008,73.1367077 Z M52.2518008,70.8849076 C53.7584008,70.8849076 54.7142009,69.3621075 54.7142009,67.3047074 L54.7142009,67.2723074 C54.7142009,65.2149073 53.7098008,63.6597073 52.2194008,63.6597073 C50.7290007,63.6597073 49.7570006,65.1663073 49.7570006,67.2399074 L49.7570006,67.2723074 C49.7570006,69.3459075 50.7452007,70.8849076 52.2518008,70.8849076 Z M68.7374016,73.1367077 C65.2382014,73.1367077 62.7272013,70.5285076 62.7272013,67.3047074 L62.7272013,67.2723074 C62.7272013,64.0485073 65.2706014,61.4079071 68.7698016,61.4079071 C72.2690018,61.4079071 74.7800019,64.0161073 74.7800019,67.2399074 L74.7800019,67.2723074 C74.7800019,70.4961076 72.2366018,73.1367077 68.7374016,73.1367077 Z M68.7698016,70.8363076 C70.7786017,70.8363076 72.1718018,69.2487075 72.1718018,67.3047074 L72.1718018,67.2723074 C72.1718018,65.3283073 70.7462017,63.7083073 68.7374016,63.7083073 C66.7286015,63.7083073 65.3354014,65.2959073 65.3354014,67.2399074 L65.3354014,67.2723074 C65.3354014,69.2163075 66.7610015,70.8363076 68.7698016,70.8363076 Z M76.429402,71.7921076 L76.429402,62.8497072 C76.429402,62.1531072 76.980202,61.6023072 77.6768021,61.6023072 L81.6134022,61.6023072 C83.0552023,61.6023072 84.1730024,62.0073072 84.9182024,62.7525072 C85.5500024,63.3843072 85.8902024,64.2753073 85.8902024,65.3445073 L85.8902024,65.3769073 C85.8902024,67.1589074 84.9992024,68.2605075 83.6222023,68.8275075 L85.3556024,70.9335076 C85.5986024,71.2413076 85.7606024,71.5005076 85.7606024,71.8893076 C85.7606024,72.5859077 85.1774024,73.0395077 84.5780024,73.0395077 C84.0110024,73.0395077 83.6384023,72.7641077 83.3468023,72.3915077 L80.9168022,69.3135075 L78.9242021,69.3135075 L78.9242021,71.7921076 C78.9242021,72.4887077 78.3734021,73.0395077 77.6768021,73.0395077 C76.980202,73.0395077 76.429402,72.4887077 76.429402,71.7921076 Z M78.9242021,67.1103074 L81.4514022,67.1103074 C82.6664023,67.1103074 83.3630023,66.4623074 83.3630023,65.5065073 L83.3630023,65.4741073 C83.3630023,64.4049073 82.6178023,63.8541073 81.4028022,63.8541073 L78.9242021,63.8541073 L78.9242021,67.1103074 Z M87.5720026,71.6949076 L87.5720026,62.8497072 C87.5720026,62.1531072 88.1228026,61.6023072 88.8194026,61.6023072 L91.9946028,61.6023072 C95.5586029,61.6023072 98.0210031,64.0485073 98.0210031,67.2399074 L98.0210031,67.2723074 C98.0210031,70.4637076 95.5586029,72.9423077 91.9946028,72.9423077 L88.8194026,72.9423077 C88.1228026,72.9423077 87.5720026,72.3915077 87.5720026,71.6949076 Z M90.0668027,70.6905076 L91.9946028,70.6905076 C94.0358029,70.6905076 95.4128029,69.3135075 95.4128029,67.3047074 L95.4128029,67.2723074 C95.4128029,65.2635073 94.0358029,63.8541073 91.9946028,63.8541073 L90.0668027,63.8541073 L90.0668027,70.6905076 Z M100.917803,72.9423077 L107.284404,72.9423077 C107.900004,72.9423077 108.402204,72.4563077 108.402204,71.8407076 C108.402204,71.2251076 107.900004,70.7229076 107.284404,70.7229076 L102.149003,70.7229076 L102.149003,68.3415075 L106.474403,68.3415075 C107.090004,68.3415075 107.592204,67.8555075 107.592204,67.2399074 C107.592204,66.6243074 107.090004,66.1221074 106.474403,66.1221074 L102.149003,66.1221074 L102.149003,63.8217073 L107.203404,63.8217073 C107.819004,63.8217073 108.321204,63.3357072 108.321204,62.7201072 C108.321204,62.1045072 107.819004,61.6023072 107.203404,61.6023072 L100.917803,61.6023072 C100.221203,61.6023072 99.6704032,62.1531072 99.6704032,62.8497072 L99.6704032,71.6949076 C99.6704032,72.3915077 100.221203,72.9423077 100.917803,72.9423077 Z M109.954404,71.7921076 L109.954404,62.8497072 C109.954404,62.1531072 110.505204,61.6023072 111.201804,61.6023072 L115.138404,61.6023072 C116.580204,61.6023072 117.698004,62.0073072 118.443204,62.7525072 C119.075004,63.3843072 119.415204,64.2753073 119.415204,65.3445073 L119.415204,65.3769073 C119.415204,67.1589074 118.524204,68.2605075 117.147204,68.8275075 L118.880604,70.9335076 C119.123604,71.2413076 119.285604,71.5005076 119.285604,71.8893076 C119.285604,72.5859077 118.702404,73.0395077 118.103004,73.0395077 C117.536004,73.0395077 117.163404,72.7641077 116.871804,72.3915077 L114.441804,69.3135075 L112.449204,69.3135075 L112.449204,71.7921076 C112.449204,72.4887077 111.898404,73.0395077 111.201804,73.0395077 C110.505204,73.0395077 109.954404,72.4887077 109.954404,71.7921076 Z M112.449204,67.1103074 L114.976404,67.1103074 C116.191404,67.1103074 116.888004,66.4623074 116.888004,65.5065073 L116.888004,65.4741073 C116.888004,64.4049073 116.142804,63.8541073 114.927804,63.8541073 L112.449204,63.8541073 L112.449204,67.1103074 Z M125.130804,73.1043077 C127.577005,73.1043077 129.294205,71.8407076 129.294205,69.5889075 L129.294205,69.5565075 C129.294205,67.5801074 127.998205,66.7539074 125.697804,66.1545074 C123.737604,65.6523073 123.251604,65.4093073 123.251604,64.6641073 L123.251604,64.6317073 C123.251604,64.0809073 123.753804,63.6435073 124.709604,63.6435073 C125.487204,63.6435073 126.264804,63.9189073 127.091005,64.4049073 C127.285405,64.5183073 127.479805,64.5831073 127.722805,64.5831073 C128.370805,64.5831073 128.889205,64.0809073 128.889205,63.4329072 C128.889205,62.9469072 128.613805,62.6067072 128.338405,62.4447072 C127.317805,61.7967072 126.119004,61.4403072 124.742004,61.4403072 C122.425404,61.4403072 120.773004,62.8011072 120.773004,64.8585073 L120.773004,64.8909073 C120.773004,67.1427074 122.247204,67.7745074 124.531404,68.3577075 C126.426804,68.8437075 126.815605,69.1677075 126.815605,69.7995075 L126.815605,69.8319075 C126.815605,70.4961076 126.200004,70.9011076 125.179404,70.9011076 C124.077804,70.9011076 123.138204,70.5123076 122.279604,69.8805075 C122.117604,69.7671075 121.890804,69.6537075 121.566804,69.6537075 C120.918804,69.6537075 120.400404,70.1559076 120.400404,70.8039076 C120.400404,71.1927076 120.594804,71.5491076 120.870204,71.7435076 C122.133804,72.6507077 123.640404,73.1043077 125.130804,73.1043077 Z" id="20-orders" fill="#4A5F2E"></path>
                            <path d="M56.7728,52.3468 C56.7728,52.7424 57.0856,53.0552 57.4812,53.0552 C57.8768,53.0552 58.1896,52.7424 58.1896,52.3468 L58.1896,50.5068001 L60.6735999,50.5068001 C61.0323999,50.5068001 61.3175999,50.2216001 61.3175999,49.8628001 C61.3175999,49.5040001 61.0323999,49.2188001 60.6735999,49.2188001 L58.1896,49.2188001 L58.1896,47.8480001 L61.0875999,47.8480001 C61.4463999,47.8480001 61.7315999,47.5628001 61.7315999,47.2040001 C61.7315999,46.8452001 61.4463999,46.5600001 61.0875999,46.5600001 L57.4812,46.5600001 C57.0856,46.5600001 56.7728,46.8728001 56.7728,47.2684001 L56.7728,52.3468 Z M69.3337942,52.3468 C69.3337942,52.7424 69.6465942,53.0552 70.0421942,53.0552 C70.4377941,53.0552 70.7505941,52.7424 70.7505941,52.3468 L70.7505941,47.2132001 C70.7505941,46.8176001 70.4377941,46.5048001 70.0421942,46.5048001 C69.6465942,46.5048001 69.3337942,46.8176001 69.3337942,47.2132001 L69.3337942,52.3468 Z M78.8219884,52.3468 L78.8219884,47.2684001 C78.8219884,46.8728001 79.1347884,46.5600001 79.5303884,46.5600001 L81.7659884,46.5600001 C82.5847883,46.5600001 83.2195883,46.7900001 83.6427883,47.2132001 C84.0015883,47.5720001 84.1947883,48.0780001 84.1947883,48.6852001 L84.1947883,48.7036001 C84.1947883,49.7156001 83.6887883,50.3412001 82.9067883,50.6632 L83.8911883,51.8592 C84.0291883,52.034 84.1211883,52.1812 84.1211883,52.402 C84.1211883,52.7976 83.7899883,53.0552 83.4495883,53.0552 C83.1275883,53.0552 82.9159883,52.8988 82.7503883,52.6872 L81.3703884,50.9392 L80.2387884,50.9392 L80.2387884,52.3468 C80.2387884,52.7424 79.9259884,53.0552 79.5303884,53.0552 C79.1347884,53.0552 78.8219884,52.7424 78.8219884,52.3468 Z M80.2387884,49.6880001 L81.6739884,49.6880001 C82.3639883,49.6880001 82.7595883,49.3200001 82.7595883,48.7772001 L82.7595883,48.7588001 C82.7595883,48.1516001 82.3363883,47.8388001 81.6463884,47.8388001 L80.2387884,47.8388001 L80.2387884,49.6880001 Z M94.2257825,53.092 C95.6149825,53.092 96.5901825,52.3744 96.5901825,51.0956 L96.5901825,51.0772 C96.5901825,49.9548001 95.8541825,49.4856001 94.5477825,49.1452001 C93.4345826,48.8600001 93.1585826,48.7220001 93.1585826,48.2988001 L93.1585826,48.2804001 C93.1585826,47.9676001 93.4437826,47.7192001 93.9865825,47.7192001 C94.4281825,47.7192001 94.8697825,47.8756001 95.3389825,48.1516001 C95.4493825,48.2160001 95.5597825,48.2528001 95.6977825,48.2528001 C96.0657825,48.2528001 96.3601825,47.9676001 96.3601825,47.5996001 C96.3601825,47.3236001 96.2037825,47.1304001 96.0473825,47.0384001 C95.4677825,46.6704001 94.7869825,46.4680001 94.0049825,46.4680001 C92.6893826,46.4680001 91.7509826,47.2408001 91.7509826,48.4092001 L91.7509826,48.4276001 C91.7509826,49.7064001 92.5881826,50.0652001 93.8853825,50.3964001 C94.9617825,50.6724 95.1825825,50.8564 95.1825825,51.2152 L95.1825825,51.2336 C95.1825825,51.6108 94.8329825,51.8408 94.2533825,51.8408 C93.6277826,51.8408 93.0941826,51.62 92.6065826,51.2612 C92.5145826,51.1968 92.3857826,51.1324 92.2017826,51.1324 C91.8337826,51.1324 91.5393826,51.4176 91.5393826,51.7856 C91.5393826,52.0064 91.6497826,52.2088 91.8061826,52.3192 C92.5237826,52.8344 93.3793826,53.092 94.2257825,53.092 Z M105.645977,52.3468 C105.645977,52.7424 105.958777,53.0552 106.354377,53.0552 C106.749977,53.0552 107.062777,52.7424 107.062777,52.3468 L107.062777,47.8664001 L108.424377,47.8664001 C108.783177,47.8664001 109.077577,47.5720001 109.077577,47.2132001 C109.077577,46.8544001 108.783177,46.5600001 108.424377,46.5600001 L104.284377,46.5600001 C103.925577,46.5600001 103.631177,46.8544001 103.631177,47.2132001 C103.631177,47.5720001 103.925577,47.8664001 104.284377,47.8664001 L105.645977,47.8664001 L105.645977,52.3468 Z" id="First" fill="#FFE88A"></path>
                        </g>
                    </g>
                </g>
            </g>
        </g>
    </g>
</svg>