<?xml version="1.0" encoding="UTF-8"?>
<svg width="161px" height="196px" viewBox="0 0 161 196" version="1.1" xmlns="http://www.w3.org/2000/svg" xmlns:xlink="http://www.w3.org/1999/xlink">
    <!-- Generator: Sketch 42 (36781) - http://www.bohemiancoding.com/sketch -->
    <title>Group 9</title>
    <desc>Created with Sketch.</desc>
    <defs></defs>
    <g id="Page-1" stroke="none" stroke-width="1" fill="none" fill-rule="evenodd">
        <g id="landing" transform="translate(-1113.000000, -185.000000)">
            <g id="Group-9" transform="translate(1112.000000, 185.000000)">
                <g id="Group-7">
                    <g id="Group-6">
                        <g id="Page-1">
                            <g id="Group-8">
                                <path d="M158.758731,64.3746163 C149.890944,61.0778198 140.715035,57.6765621 138.205858,52.1387239 C135.69668,46.606457 139.145418,37.3943691 142.480855,28.4998433 C142.960307,27.2156666 143.344422,26.2086603 142.297089,24.9899459 C141.227648,23.744768 140.235584,23.9996534 138.859405,24.3102515 C133.143288,25.5832857 127.228205,26.9050685 122.392235,26.9050685 C119.223984,26.9050685 116.817052,26.3507276 115.051232,25.2072253 C109.972082,21.916 107.938211,12.2804959 105.967898,2.9667324 C105.681885,1.62266453 105.455286,0.583623472 103.932646,0.136529395 C102.422441,-0.335635377 101.607235,0.495876036 100.716035,1.3998139 C94.0562129,8.16750898 87.1739364,15.1636259 81.1345004,15.1691972 C75.1061181,15.1636259 68.2293684,8.18422277 61.5750734,1.43184868 C60.6203147,0.458269992 59.8589948,-0.309171865 58.3308282,0.136529395 C56.8206238,0.589194738 56.5884972,1.60595074 56.3080109,2.9333048 C54.3321717,12.2693534 52.2913922,21.916 47.2080966,25.2127965 C45.4422767,26.3562988 43.040872,26.916211 39.8726206,26.916211 C35.0145431,26.916211 29.0676814,25.5777144 23.3197854,24.2879664 C22.0182185,23.9996534 21.0413525,23.7545177 19.9677671,24.9899459 C18.9370146,26.1919465 19.292113,27.1989528 19.7729466,28.4664157 C23.1139112,37.3846194 26.5737025,46.6120283 24.0645248,52.1498664 C21.5594922,57.6765621 12.3891109,61.0778198 3.52685004,64.3690451 C2.28055143,64.8370314 1.25532574,65.196378 1.02319916,66.8064738 C0.802126239,68.3733923 1.63253141,69.021052 2.71717045,69.8372424 C10.3165523,75.5171478 18.1701679,81.3878691 19.033734,87.4215499 C19.8917733,93.4440882 13.9974165,101.312108 8.29788011,108.922457 C7.4840554,110.01164 6.85676098,110.865436 7.51583464,112.307001 C8.16385465,113.742995 9.21118763,113.836314 10.5486788,113.92824 C19.9940196,114.570328 29.7585343,115.22913 33.7254116,119.830996 C37.6646548,124.423111 36.9364959,134.238289 36.2290625,143.727547 C36.1157626,145.098079 36.0356237,146.170547 37.3841685,147.050807 C38.706461,147.905997 39.6681282,147.38369 40.8550135,146.730459 C47.9196751,142.802717 55.2330438,138.74405 60.830334,138.74405 C61.7795658,138.74405 62.6597124,138.862439 63.4638652,139.096433 C69.2615026,140.81099 73.913706,149.493807 78.4097766,157.895276 C79.0564149,159.080563 79.5648827,159.999822 81.1345004,159.999822 C82.7054999,159.999822 83.2181127,159.080563 83.8661328,157.884134 C88.3622034,149.488236 93.0144067,140.805418 98.8106625,139.092254 C99.6092884,138.858261 100.494962,138.738479 101.445575,138.738479 C107.041484,138.738479 114.354853,142.802717 121.415369,146.730459 C122.607781,147.38369 123.568067,147.905997 124.890359,147.050807 C126.207125,146.19144 126.153238,145.146827 126.050992,143.797188 C125.333887,134.281466 124.593292,124.434254 128.550498,119.830996 C132.495268,115.244451 142.221095,114.575899 151.629129,113.92824 C153.027416,113.836314 154.095474,113.76528 154.754548,112.295859 C155.41224,110.854294 154.786327,110.006068 153.971121,108.912708 C148.271584,101.306537 142.378609,93.4440882 143.236649,87.4104074 C144.100215,81.3878691 151.93725,75.5227191 159.525578,69.8483849 C160.582583,69.0530867 161.47931,68.4068199 161.247183,66.8009026 C161.020584,65.2228415 160.027137,64.8426026 158.758731,64.3746163" id="Fill-1" fill="#93BE59"></path>
                                <path d="M36.7431999,103.943431 C36.7431999,105.654831 38.0963999,107.008031 39.8077999,107.008031 C41.5191998,107.008031 42.8723998,105.654831 42.8723998,103.943431 L42.8723998,95.983431 L53.6183996,95.983431 C55.1705996,95.983431 56.4043996,94.749631 56.4043996,93.197431 C56.4043996,91.6452311 55.1705996,90.4114311 53.6183996,90.4114311 L42.8723998,90.4114311 L42.8723998,84.4812312 L55.4093996,84.4812312 C56.9615995,84.4812312 58.1953995,83.2474312 58.1953995,81.6952312 C58.1953995,80.1430313 56.9615995,78.9092313 55.4093996,78.9092313 L39.8077999,78.9092313 C38.0963999,78.9092313 36.7431999,80.2624313 36.7431999,81.9738312 L36.7431999,103.943431 Z M59.8862559,103.943431 L59.8862559,81.9738312 C59.8862559,80.2624313 61.2394559,78.9092313 62.9508558,78.9092313 L72.6222556,78.9092313 C76.1644556,78.9092313 78.9106555,79.9042313 80.7414555,81.7350312 C82.2936555,83.2872312 83.1294554,85.4762312 83.1294554,88.1030311 L83.1294554,88.1826311 C83.1294554,92.560631 80.9404555,95.267031 77.5574556,96.660031 L81.8160555,101.834031 C82.4130555,102.590231 82.8110555,103.227031 82.8110555,104.182231 C82.8110555,105.893631 81.3782555,107.008031 79.9056555,107.008031 C78.5126555,107.008031 77.5972556,106.331431 76.8808556,105.416031 L70.9108557,97.8540309 L66.0154558,97.8540309 L66.0154558,103.943431 C66.0154558,105.654831 64.6622558,107.008031 62.9508558,107.008031 C61.2394559,107.008031 59.8862559,105.654831 59.8862559,103.943431 Z M66.0154558,92.441231 L72.2242557,92.441231 C75.2092556,92.441231 76.9206556,90.8492311 76.9206556,88.5010311 L76.9206556,88.4214311 C76.9206556,85.7946312 75.0898556,84.4414312 72.1048557,84.4414312 L66.0154558,84.4414312 L66.0154558,92.441231 Z M88.7605117,106.769231 L104.401911,106.769231 C105.914311,106.769231 107.148111,105.575231 107.148111,104.062831 C107.148111,102.550431 105.914311,101.316631 104.401911,101.316631 L91.7853117,101.316631 L91.7853117,95.466031 L102.411911,95.466031 C103.924311,95.466031 105.158111,94.272031 105.158111,92.759631 C105.158111,91.2472311 103.924311,90.0134311 102.411911,90.0134311 L91.7853117,90.0134311 L91.7853117,84.3618312 L104.202911,84.3618312 C105.715311,84.3618312 106.949111,83.1678312 106.949111,81.6554313 C106.949111,80.1430313 105.715311,78.9092313 104.202911,78.9092313 L88.7605117,78.9092313 C87.0491118,78.9092313 85.6959118,80.2624313 85.6959118,81.9738312 L85.6959118,103.704631 C85.6959118,105.416031 87.0491118,106.769231 88.7605117,106.769231 Z M112.460768,106.769231 L128.102167,106.769231 C129.614567,106.769231 130.848367,105.575231 130.848367,104.062831 C130.848367,102.550431 129.614567,101.316631 128.102167,101.316631 L115.485568,101.316631 L115.485568,95.466031 L126.112167,95.466031 C127.624567,95.466031 128.858367,94.272031 128.858367,92.759631 C128.858367,91.2472311 127.624567,90.0134311 126.112167,90.0134311 L115.485568,90.0134311 L115.485568,84.3618312 L127.903167,84.3618312 C129.415567,84.3618312 130.649367,83.1678312 130.649367,81.6554313 C130.649367,80.1430313 129.415567,78.9092313 127.903167,78.9092313 L112.460768,78.9092313 C110.749368,78.9092313 109.396168,80.2624313 109.396168,81.9738312 L109.396168,103.704631 C109.396168,105.416031 110.749368,106.769231 112.460768,106.769231 Z" id="FREE" fill="#FFFFFF"></path>
                                <path d="M37.4966,71.7597076 C37.4966,72.5049077 38.0636001,72.9423077 38.8412001,72.9423077 L44.9972004,72.9423077 C45.5966004,72.9423077 46.0826004,72.4725077 46.0826004,71.8731076 C46.0826004,71.2737076 45.5966004,70.7877076 44.9972004,70.7877076 L41.0444002,70.7877076 L42.8912003,69.3621075 C44.9000004,67.8069075 45.8720004,66.8673074 45.8720004,64.9719073 L45.8720004,64.9395073 C45.8720004,62.8173072 44.3168004,61.4403072 41.9678002,61.4403072 C40.2506002,61.4403072 39.1814001,62.0559072 38.2742001,63.1089072 C38.0960001,63.3195072 37.9826001,63.6111073 37.9826001,63.8865073 C37.9826001,64.5183073 38.4848001,65.0205073 39.1166001,65.0205073 C39.5054001,65.0205073 39.7970001,64.8423073 39.9590001,64.6641073 C40.5908002,63.9837073 41.0930002,63.6759073 41.8058002,63.6759073 C42.6968003,63.6759073 43.3286003,64.1943073 43.3286003,65.1501073 C43.3286003,66.0897074 42.7778003,66.7215074 41.3684002,67.8717075 L38.1446001,70.5123076 C37.7234,70.8525076 37.4966,71.2737076 37.4966,71.7597076 Z M52.2194008,73.1367077 C49.1900006,73.1367077 47.1974005,70.5933076 47.1974005,67.3047074 L47.1974005,67.2723074 C47.1974005,63.9837073 49.2386006,61.4079071 52.2518008,61.4079071 C55.2488009,61.4079071 57.273801,63.9513073 57.273801,67.2399074 L57.273801,67.2723074 C57.273801,70.5609076 55.2488009,73.1367077 52.2194008,73.1367077 Z M52.2518008,70.8849076 C53.7584008,70.8849076 54.7142009,69.3621075 54.7142009,67.3047074 L54.7142009,67.2723074 C54.7142009,65.2149073 53.7098008,63.6597073 52.2194008,63.6597073 C50.7290007,63.6597073 49.7570006,65.1663073 49.7570006,67.2399074 L49.7570006,67.2723074 C49.7570006,69.3459075 50.7452007,70.8849076 52.2518008,70.8849076 Z M68.7374016,73.1367077 C65.2382014,73.1367077 62.7272013,70.5285076 62.7272013,67.3047074 L62.7272013,67.2723074 C62.7272013,64.0485073 65.2706014,61.4079071 68.7698016,61.4079071 C72.2690018,61.4079071 74.7800019,64.0161073 74.7800019,67.2399074 L74.7800019,67.2723074 C74.7800019,70.4961076 72.2366018,73.1367077 68.7374016,73.1367077 Z M68.7698016,70.8363076 C70.7786017,70.8363076 72.1718018,69.2487075 72.1718018,67.3047074 L72.1718018,67.2723074 C72.1718018,65.3283073 70.7462017,63.7083073 68.7374016,63.7083073 C66.7286015,63.7083073 65.3354014,65.2959073 65.3354014,67.2399074 L65.3354014,67.2723074 C65.3354014,69.2163075 66.7610015,70.8363076 68.7698016,70.8363076 Z M76.429402,71.7921076 L76.429402,62.8497072 C76.429402,62.1531072 76.980202,61.6023072 77.6768021,61.6023072 L81.6134022,61.6023072 C83.0552023,61.6023072 84.1730024,62.0073072 84.9182024,62.7525072 C85.5500024,63.3843072 85.8902024,64.2753073 85.8902024,65.3445073 L85.8902024,65.3769073 C85.8902024,67.1589074 84.9992024,68.2605075 83.6222023,68.8275075 L85.3556024,70.9335076 C85.5986024,71.2413076 85.7606024,71.5005076 85.7606024,71.8893076 C85.7606024,72.5859077 85.1774024,73.0395077 84.5780024,73.0395077 C84.0110024,73.0395077 83.6384023,72.7641077 83.3468023,72.3915077 L80.9168022,69.3135075 L78.9242021,69.3135075 L78.9242021,71.7921076 C78.9242021,72.4887077 78.3734021,73.0395077 77.6768021,73.0395077 C76.980202,73.0395077 76.429402,72.4887077 76.429402,71.7921076 Z M78.9242021,67.1103074 L81.4514022,67.1103074 C82.6664023,67.1103074 83.3630023,66.4623074 83.3630023,65.5065073 L83.3630023,65.4741073 C83.3630023,64.4049073 82.6178023,63.8541073 81.4028022,63.8541073 L78.9242021,63.8541073 L78.9242021,67.1103074 Z M87.5720026,71.6949076 L87.5720026,62.8497072 C87.5720026,62.1531072 88.1228026,61.6023072 88.8194026,61.6023072 L91.9946028,61.6023072 C95.5586029,61.6023072 98.0210031,64.0485073 98.0210031,67.2399074 L98.0210031,67.2723074 C98.0210031,70.4637076 95.5586029,72.9423077 91.9946028,72.9423077 L88.8194026,72.9423077 C88.1228026,72.9423077 87.5720026,72.3915077 87.5720026,71.6949076 Z M90.0668027,70.6905076 L91.9946028,70.6905076 C94.0358029,70.6905076 95.4128029,69.3135075 95.4128029,67.3047074 L95.4128029,67.2723074 C95.4128029,65.2635073 94.0358029,63.8541073 91.9946028,63.8541073 L90.0668027,63.8541073 L90.0668027,70.6905076 Z M100.917803,72.9423077 L107.284404,72.9423077 C107.900004,72.9423077 108.402204,72.4563077 108.402204,71.8407076 C108.402204,71.2251076 107.900004,70.7229076 107.284404,70.7229076 L102.149003,70.7229076 L102.149003,68.3415075 L106.474403,68.3415075 C107.090004,68.3415075 107.592204,67.8555075 107.592204,67.2399074 C107.592204,66.6243074 107.090004,66.1221074 106.474403,66.1221074 L102.149003,66.1221074 L102.149003,63.8217073 L107.203404,63.8217073 C107.819004,63.8217073 108.321204,63.3357072 108.321204,62.7201072 C108.321204,62.1045072 107.819004,61.6023072 107.203404,61.6023072 L100.917803,61.6023072 C100.221203,61.6023072 99.6704032,62.1531072 99.6704032,62.8497072 L99.6704032,71.6949076 C99.6704032,72.3915077 100.221203,72.9423077 100.917803,72.9423077 Z M109.954404,71.7921076 L109.954404,62.8497072 C109.954404,62.1531072 110.505204,61.6023072 111.201804,61.6023072 L115.138404,61.6023072 C116.580204,61.6023072 117.698004,62.0073072 118.443204,62.7525072 C119.075004,63.3843072 119.415204,64.2753073 119.415204,65.3445073 L119.415204,65.3769073 C119.415204,67.1589074 118.524204,68.2605075 117.147204,68.8275075 L118.880604,70.9335076 C119.123604,71.2413076 119.285604,71.5005076 119.285604,71.8893076 C119.285604,72.5859077 118.702404,73.0395077 118.103004,73.0395077 C117.536004,73.0395077 117.163404,72.7641077 116.871804,72.3915077 L114.441804,69.3135075 L112.449204,69.3135075 L112.449204,71.7921076 C112.449204,72.4887077 111.898404,73.0395077 111.201804,73.0395077 C110.505204,73.0395077 109.954404,72.4887077 109.954404,71.7921076 Z M112.449204,67.1103074 L114.976404,67.1103074 C116.191404,67.1103074 116.888004,66.4623074 116.888004,65.5065073 L116.888004,65.4741073 C116.888004,64.4049073 116.142804,63.8541073 114.927804,63.8541073 L112.449204,63.8541073 L112.449204,67.1103074 Z M125.130804,73.1043077 C127.577005,73.1043077 129.294205,71.8407076 129.294205,69.5889075 L129.294205,69.5565075 C129.294205,67.5801074 127.998205,66.7539074 125.697804,66.1545074 C123.737604,65.6523073 123.251604,65.4093073 123.251604,64.6641073 L123.251604,64.6317073 C123.251604,64.0809073 123.753804,63.6435073 124.709604,63.6435073 C125.487204,63.6435073 126.264804,63.9189073 127.091005,64.4049073 C127.285405,64.5183073 127.479805,64.5831073 127.722805,64.5831073 C128.370805,64.5831073 128.889205,64.0809073 128.889205,63.4329072 C128.889205,62.9469072 128.613805,62.6067072 128.338405,62.4447072 C127.317805,61.7967072 126.119004,61.4403072 124.742004,61.4403072 C122.425404,61.4403072 120.773004,62.8011072 120.773004,64.8585073 L120.773004,64.8909073 C120.773004,67.1427074 122.247204,67.7745074 124.531404,68.3577075 C126.426804,68.8437075 126.815605,69.1677075 126.815605,69.7995075 L126.815605,69.8319075 C126.815605,70.4961076 126.200004,70.9011076 125.179404,70.9011076 C124.077804,70.9011076 123.138204,70.5123076 122.279604,69.8805075 C122.117604,69.7671075 121.890804,69.6537075 121.566804,69.6537075 C120.918804,69.6537075 120.400404,70.1559076 120.400404,70.8039076 C120.400404,71.1927076 120.594804,71.5491076 120.870204,71.7435076 C122.133804,72.6507077 123.640404,73.1043077 125.130804,73.1043077 Z" id="20-orders" fill="#4A5F2E"></path>
                                <path d="M56.7728,52.3468 C56.7728,52.7424 57.0856,53.0552 57.4812,53.0552 C57.8768,53.0552 58.1896,52.7424 58.1896,52.3468 L58.1896,50.5068001 L60.6735999,50.5068001 C61.0323999,50.5068001 61.3175999,50.2216001 61.3175999,49.8628001 C61.3175999,49.5040001 61.0323999,49.2188001 60.6735999,49.2188001 L58.1896,49.2188001 L58.1896,47.8480001 L61.0875999,47.8480001 C61.4463999,47.8480001 61.7315999,47.5628001 61.7315999,47.2040001 C61.7315999,46.8452001 61.4463999,46.5600001 61.0875999,46.5600001 L57.4812,46.5600001 C57.0856,46.5600001 56.7728,46.8728001 56.7728,47.2684001 L56.7728,52.3468 Z M69.3337942,52.3468 C69.3337942,52.7424 69.6465942,53.0552 70.0421942,53.0552 C70.4377941,53.0552 70.7505941,52.7424 70.7505941,52.3468 L70.7505941,47.2132001 C70.7505941,46.8176001 70.4377941,46.5048001 70.0421942,46.5048001 C69.6465942,46.5048001 69.3337942,46.8176001 69.3337942,47.2132001 L69.3337942,52.3468 Z M78.8219884,52.3468 L78.8219884,47.2684001 C78.8219884,46.8728001 79.1347884,46.5600001 79.5303884,46.5600001 L81.7659884,46.5600001 C82.5847883,46.5600001 83.2195883,46.7900001 83.6427883,47.2132001 C84.0015883,47.5720001 84.1947883,48.0780001 84.1947883,48.6852001 L84.1947883,48.7036001 C84.1947883,49.7156001 83.6887883,50.3412001 82.9067883,50.6632 L83.8911883,51.8592 C84.0291883,52.034 84.1211883,52.1812 84.1211883,52.402 C84.1211883,52.7976 83.7899883,53.0552 83.4495883,53.0552 C83.1275883,53.0552 82.9159883,52.8988 82.7503883,52.6872 L81.3703884,50.9392 L80.2387884,50.9392 L80.2387884,52.3468 C80.2387884,52.7424 79.9259884,53.0552 79.5303884,53.0552 C79.1347884,53.0552 78.8219884,52.7424 78.8219884,52.3468 Z M80.2387884,49.6880001 L81.6739884,49.6880001 C82.3639883,49.6880001 82.7595883,49.3200001 82.7595883,48.7772001 L82.7595883,48.7588001 C82.7595883,48.1516001 82.3363883,47.8388001 81.6463884,47.8388001 L80.2387884,47.8388001 L80.2387884,49.6880001 Z M94.2257825,53.092 C95.6149825,53.092 96.5901825,52.3744 96.5901825,51.0956 L96.5901825,51.0772 C96.5901825,49.9548001 95.8541825,49.4856001 94.5477825,49.1452001 C93.4345826,48.8600001 93.1585826,48.7220001 93.1585826,48.2988001 L93.1585826,48.2804001 C93.1585826,47.9676001 93.4437826,47.7192001 93.9865825,47.7192001 C94.4281825,47.7192001 94.8697825,47.8756001 95.3389825,48.1516001 C95.4493825,48.2160001 95.5597825,48.2528001 95.6977825,48.2528001 C96.0657825,48.2528001 96.3601825,47.9676001 96.3601825,47.5996001 C96.3601825,47.3236001 96.2037825,47.1304001 96.0473825,47.0384001 C95.4677825,46.6704001 94.7869825,46.4680001 94.0049825,46.4680001 C92.6893826,46.4680001 91.7509826,47.2408001 91.7509826,48.4092001 L91.7509826,48.4276001 C91.7509826,49.7064001 92.5881826,50.0652001 93.8853825,50.3964001 C94.9617825,50.6724 95.1825825,50.8564 95.1825825,51.2152 L95.1825825,51.2336 C95.1825825,51.6108 94.8329825,51.8408 94.2533825,51.8408 C93.6277826,51.8408 93.0941826,51.62 92.6065826,51.2612 C92.5145826,51.1968 92.3857826,51.1324 92.2017826,51.1324 C91.8337826,51.1324 91.5393826,51.4176 91.5393826,51.7856 C91.5393826,52.0064 91.6497826,52.2088 91.8061826,52.3192 C92.5237826,52.8344 93.3793826,53.092 94.2257825,53.092 Z M105.645977,52.3468 C105.645977,52.7424 105.958777,53.0552 106.354377,53.0552 C106.749977,53.0552 107.062777,52.7424 107.062777,52.3468 L107.062777,47.8664001 L108.424377,47.8664001 C108.783177,47.8664001 109.077577,47.5720001 109.077577,47.2132001 C109.077577,46.8544001 108.783177,46.5600001 108.424377,46.5600001 L104.284377,46.5600001 C103.925577,46.5600001 103.631177,46.8544001 103.631177,47.2132001 C103.631177,47.5720001 103.925577,47.8664001 104.284377,47.8664001 L105.645977,47.8664001 L105.645977,52.3468 Z" id="First" fill="#FFE88A"></path>
                            </g>
                        </g>
                    </g>
                </g>
                <path d="M32.4003906,180.81543 C32.7988301,181.164064 32.9980469,181.51546 32.9980469,181.869629 L32.9980469,181.936035 C32.9648436,182.38428 32.6300488,182.987464 31.9936523,183.745605 C31.5288063,184.298994 31.014163,184.575684 30.449707,184.575684 C29.9682593,184.575684 29.3235717,184.285159 28.515625,183.704102 C28.045245,183.361001 27.7270516,183.178386 27.5610352,183.15625 C27.4669592,183.139648 27.3839522,183.131348 27.3120117,183.131348 C27.1958002,183.131348 27.1100263,183.159017 27.0546875,183.214355 C26.9993487,183.269694 26.9135748,183.408039 26.7973633,183.629395 C26.5926097,184.033368 26.3878591,184.37093 26.1831055,184.64209 C26.0115551,184.874513 25.7763687,184.990723 25.4775391,184.990723 C25.0790996,184.990723 24.7747406,184.821942 24.5644531,184.484375 C24.4648433,184.323892 24.4150391,184.160645 24.4150391,183.994629 C24.4150391,183.850748 24.4510088,183.701335 24.5229492,183.546387 C24.5450847,183.502116 24.5782875,183.427409 24.6225586,183.322266 C24.9213882,182.663734 25.2119127,182.168459 25.4941406,181.836426 C25.9977239,181.238767 26.6119755,180.895671 27.3369141,180.807129 C27.4033206,180.801595 27.4697262,180.798828 27.5361328,180.798828 C28.0507838,180.798828 28.7010052,181.011879 29.4868164,181.437988 C29.9516625,181.698081 30.2587883,181.828125 30.4082031,181.828125 C30.5299485,181.828125 30.6350907,181.728517 30.7236328,181.529297 C31.044598,180.859697 31.4098287,180.524902 31.8193359,180.524902 C31.9964202,180.524902 32.1569003,180.591308 32.3007812,180.724121 L32.4003906,180.81543 Z M55.9414062,184.633789 C55.9912112,184.766602 56.0161133,184.89388 56.0161133,185.015625 C56.0161133,185.043294 56.0133464,185.07373 56.0078125,185.106934 C55.9967447,185.234213 55.9497074,185.347656 55.8666992,185.447266 C55.6674795,185.712892 54.9480856,185.88444 53.7084961,185.961914 C53.337726,185.989583 53.0997727,186.008952 52.9946289,186.02002 C51.8380476,186.241375 50.5016352,186.769853 48.9853516,187.605469 L48.8857422,187.663574 C47.5686783,188.382979 46.531091,188.742676 45.7729492,188.742676 L45.6484375,188.742676 L45.5322266,188.734375 C44.342442,188.596028 43.5953791,187.456065 43.2910156,185.314453 C43.2135413,184.744463 43.1748047,184.085941 43.1748047,183.338867 C43.1748047,183.10091 43.1775716,182.854656 43.1831055,182.600098 C43.1997071,182.090981 43.230143,181.543134 43.2744141,180.956543 C42.8261696,180.879069 42.51351,180.701987 42.3364258,180.425293 C42.2589514,180.303548 42.2202148,180.170736 42.2202148,180.026855 C42.2202148,179.988118 42.2229817,179.952149 42.2285156,179.918945 C42.2395834,179.813802 42.2700193,179.700359 42.3198242,179.578613 C42.3917647,179.395995 42.5577786,179.138674 42.8178711,178.806641 C42.9396165,178.646158 43.0198566,178.532715 43.0585938,178.466309 C43.2578135,178.145343 43.409993,177.575362 43.5151367,176.756348 C43.5649417,176.357908 43.6119789,176.059083 43.65625,175.859863 C43.5511062,175.859863 43.4542648,175.854329 43.3657227,175.843262 C42.7625295,175.771321 42.3751636,175.566571 42.2036133,175.229004 C42.1482745,175.12386 42.1206055,175.00765 42.1206055,174.880371 C42.1206055,174.841634 42.1233724,174.80013 42.1289062,174.755859 C42.1510418,174.562174 42.228515,174.351889 42.3613281,174.125 C42.6103528,173.698891 43.1748003,173.350262 44.0546875,173.079102 C44.547203,172.924153 44.8930654,172.783041 45.0922852,172.655762 C45.5792668,172.334797 45.9832341,172.174316 46.3041992,172.174316 C46.3374025,172.174316 46.3706053,172.177083 46.4038086,172.182617 C46.713706,172.21582 47.0900043,172.437172 47.5327148,172.84668 C47.6599941,172.968425 47.8592109,173.043131 48.1303711,173.070801 C48.2244471,173.081869 48.3268224,173.087402 48.4375,173.087402 C48.8968122,173.087402 49.5027632,172.996095 50.2553711,172.813477 C51.0411823,172.630858 51.6139305,172.539551 51.9736328,172.539551 C52.0400394,172.539551 52.0981443,172.542318 52.1479492,172.547852 L52.2060547,172.556152 C52.7428412,172.617025 53.0610347,172.838377 53.1606445,173.220215 C53.1772462,173.281088 53.1855469,173.344726 53.1855469,173.411133 C53.1855469,173.44987 53.18278,173.488607 53.1772461,173.527344 C53.1661783,173.665691 53.1219079,173.804036 53.0444336,173.942383 C52.9060865,174.202475 52.701336,174.426594 52.4301758,174.614746 C51.7827116,175.068524 50.808763,175.29541 49.5083008,175.29541 C49.3920893,175.29541 49.2731126,175.292643 49.1513672,175.287109 C49.0517573,175.281575 48.8636082,175.264974 48.5869141,175.237305 C48.2548812,175.204101 47.9588229,175.1875 47.6987305,175.1875 C46.9516564,175.1875 46.4978849,175.328612 46.3374023,175.61084 C46.1713859,175.931805 46.0468754,176.449215 45.9638672,177.163086 C45.9417317,177.323569 45.9223634,177.497883 45.9057617,177.686035 C45.9057617,177.769043 45.9002279,177.85205 45.8891602,177.935059 C47.6655362,177.691568 49.3063076,177.567057 50.8115234,177.561523 C50.8502606,177.561523 50.9388014,177.558757 51.0771484,177.553223 C51.2431649,177.547689 51.3953444,177.544922 51.5336914,177.544922 C51.7605806,177.544922 51.9459628,177.553223 52.0898438,177.569824 C52.5546898,177.625163 52.8701164,177.766275 53.0361328,177.993164 C53.1302088,178.120443 53.1772461,178.253255 53.1772461,178.391602 L53.1772461,178.449707 C53.1717122,178.505046 53.1551108,178.557617 53.1274414,178.607422 C53.0333654,178.884116 52.7760438,179.155272 52.3554688,179.420898 C52.0123681,179.63672 51.7080091,179.777832 51.4423828,179.844238 C50.8336558,179.999187 49.9122783,180.07666 48.6782227,180.07666 L48.5537109,180.07666 L48.2050781,180.068359 C48.116536,180.068359 47.9754241,180.062826 47.7817383,180.051758 C47.5825185,180.04069 47.405437,180.035156 47.2504883,180.035156 C47.0346669,180.035156 46.8603522,180.046224 46.7275391,180.068359 C46.3512351,180.129232 46.0911466,180.281412 45.9472656,180.524902 C45.7259104,180.912274 45.5654302,181.534826 45.4658203,182.392578 L45.4492188,182.550293 C45.4215493,182.86019 45.4077148,183.150715 45.4077148,183.421875 C45.4077148,184.047204 45.4879549,184.556313 45.6484375,184.949219 C45.8033862,185.303387 46.0192043,185.513672 46.2958984,185.580078 C46.3567711,185.591146 46.4176429,185.599447 46.4785156,185.60498 C46.5615239,185.616048 46.6500646,185.621582 46.7441406,185.621582 C47.3916048,185.621582 48.3378844,185.386396 49.5830078,184.916016 C49.9371763,184.777669 50.1972648,184.680827 50.3632812,184.625488 C51.8242261,184.121905 53.0803984,183.870117 54.1318359,183.870117 C54.3697929,183.870117 54.5966786,183.883952 54.8125,183.911621 C55.000652,183.933757 55.1777335,183.964193 55.34375,184.00293 C55.6149102,184.063802 55.814127,184.274087 55.9414062,184.633789 Z M62.7231445,179.844238 C62.8006189,179.977051 62.8393555,180.1569 62.8393555,180.383789 C62.8393555,181.191736 62.3468474,182.602855 61.3618164,184.617188 C61.1349273,185.093101 61.004883,185.380859 60.9716797,185.480469 L60.9052734,185.663086 C60.5898422,186.60938 60.2965508,187.312172 60.0253906,187.771484 C59.538409,188.590499 58.9850291,189 58.3652344,189 C58.3154294,189 58.271159,188.997233 58.2324219,188.991699 C57.756508,188.947428 57.316571,188.6071 56.9125977,187.970703 C56.6801746,187.605467 56.4062516,187.024418 56.0908203,186.227539 C55.9967443,185.978514 55.9275718,185.8042 55.8833008,185.70459 C55.827962,185.571777 55.7394212,185.375327 55.6176758,185.115234 C55.1749652,184.152339 54.8816739,183.430178 54.737793,182.94873 C54.6049798,182.517088 54.5385742,182.146323 54.5385742,181.836426 C54.5385742,181.559732 54.5939122,181.335613 54.7045898,181.164062 C54.8816741,180.887368 55.1915668,180.749023 55.6342773,180.749023 C55.7615566,180.749023 55.9026685,180.760091 56.0576172,180.782227 C56.4615906,181.01465 57.0426394,182.157379 57.8007812,184.210449 C58.1106786,185.046065 58.3264968,185.588378 58.4482422,185.837402 C58.7470718,185.494302 59.1233701,184.572924 59.5771484,183.073242 C59.9423846,181.866856 60.2412098,181.034019 60.4736328,180.574707 C60.8665384,179.811031 61.3120092,179.429199 61.8100586,179.429199 C61.9152023,179.429199 62.0203445,179.443034 62.1254883,179.470703 C62.3966485,179.492839 62.5958652,179.617349 62.7231445,179.844238 Z M66.0185547,184.64209 C66.3727231,184.64209 66.6632476,184.517579 66.8901367,184.268555 C67.1004242,184.041666 67.2221678,183.759442 67.2553711,183.421875 C67.260905,183.366536 67.2636719,183.311198 67.2636719,183.255859 C67.2636719,182.990233 67.1972663,182.755047 67.0644531,182.550293 C66.8873689,182.273599 66.6272804,182.113119 66.2841797,182.068848 C66.2399086,182.063314 66.1984051,182.060547 66.159668,182.060547 C65.9383127,182.060547 65.7667649,182.151855 65.6450195,182.334473 C65.5177402,182.522625 65.4541016,182.782713 65.4541016,183.114746 C65.4541016,183.856286 65.6422507,184.365396 66.0185547,184.64209 Z M72.6259766,183.953125 C73.0299499,183.654295 73.3343089,183.504883 73.5390625,183.504883 C73.7438161,183.504883 73.8461914,183.659829 73.8461914,183.969727 C73.7133782,184.904953 73.1904343,185.887202 72.2773438,186.916504 C71.3863888,187.912603 70.4816127,188.571125 69.5629883,188.89209 C69.2309554,188.96403 68.9016943,189 68.5751953,189 C66.9537679,189 65.4596423,188.081389 64.0927734,186.244141 C63.6279274,185.618812 63.3955078,184.761073 63.3955078,183.670898 C63.3955078,183.211586 63.4370113,182.708011 63.5200195,182.160156 C63.6694343,181.175125 64.4552338,180.524904 65.8774414,180.209473 C66.0711273,180.165202 66.2620433,180.143066 66.4501953,180.143066 C66.9648463,180.143066 67.4462868,180.30908 67.8945312,180.641113 C68.4036484,181.017417 68.8380516,181.579098 69.1977539,182.326172 C69.2918299,182.663739 69.3388672,182.979165 69.3388672,183.272461 C69.3388672,184.14128 68.932133,184.841306 68.1186523,185.372559 C67.9858392,185.461101 67.8087576,185.544108 67.5874023,185.621582 C67.3383777,185.710124 67.1889651,185.765462 67.1391602,185.787598 C67.0229486,185.84847 66.9648438,185.925944 66.9648438,186.02002 L66.9648438,186.036621 C66.9759115,186.152833 67.072753,186.310546 67.2553711,186.509766 C67.6427428,186.930341 68.0882136,187.140625 68.5917969,187.140625 C68.7356778,187.140625 68.8850904,187.124024 69.0400391,187.09082 C69.6875032,186.946939 70.3349577,186.493168 70.9824219,185.729492 C71.8512413,184.716792 72.3990874,184.124675 72.6259766,183.953125 Z M80.9931641,180.250977 C81.2809259,180.466798 81.4248047,180.696451 81.4248047,180.939941 C81.4248047,181.000814 81.4137371,181.064453 81.3916016,181.130859 C80.2516219,181.711917 79.2998085,182.506017 78.5361328,183.513184 C77.6949828,184.614426 77.1139339,185.901034 76.7929688,187.373047 C76.5605457,188.452154 76.2257509,188.991699 75.7885742,188.991699 C75.6004222,188.991699 75.3929048,188.889324 75.1660156,188.68457 C74.6070936,188.175453 74.1699235,187.193204 73.8544922,185.737793 C73.5999336,184.575678 73.4726562,183.444016 73.4726562,182.342773 C73.5778,181.894529 73.7465809,181.587403 73.9790039,181.421387 C74.0896815,181.349446 74.2031244,181.313477 74.3193359,181.313477 C74.4466152,181.313477 74.5738926,181.352213 74.7011719,181.429688 C75.3098989,181.805991 75.6585282,182.683099 75.7470703,184.061035 C75.9739595,183.225419 76.4969035,182.353846 77.315918,181.446289 C78.251144,180.411453 79.1559201,179.894043 80.0302734,179.894043 L80.046875,179.894043 C80.3567724,179.894043 80.6721989,180.01302 80.9931641,180.250977 Z M90.331543,189.937988 C90.4200851,190.59652 90.4643555,191.155434 90.4643555,191.614746 C90.4643555,191.996584 90.4339196,192.306477 90.3730469,192.544434 C90.1461577,193.396651 89.5014702,194.135414 88.4389648,194.760742 C87.91878,195.07064 87.3654001,195.225586 86.7788086,195.225586 C85.3510671,195.225586 83.923347,194.398283 82.4956055,192.743652 C82.3240551,192.522297 82.2050785,192.256675 82.1386719,191.946777 C82.1110025,191.80843 82.097168,191.681153 82.097168,191.564941 C82.097168,191.398925 82.124837,191.257813 82.1801758,191.141602 C82.2853195,190.931314 82.4513335,190.826172 82.6782227,190.826172 C82.8387052,190.826172 83.0268544,190.875976 83.2426758,190.975586 C84.0616903,191.362958 84.8585573,191.791827 85.6333008,192.262207 C86.1756212,192.59424 86.6349265,192.760254 87.0112305,192.760254 C87.3266617,192.760254 87.5839834,192.641277 87.7832031,192.40332 C88.1429054,191.966144 88.3227539,191.169277 88.3227539,190.012695 C88.3227539,188.795241 88.126304,187.184906 87.7333984,185.181641 C87.5397126,185.425131 87.2740902,185.80973 86.9365234,186.335449 C86.4772112,187.04932 86.1009129,187.550129 85.8076172,187.837891 C85.3206356,188.324872 84.7617219,188.62093 84.1308594,188.726074 C83.9925123,188.74821 83.8597012,188.759277 83.7324219,188.759277 C83.2399064,188.759277 82.8470067,188.590496 82.5537109,188.25293 C82.1442037,187.78255 81.9394531,186.980149 81.9394531,185.845703 C81.9394531,185.275713 81.9920242,184.617191 82.097168,183.870117 C82.1580407,183.416339 82.3378891,182.757817 82.6367188,181.894531 C83.0849632,180.594069 83.5553361,179.943848 84.0478516,179.943848 C84.3522151,179.943848 84.628905,180.187335 84.8779297,180.674316 L84.8945312,180.740723 C84.8945312,181.327314 84.7534194,182.179519 84.4711914,183.297363 C84.2000312,184.382004 84.0644531,185.236976 84.0644531,185.862305 C84.0644531,185.939779 84.06722,186.014485 84.0727539,186.086426 C84.5486677,185.914875 85.0218075,185.447269 85.4921875,184.683594 C85.7688816,184.229815 86.1451799,183.474452 86.6210938,182.41748 C87.0693382,181.421382 87.4068999,180.749025 87.6337891,180.400391 C88.0045591,179.824867 88.3780906,179.537109 88.7543945,179.537109 C88.826335,179.537109 88.8982744,179.548177 88.9702148,179.570312 L89.0117188,179.570312 C89.1279303,179.570312 89.2496738,179.633951 89.3769531,179.76123 C89.8916041,180.281415 90.1489258,182.364891 90.1489258,186.011719 L90.1489258,187.140625 C90.1489258,187.821292 90.1572265,188.26953 90.1738281,188.485352 C90.1959637,188.833986 90.2485347,189.318194 90.331543,189.937988 Z M96.8393555,184.384766 C96.2804334,184.583985 95.7574894,184.841307 95.2705078,185.156738 C94.6673147,185.538576 94.3186854,185.895506 94.2246094,186.227539 C94.2080077,186.282878 94.199707,186.338216 94.199707,186.393555 C94.199707,186.520834 94.2439774,186.639811 94.3325195,186.750488 L94.5566406,186.775391 C95.0436222,186.775391 95.5333634,186.507001 96.0258789,185.970215 C96.4962589,185.45003 96.767415,184.921552 96.8393555,184.384766 Z M100.998047,186.335449 C101.451825,186.855634 101.678711,187.295571 101.678711,187.655273 C101.678711,187.765951 101.656576,187.871093 101.612305,187.970703 C101.319009,188.601566 100.973147,188.916992 100.574707,188.916992 C100.093259,188.916992 99.4458048,188.269538 98.6323242,186.974609 C98.4331045,186.659178 98.2919926,186.446127 98.2089844,186.335449 C97.6721978,187.486497 96.623543,188.275063 95.0629883,188.701172 C94.3380498,188.900392 93.671227,189 93.0625,189 C92.1992144,189 91.7675781,188.742678 91.7675781,188.228027 C91.7177732,187.973469 91.6928711,187.718914 91.6928711,187.464355 C91.6928711,185.85953 92.7304584,184.35157 94.8056641,182.94043 C94.9163417,182.868489 95.1653626,182.755046 95.5527344,182.600098 C96.5100959,182.21826 96.9887695,181.911134 96.9887695,181.678711 C96.9500324,181.313475 96.9306641,180.768396 96.9306641,180.043457 C96.9306641,179.678221 96.9361979,179.26872 96.9472656,178.814941 C96.9583334,178.244952 96.9638672,177.771812 96.9638672,177.395508 C96.9638672,177.11328 96.9611003,176.886394 96.9555664,176.714844 L96.9472656,176.631836 C96.9361979,176.443684 96.9306641,176.263835 96.9306641,176.092285 C96.9306641,175.013178 97.096678,174.302085 97.4287109,173.958984 C97.6556001,173.721027 97.9571921,173.602051 98.3334961,173.602051 C98.3943688,173.602051 98.4552406,173.604818 98.5161133,173.610352 C98.6987314,173.626953 98.8702791,173.787433 99.0307617,174.091797 C99.1635749,174.351889 99.2493488,174.614745 99.2880859,174.880371 C99.376628,175.461429 99.4208984,176.460279 99.4208984,177.876953 L99.4208984,178.366699 C99.4208984,178.554851 99.4181315,178.842609 99.4125977,179.22998 C99.4070638,179.445802 99.4042969,179.653319 99.4042969,179.852539 C99.4042969,181.141934 99.4817701,182.118649 99.6367188,182.782715 C99.8802096,183.861822 100.333981,185.046055 100.998047,186.335449 Z M107.72168,182.608398 C107.688476,182.586263 107.64974,182.575195 107.605469,182.575195 C107.422851,182.575195 107.171063,182.74951 106.850098,183.098145 C106.44059,183.551923 106.031089,184.157874 105.621582,184.916016 C105.245278,185.624352 105.026693,186.158364 104.96582,186.518066 C105.53581,186.357584 106.13346,185.820805 106.758789,184.907715 C107.37305,184.01676 107.69401,183.250329 107.72168,182.608398 Z M111.855469,186.55957 C112.253908,187.112958 112.453125,187.569497 112.453125,187.929199 C112.40332,188.200359 112.231772,188.44108 111.938477,188.651367 C111.650715,188.861655 111.346356,188.966797 111.025391,188.966797 C110.759764,188.966797 110.538412,188.88379 110.361328,188.717773 C109.996092,188.385741 109.661297,187.738286 109.356934,186.775391 C109.124511,186.022783 108.897625,185.505373 108.67627,185.223145 L108.452148,185.571777 C107.854489,186.518071 107.364748,187.201495 106.98291,187.62207 C106.324378,188.341475 105.63542,188.778645 104.916016,188.933594 C104.705728,188.977865 104.503744,189 104.310059,189 C103.745603,189 103.289064,188.820152 102.94043,188.460449 C102.586261,188.100747 102.392578,187.611006 102.359375,186.991211 C102.359375,185.740554 103.153475,184.204924 104.741699,182.384277 C106.778168,180.729647 108.316564,179.902344 109.356934,179.902344 L109.439941,179.902344 C109.860516,179.902344 110.189777,180.300777 110.427734,181.097656 C110.566081,181.545901 110.696126,182.254227 110.817871,183.222656 C110.856608,183.560223 110.884277,183.76774 110.900879,183.845215 C110.917481,183.906088 110.947916,184.049966 110.992188,184.276855 C111.141602,185.034997 111.291015,185.580076 111.44043,185.912109 C111.506836,186.05599 111.645181,186.271808 111.855469,186.55957 Z M121.874512,189.937988 C121.963054,190.59652 122.007324,191.155434 122.007324,191.614746 C122.007324,191.996584 121.976888,192.306477 121.916016,192.544434 C121.689126,193.396651 121.044439,194.135414 119.981934,194.760742 C119.461749,195.07064 118.908369,195.225586 118.321777,195.225586 C116.894036,195.225586 115.466316,194.398283 114.038574,192.743652 C113.867024,192.522297 113.748047,192.256675 113.681641,191.946777 C113.653971,191.80843 113.640137,191.681153 113.640137,191.564941 C113.640137,191.398925 113.667806,191.257813 113.723145,191.141602 C113.828288,190.931314 113.994302,190.826172 114.221191,190.826172 C114.381674,190.826172 114.569823,190.875976 114.785645,190.975586 C115.604659,191.362958 116.401526,191.791827 117.17627,192.262207 C117.71859,192.59424 118.177895,192.760254 118.554199,192.760254 C118.86963,192.760254 119.126952,192.641277 119.326172,192.40332 C119.685874,191.966144 119.865723,191.169277 119.865723,190.012695 C119.865723,188.795241 119.669273,187.184906 119.276367,185.181641 C119.082681,185.425131 118.817059,185.80973 118.479492,186.335449 C118.02018,187.04932 117.643882,187.550129 117.350586,187.837891 C116.863604,188.324872 116.304691,188.62093 115.673828,188.726074 C115.535481,188.74821 115.40267,188.759277 115.275391,188.759277 C114.782875,188.759277 114.389975,188.590496 114.09668,188.25293 C113.687172,187.78255 113.482422,186.980149 113.482422,185.845703 C113.482422,185.275713 113.534993,184.617191 113.640137,183.870117 C113.701009,183.416339 113.880858,182.757817 114.179688,181.894531 C114.627932,180.594069 115.098305,179.943848 115.59082,179.943848 C115.895184,179.943848 116.171874,180.187335 116.420898,180.674316 L116.4375,180.740723 C116.4375,181.327314 116.296388,182.179519 116.01416,183.297363 C115.743,184.382004 115.607422,185.236976 115.607422,185.862305 C115.607422,185.939779 115.610189,186.014485 115.615723,186.086426 C116.091636,185.914875 116.564776,185.447269 117.035156,184.683594 C117.31185,184.229815 117.688149,183.474452 118.164062,182.41748 C118.612307,181.421382 118.949869,180.749025 119.176758,180.400391 C119.547528,179.824867 119.921059,179.537109 120.297363,179.537109 C120.369304,179.537109 120.441243,179.548177 120.513184,179.570312 L120.554688,179.570312 C120.670899,179.570312 120.792643,179.633951 120.919922,179.76123 C121.434573,180.281415 121.691895,182.364891 121.691895,186.011719 L121.691895,187.140625 C121.691895,187.821292 121.700195,188.26953 121.716797,188.485352 C121.738932,188.833986 121.791503,189.318194 121.874512,189.937988 Z M139.953613,180.81543 C140.352053,181.164064 140.55127,181.51546 140.55127,181.869629 L140.55127,181.936035 C140.518066,182.38428 140.183271,182.987464 139.546875,183.745605 C139.082029,184.298994 138.567386,184.575684 138.00293,184.575684 C137.521482,184.575684 136.876794,184.285159 136.068848,183.704102 C135.598468,183.361001 135.280274,183.178386 135.114258,183.15625 C135.020182,183.139648 134.937175,183.131348 134.865234,183.131348 C134.749023,183.131348 134.663249,183.159017 134.60791,183.214355 C134.552571,183.269694 134.466797,183.408039 134.350586,183.629395 C134.145832,184.033368 133.941082,184.37093 133.736328,184.64209 C133.564778,184.874513 133.329591,184.990723 133.030762,184.990723 C132.632322,184.990723 132.327963,184.821942 132.117676,184.484375 C132.018066,184.323892 131.968262,184.160645 131.968262,183.994629 C131.968262,183.850748 132.004231,183.701335 132.076172,183.546387 C132.098307,183.502116 132.13151,183.427409 132.175781,183.322266 C132.474611,182.663734 132.765135,182.168459 133.047363,181.836426 C133.550947,181.238767 134.165198,180.895671 134.890137,180.807129 C134.956543,180.801595 135.022949,180.798828 135.089355,180.798828 C135.604006,180.798828 136.254228,181.011879 137.040039,181.437988 C137.504885,181.698081 137.812011,181.828125 137.961426,181.828125 C138.083171,181.828125 138.188313,181.728517 138.276855,181.529297 C138.597821,180.859697 138.963051,180.524902 139.372559,180.524902 C139.549643,180.524902 139.710123,180.591308 139.854004,180.724121 L139.953613,180.81543 Z" id="~-Everyday-~" fill="#FFFFFF"></path>
            </g>
        </g>
    </g>
</svg>