<?xml version="1.0" encoding="UTF-8" standalone="no"?>
<!-- Created with Inkscape (http://www.inkscape.org/) -->

<svg
   xmlns:dc="http://purl.org/dc/elements/1.1/"
   xmlns:cc="http://creativecommons.org/ns#"
   xmlns:rdf="http://www.w3.org/1999/02/22-rdf-syntax-ns#"
   xmlns:svg="http://www.w3.org/2000/svg"
   xmlns="http://www.w3.org/2000/svg"
   xmlns:xlink="http://www.w3.org/1999/xlink"
   xmlns:sodipodi="http://sodipodi.sourceforge.net/DTD/sodipodi-0.dtd"
   xmlns:inkscape="http://www.inkscape.org/namespaces/inkscape"
   width="83.43721mm"
   height="36.994549mm"
   viewBox="0 0 83.437209 36.994549"
   version="1.1"
   id="svg8"
   inkscape:version="0.92.1 r15371"
   sodipodi:docname="hungry-bread-omlet.svg">
  <defs
     id="defs2">
    <polygon
       points="65.496786,21.91345 0.071910679,21.91345 0.071910679,0.3981149 65.496786,0.3981149 "
       id="path-1" />
  </defs>
  <sodipodi:namedview
     id="base"
     pagecolor="#ffffff"
     bordercolor="#666666"
     borderopacity="1.0"
     inkscape:pageopacity="0.0"
     inkscape:pageshadow="2"
     inkscape:zoom="1"
     inkscape:cx="434.53733"
     inkscape:cy="28.163429"
     inkscape:document-units="mm"
     inkscape:current-layer="layer1"
     showgrid="false"
     inkscape:window-width="1360"
     inkscape:window-height="746"
     inkscape:window-x="1358"
     inkscape:window-y="-8"
     inkscape:window-maximized="1"
     fit-margin-top="0"
     fit-margin-left="0"
     fit-margin-right="0"
     fit-margin-bottom="0" />
  <metadata
     id="metadata5">
    <rdf:RDF>
      <cc:Work
         rdf:about="">
        <dc:format>image/svg+xml</dc:format>
        <dc:type
           rdf:resource="http://purl.org/dc/dcmitype/StillImage" />
        <dc:title></dc:title>
      </cc:Work>
    </rdf:RDF>
  </metadata>
  <g
     inkscape:label="Layer 1"
     inkscape:groupmode="layer"
     id="layer1"
     transform="translate(0.02852387,-0.08226333)">
    <g
       id="g3965"
       transform="translate(-28.148954,-86.022883)">
      <g
         style="fill:none;fill-rule:evenodd;stroke:none;stroke-width:1"
         transform="matrix(0.26458333,0,0,0.26458333,28.120397,100.34553)"
         id="g3769">
        <g
           id="menu"
           transform="translate(-634,-154)">
          <g
             id="Group-5"
             transform="translate(634,154)">
            <ellipse
               style="fill:#272e34"
               id="Oval-3"
               cx="23"
               cy="81"
               rx="15"
               ry="5" />
            <ellipse
               style="fill:#272e34"
               id="Oval-3-Copy"
               cx="63"
               cy="81"
               rx="15"
               ry="5" />
            <ellipse
               style="fill:#272e34"
               id="Oval-3-Copy-2"
               cx="114"
               cy="81"
               rx="15"
               ry="5" />
            <ellipse
               style="fill:#272e34"
               id="Oval-3-Copy-3"
               cx="154"
               cy="81"
               rx="15"
               ry="5" />
            <g
               id="Page-1">
              <path
                 style="fill:#f2b65f"
                 inkscape:connector-curvature="0"
                 d="m 33.300374,59.248719 c -0.34443,0.296603 -8.153632,7.142276 -8.056811,19.166615 -0.615847,-0.218884 -1.539619,-0.436182 -2.826867,-0.459973 -2.660208,-0.04917 -3.442716,0.708993 -2.10785,1.868443 1.017418,0.88188 4.249031,1.032561 5.807697,0.672513 0.03492,0 0.06825,0.0063 0.103171,0.0032 h 0.0063 c 0.246021,-0.01427 0.461885,-0.128475 0.61426,-0.298189 0.06984,-0.0571 0.115868,-0.120545 0.128566,-0.187162 0.0016,-0.0063 0.0016,-0.01269 0.0032,-0.01745 0.06349,-0.131648 0.1,-0.27757 0.09047,-0.433009 l -0.0048,-0.117373 c 0.117456,-0.945325 0.06508,-1.825619 0.01905,-2.750324 0.412682,-6.656925 3.434779,-11.483473 5.483901,-14.030774 0.434903,-0.501213 0.704733,-0.761336 0.704733,-0.761336 l -0.07619,0.01269 c 0.744414,-0.850157 1.253916,-1.299028 1.274551,-1.314889 0.373,-0.321981 0.415855,-0.883466 0.09365,-1.256203 -0.320621,-0.374323 -0.88409,-0.417149 -1.257091,-0.09675"
                 id="Fill-1" />
              <path
                 style="fill:#f2b65f"
                 inkscape:connector-curvature="0"
                 d="m 33.613377,59.075356 c -0.111106,0.03331 -0.219038,0.09358 -0.312685,0.172887 -0.344431,0.296603 -8.153633,7.142276 -8.056811,19.166615 -0.615848,-0.217297 -1.541207,-0.436181 -2.826868,-0.459973 -0.876154,-0.01586 -1.549142,0.05551 -2.007854,0.19985 -0.938056,0.295018 -0.996784,0.891397 -0.1,1.668594 1.015832,0.883466 4.249032,1.032561 5.80611,0.672512 0.03492,0.0016 0.06825,0.0079 0.103171,0.0048 h 0.0079 c 0.0746,-0.0048 0.146026,-0.01903 0.21269,-0.03965 0.157136,-0.04917 0.295226,-0.139578 0.399983,-0.260123 0.06984,-0.0571 0.117456,-0.120545 0.130154,-0.187162 0.0016,-0.0063 0.0016,-0.01269 0.0032,-0.01745 0.06349,-0.131647 0.09841,-0.275984 0.09047,-0.433009 l -0.0048,-0.115787 c 0.115868,-0.94691 0.06508,-1.827204 0.01905,-2.75191 0.412681,-6.656925 3.434779,-11.483473 5.483901,-14.029188 0.433315,-0.502798 0.703145,-0.762921 0.703145,-0.762921 l -0.0746,0.01269 c 0.744414,-0.848572 1.253917,-1.297443 1.274551,-1.31489 0.373,-0.320395 0.414269,-0.883466 0.09365,-1.256203 -0.239673,-0.279156 -0.614261,-0.372737 -0.944406,-0.26964"
                 id="Fill-3" />
              <path
                 style="fill:#c57d28"
                 inkscape:connector-curvature="0"
                 d="m 34.46366,60.601041 c -0.02063,0.01745 -0.530137,0.466317 -1.274551,1.314889 l 0.07619,-0.01269 c 0,0 -0.26983,0.260123 -0.704733,0.762921 -2.049121,2.545715 -5.071219,7.372264 -5.483901,14.029189 0.04603,0.924705 0.09841,1.804999 -0.01905,2.75191 l 0.0048,0.115786 c 0.0095,0.157025 -0.02698,0.302948 -0.09047,0.434596 -0.0016,0.0032 -0.0016,0.0095 -0.0032,0.01586 -0.0127,0.06662 -0.05873,0.130061 -0.128566,0.187161 -0.106345,0.120545 -0.244434,0.210954 -0.399983,0.260123 -0.06825,0.02062 -0.139677,0.0349 -0.21269,0.03965 h -0.0079 c -0.0063,0 -0.01111,0.0016 -0.01746,0.0016 -0.02857,0 -0.05714,-0.0048 -0.08571,-0.0063 -0.514264,0.118958 -1.209473,0.182403 -1.945951,0.182403 -1.501526,0 -3.179234,-0.263295 -3.861746,-0.854916 -0.895201,-0.777196 -0.83806,-1.373576 0.1,-1.668593 0.417443,-0.131648 1.009482,-0.203023 1.771356,-0.203023 0.07777,0 0.155549,0.0016 0.236498,0.0032 1.287248,0.02379 2.21102,0.242676 2.826868,0.459974 -0.09682,-12.024339 7.71238,-18.870012 8.056811,-19.166616 0.09523,-0.0793 0.201579,-0.137992 0.312685,-0.172886 0.08888,-0.02696 0.177771,-0.04124 0.268243,-0.04124 0.250783,0 0.499979,0.104683 0.67775,0.310878 0.320622,0.372737 0.277766,0.935808 -0.09523,1.256204 m 0.696796,-1.773277 c -0.320621,-0.374323 -0.787269,-0.586863 -1.279312,-0.586863 -0.171421,0 -0.342843,0.02538 -0.504741,0.07772 -0.219039,0.0682 -0.41903,0.179231 -0.593626,0.329912 -0.334907,0.285501 -7.979037,6.982079 -8.32188,18.728847 -0.623784,-0.130061 -1.303121,-0.203022 -2.030075,-0.215711 l -0.250783,-0.0032 c -0.830125,0 -1.5047,0.08089 -2.009441,0.239504 -0.903138,0.283915 -1.187253,0.797816 -1.266615,1.18007 -0.126979,0.604309 0.171422,1.22448 0.884091,1.843065 1.120588,0.973875 3.637945,1.050009 4.382359,1.050009 0.750763,0 1.45867,-0.06345 2.007854,-0.177645 0.0079,0.0016 0.01587,0.0016 0.02381,0.0016 0.207928,-0.0111 0.344431,-0.03648 0.474584,-0.07772 0.274592,-0.08565 0.520613,-0.239503 0.717431,-0.447284 0.19523,-0.177645 0.288877,-0.367979 0.333319,-0.517074 0.09841,-0.236331 0.141264,-0.482179 0.128566,-0.731199 0.10952,-0.954841 0.06349,-1.87003 0.01905,-2.755082 l -0.0032,-0.06662 c 0.41903,-6.557 3.504617,-11.296312 5.307718,-13.537493 0.376175,-0.433009 0.623784,-0.677271 0.638069,-0.688373 l 1.839606,-1.787552 -0.2984,0.05075 c 0.328558,-0.596379 0.271417,-1.362472 -0.198405,-1.909682"
                 id="Fill-5" />
              <path
                 style="fill:#f2b65f"
                 inkscape:connector-curvature="0"
                 d="m 63.477226,76.618583 c -0.06508,-0.131648 -0.157136,-0.24902 -0.285702,-0.339429 -0.03175,-0.02379 -0.0619,-0.04441 -0.09365,-0.0682 C 62.424889,75.535266 61.701109,75.032468 60.943998,74.497947 55.958489,70.061583 54.025235,64.706858 53.285583,61.523525 53.160191,60.873218 53.12051,60.500481 53.12051,60.500481 l -0.03651,0.0682 c -0.207928,-1.108695 -0.247609,-1.787552 -0.249196,-1.816102 -0.02222,-0.49011 -0.438077,-0.870777 -0.930121,-0.848572 -0.492043,0.02221 -0.87298,0.439354 -0.852346,0.929464 0.02063,0.452043 0.587278,10.818891 10.112282,18.165777 -0.552358,0.350531 -1.293597,0.943738 -2.107849,1.939818 -1.679296,2.060364 -1.566602,3.143681 0.169834,2.80901 1.322168,-0.253778 3.436366,-2.701154 4.115703,-4.149277 0.02222,-0.02379 0.04603,-0.04917 0.06666,-0.07772 0.0016,-0.0016 0.0032,-0.0032 0.0032,-0.0063 0.141264,-0.201437 0.185706,-0.44094 0.144438,-0.664582 -0.0032,-0.09199 -0.02222,-0.166542 -0.06825,-0.218884 -0.0032,-0.0048 -0.0079,-0.0079 -0.01111,-0.01269"
                 id="Fill-7" />
              <path
                 style="fill:#f2b65f"
                 inkscape:connector-curvature="0"
                 d="m 63.477226,76.618583 c -0.06508,-0.131648 -0.157136,-0.24902 -0.285702,-0.339429 -0.03175,-0.02379 -0.0619,-0.04441 -0.09365,-0.0682 C 62.424889,75.535266 61.701109,75.032468 60.943998,74.497947 55.958489,70.061583 54.025235,64.706858 53.285583,61.523525 53.160191,60.873218 53.12051,60.500481 53.12051,60.500481 l -0.03651,0.0682 c -0.207928,-1.108695 -0.247609,-1.787552 -0.249196,-1.816102 -0.02222,-0.49011 -0.438077,-0.870777 -0.930121,-0.848572 -0.01746,0 -0.03492,0.0016 -0.05397,0.0032 -0.466647,0.04758 -0.819014,0.452042 -0.79838,0.926291 0.02063,0.452043 0.587278,10.818891 10.112282,18.165777 -0.552358,0.350531 -1.293597,0.943738 -2.107849,1.939818 -1.574539,1.931889 -1.574539,3.004103 -0.136503,2.856594 0.09524,-0.0095 0.196818,-0.02538 0.306337,-0.04758 1.322168,-0.253778 3.436366,-2.701154 4.115703,-4.149277 0.02222,-0.02379 0.04603,-0.04917 0.06666,-0.07772 0.0016,-0.0016 0.0032,-0.0032 0.0032,-0.0063 0.141264,-0.201437 0.185706,-0.44094 0.144438,-0.664582 -0.0032,-0.09199 -0.02222,-0.166542 -0.06825,-0.218884 -0.0032,-0.0048 -0.0079,-0.0079 -0.01111,-0.01269"
                 id="Fill-9" />
              <path
                 style="fill:#c57d28"
                 inkscape:connector-curvature="0"
                 d="m 63.412943,77.515372 c 0,0.0032 -0.0016,0.0048 -0.0032,0.0063 -0.02063,0.02696 -0.04603,0.05234 -0.06825,0.07772 -0.67775,1.448123 -2.793536,3.895498 -4.115704,4.149277 -0.107932,0.0222 -0.209515,0.03648 -0.304749,0.046 -0.08888,0.0095 -0.171422,0.01427 -0.249196,0.01427 -1.184078,0 -1.093606,-1.057939 0.385698,-2.870868 0.812665,-0.994495 1.555492,-1.587702 2.106263,-1.938233 C 51.640412,69.653 51.072182,59.286151 51.053135,58.834108 c -0.02063,-0.474248 0.331732,-0.878707 0.79838,-0.926291 0.01746,-0.0016 0.03492,-0.0032 0.05397,-0.0032 0.0127,-0.0016 0.02698,-0.0016 0.03968,-0.0016 0.474583,0 0.868218,0.372737 0.890439,0.850157 0.0016,0.02696 0.03968,0.705822 0.249196,1.814516 l 0.03651,-0.0682 c 0,0 0.03809,0.374323 0.165073,1.024631 0.739652,3.183333 2.671318,8.538057 7.656827,12.974421 0.757112,0.534521 1.480891,1.03732 2.153879,1.713005 0.03175,0.0222 0.06349,0.04441 0.09524,0.0682 0.126978,0.08882 0.220625,0.207781 0.285702,0.339428 0.0016,0.0048 0.0063,0.0063 0.0095,0.0111 0.04603,0.05393 0.06666,0.126889 0.06984,0.218884 0.03968,0.225228 -0.0048,0.464732 -0.144439,0.666168 m 0.236499,-1.884304 C 62.965343,74.953796 62.216167,74.42562 61.4908,73.913305 l -0.05238,-0.03648 c -4.902973,-4.38085 -6.728295,-9.72923 -7.380649,-12.531895 -0.107932,-0.563071 -0.146026,-0.908844 -0.147613,-0.926292 l -0.273004,-2.55999 -0.142852,0.268054 c -0.258719,-0.601138 -0.85552,-1.0167 -1.549142,-1.0167 H 51.9277 l -0.05714,0.0016 -0.02222,0.0016 -0.0746,0.0063 c -0.890439,0.09041 -1.553904,0.859674 -1.514223,1.749485 0.02063,0.439354 0.568231,10.58256 9.605954,18.105504 -0.487282,0.410804 -0.963453,0.900914 -1.423751,1.462398 -1.225347,1.503638 -1.620569,2.574265 -1.242806,3.368909 0.141264,0.29819 0.520613,0.79623 1.472955,0.79623 0.10317,0 0.21269,-0.0063 0.330145,-0.01903 0.117455,-0.0111 0.242847,-0.03014 0.376175,-0.05551 1.753896,-0.337842 3.925235,-3.070719 4.629968,-4.483947 0.01746,-0.02221 0.03333,-0.04124 0.0492,-0.06345 0.252371,-0.366392 0.352367,-0.793057 0.288877,-1.218136 -0.01905,-0.263295 -0.109519,-0.452043 -0.201579,-0.578932 -0.123804,-0.222056 -0.290464,-0.409218 -0.495217,-0.551968"
                 id="Fill-11" />
              <path
                 style="fill:#f2b65f"
                 inkscape:connector-curvature="0"
                 d="M 31.049673,45.79307 C 30.836984,45.69473 9.7584869,35.759305 4.2809348,26.496393 c 0,0 -0.9031374,-1.969955 -1.6110448,-1.776449 -0.5095028,0.139578 -0.1777704,0.708993 -0.1777704,0.708993 0,0 -0.3618899,-0.645549 -0.8555204,-0.393356 -0.3063365,0.157025 -0.1968172,0.618585 -0.0746,0.829538 C 1.4366075,25.744574 1.1350326,25.58279 0.88424929,25.839741 0.43664868,26.296542 1.8556378,27.928655 1.8556378,27.928655 7.7712672,37.932283 28.956109,47.923222 29.856072,48.343543 c 0.703145,0.328326 1.542793,0.02538 1.872938,-0.678858 0.328558,-0.704235 0.02381,-1.541703 -0.679337,-1.871615"
                 id="Fill-13" />
              <path
                 style="fill:#f2b65f"
                 inkscape:connector-curvature="0"
                 d="M 31.049673,45.79307 C 30.840158,45.69473 10.334654,36.030531 4.517433,26.878646 4.4348967,26.751757 4.3571221,26.624868 4.2809348,26.496393 c 0,0 -0.1872939,-0.410804 -0.4602985,-0.839055 C 3.4968401,25.146609 3.0540012,24.613674 2.66989,24.719944 c -0.4936304,0.13482 -0.1968173,0.674099 -0.1777704,0.707407 -0.00317,-0.0032 -0.00794,-0.01269 -0.015872,-0.02538 -0.077775,-0.123717 -0.4095069,-0.586862 -0.839648,-0.366392 -0.3063365,0.157025 -0.1968172,0.618585 -0.0746,0.829538 -0.1253916,-0.120545 -0.4269665,-0.282329 -0.67774981,-0.02538 -0.22062583,0.225228 0.0111107,0.735958 0.30474931,1.195931 0.2999877,0.474248 0.6666392,0.892983 0.6666392,0.892983 0.087298,0.149095 0.1777705,0.296603 0.2714174,0.445698 6.2664086,9.851361 26.8417513,19.555214 27.7290163,19.96919 0.703145,0.328326 1.542793,0.02538 1.872938,-0.678858 0.211104,-0.452042 0.160311,-0.959599 -0.08888,-1.352956 -0.13809,-0.218884 -0.339668,-0.401287 -0.590452,-0.518659"
                 id="Fill-15" />
              <path
                 style="fill:#c57d28"
                 inkscape:connector-curvature="0"
                 d="m 31.728534,47.66421 c -0.239672,0.512315 -0.747588,0.812091 -1.277725,0.812091 -0.199992,0 -0.403158,-0.04283 -0.595213,-0.131648 C 28.969918,47.929091 8.3929876,38.226824 2.1281663,28.373877 2.0345194,28.224782 1.9424597,28.077274 1.8551617,27.929765 c 0,0 -0.3650644,-0.420321 -0.6666392,-0.894569 -0.29205149,-0.459973 -0.52537521,-0.970702 -0.30474938,-1.195931 0.0968214,-0.09993 0.20316618,-0.137992 0.30316208,-0.137992 0.1555492,0 0.2984004,0.09041 0.3745878,0.16337 C 1.4393058,25.65369 1.3313737,25.19213 1.63771,25.035105 c 0.079362,-0.04124 0.1571364,-0.05869 0.2301493,-0.05869 0.3142727,0 0.544422,0.325153 0.6079114,0.425079 0.00794,0.01427 0.014285,0.02379 0.015872,0.02538 -0.019047,-0.03331 -0.31586,-0.572587 0.1777705,-0.707407 0.033332,-0.0095 0.066664,-0.01427 0.099996,-0.01427 0.3603027,0 0.7539372,0.486937 1.0507504,0.951669 0.2730046,0.429837 0.4618857,0.839055 0.4618857,0.839055 0.0746,0.128475 0.1523747,0.255364 0.234911,0.38384 5.8172207,9.150298 26.3227247,18.816084 26.5322397,18.912837 0.250783,0.118958 0.452363,0.301362 0.590452,0.518659 0.250783,0.394943 0.299988,0.900914 0.08889,1.352957 m -0.34126,-2.59013 C 31.180938,44.978917 10.886536,35.419401 5.1867705,26.454678 5.1153448,26.345236 5.0486809,26.234208 4.9836042,26.126352 4.9248765,26.004221 4.7407571,25.623554 4.4899738,25.231783 4.1296712,24.66554 3.5598534,23.912135 2.7694097,23.912135 c -0.1047576,0 -0.2079279,0.01428 -0.309511,0.04283 -0.1777705,0.04758 -0.3349069,0.128476 -0.4650602,0.234745 -0.041268,-0.0032 -0.084124,-0.0063 -0.1269789,-0.0063 -0.2047535,0 -0.4047453,0.05076 -0.5936264,0.147509 -0.27459184,0.141164 -0.47775807,0.382253 -0.56981777,0.682029 -0.14285126,0.06344 -0.27459186,0.153853 -0.38887287,0.272812 -0.7142563,0.732785 -0.0238085,1.817688 0.20316623,2.174564 0.26506845,0.417148 0.57140501,0.793057 0.68886051,0.932636 0.080949,0.134819 0.1650726,0.271225 0.2507833,0.404459 6.390213,10.051212 27.1782454,19.851817 28.0607494,20.264207 0.293638,0.137992 0.607911,0.207781 0.931707,0.207781 0.852346,0 1.634853,-0.49804 1.996743,-1.267306 0.320622,-0.685202 0.26983,-1.476673 -0.138089,-2.114291 -0.223801,-0.353704 -0.542835,-0.634446 -0.922185,-0.813677"
                 id="Fill-17" />
              <path
                 style="fill:#f2b65f"
                 inkscape:connector-curvature="0"
                 d="m 85.496161,27.641092 c 0.112694,-0.214126 0.20634,-0.678857 -0.104758,-0.82478 -0.501566,-0.234745 -0.841235,0.425079 -0.841235,0.425079 0,0 0.312686,-0.58369 -0.203166,-0.704235 -0.714257,-0.168128 -1.545968,1.833549 -1.545968,1.833549 -5.142646,9.45166 -25.852904,20.132559 -26.062419,20.240415 -0.690448,0.353704 -0.966627,1.202276 -0.611086,1.893822 0.355541,0.693132 1.204713,0.965944 1.896748,0.61224 0.88409,-0.452042 21.697518,-11.193214 27.251258,-21.399865 0,0 1.360261,-1.682868 0.896788,-2.123808 -0.258719,-0.249021 -0.557119,-0.07455 -0.676162,0.04758"
                 id="Fill-19" />
              <path
                 style="fill:#f2b65f"
                 inkscape:connector-curvature="0"
                 d="m 85.496161,27.641092 c 0.112694,-0.214126 0.20634,-0.678857 -0.104758,-0.82478 -0.438077,-0.203023 -0.75235,0.26964 -0.825363,0.394943 -0.0079,0.01427 -0.01429,0.02379 -0.01587,0.02696 0.01746,-0.03331 0.295226,-0.583691 -0.203166,-0.701063 -0.387286,-0.092 -0.809491,0.458387 -1.115827,0.978633 -0.257133,0.437768 -0.430141,0.854916 -0.430141,0.854916 -0.07143,0.130061 -0.144439,0.260123 -0.222213,0.39177 -5.487076,9.353322 -25.633865,19.742376 -25.840206,19.848645 -0.246021,0.12689 -0.439664,0.315637 -0.571405,0.540866 -0.234911,0.399701 -0.266656,0.908844 -0.03968,1.352956 0.355541,0.693132 1.204713,0.965944 1.896748,0.61224 0.869805,-0.445698 21.08802,-10.877577 26.995713,-20.947822 0.08888,-0.150681 0.174596,-0.302948 0.255545,-0.452043 0,0 0.350779,-0.434596 0.634895,-0.919947 0.276179,-0.467904 0.488868,-0.98815 0.261893,-1.203861 -0.258719,-0.249021 -0.557119,-0.07455 -0.676162,0.04758"
                 id="Fill-21" />
              <path
                 style="fill:#c57d28"
                 inkscape:connector-curvature="0"
                 d="m 85.910112,28.798163 c -0.284115,0.485351 -0.633307,0.918361 -0.633307,0.918361 -0.08254,0.150681 -0.168247,0.302948 -0.257133,0.452042 -5.907693,10.071832 -26.125907,20.502125 -26.995713,20.947823 -0.204753,0.10627 -0.423792,0.155439 -0.641243,0.155439 -0.51109,0 -1.004721,-0.280742 -1.255504,-0.766093 -0.226975,-0.445698 -0.19523,-0.953255 0.04127,-1.354542 0.130153,-0.225229 0.323796,-0.413976 0.571405,-0.540866 0.204754,-0.104683 20.351543,-10.495324 25.838618,-19.847059 0.07778,-0.131647 0.150788,-0.261709 0.222213,-0.393356 0,0 0.173009,-0.415562 0.431728,-0.854916 0.280941,-0.480593 0.665053,-0.98815 1.02853,-0.98815 0.02857,0 0.05873,0.0032 0.0873,0.0095 0.496805,0.117372 0.219038,0.667754 0.203166,0.702649 0.0016,-0.0032 0.0063,-0.01269 0.01429,-0.02696 0.06031,-0.103098 0.285703,-0.445698 0.609499,-0.445698 0.06825,0 0.139676,0.01586 0.215864,0.05076 0.311098,0.145923 0.219038,0.610655 0.104757,0.82478 0.07619,-0.07772 0.220626,-0.176059 0.382524,-0.176059 0.09682,0 0.196818,0.03489 0.293639,0.12689 0.228562,0.217297 0.01429,0.735957 -0.261894,1.205447 m 0.412681,-2.039744 c -0.104757,-0.295017 -0.314272,-0.528176 -0.595213,-0.659824 -0.177771,-0.08406 -0.363477,-0.125303 -0.552358,-0.125303 -0.05714,0 -0.114281,0.0048 -0.169835,0.01269 -0.134915,-0.103098 -0.295226,-0.177645 -0.474583,-0.22047 -0.08889,-0.02062 -0.177771,-0.03172 -0.26983,-0.03172 -0.811078,0 -1.366611,0.786713 -1.714216,1.37992 -0.236498,0.401287 -0.407919,0.786713 -0.460298,0.912016 -0.0619,0.111028 -0.125392,0.222056 -0.192056,0.336256 -5.379143,9.16616 -25.31483,19.439428 -25.516409,19.542525 -0.374588,0.193506 -0.684099,0.485351 -0.895201,0.845399 -0.384111,0.651894 -0.406333,1.443365 -0.06031,2.117464 0.377762,0.73913 1.128525,1.197517 1.960237,1.197517 0.347604,0 0.693622,-0.08406 1.003133,-0.241089 0.866631,-0.445699 21.291186,-10.982262 27.317922,-21.253943 0.08254,-0.137992 0.161898,-0.275984 0.238086,-0.415563 0.111106,-0.14275 0.403158,-0.528176 0.653941,-0.954841 0.21269,-0.364806 0.865044,-1.475087 0.125392,-2.180908 -0.12063,-0.1142 -0.253958,-0.201437 -0.398397,-0.260123"
                 id="Fill-23" />
              <g
                 id="Group-27"
                 transform="translate(11.642817,0.124056)">
                <mask
                   id="mask-2"
                   fill="white">
                  <use
                     height="100%"
                     width="100%"
                     y="0"
                     x="0"
                     xlink:href="#path-1"
                     id="use3705" />
                </mask>
                <g
                   id="Clip-26" />
                <path
                   style="fill:#ba6d19"
                   inkscape:connector-curvature="0"
                   d="M 39.103188,0.78163754 C 27.490968,-0.08596744 17.292975,0.05995515 6.6330967,6.1966346 -4.0601137,12.352348 1.534894,20.662005 1.534894,20.662005 c 0,0 20.557883,-14.2131781 35.920743,-14.3591006 C 52.816909,6.1569818 65.137036,21.91345 65.137036,21.91345 c 0,0 1.934841,-6.929738 -3.169711,-11.89745 C 56.045347,4.2504714 49.42181,1.5524895 39.103188,0.78163754"
                   id="Fill-25"
                   mask="url(#mask-2)" />
              </g>
              <path
                 style="fill:#f2b65f"
                 inkscape:connector-curvature="0"
                 d="M 52.671164,4.8391008 C 30.937138,2.6502619 16.650425,6.0762706 13.196599,15.681784 c 0,0 -2.747506,3.847915 3.068128,8.829903 L 15.974263,59.61876 c -0.02381,2.901004 2.191973,5.330932 5.083917,5.575194 l 40.136442,3.373667 c 3.39986,0.283915 6.423545,-2.152358 6.86321,-5.533956 l 4.615682,-35.408434 c 0,0 4.712505,-2.842318 4.523624,-7.565769 C 77.047937,16.301955 74.405189,7.0263536 52.671164,4.8391008"
                 id="Fill-28" />
              <path
                 style="fill:#c57d28"
                 inkscape:connector-curvature="0"
                 d="m 72.672721,27.625548 -4.614096,35.408435 c -0.417443,3.20078 -3.149077,5.554575 -6.323549,5.554575 -0.179358,0 -0.360302,-0.0063 -0.541247,-0.02221 L 21.058974,65.194271 C 18.167029,64.95001 15.949661,62.520081 15.973469,59.619077 L 16.263933,24.512004 C 10.449887,19.530016 13.195806,15.682101 13.195806,15.682101 15.98458,7.9307564 25.823857,4.2033858 40.942282,4.2033858 c 3.615724,0 7.53461,0.2125394 11.728088,0.6360322 21.735613,2.1872528 24.378361,11.461268 24.527561,15.218775 0.188881,4.725037 -4.52521,7.567355 -4.52521,7.567355 M 52.749732,4.0495327 C 48.534033,3.6260399 44.562768,3.4103283 40.942282,3.4103283 c -15.766018,0 -25.606882,4.1238993 -28.465494,11.9275857 -0.426967,0.726441 -2.387204,4.732968 2.990353,9.530966 l -0.28729,34.743852 c -0.02698,3.295947 2.52688,6.093855 5.812459,6.371425 l 40.134855,3.373667 c 0.203166,0.01586 0.406332,0.02379 0.607911,0.02379 3.590328,0 6.647345,-2.683706 7.110818,-6.244535 L 73.412373,28.088694 C 74.550421,27.303567 78.167732,24.451732 77.991549,20.02647 77.828064,15.969188 75.045639,6.2938856 52.749732,4.0495327"
                 id="Fill-30" />
              <path
                 style="fill:#f9e695"
                 inkscape:connector-curvature="0"
                 d="M 52.209913,9.4193255 C 45.349878,8.7261932 39.299334,8.6215096 34.221765,9.1021024 27.720445,9.715929 19.547766,11.628784 17.530389,17.238873 l -0.214277,0.597965 -0.163485,0.228401 c -0.02857,0.398115 0.414268,1.498879 2.109437,2.95176 l 1.62533,1.391023 -0.309512,37.249914 c -0.0032,0.488524 0.376175,0.907258 0.866631,0.946911 L 61.579368,63.9801 c 0.109519,0.0079 0.217452,0.0095 0.322209,0 0.81584,-0.07613 1.485653,-0.726441 1.590411,-1.538531 l 4.612508,-35.410021 0.326971,-2.166633 1.818973,-1.154692 c 0.02222,-0.01586 2.41736,-1.624182 2.344347,-3.467248 -0.08095,-2.066708 -1.798338,-8.95362 -20.384874,-10.8236495"
                 id="Fill-32" />
              <path
                 style="fill:#9d0102"
                 inkscape:connector-curvature="0"
                 d="m 51.480737,30.573184 c -6.661631,1.483018 -14.251794,0.244262 -17.684986,-0.851743 -3.434779,-1.097592 -4.517275,0.09834 -4.644253,1.622596 -0.490456,5.925726 7.409218,8.722047 13.102634,9.477038 5.69183,0.75499 10.747177,-1.425918 12.999465,-3.446629 2.893532,-2.59647 2.88877,-8.284279 -3.77286,-6.801262"
                 id="Fill-34" />
              <path
                 style="fill:#ffffff"
                 inkscape:connector-curvature="0"
                 d="m 34.421757,31.46696 c 1.24598,0.133234 1.503112,-1.180069 1.503112,-1.180069 l -2.396726,-0.643963 c 0,0 -0.352367,1.690799 0.893614,1.824032"
                 id="Fill-36" />
              <path
                 style="fill:#f2b65f"
                 inkscape:connector-curvature="0"
                 d="m 34.421757,31.46696 c -0.01587,-0.0016 -0.03016,-0.0032 -0.04444,-0.0048 -1.192014,-0.168128 -0.849171,-1.819274 -0.849171,-1.819274 l 2.396726,0.643963 c 0,0 -0.257132,1.313303 -1.503112,1.180069 z m -0.811078,-2.130152 -0.323796,-0.08724 -0.06984,0.329912 c -0.02063,0.104684 -0.201579,1.048422 0.244435,1.681282 0.199992,0.285501 0.501566,0.463146 0.871393,0.513902 0.01746,0.0032 0.03651,0.0048 0.05555,0.0079 1.214235,0.128476 1.739611,-0.880294 1.847543,-1.433848 l 0.05714,-0.291845 -0.285702,-0.07613 z"
                 id="Fill-38" />
              <path
                 style="fill:#ffffff"
                 inkscape:connector-curvature="0"
                 d="m 41.317187,32.995817 c 1.520572,0.136406 1.56184,-1.782794 1.56184,-1.782794 l -2.809408,-0.233159 c 0,0 0.117456,1.916027 1.247568,2.015953"
                 id="Fill-40" />
              <path
                 style="fill:#f2b65f"
                 inkscape:connector-curvature="0"
                 d="m 41.317187,32.995817 c -0.01746,-0.0016 -0.03333,-0.0032 -0.05079,-0.0048 -1.082495,-0.153853 -1.196776,-2.011194 -1.196776,-2.011194 l 2.809408,0.233159 c 0,0 -0.04127,1.9192 -1.56184,1.782794 z m -1.222172,-2.33159 -0.365064,-0.03014 0.02381,0.364807 c 0.0048,0.08724 0.144439,2.11905 1.468194,2.304625 0.02222,0.0032 0.04444,0.0063 0.06666,0.0079 0.480932,0.04441 0.888852,-0.08089 1.211061,-0.369565 0.665052,-0.593207 0.696797,-1.676524 0.696797,-1.722521 l 0.0063,-0.29819 -0.296814,-0.02379 z"
                 id="Fill-42" />
              <path
                 style="fill:#ffffff"
                 inkscape:connector-curvature="0"
                 d="m 47.176946,31.183522 c 0,0 0.2238,1.830377 1.650725,1.660662 1.425338,-0.1713 1.174555,-1.976299 1.174555,-1.976299 z"
                 id="Fill-44" />
              <path
                 style="fill:#f2b65f"
                 inkscape:connector-curvature="0"
                 d="m 48.827036,32.844026 c -0.133328,0.01586 -0.257132,0.01427 -0.369826,-0.0016 C 47.36043,32.687 47.176311,31.183363 47.176311,31.183363 l 2.826867,-0.315637 c 0,0 0.249197,1.806585 -1.176142,1.9763 z m 1.44756,-2.325245 -0.306337,0.03489 -2.826868,0.315637 -0.317447,0.03489 0.03809,0.318809 c 0.0095,0.06979 0.228562,1.746313 1.55073,1.933474 0.144438,0.02062 0.295226,0.02062 0.450775,0.0016 0.452362,-0.05234 0.80949,-0.247434 1.065035,-0.578932 0.52855,-0.685201 0.393635,-1.711418 0.388873,-1.754243 z"
                 id="Fill-46" />
              <path
                 style="fill:#fb978d"
                 inkscape:connector-curvature="0"
                 d="m 43.032196,35.218598 c -7.336206,-0.53452 -8.734561,3.603654 -8.734561,3.603654 0,0 3.610962,2.050847 9.152004,2.461651 5.36962,0.396529 9.186923,-1.801827 9.186923,-1.801827 0,0 -2.269748,-3.728957 -9.604366,-4.263478"
                 id="Fill-48" />
              <path
                 style="fill:#f2b65f"
                 inkscape:connector-curvature="0"
                 d="m 43.473289,40.968266 c -0.563469,-0.04124 -1.134874,-0.103097 -1.696756,-0.182403 -3.685562,-0.51866 -6.280693,-1.708246 -7.06955,-2.106361 0.428554,-0.856502 2.282446,-3.583034 8.302833,-3.145267 0.479345,0.03648 0.953929,0.08565 1.411053,0.150681 4.901385,0.68996 7.102882,2.905763 7.740951,3.684546 -1.012657,0.496454 -4.345853,1.919199 -8.688531,1.598804 m 1.034878,-5.911451 c -0.469822,-0.06662 -0.958691,-0.118959 -1.453909,-0.153853 -7.493342,-0.54721 -8.996455,3.640134 -9.056769,3.819365 l -0.08412,0.247434 0.228562,0.128475 c 0.119043,0.0682 2.982417,1.671765 7.545721,2.314142 0.576167,0.08248 1.16027,0.144337 1.739611,0.187162 5.402952,0.399701 9.209144,-1.752658 9.367868,-1.844652 l 0.280941,-0.161784 -0.168247,-0.27757 c -0.08254,-0.137992 -2.120548,-3.373667 -8.399654,-4.258719"
                 id="Fill-50" />
              <path
                 style="fill:#ffffff"
                 inkscape:connector-curvature="0"
                 d="m 40.516585,38.728354 c -1.069797,-0.22047 -1.642789,1.452882 -1.642789,1.452882 0,0 0.80949,0.298189 1.109478,0.345773 0.942818,0.144336 1.326929,0.222056 1.326929,0.222056 0,0 0.438077,-1.765346 -0.793618,-2.020711"
                 id="Fill-52" />
              <path
                 style="fill:#f2b65f"
                 inkscape:connector-curvature="0"
                 d="m 41.310838,40.749858 c 0,0 -0.385698,-0.07931 -1.328517,-0.223642 -0.299987,-0.046 -1.109478,-0.344187 -1.109478,-0.344187 0,0 0.550771,-1.608321 1.580887,-1.463985 0.02063,0.0032 0.04127,0.0079 0.06349,0.0111 1.231695,0.255365 0.793618,2.020711 0.793618,2.020711 m -0.730129,-2.331589 c -0.02857,-0.0063 -0.05555,-0.0111 -0.08254,-0.01428 v 0 c -1.274551,-0.179231 -1.898334,1.598804 -1.925317,1.673351 l -0.1,0.293431 0.290464,0.107856 c 0.08571,0.03172 0.849171,0.310879 1.17138,0.361634 0.920597,0.141165 1.30947,0.218884 1.312645,0.218884 l 0.2984,0.06027 0.07301,-0.293432 c 0.01111,-0.04441 0.268243,-1.113452 -0.179358,-1.827204 -0.19523,-0.30612 -0.484107,-0.502799 -0.858695,-0.580518"
                 id="Fill-54" />
              <path
                 style="fill:#ffffff"
                 inkscape:connector-curvature="0"
                 d="m 45.196075,39.222588 c -1.247568,0.107855 -1.266615,1.74314 -1.266615,1.74314 0,0 1.017419,0.0111 1.365023,0 0.349192,-0.01269 1.379309,-0.103097 1.379309,-0.103097 0,0 -0.230149,-1.747899 -1.477717,-1.640043"
                 id="Fill-56" />
              <path
                 style="fill:#f2b65f"
                 inkscape:connector-curvature="0"
                 d="m 45.295277,40.965094 c -0.349192,0.01269 -1.36661,0 -1.36661,0 0,0 0.01905,-1.633699 1.268201,-1.743141 0.09523,-0.0079 0.18412,-0.0063 0.266656,0.0063 1.014244,0.14275 1.209474,1.635284 1.209474,1.635284 0,0 -1.028529,0.08882 -1.377721,0.101512 m 0.214277,-2.050847 v 0 c -0.111107,-0.01586 -0.225388,-0.01903 -0.341256,-0.0079 -1.212648,0.10627 -1.549142,1.391023 -1.557079,2.055606 l -0.0032,0.315636 0.31586,0.0048 c 0.04286,0 1.030116,0.01269 1.382483,0 0.352366,-0.01427 1.352325,-0.09992 1.393593,-0.103098 l 0.330145,-0.03014 -0.04286,-0.32674 c -0.0079,-0.07137 -0.24126,-1.733623 -1.477717,-1.908096"
                 id="Fill-58" />
              <path
                 style="fill:#f2b65f"
                 inkscape:connector-curvature="0"
                 d="m 55.253438,37.374605 c -2.252288,2.020711 -7.307635,4.201619 -12.999464,3.446628 -0.07778,-0.0095 -0.158724,-0.02062 -0.236498,-0.03172 -5.672783,-0.800988 -13.350244,-3.600482 -12.866137,-9.445316 0.104758,-1.267306 0.871393,-2.306211 3.098285,-1.992161 0.452362,0.06345 0.96504,0.18399 1.545968,0.369565 1.255504,0.401287 3.069715,0.820022 5.188675,1.119798 3.674452,0.517073 8.271088,0.672512 12.496311,-0.268054 1.119001,-0.24902 2.052296,-0.296603 2.81417,-0.188748 3.768098,0.531349 3.366528,4.831307 0.95869,6.99001 m -0.869805,-7.618111 h -0.0016 c -0.874568,-0.122131 -1.896748,-0.0571 -3.039558,0.196678 -4.760121,1.061111 -9.731345,0.618585 -12.269336,0.260123 -1.90627,-0.26964 -3.712545,-0.658238 -5.083917,-1.096006 -0.595214,-0.190333 -1.152334,-0.321981 -1.650726,-0.39177 -1.21741,-0.172887 -2.172926,0.0111 -2.841153,0.545624 -0.56823,0.452042 -0.906312,1.151519 -0.977737,2.02071 -0.236498,2.848663 1.296772,5.342036 4.431563,7.21048 3.150664,1.879546 6.977491,2.632951 8.977408,2.915279 0.08095,0.0111 0.161898,0.02221 0.24126,0.03172 5.682306,0.753404 10.985262,-1.338682 13.50738,-3.602068 1.630092,-1.463984 2.420536,-3.816193 1.877701,-5.594228 C 57.1343,30.871532 56.007363,29.986479 54.38362,29.756493"
                 id="Fill-60" />
              <path
                 style="fill:#f2b65f"
                 inkscape:connector-curvature="0"
                 d="m 34.420963,23.299419 c -1.495176,-0.210953 -2.884008,0.832711 -3.095111,2.328417 -0.0016,0.01745 -0.0032,0.03331 -0.0048,0.06186 -0.02063,0.169714 0.1,0.325153 0.26983,0.350531 0.0032,0 0.0063,0 0.0079,0.0016 0.174596,0.01745 0.331732,-0.10627 0.352367,-0.279156 0.0016,-0.01428 0.0016,-0.02696 0.0032,-0.04758 0.161898,-1.148347 1.228521,-1.949335 2.37768,-1.787551 1.149159,0.161783 1.9523,1.227653 1.788815,2.382345 -0.0032,0.01269 -0.0048,0.02538 -0.0079,0.03965 -0.02857,0.171301 0.09047,0.331499 0.261894,0.358463 0.171421,0.02696 0.336494,-0.092 0.366651,-0.264882 0.0032,-0.01586 0.0063,-0.03331 0.0095,-0.05234 0.211102,-1.492534 -0.834886,-2.880385 -2.330063,-3.091338"
                 id="Fill-62" />
              <path
                 style="fill:#f2b65f"
                 inkscape:connector-curvature="0"
                 d="m 52.162772,24.358944 c -1.507874,-0.09358 -2.809408,1.057939 -2.901468,2.564748 -0.0016,0.01745 -0.0016,0.0349 -0.0016,0.06027 -0.0063,0.164955 0.114281,0.304534 0.273005,0.326739 0.01111,0.0016 0.02063,0.0016 0.03174,0.0016 0.176184,0.0079 0.322209,-0.128475 0.330145,-0.302948 v -0.04758 c 0.03333,-0.561485 0.284116,-1.0738 0.706321,-1.446537 0.420617,-0.372737 0.961865,-0.558313 1.523746,-0.525004 0.560295,0.03489 1.074559,0.285501 1.44756,0.707407 0.371413,0.418735 0.558707,0.9596 0.5222,1.529015 -0.0016,0.01269 -0.0032,0.02538 -0.0048,0.03965 -0.01429,0.172887 0.117455,0.321981 0.290464,0.337843 0.174596,0.01427 0.328558,-0.118959 0.342843,-0.295018 0.0032,-0.01586 0.0048,-0.03331 0.0063,-0.05234 0.09206,-1.505223 -1.058687,-2.804251 -2.566561,-2.897832"
                 id="Fill-64" />
              <path
                 style="fill:#6adbc6"
                 inkscape:connector-curvature="0"
                 d="m 122.53591,60.311416 c -0.29682,-0.38384 -0.84759,-0.456801 -1.23329,-0.161784 -0.35554,0.272812 -8.41552,6.601411 -8.96312,18.449691 -0.59521,-0.247433 -1.49359,-0.512315 -2.7602,-0.604309 -2.61736,-0.190334 -3.43002,0.515487 -2.17611,1.727279 0.95235,0.923119 4.12841,1.2451 5.6839,0.973875 0.0333,0.0032 0.0667,0.0095 0.10158,0.0095 h 0.006 c 0.24443,-0.0016 0.46189,-0.09992 0.62061,-0.261709 0.073,-0.05234 0.12063,-0.112614 0.13809,-0.177644 0.002,-0.0063 0.003,-0.0111 0.005,-0.01745 0.0683,-0.125303 0.11111,-0.268053 0.11111,-0.42032 0,-0.03965 0.002,-0.07613 0.002,-0.115787 0.16508,-0.926291 0.16349,-1.793896 0.16508,-2.709084 0.76505,-6.536381 3.99983,-11.126598 6.15371,-13.527976 0.45713,-0.471076 0.73489,-0.712166 0.73489,-0.712166 l -0.0746,0.0095 c 0.77933,-0.797816 1.30471,-1.211792 1.32534,-1.22924 0.3857,-0.295017 0.45713,-0.846985 0.16032,-1.232411"
                 id="Fill-66" />
              <path
                 style="fill:#ffffff"
                 inkscape:connector-curvature="0"
                 d="m 122.53591,60.311416 c -0.22063,-0.287087 -0.58411,-0.401287 -0.91425,-0.315637 -0.1127,0.02855 -0.22222,0.08089 -0.31904,0.153853 -0.35554,0.272812 -8.41552,6.601411 -8.96312,18.449691 -0.59521,-0.247433 -1.49359,-0.512315 -2.7602,-0.604309 -0.86187,-0.06345 -1.52851,-0.02855 -1.98881,0.08882 -0.93964,0.239504 -1.02694,0.826366 -0.1873,1.638457 0.95235,0.923119 4.12841,1.2451 5.6839,0.973875 0.0333,0.0032 0.0667,0.0095 0.10158,0.0095 h 0.006 c 0.073,0 0.14444,-0.0095 0.21269,-0.02696 0.15872,-0.04124 0.2984,-0.12213 0.40792,-0.234745 0.073,-0.05234 0.12063,-0.112614 0.13809,-0.177644 0.002,-0.0063 0.003,-0.0111 0.005,-0.01745 0.0683,-0.125303 0.11111,-0.268053 0.11111,-0.42032 0,-0.03965 0.002,-0.07613 0.002,-0.115787 0.16508,-0.926291 0.16349,-1.793896 0.16508,-2.709084 0.76505,-6.536381 3.99983,-11.126598 6.15371,-13.527976 0.45713,-0.471076 0.73489,-0.712166 0.73489,-0.712166 l -0.0746,0.0095 c 0.77933,-0.797816 1.30471,-1.211792 1.32534,-1.22924 0.3857,-0.295017 0.45713,-0.846985 0.16032,-1.232411"
                 id="Fill-68" />
              <path
                 style="fill:#c7b299"
                 inkscape:connector-curvature="0"
                 d="m 122.37623,61.544303 c -0.0222,0.01745 -0.5476,0.429837 -1.32534,1.227653 l 0.0746,-0.0079 c 0,0 -0.27936,0.241089 -0.73489,0.712165 -2.15388,2.399793 -5.38867,6.991596 -6.15372,13.527976 -0.003,0.913603 0,1.782794 -0.16507,2.709085 0,0.03807 -0.002,0.07613 -0.002,0.114201 0,0.153853 -0.0444,0.296603 -0.11269,0.421906 -0.002,0.0063 -0.003,0.0111 -0.005,0.01745 -0.0159,0.06503 -0.0651,0.125304 -0.13809,0.177645 -0.10952,0.111028 -0.2492,0.195092 -0.40634,0.233159 -0.0682,0.01745 -0.13967,0.02855 -0.21268,0.02855 h -0.006 c -0.0365,0 -0.0683,-0.0063 -0.10317,-0.0111 -0.35396,0.06186 -0.79521,0.09517 -1.27456,0.09517 -1.6158,0 -3.67286,-0.355289 -4.40934,-1.067455 -0.83964,-0.813677 -0.75076,-1.398954 0.18888,-1.638457 0.30793,-0.07931 0.70791,-0.118959 1.19678,-0.118959 0.24285,0 0.50633,0.0079 0.79044,0.03014 1.26662,0.09199 2.16658,0.356875 2.76179,0.604309 0.54601,-11.849866 8.60759,-18.176879 8.96154,-18.449691 0.0984,-0.07455 0.20634,-0.125303 0.31904,-0.155439 0.0714,-0.01745 0.14443,-0.02696 0.21745,-0.02696 0.26348,0 0.52537,0.118958 0.69838,0.344187 0.29523,0.385426 0.2238,0.935808 -0.16031,1.232411 m 0.78886,-1.716176 c -0.31904,-0.415562 -0.80315,-0.65348 -1.32693,-0.65348 -0.13968,0 -0.27936,0.01903 -0.41427,0.05234 -0.22063,0.05551 -0.42379,0.155439 -0.60474,0.295017 -0.34602,0.264882 -8.23299,6.449145 -9.20438,17.999235 -0.60474,-0.158611 -1.26662,-0.266467 -1.9777,-0.317223 -0.30633,-0.02221 -0.58728,-0.03172 -0.84917,-0.03172 -0.5476,0 -1.01742,0.04758 -1.39359,0.14275 -0.91108,0.233159 -1.22059,0.728027 -1.32058,1.103936 -0.15714,0.591621 0.10475,1.221309 0.77615,1.873202 1.05234,1.018286 3.61414,1.291098 4.9617,1.291098 0.47935,0 0.92378,-0.03172 1.29519,-0.08724 0.027,0.0016 0.0524,0.0032 0.0778,0.0032 0.15238,-0.0016 0.28888,-0.01903 0.42062,-0.05234 0.27301,-0.06979 0.52855,-0.209367 0.73489,-0.404459 0.20158,-0.166542 0.30475,-0.348946 0.35713,-0.496454 0.10952,-0.228401 0.16666,-0.467904 0.16666,-0.71851 0.16031,-0.932636 0.16349,-1.836722 0.16666,-2.712257 v -0.06345 c 0.76505,-6.434869 4.05539,-10.933092 5.95055,-13.045797 0.39205,-0.406046 0.64918,-0.631274 0.66505,-0.643963 l 1.9269,-1.676523 -0.30474,0.03489 c 0.3476,-0.572588 0.33173,-1.329165 -0.10317,-1.892235"
                 id="Fill-70" />
              <path
                 style="fill:#6adbc6"
                 inkscape:connector-curvature="0"
                 d="m 154.19222,81.095076 c 1.31899,-0.166542 3.55223,-2.44579 4.31093,-3.828882 0.0238,-0.02379 0.0492,-0.04441 0.0714,-0.07296 l 0.005,-0.0048 c 0.1492,-0.190334 0.20952,-0.423493 0.18253,-0.647135 0.003,-0.09041 -0.0127,-0.166542 -0.0524,-0.22047 -0.005,-0.0032 -0.008,-0.0079 -0.0111,-0.01269 -0.054,-0.133233 -0.13967,-0.255364 -0.25872,-0.350531 -0.0317,-0.02538 -0.0587,-0.05076 -0.0905,-0.07296 -0.61902,-0.707407 -1.29994,-1.246686 -2.01261,-1.822446 -4.63156,-4.677453 -6.20134,-10.068659 -6.73147,-13.24882 -0.0825,-0.648721 -0.0968,-1.019872 -0.0968,-1.019872 l -0.0413,0.06345 c -0.13651,-1.103936 -0.13174,-1.774863 -0.13174,-1.800241 0.008,-0.485351 -0.37777,-0.885052 -0.86346,-0.896155 -0.48569,-0.0079 -0.88726,0.377496 -0.89679,0.862847 -0.008,0.447284 -0.0952,10.68883 8.82345,18.517894 -0.56665,0.307707 -1.33328,0.8454 -2.19674,1.776449 -1.78246,1.923958 -1.73961,2.997758 -0.01,2.777288"
                 id="Fill-72" />
              <path
                 style="fill:#ffffff"
                 inkscape:connector-curvature="0"
                 d="m 153.88842,81.121405 c 0.0952,-0.0032 0.19682,-0.01269 0.30316,-0.02696 1.319,-0.166542 3.55383,-2.445789 4.31094,-3.828882 0.0254,-0.0222 0.0492,-0.04441 0.0714,-0.07296 l 0.005,-0.0032 c 0.15078,-0.19192 0.20951,-0.425079 0.18253,-0.648721 0.003,-0.08882 -0.0111,-0.164956 -0.0524,-0.218884 -0.005,-0.0032 -0.008,-0.0079 -0.0111,-0.01269 -0.054,-0.133234 -0.13968,-0.255365 -0.25872,-0.352118 -0.0302,-0.02379 -0.0587,-0.04917 -0.0889,-0.07296 -0.62061,-0.707407 -1.30153,-1.246687 -2.0142,-1.82086 -4.63155,-4.677454 -6.19974,-10.070245 -6.72988,-13.250406 -0.0841,-0.648721 -0.0984,-1.018286 -0.0984,-1.018286 l -0.0397,0.06345 c -0.1365,-1.105523 -0.13174,-1.774863 -0.13174,-1.801827 0.008,-0.485351 -0.37776,-0.885052 -0.86346,-0.894569 -0.0175,0 -0.0365,0 -0.0524,0.0016 -0.46188,0.01745 -0.83647,0.393356 -0.84599,0.859674 -0.006,0.448871 -0.0952,10.690417 8.82344,18.517895 -0.56505,0.309292 -1.33328,0.846985 -2.19673,1.776449 -1.66977,1.803413 -1.73644,2.861351 -0.31269,2.804251"
                 id="Fill-74" />
              <path
                 style="fill:#c7b299"
                 inkscape:connector-curvature="0"
                 d="m 156.398,76.54118 c -8.91868,-7.829064 -8.82979,-18.070609 -8.82344,-18.517894 0.01,-0.467904 0.38411,-0.842227 0.84599,-0.86126 0.01,0 0.0222,-0.0016 0.0349,-0.0016 h 0.0175 c 0.4857,0.0111 0.87139,0.410803 0.86346,0.896155 0,0.02538 -0.005,0.696304 0.13174,1.80024 l 0.0397,-0.06344 c 0,0 0.0143,0.371151 0.0984,1.019872 0.53013,3.180161 2.09832,8.571366 6.72988,13.250406 0.71267,0.574173 1.39359,1.113452 2.01261,1.82086 0.0317,0.02379 0.0603,0.04758 0.0905,0.07296 0.11904,0.09517 0.20475,0.218884 0.25872,0.352118 0.003,0.0032 0.006,0.0079 0.0111,0.0111 0.0397,0.05551 0.0555,0.130061 0.0524,0.220469 0.027,0.223643 -0.0318,0.456802 -0.18254,0.647136 l -0.005,0.0048 c -0.0222,0.02855 -0.046,0.04917 -0.0714,0.07296 -0.75711,1.383093 -2.99194,3.66234 -4.31094,3.828882 -0.10634,0.01427 -0.20792,0.02379 -0.30316,0.02696 -0.0365,0.0016 -0.0714,0.0032 -0.10634,0.0032 -1.31424,0 -1.20948,-1.050008 0.41903,-2.807424 0.86345,-0.931049 1.63168,-1.468742 2.19673,-1.776449 m -4.19824,4.526773 c 0.13809,0.317223 0.52855,0.850158 1.58248,0.850158 l 0.13809,-0.0032 c 0.11745,-0.0048 0.24126,-0.01586 0.373,-0.03331 1.75231,-0.222056 4.06332,-2.782046 4.849,-4.130244 0.0159,-0.02062 0.0333,-0.03965 0.0508,-0.05869 0.2746,-0.348945 0.3984,-0.764507 0.36189,-1.186414 -0.003,-0.263295 -0.0809,-0.458387 -0.16348,-0.590035 -0.10952,-0.2284 -0.26189,-0.421907 -0.45554,-0.577346 -0.63013,-0.708993 -1.33486,-1.275236 -2.01737,-1.824032 l -0.0492,-0.04124 c -4.55219,-4.615595 -6.01404,-9.992526 -6.48068,-12.790433 -0.0714,-0.561484 -0.0873,-0.902499 -0.0889,-0.921533 l -0.10793,-2.556817 -0.16507,0.261709 c -0.23015,-0.628102 -0.82854,-1.084903 -1.53804,-1.097592 l -0.008,-0.0016 h -0.0254 -0.0143 l -0.0492,0.0016 c -0.88885,0.03648 -1.59358,0.756577 -1.61104,1.640043 -0.006,0.434596 -0.10317,10.450913 8.32347,18.424314 -0.50316,0.372737 -0.99996,0.821607 -1.48407,1.345025 -1.32534,1.430676 -1.77612,2.47434 -1.42058,3.289603"
                 id="Fill-76" />
              <path
                 style="fill:#6adbc6"
                 inkscape:connector-curvature="0"
                 d="m 84.425094,55.232358 c 0.153962,0.502799 1.891985,0.122131 1.891985,0.122131 9.553575,-0.329912 25.108491,-11.678566 25.767191,-12.162331 0.51427,-0.377495 0.62379,-1.10235 0.24602,-1.616251 -0.37776,-0.517074 -1.10313,-0.62493 -1.61898,-0.24902 -0.15555,0.115786 -15.627925,11.408926 -24.473592,11.71346 0,0 -1.779292,-0.123717 -1.918969,0.463145 -0.1,0.423493 0.442839,0.407632 0.442839,0.407632 0,0 -0.609499,0.0079 -0.620609,0.46156 -0.0079,0.283914 0.368238,0.385426 0.569817,0.380667 -0.136502,0.04441 -0.374587,0.196678 -0.285702,0.479007"
                 id="Fill-78" />
              <path
                 style="fill:#ffffff"
                 inkscape:connector-curvature="0"
                 d="m 84.425094,55.232358 c 0.07619,0.247434 0.536486,0.282329 0.982499,0.250606 0.461886,-0.03014 0.909486,-0.128475 0.909486,-0.128475 0.141264,-0.0048 0.284116,-0.01269 0.426967,-0.02221 9.583732,-0.64079 24.692634,-11.662704 25.340224,-12.140125 0.51427,-0.377495 0.62379,-1.10235 0.24602,-1.616251 -0.24284,-0.331498 -0.62854,-0.494868 -1.01265,-0.46949 -0.21111,0.01427 -0.42221,0.08565 -0.60633,0.22047 -0.15396,0.1142 -15.20572,11.099633 -24.105354,11.694426 -0.123804,0.0079 -0.246021,0.01428 -0.368238,0.01903 0,0 -0.371414,-0.02379 -0.78727,0.0016 -0.496805,0.03489 -1.057099,0.14275 -1.131699,0.461559 -0.09682,0.409218 0.409507,0.407632 0.441252,0.407632 -0.0032,0 -0.0127,0 -0.0254,0.0016 -0.119043,0.0079 -0.584103,0.06345 -0.593626,0.459974 -0.0079,0.283914 0.368238,0.385426 0.569817,0.380667 -0.136502,0.04441 -0.374587,0.196678 -0.285702,0.479007"
                 id="Fill-80" />
              <path
                 style="fill:#c7b299"
                 inkscape:connector-curvature="0"
                 d="m 112.08396,43.192475 c -0.6476,0.477421 -15.756499,11.499335 -25.340231,12.140125 -0.142852,0.0095 -0.285703,0.01745 -0.42538,0.02221 0,0 -0.449188,0.09675 -0.911073,0.128475 -0.08412,0.0063 -0.171422,0.0095 -0.255545,0.0095 -0.353954,0 -0.66664,-0.06027 -0.726955,-0.260123 -0.0873,-0.282328 0.149201,-0.436181 0.285703,-0.479006 h -0.01429 c -0.203167,0 -0.561882,-0.103098 -0.553946,-0.380668 0.0079,-0.396529 0.472997,-0.452043 0.593627,-0.459974 0.01111,-0.0016 0.02063,-0.0016 0.02381,-0.0016 h -0.0048 c -0.0619,0 -0.530136,-0.01269 -0.436489,-0.407631 0.07619,-0.318809 0.634894,-0.428251 1.131699,-0.459974 0.146026,-0.0111 0.284115,-0.01427 0.406332,-0.01427 0.223801,0 0.380937,0.0111 0.380937,0.0111 0.122217,-0.0048 0.244435,-0.0111 0.368239,-0.01903 8.901221,-0.594793 23.951392,-11.580227 24.105352,-11.694427 0.18413,-0.13482 0.39523,-0.207781 0.60792,-0.22047 0.0254,-0.0016 0.0524,-0.0032 0.0778,-0.0032 0.35554,0 0.70791,0.161783 0.9333,0.471076 0.37935,0.515487 0.26824,1.240342 -0.24602,1.617837 m -0.68728,-2.881971 h -0.027 l -0.10476,0.0048 c -0.36824,0.02379 -0.72378,0.152267 -1.02218,0.372737 -0.15079,0.109442 -15.00097,10.961642 -23.689501,11.54216 -0.10317,0.0079 -0.206341,0.01269 -0.306337,0.01745 -0.06825,-0.0048 -0.211102,-0.0111 -0.39046,-0.0111 -0.136502,0 -0.295225,0.0048 -0.458711,0.01586 -1.077733,0.07138 -1.701517,0.431423 -1.850717,1.070628 -0.03492,0.145922 -0.04286,0.290259 -0.02381,0.428251 -0.107932,0.176059 -0.169834,0.379081 -0.174596,0.602724 -0.0079,0.269639 0.08412,0.52659 0.261894,0.732785 -0.0016,0.120544 0.01429,0.247434 0.05555,0.379081 0.115869,0.375909 0.466648,0.820022 1.485654,0.820022 0.101583,0 0.204753,-0.0032 0.309511,-0.0111 0.403158,-0.02696 0.793618,-0.09675 0.950754,-0.130062 0.126979,-0.0048 0.255545,-0.0111 0.385699,-0.02062 9.813881,-0.656652 25.11008,-11.818144 25.75609,-12.292392 0.42061,-0.307707 0.69362,-0.761336 0.77298,-1.276823 0.0794,-0.515488 -0.0476,-1.030975 -0.35554,-1.449709 -0.36665,-0.498041 -0.95552,-0.794644 -1.57454,-0.794644"
                 id="Fill-82" />
              <path
                 style="fill:#ffffff"
                 inkscape:connector-curvature="0"
                 d="m 125.91656,6.0186946 c -7.46795,1.3989536 -15.47714,9.0472004 -20.10393,12.1607444 -4.6268,3.116717 -6.410851,17.840624 -6.410851,17.840624 -1.945952,9.497657 2.623701,16.010246 11.748721,26.266066 9.12502,10.257407 28.42423,7.649834 37.06355,5.83849 8.63933,-1.81293 16.15013,-12.003719 18.71193,-17.233141 2.5618,-5.231008 5.43152,-12.67306 -1.14757,-28.526281 C 159.20249,6.5135625 133.38451,4.619741 125.91656,6.0186946"
                 id="Fill-84" />
              <path
                 style="fill:#c7b299"
                 inkscape:connector-curvature="0"
                 d="m 166.92582,50.890685 c -2.5618,5.231008 -10.0726,15.421798 -18.71193,17.233141 -3.68873,0.77561 -9.32342,1.693971 -15.27714,1.693971 -7.99015,0 -16.55805,-1.654318 -21.78641,-7.530875 -9.12502,-10.25582 -13.694672,-16.769995 -11.74872,-26.267653 0,0 1.78405,-14.72232 6.41085,-17.839037 4.62679,-3.11513 12.63598,-10.7633769 20.10393,-12.1623304 1.24757,-0.233159 3.01099,-0.3743232 5.10773,-0.3743232 10.45353,0 29.27657,3.5180034 34.75412,16.7224116 6.57909,15.853221 3.70937,23.293687 1.14757,28.524695 M 131.02571,4.8505208 c -2.07928,0 -3.89507,0.1348198 -5.25533,0.3885982 -5.81405,1.0896611 -11.71857,5.665603 -16.46123,9.342218 -1.51264,1.175312 -2.81893,2.187253 -3.93952,2.942244 -4.87282,3.280086 -6.680679,17.785109 -6.755279,18.400522 -2.087216,10.176514 3.374469,17.256932 11.942369,26.890996 4.60457,5.170735 12.13283,7.795756 22.38003,7.795756 6.02673,0 11.72332,-0.929464 15.44063,-1.711419 8.61552,-1.806585 16.38663,-11.79118 19.26111,-17.659806 2.87607,-5.871798 5.39819,-13.455014 -1.12694,-29.178174 C 160.87369,8.4747939 141.55385,4.8505208 131.02571,4.8505208"
                 id="Fill-86" />
              <path
                 style="fill:#ffb41d"
                 inkscape:connector-curvature="0"
                 d="m 113.45104,37.444394 c 0.33808,8.388963 6.17594,15.773915 14.56924,15.436072 10.57893,-0.423492 16.16759,-8.266832 15.82951,-16.657381 -0.3365,-8.388963 -8.20284,-15.697781 -16.59614,-15.359939 -8.39489,0.336257 -14.1391,8.192285 -13.80261,16.581248"
                 id="Fill-88" />
              <path
                 style="fill:#ffd234"
                 inkscape:connector-curvature="0"
                 d="m 112.62489,37.526396 c 0.33649,8.360413 7.04256,14.882519 14.98033,14.563709 7.93618,-0.320395 14.09783,-7.356402 13.76292,-15.718401 -0.33649,-8.361999 -7.04256,-14.880932 -14.98033,-14.562123 -7.93618,0.317223 -14.09942,7.356402 -13.76292,15.716815"
                 id="Fill-90" />
              <path
                 style="fill:#ffb41d"
                 inkscape:connector-curvature="0"
                 d="m 141.36878,36.372497 c 0.33491,8.360413 -5.82674,15.398006 -13.76292,15.716815 -0.1873,0.0079 -0.37301,0.0111 -0.55713,0.0111 -7.69174,0 -14.09465,-6.407905 -14.42321,-14.573226 -0.3365,-8.361999 5.82674,-15.399592 13.76293,-15.718401 0.1857,-0.0079 0.37141,-0.0111 0.55712,-0.0111 7.69174,0 14.09465,6.409492 14.42321,14.574812 M 126.3567,21.01573 c -8.36315,0.336257 -14.87716,7.75769 -14.52321,16.543181 0.34443,8.598331 7.02828,15.334562 15.21524,15.334562 0.19524,0 0.39205,-0.0032 0.58887,-0.0111 8.36156,-0.336257 14.87716,-7.756103 14.52321,-16.543181 -0.34602,-8.59833 -7.02987,-15.334561 -15.21524,-15.334561 -0.19523,0 -0.39205,0.0032 -0.58887,0.0111"
                 id="Fill-92" />
              <path
                 style="fill:#faf884"
                 inkscape:connector-curvature="0"
                 d="m 119.8884,25.77931 c -0.0159,1.519498 2.71417,2.78046 6.09816,2.815354 3.38557,0.03648 6.14101,-1.165794 6.15689,-2.683706 0.0159,-1.519499 -2.71259,-2.78046 -6.09817,-2.815355 -3.38398,-0.03648 -6.13942,1.165795 -6.15688,2.683707"
                 id="Fill-94" />
              <path
                 style="fill:#fbf685"
                 inkscape:connector-curvature="0"
                 d="m 133.8729,28.105824 c 0.019,0.453629 0.57299,0.800988 1.23963,0.774024 0.66664,-0.02696 1.19201,-0.415562 1.17455,-0.872363 -0.019,-0.453629 -0.57458,-0.799402 -1.24121,-0.774025 -0.66664,0.02696 -1.19202,0.417149 -1.17297,0.872364"
                 id="Fill-96" />
              <path
                 style="fill:#9d0102"
                 inkscape:connector-curvature="0"
                 d="m 132.81104,37.272459 c -4.96646,0.794644 -10.49481,-0.453629 -12.97248,-1.413228 -2.47768,-0.9596 -3.33003,-0.128476 -3.48875,0.986563 -0.62537,4.339611 5.0617,6.747334 9.21708,7.556253 4.15539,0.808918 7.9711,-0.571002 9.71865,-1.957267 2.24435,-1.781207 2.49355,-5.966965 -2.4745,-5.172321"
                 id="Fill-98" />
              <path
                 style="fill:#ffffff"
                 inkscape:connector-curvature="0"
                 d="m 120.22172,37.171741 c 0.90948,0.153853 1.15709,-0.800988 1.15709,-0.800988 l -1.73326,-0.580519 c 0,0 -0.33491,1.227654 0.57617,1.381507"
                 id="Fill-100" />
              <path
                 style="fill:#ffb41d"
                 inkscape:connector-curvature="0"
                 d="m 120.22172,37.171741 c -0.0127,-0.0016 -0.0238,-0.0048 -0.0333,-0.0063 -0.8698,-0.176059 -0.54283,-1.375162 -0.54283,-1.375162 l 1.73326,0.580519 c 0,0 -0.24761,0.954841 -1.15709,0.800988 z m -0.73807,-1.682868 -0.0651,0.239503 c -0.0206,0.07772 -0.19364,0.762921 0.10635,1.248273 0.13491,0.218883 0.3476,0.361634 0.61585,0.418734 0.0143,0.0032 0.0286,0.0048 0.0429,0.0079 0.88568,0.147508 1.31899,-0.572588 1.42216,-0.973875 l 0.054,-0.21254 -0.20634,-0.0682 -1.73326,-0.580518 z"
                 id="Fill-102" />
              <path
                 style="fill:#ffffff"
                 inkscape:connector-curvature="0"
                 d="m 125.22675,38.602892 c 1.11106,0.168129 1.22852,-1.241928 1.22852,-1.241928 l -2.05706,-0.296603 c 0,0 0.002,1.413228 0.82854,1.538531"
                 id="Fill-104" />
              <path
                 style="fill:#ffb41d"
                 inkscape:connector-curvature="0"
                 d="m 125.22675,38.602892 c -0.0127,-0.0016 -0.0254,-0.0048 -0.0365,-0.0063 -0.79044,-0.160198 -0.79203,-1.532187 -0.79203,-1.532187 l 2.05706,0.296603 c 0,0 -0.11746,1.410057 -1.22852,1.241928 z m -1.06345,-1.808171 0.002,0.26964 c 0,0.06344 0.0127,1.565495 0.97774,1.762174 0.0159,0.0032 0.0333,0.0063 0.0492,0.0079 0.35078,0.05234 0.65711,-0.02062 0.90631,-0.218884 0.51585,-0.407631 0.58728,-1.202275 0.59045,-1.235583 l 0.019,-0.218884 -0.21904,-0.03172 -2.05706,-0.296603 z"
                 id="Fill-106" />
              <path
                 style="fill:#ffffff"
                 inkscape:connector-curvature="0"
                 d="m 130.75731,38.826059 c 1.0571,-0.06186 0.95552,-1.402126 0.95552,-1.402126 l -2.09515,0.107856 c 0,0 0.0841,1.354542 1.13963,1.29427"
                 id="Fill-108" />
              <path
                 style="fill:#ffb41d"
                 inkscape:connector-curvature="0"
                 d="m 130.75731,38.826059 c -0.0984,0.0048 -0.18888,-0.0016 -0.27142,-0.01903 -0.79996,-0.161783 -0.86821,-1.275236 -0.86821,-1.275236 l 2.09515,-0.107856 c 0,0 0.10158,1.340267 -0.95552,1.402126 z m 0.94282,-1.635285 -2.09356,0.10627 -0.2365,0.01269 0.0159,0.234745 c 0.003,0.05393 0.0889,1.295856 1.05392,1.492534 0.10476,0.02062 0.21746,0.02855 0.33174,0.02062 0.3349,-0.01745 0.60632,-0.145923 0.80949,-0.377496 0.41903,-0.482179 0.36506,-1.241928 0.36347,-1.275236 l -0.0175,-0.225229 z"
                 id="Fill-110" />
              <path
                 style="fill:#fb978d"
                 inkscape:connector-curvature="0"
                 d="m 119.80157,42.577538 c 0,0 2.56656,1.67018 6.62513,2.217389 3.92999,0.531349 6.83781,-0.91836 6.83781,-0.91836 0,0 -1.50311,-2.842319 -6.87591,-3.562415 -5.3712,-0.720096 -6.58703,2.263386 -6.58703,2.263386"
                 id="Fill-112" />
              <path
                 style="fill:#ffb41d"
                 inkscape:connector-curvature="0"
                 d="m 126.45749,44.563355 c -0.41427,-0.05551 -0.83013,-0.125304 -1.23963,-0.209368 -2.69037,-0.545623 -4.54585,-1.536945 -5.10931,-1.863685 0.35554,-0.610654 1.8396,-2.534612 6.25053,-1.944577 0.35078,0.04758 0.69838,0.104683 1.03012,0.172886 3.57604,0.726441 5.0982,2.45372 5.52993,3.056444 -0.76505,0.318809 -3.28082,1.218137 -6.46164,0.7883 m 1.02535,-4.301545 c -0.34284,-0.07137 -0.70155,-0.130061 -1.06186,-0.179231 -5.48866,-0.734371 -6.78226,2.277662 -6.83464,2.406137 l -0.073,0.180817 0.1619,0.104684 c 0.0841,0.05393 2.11896,1.360886 5.44898,2.038158 0.42062,0.08565 0.846,0.157025 1.27138,0.214125 3.95698,0.536107 6.8521,-0.880294 6.97431,-0.940566 l 0.21428,-0.10627 -0.11111,-0.210953 c -0.0556,-0.104684 -1.41105,-2.577437 -5.99023,-3.506901"
                 id="Fill-114" />
              <path
                 style="fill:#ffffff"
                 inkscape:connector-curvature="0"
                 d="m 123.10779,43.781082 c 0,0 0.58251,0.255365 0.80155,0.302948 0.68569,0.147509 0.96663,0.222057 0.96663,0.222057 0,0 0.39998,-1.278409 -0.49363,-1.521085 -0.77934,-0.210953 -1.27455,0.99608 -1.27455,0.99608"
                 id="Fill-116" />
              <path
                 style="fill:#ffb41d"
                 inkscape:connector-curvature="0"
                 d="m 124.87644,44.306087 c 0,0 -0.28094,-0.07455 -0.96662,-0.222057 -0.21904,-0.04758 -0.80156,-0.302948 -0.80156,-0.302948 0,0 0.47776,-1.15945 1.22852,-1.007183 0.0143,0.0032 0.0302,0.0079 0.0444,0.0111 0.8952,0.242676 0.49521,1.521085 0.49521,1.521085 m -0.43331,-1.746313 c -0.0206,-0.0048 -0.0413,-0.0095 -0.0603,-0.01269 -0.92853,-0.190334 -1.46819,1.089661 -1.49041,1.143589 l -0.0873,0.210953 0.20952,0.09358 c 0.0603,0.02538 0.60949,0.266467 0.84441,0.317223 0.6714,0.145923 0.95392,0.22047 0.9571,0.22047 l 0.21745,0.0571 0.0667,-0.214125 c 0.008,-0.03331 0.24603,-0.807333 -0.0524,-1.35137 -0.12857,-0.233159 -0.33332,-0.391771 -0.60474,-0.464732"
                 id="Fill-118" />
              <path
                 style="fill:#ffffff"
                 inkscape:connector-curvature="0"
                 d="m 126.79224,44.581912 c 0,0 0.74917,0.05551 1.00631,0.06186 0.25713,0.0048 1.01741,-0.01428 1.01741,-0.01428 0,0 -0.0905,-1.297442 -1.01265,-1.272064 -0.92377,0.02221 -1.01107,1.224481 -1.01107,1.224481"
                 id="Fill-120" />
              <path
                 style="fill:#ffb41d"
                 inkscape:connector-curvature="0"
                 d="m 127.79823,44.643771 c -0.25713,-0.0063 -1.00631,-0.06186 -1.00631,-0.06186 0,0 0.0873,-1.202275 1.01107,-1.226067 0.0698,0 0.1365,0.0032 0.19682,0.01586 0.73965,0.150681 0.81742,1.257789 0.81742,1.257789 0,0 -0.76187,0.01903 -1.019,0.01428 m 0.24761,-1.498879 v 0 c -0.0794,-0.01745 -0.16349,-0.02379 -0.2492,-0.02221 -0.89679,0.02379 -1.20154,0.954842 -1.23646,1.441779 l -0.0175,0.234745 0.23174,0.01586 c 0.0317,0.0016 0.7587,0.05551 1.01742,0.06027 0.26031,0.0063 0.99996,-0.0111 1.0317,-0.01269 l 0.24285,-0.0063 -0.0175,-0.244262 c -0.003,-0.05234 -0.1,-1.284753 -1.00313,-1.467156"
                 id="Fill-122" />
              <path
                 style="fill:#ffb41d"
                 inkscape:connector-curvature="0"
                 d="m 135.2849,42.444305 c -1.74754,1.386264 -5.56326,2.766185 -9.71864,1.957266 -0.0556,-0.0095 -0.11428,-0.02221 -0.17142,-0.03331 -4.13793,-0.840641 -9.66151,-3.243605 -9.04566,-7.521358 0.13332,-0.926291 0.74441,-1.65749 2.36815,-1.327578 0.33173,0.06662 0.70315,0.177645 1.12218,0.341015 0.90472,0.348945 2.22054,0.739129 3.76651,1.05318 2.67925,0.544038 6.05531,0.862847 9.20438,0.358462 0.83648,-0.133233 1.52375,-0.125303 2.07928,-0.01427 2.74909,0.559899 2.26181,3.703579 0.39522,5.186597 m -0.30157,-5.643398 v 0 c -0.63966,-0.130061 -1.3936,-0.126889 -2.24435,0.0095 -3.55065,0.569415 -7.1886,0.0222 -9.0409,-0.353704 -1.39042,-0.282329 -2.69989,-0.650307 -3.69032,-1.034147 -0.43015,-0.164956 -0.83172,-0.287087 -1.19678,-0.361634 -0.88727,-0.180817 -1.59993,-0.08724 -2.11579,0.275984 -0.43649,0.307706 -0.71743,0.805746 -0.80949,1.443364 -0.29999,2.084156 0.71585,3.987494 2.93956,5.500648 2.23483,1.52267 5.01726,2.247525 6.47593,2.544128 0.0587,0.01269 0.11745,0.02538 0.17459,0.03489 4.14904,0.807333 8.14253,-0.496454 10.09959,-2.050847 1.26344,-1.002425 1.95071,-2.697982 1.63009,-4.031905 -0.24761,-1.032561 -1.03647,-1.735209 -2.22213,-1.976299"
                 id="Fill-124" />
              <path
                 style="fill:#ffb41d"
                 inkscape:connector-curvature="0"
                 d="m 121.69419,33.480534 c -0.0302,0.125303 0.0492,0.247433 0.17619,0.27757 0.1238,0.02538 0.25237,-0.05234 0.28094,-0.179231 0.003,-0.01269 0.006,-0.02538 0.01,-0.03807 0.22221,-1.089661 -0.48569,-2.157117 -1.57612,-2.379173 -1.09202,-0.222056 -2.15865,0.485351 -2.38086,1.575013 -0.002,0.01269 -0.003,0.02696 -0.006,0.046 -0.0222,0.125303 0.0587,0.244262 0.18253,0.268053 0.002,0.0016 0.005,0.0016 0.006,0.0016 0.12698,0.02379 0.24761,-0.06186 0.27142,-0.188747 0.002,-0.0095 0.003,-0.01745 0.005,-0.03331 0.16984,-0.837468 0.99044,-1.37992 1.8285,-1.210206 0.83965,0.171301 1.38089,0.989736 1.20947,1.83355 -0.002,0.0079 -0.005,0.01745 -0.006,0.02696"
                 id="Fill-126" />
              <path
                 style="fill:#ffb41d"
                 inkscape:connector-curvature="0"
                 d="m 135.07713,35.217012 c 0.12698,0.01903 0.24603,-0.07296 0.26507,-0.201436 0.003,-0.01269 0.005,-0.02538 0.006,-0.03648 0.13492,-1.105522 -0.65235,-2.112705 -1.75866,-2.247525 -1.10471,-0.13482 -2.1142,0.653479 -2.24911,1.757416 0,0.01269 -0.002,0.02538 -0.002,0.04441 -0.0127,0.120545 0.0683,0.2284 0.18412,0.252192 0.008,0.0016 0.0159,0.0016 0.0238,0.0032 0.12857,0.01269 0.24443,-0.08089 0.25555,-0.207781 0,-0.0111 0.002,-0.02062 0.002,-0.03648 0.0524,-0.410804 0.25872,-0.777197 0.58569,-1.032561 0.32697,-0.255365 0.73331,-0.367979 1.14281,-0.317223 0.4111,0.05076 0.77934,0.25695 1.03488,0.58369 0.25555,0.325154 0.36665,0.732785 0.31586,1.148347 l -0.005,0.02855 c -0.019,0.12689 0.0714,0.242676 0.1984,0.261709"
                 id="Fill-128" />
              <path
                 style="fill:#6adbc6"
                 inkscape:connector-curvature="0"
                 d="m 180.85747,56.288711 c 0.36983,-0.426665 -0.95869,-1.797069 -0.95869,-1.797069 -3.95381,-5.916209 -14.37242,-11.473957 -20.6674,-14.43682 l 0.67933,3.105614 c 6.00293,2.797907 14.21847,7.173998 17.91673,12.711126 0,0 0.89202,1.697144 1.50787,1.490949 0.44284,-0.147509 0.12222,-0.636033 0.12222,-0.636033 0,0 0.35078,0.553555 0.77298,0.307707 0.26348,-0.153853 0.14444,-0.555141 0.027,-0.734372 0.11428,0.09834 0.39046,0.226815 0.59997,-0.0111"
                 id="Fill-130" />
              <path
                 style="fill:#ffffff"
                 inkscape:connector-curvature="0"
                 d="m 180.75367,56.375471 c 0.0349,-0.02062 0.0698,-0.04917 0.10317,-0.08724 0.37141,-0.425079 -0.9587,-1.795482 -0.9587,-1.795482 -3.95221,-5.917796 -14.37242,-11.475544 -20.6674,-14.438407 l 0.67934,3.105614 c 6.00293,2.799493 14.21846,7.173999 17.91672,12.712713 0,0 0.89362,1.695557 1.50788,1.489362 0.0349,-0.0111 0.0651,-0.02538 0.0905,-0.03965 0.29522,-0.174473 0.0492,-0.567829 0.0333,-0.593207 0.019,0.03014 0.36189,0.542451 0.77298,0.304534 l 0.002,-0.0016 c 0.26031,-0.153853 0.14127,-0.553554 0.0254,-0.732785 0.0968,0.08406 0.30633,0.187161 0.49522,0.07613"
                 id="Fill-132" />
              <path
                 style="fill:#c7b299"
                 inkscape:connector-curvature="0"
                 d="m 180.85747,56.288711 c -0.0333,0.03648 -0.0683,0.06662 -0.10317,0.08724 -0.0603,0.0349 -0.12063,0.04917 -0.17936,0.04917 -0.13015,0 -0.25078,-0.0682 -0.31744,-0.125304 0.11586,0.179231 0.23649,0.578932 -0.0254,0.732786 l -0.002,0.0016 c -0.0762,0.04441 -0.15079,0.06344 -0.22221,0.06344 -0.30634,0 -0.53331,-0.344187 -0.55077,-0.369564 0.0175,0.02696 0.26189,0.42032 -0.0317,0.593207 -0.0254,0.01586 -0.0556,0.03014 -0.0905,0.04124 -0.0349,0.01269 -0.0714,0.01586 -0.10634,0.01586 -0.60792,0 -1.40153,-1.50681 -1.40153,-1.50681 -3.69826,-5.537128 -11.9138,-9.913219 -17.91673,-12.711126 l -0.67933,-3.105614 c 6.29498,2.962863 16.71359,8.520611 20.6674,14.43682 0,0 1.32852,1.37199 0.95869,1.797069 m -21.28801,-16.952399 -1.45708,-0.685202 0.34284,1.573427 0.67775,3.104027 0.0857,0.382254 0.35554,0.168128 c 9.05201,4.220652 14.80098,8.277935 17.5707,12.400248 0.38729,0.724855 1.15551,1.892235 2.08405,1.892235 0.12221,0 0.24284,-0.01745 0.35712,-0.0571 0.0857,-0.02696 0.16825,-0.06503 0.24285,-0.109442 0.0587,-0.03331 0.1127,-0.07296 0.1619,-0.1142 h 0.0175 c 0.21904,0 0.42697,-0.05869 0.62378,-0.172886 0.24761,-0.145923 0.42221,-0.372738 0.50157,-0.645549 0.008,-0.0048 0.0175,-0.0095 0.0238,-0.01427 0.1111,-0.06503 0.20951,-0.147509 0.29681,-0.249021 0.55871,-0.636032 0.24285,-1.584529 -0.93647,-2.81694 -4.12681,-6.114474 -14.88986,-11.803869 -20.94834,-14.655704"
                 id="Fill-134" />
              <path
                 style="fill:#ffffff"
                 inkscape:connector-curvature="0"
                 d="m 180.75367,56.375471 c 0.0349,-0.02062 0.0698,-0.04917 0.10317,-0.08724 0.37141,-0.425079 -0.9587,-1.795482 -0.9587,-1.795482 -3.95221,-5.917796 -15.81522,-12.197226 -22.11178,-15.160089 l 0.72695,3.17223 c 6.00452,2.80108 15.61523,7.829065 19.31349,13.367779 0,0 0.89362,1.695557 1.50788,1.489362 0.0349,-0.0111 0.0651,-0.02538 0.0905,-0.03965 0.29522,-0.174473 0.0492,-0.567829 0.0333,-0.593207 0.019,0.03014 0.36189,0.542451 0.77298,0.304534 l 0.002,-0.0016 c 0.26031,-0.153853 0.14127,-0.553554 0.0254,-0.732785 0.0968,0.08406 0.30633,0.187161 0.49522,0.07613"
                 id="Fill-136" />
            </g>
          </g>
        </g>
      </g>
      <g
         style="fill:none;fill-rule:evenodd;stroke:none;stroke-width:1"
         transform="matrix(0.26458333,0,0,0.26458333,75.284776,85.935813)"
         id="Page-1-2">
        <g
           id="menu-5"
           transform="translate(-830,-118)">
          <g
             id="Group-6"
             transform="translate(831,118)">
            <path
               style="fill:#ffffff"
               inkscape:connector-curvature="0"
               d="m 46.802857,2.82 c 0,-0.34 -0.2,-0.56 -0.6,-0.64 -0.36,0.08 -0.56,0.24 -0.6,0.46 -0.34,1.8 -0.62,3.68 -0.86,5.66 -1.68,0.58 -3.62,0.94 -5.82,1.08 0.18,-1.74 0.42,-3.24 0.7,-4.5 0.22,-0.92 0.38,-1.54 0.5,-1.88 0.34,-0.98 0.52,-1.56 0.52,-1.74 0,-0.4 -0.22,-0.62 -0.64,-0.62 -0.3,0 -0.58,0.4 -0.86,1.2 -0.72,2.02 -1.24,4.54 -1.52,7.54 -0.8,-0.04 -1.4,-0.08 -1.76,-0.12 -0.34,0 -0.5,0.22 -0.5,0.66 0,0.4 0.3,0.62 0.94,0.64 0.48,0.04 0.88,0.06 1.22,0.06 -0.08,1.12 -0.14,2.2 -0.18,3.28 -0.02,0.3 -0.06,0.94 -0.1,1.94 -0.04,0.8 -0.06,1.34 -0.06,1.64 0.02,0.38 0.2,0.6 0.56,0.68 0.4,-0.12 0.64,-0.36 0.68,-0.72 0.16,-3.02 0.3,-5.3 0.38,-6.84 1.84,-0.1 3.76,-0.42 5.8,-0.96 -0.12,1.08 -0.2,1.64 -0.2,1.7 -0.18,1.88 -0.26,3.58 -0.26,5.14 0,0.62 0.02,1.04 0.1,1.26 0.1,0.28 0.32,0.44 0.66,0.48 0.32,-0.08 0.54,-0.34 0.64,-0.8 0,-0.08 -0.02,-0.32 -0.04,-0.74 -0.02,-0.44 -0.02,-0.8 -0.02,-1.1 0,-2.6 0.28,-5.8 0.84,-9.64 0.24,-1.54 0.4,-2.58 0.48,-3.12 z m 9.702858,7.28 c 0,-0.36 -0.180001,-0.56 -0.520001,-0.56 -0.16,0 -0.299999,0.12 -0.439999,0.36 -0.880001,1.5 -1.740001,2.76 -2.620001,3.8 -1.199999,1.44 -2.199999,2.14 -2.98,2.14 -0.2,0 -0.3,-0.14 -0.3,-0.42 0,-0.12 0.04,-0.46 0.14,-1.02 0.38,-2.16 0.580001,-3.46 0.580001,-3.9 0,-0.72 -0.18,-1.08 -0.5,-1.08 -0.160001,0 -0.300001,0.08 -0.420001,0.22 -0.12,0.16 -0.179999,0.3 -0.179999,0.46 0,0.04 0,0.12 0.02,0.2 v 0.22 c 0,0.56 -0.14,1.52 -0.4,2.88 -0.28,1.28 -0.4,2.12 -0.4,2.5 0,0.4 0.14,0.72 0.420001,0.96 0.259999,0.24 0.619999,0.36 1.059999,0.36 1,0 2.6,-1.3 4.800001,-3.9 -0.200001,1.02 -0.320001,2.1 -0.36,3.24 -0.100001,0.14 -0.14,0.28 -0.14,0.42 0,0.16 0.08,0.28 0.24,0.4 0.139999,0.1 0.299999,0.16 0.459999,0.16 0.48,0 0.74,-0.28 0.74,-0.8 0,-0.04 -0.04,-0.22 -0.08,-0.54 -0.04,-0.28 -0.06,-0.48 -0.06,-0.6 0,-0.16 0.02,-0.46 0.08,-0.9 0.260001,-2 0.5,-3.32 0.720001,-3.94 0.08,-0.22 0.14,-0.44 0.14,-0.66 z m 8.362857,1 c 0,-0.2 -0.1,-0.4 -0.28,-0.6 -0.18,-0.16 -0.38,-0.26 -0.62,-0.28 -1.64,0.98 -3.24,2.5 -4.82,4.56 0,-1.62 0.14,-3.12 0.46,-4.5 0.06,-0.28 0.12,-0.5 0.16,-0.7 0,-0.24 -0.08,-0.48 -0.24,-0.7 -0.2,-0.2 -0.4,-0.32 -0.62,-0.32 -0.16,0 -0.24,0.12 -0.28,0.32 -0.44,2.06 -0.64,3.7 -0.64,4.92 0,1.16 0.12,2.08 0.36,2.8 0.16,0.48 0.42,0.72 0.82,0.72 0.08,0 0.18,-0.16 0.32,-0.44 0.12,-0.26 0.22,-0.52 0.34,-0.8 0.72,-1.44 2.04,-2.84 3.94,-4.2 l -0.34,3.38 c -0.08,0.56 -0.12,1 -0.14,1.28 0,0.22 0.08,0.42 0.24,0.62 0.16,0.18 0.36,0.28 0.58,0.28 0.16,0 0.24,-0.12 0.28,-0.32 0.12,-1.08 0.2,-1.98 0.28,-2.68 0.12,-1.32 0.2,-2.44 0.2,-3.34 z m 8.182857,-0.28 c 0,0.28 -0.16,0.68 -0.44,1.2 -0.1,0.16 -0.18,0.86 -0.24,2.06 -0.1,1.9 -0.5,3.4 -1.22,4.56 -0.72,1.16 -1.8,2.02 -3.2,2.62 -0.56,0.22 -1.1,0.34 -1.64,0.34 -0.44,0 -0.66,-0.22 -0.66,-0.66 0,-0.2 0.1,-0.4 0.3,-0.58 0.2,-0.2 0.4,-0.28 0.6,-0.28 0.04,0 0.2,0.04 0.46,0.12 2.56,-0.64 3.92,-2.48 4.12,-5.52 -0.78,0.78 -1.6,1.16 -2.48,1.16 -0.62,0 -1.1,-0.22 -1.46,-0.7 -0.36,-0.44 -0.52,-1.02 -0.52,-1.74 0,-1.24 0.4,-2.38 1.24,-3.46 0.88,-1.16 1.96,-1.76 3.24,-1.76 1.1,0 1.68,0.74 1.72,2.22 0.12,0.1 0.18,0.24 0.18,0.42 z m -1.4,0.08 c -0.04,-0.4 -0.14,-0.72 -0.3,-0.96 -0.18,-0.22 -0.38,-0.34 -0.62,-0.34 -0.74,0 -1.4,0.42 -1.98,1.22 -0.6,0.84 -0.88,1.68 -0.88,2.56 0,0.36 0.08,0.66 0.24,0.9 0.16,0.26 0.4,0.38 0.68,0.38 1.4,0 2.28,-1.08 2.62,-3.24 0.02,-0.24 0.1,-0.4 0.24,-0.52 z m 9.922857,-0.96 c 0,0.22 -0.22,0.42 -0.64,0.6 -0.36,0.16 -0.62,0.24 -0.82,0.24 -0.04,0 -0.16,-0.04 -0.4,-0.12 -1.72,0.8 -2.76,2.46 -3.08,5.02 -0.18,1.34 -0.4,2.02 -0.66,2.02 -0.22,0 -0.4,-0.14 -0.56,-0.38 -0.16,-0.24 -0.24,-0.46 -0.24,-0.74 0.04,-0.2 0.12,-0.54 0.22,-1.04 0.1,-0.6 0.16,-1.16 0.16,-1.68 0,-0.58 -0.08,-1.16 -0.2,-1.74 -0.24,-0.24 -0.36,-0.52 -0.4,-0.8 -0.1,-0.54 -0.14,-0.98 -0.14,-1.3 0,-0.12 0.04,-0.26 0.14,-0.42 0.08,-0.16 0.16,-0.24 0.26,-0.24 0.44,0 0.74,0.38 0.9,1.1 0.16,0.76 0.28,1.32 0.36,1.72 0.48,-0.9 1.1,-1.66 1.9,-2.28 0.76,-0.6 1.54,-0.9 2.34,-0.9 0.2,0 0.4,0.1 0.6,0.3 0.16,0.2 0.24,0.42 0.26,0.64 z m 7.302857,3.74 c 0,2.96 -0.72,5.06 -2.16,6.34 -1.2,1.04 -2.76,1.58 -4.66,1.58 -1.1,0 -1.66,-0.3 -1.66,-0.9 0,-0.38 0.2,-0.58 0.56,-0.6 0.52,0.06 0.88,0.1 1.08,0.1 3.16,0 5,-1.46 5.5,-4.36 0.12,-0.72 0.18,-1.68 0.18,-2.9 -0.36,0.76 -0.8,1.42 -1.34,1.98 -0.66,0.7 -1.3,1.04 -1.94,1.04 -0.56,0 -1,-0.18 -1.3,-0.58 -0.34,-0.36 -0.5,-0.86 -0.5,-1.48 0,-0.44 0.04,-1.1 0.16,-2.02 0.08,-0.92 0.14,-1.58 0.14,-2.02 0,-0.16 -0.04,-0.36 -0.1,-0.6 -0.08,-0.24 -0.1,-0.4 -0.1,-0.46 0,-0.34 0.2,-0.52 0.64,-0.52 0.26,0 0.46,0.18 0.6,0.54 0.12,0.36 0.2,0.74 0.2,1.18 0,0.44 -0.06,1.14 -0.18,2.06 -0.12,0.94 -0.18,1.6 -0.18,1.98 0,0.16 0.06,0.32 0.2,0.44 0.12,0.12 0.28,0.18 0.44,0.18 0.48,0 1,-0.32 1.56,-1 0.54,-0.66 1.02,-1.52 1.44,-2.58 0.2,-0.54 0.44,-0.82 0.76,-0.82 0.44,0 0.66,0.58 0.66,1.74 z m 15.245717,3.7 c -0.08,-0.54 -0.12,-0.96 -0.16,-1.28 -0.12,-1.24 -0.16,-2.16 -0.16,-2.78 0,-0.22 0,-0.56 0.04,-1 0.04,-0.42 0.06,-0.7 0.06,-0.84 0,-0.28 -0.08,-0.52 -0.24,-0.76 -0.18,-0.22 -0.38,-0.34 -0.62,-0.34 -0.4,0 -1.2,0.48 -2.38,1.44 -1.040003,0.86 -1.880003,1.68 -2.520003,2.46 0.24,-2.38 0.74,-5.56 1.54,-9.56 0.18,-0.98 0.28,-1.5 0.28,-1.56 0,-0.24 -0.08,-0.48 -0.24,-0.72 -0.16,-0.22 -0.36,-0.34 -0.56,-0.34 -0.14,0 -0.24,0.1 -0.3,0.26 -0.04,0.1 -0.1,0.36 -0.18,0.8 l -0.38,2.24 c -0.52,2.9 -0.78,4.42 -0.78,4.54 -0.3,1.9 -0.44,3.54 -0.44,4.9 0,0.08 0,0.26 0.02,0.5 v 0.5 c 0,0.04 -0.02,0.16 -0.02,0.36 -0.04,0.2 -0.04,0.32 -0.04,0.36 0,0.22 0.08,0.42 0.26,0.62 0.18,0.2 0.38,0.3 0.62,0.3 0.1,0 0.26,-0.26 0.48,-0.74 0.12,-0.3 0.26,-0.6 0.42,-0.92 0.64,-1.22 1.900003,-2.46 3.800003,-3.74 l 0.14,3.54 c 0.04,1.4 0.4,2.12 1.06,2.12 0.2,0 0.3,-0.12 0.3,-0.36 z m 8.54285,-5.08 c 0,0.08 -0.04,0.2 -0.08,0.36 -0.3,0.84 -0.44,1.74 -0.44,2.66 0,0.34 0.02,0.68 0.1,1 0.12,0.6 0.2,0.9 0.2,0.94 0,0.38 -0.22,0.58 -0.64,0.58 -0.4,0 -0.62,-0.34 -0.68,-0.98 -0.04,-0.34 -0.1,-0.88 -0.18,-1.62 -1.1,1.32 -2.16,1.98 -3.18,1.98 -0.54,0 -1,-0.24 -1.38,-0.76 -0.38,-0.44 -0.56,-0.96 -0.56,-1.54 0,-0.92 0.4,-1.88 1.24,-2.92 0.16,-0.2 0.46,-0.52 0.88,-0.92 1.32,-1.2 2.42,-1.8 3.34,-1.8 0.2,0 0.42,0.1 0.64,0.26 0.2,0.18 0.32,0.38 0.32,0.6 0,0.04 -0.02,0.14 -0.06,0.28 0.16,0.4 0.24,0.86 0.24,1.36 0.16,0.2 0.24,0.38 0.24,0.52 z m -1.4,-0.56 c 0,-0.7 -0.18,-1.06 -0.5,-1.06 -0.26,0 -0.68,0.22 -1.24,0.64 -0.52,0.38 -0.94,0.76 -1.26,1.14 -0.84,0.94 -1.24,1.74 -1.24,2.4 0,0.7 0.26,1.04 0.82,1.04 0.76,0 1.5,-0.46 2.26,-1.42 0.76,-0.96 1.16,-1.86 1.16,-2.74 z m 6.76286,-8.86 c 0,-0.84 -0.34,-1.28 -1,-1.36 -0.52,0.18 -0.8,0.48 -0.84,0.92 0,0.14 0.02,0.26 0.02,0.38 0,0.7 0.38,1.12 1.16,1.26 0.44,-0.04 0.66,-0.44 0.66,-1.2 z m -1.08,7.54 c 0,-0.64 -0.38,-1 -1.12,-1.04 -0.2,0.12 -0.3,0.28 -0.3,0.46 0,0.06 0.02,0.22 0.06,0.46 -0.56,2.76 -0.82,4.38 -0.82,4.9 0,0.64 0.1,1.14 0.3,1.54 0.26,0.5 0.54,0.76 0.86,0.76 0.24,0 0.38,-0.14 0.38,-0.42 0,-0.32 -0.14,-0.64 -0.4,-0.92 0,-1.04 0.22,-2.5 0.68,-4.38 0.14,-0.52 0.26,-0.96 0.36,-1.36 z m 9.44286,0.68 c 0,-0.2 -0.1,-0.4 -0.28,-0.6 -0.18,-0.16 -0.38,-0.26 -0.62,-0.28 -1.64,0.98 -3.24,2.5 -4.82,4.56 0,-1.62 0.14,-3.12 0.46,-4.5 0.06,-0.28 0.12,-0.5 0.16,-0.7 0,-0.24 -0.08,-0.48 -0.24,-0.7 -0.2,-0.2 -0.4,-0.32 -0.62,-0.32 -0.16,0 -0.24,0.12 -0.28,0.32 -0.44,2.06 -0.64,3.7 -0.64,4.92 0,1.16 0.12,2.08 0.36,2.8 0.16,0.48 0.42,0.72 0.82,0.72 0.08,0 0.18,-0.16 0.32,-0.44 0.12,-0.26 0.22,-0.52 0.34,-0.8 0.72,-1.44 2.04,-2.84 3.94,-4.2 l -0.34,3.38 c -0.08,0.56 -0.12,1 -0.14,1.28 0,0.22 0.08,0.42 0.24,0.62 0.16,0.18 0.36,0.28 0.58,0.28 0.16,0 0.24,-0.12 0.28,-0.32 0.12,-1.08 0.2,-1.98 0.28,-2.68 0.12,-1.32 0.2,-2.44 0.2,-3.34 z m 9.70286,-4.72 c 0,-0.98 -0.36,-1.76 -1.04,-2.32 -0.7,-0.56 -1.58,-0.84 -2.66,-0.84 -0.44,0 -1,0.08 -1.7,0.24 -0.26,-0.08 -0.44,-0.14 -0.52,-0.14 -0.2,0 -0.4,0.1 -0.6,0.28 -0.22,0.18 -0.32,0.36 -0.32,0.52 0,0.48 0.22,0.72 0.68,0.74 0.24,-0.04 0.44,-0.08 0.6,-0.12 0.6,-0.16 1.14,-0.24 1.62,-0.24 1.82,0 2.74,0.62 2.74,1.86 0,0.88 -0.5,1.62 -1.48,2.2 -0.82,0.48 -1.78,0.78 -2.86,0.9 -0.52,0.08 -0.78,0.28 -0.78,0.64 0,0.04 0.06,0.26 0.2,0.62 0.28,0.88 0.46,1.74 0.58,2.6 0.02,0.28 0.06,0.46 0.12,0.54 0.08,0.12 0.22,0.16 0.44,0.16 0.4,0 0.6,-0.24 0.6,-0.76 0,-0.6 -0.18,-1.52 -0.52,-2.76 1.32,-0.2 2.46,-0.66 3.38,-1.4 1,-0.76 1.52,-1.68 1.52,-2.72 z m -3.9,10.52 c 0,-0.28 -0.1,-0.5 -0.3,-0.66 -0.2,-0.12 -0.44,-0.2 -0.7,-0.2 -0.28,0 -0.5,0.12 -0.66,0.32 -0.2,0.22 -0.28,0.48 -0.28,0.78 0,0.24 0.06,0.46 0.22,0.66 0.14,0.16 0.3,0.26 0.48,0.26 0.4,0 0.72,-0.12 0.94,-0.32 0.2,-0.22 0.3,-0.5 0.3,-0.84 z"
               id="Hungry-hain?" />
            <path
               style="stroke:#ffffff;stroke-width:2;stroke-linecap:round;stroke-opacity:0.1655061"
               inkscape:connector-curvature="0"
               d="m 0.0345218,67.897367 c 0,0 35.5383102,-3.090048 56.3615822,-32.398513"
               id="Path-3" />
          </g>
        </g>
      </g>
    </g>
  </g>
</svg>
