<?xml version="1.0" encoding="UTF-8"?>
<svg width="246px" height="104px" viewBox="0 0 246 104" version="1.1" xmlns="http://www.w3.org/2000/svg" xmlns:xlink="http://www.w3.org/1999/xlink">
    <!-- Generator: Sketch 42 (36781) - http://www.bohemiancoding.com/sketch -->
    <title>Group 5</title>
    <desc>Created with Sketch.</desc>
    <defs></defs>
    <g id="Page-1" stroke="none" stroke-width="1" fill="none" fill-rule="evenodd">
        <g id="Artboard-2" transform="translate(-579.000000, -196.000000)">
            <g id="Group-5" transform="translate(579.000000, 196.000000)">
                <path d="M134.95,40.15 C134.95,42.9 133.6,45.2 130.9,47 C129.15,48.2 126.6,49.3 123.25,50.3 C116.5,52.3 112.45,53.4 111.15,53.55 C110.55,53.55 110.1,53.35 109.75,52.95 C109.35,52.55 109.2,52.05 109.2,51.5 C109.2,50.65 109.5,50 110.15,49.6 C110.65,49.35 111.5,49.15 112.7,48.95 C112.7,48.15 112.7,44.95 112.75,39.35 L112.75,30.5 C112.75,29.8 112.75,28.1 112.85,25.35 C112.9,22.65 112.95,21.3 112.95,21.2 C111.65,21.35 110.95,21.4 110.85,21.4 C109.25,21.4 108.5,20.75 108.5,19.35 C108.5,18.45 108.75,17.9 109.25,17.6 C109.55,17.4 110.15,17.25 111.1,17.15 C116.1,16.75 120.15,16.5 123.25,16.5 C125.6,16.5 127.55,16.95 129.1,17.75 C131.05,18.85 132.05,20.5 132.05,22.7 C132.05,24.7 130.8,26.7 128.4,28.7 C126.9,30 124.45,31.55 121.05,33.4 C125.3,33.75 128.35,34.2 130.15,34.75 C133.35,35.85 134.95,37.65 134.95,40.15 Z M127.75,22.9 C127.75,21.4 126.1,20.65 122.9,20.65 C122.1,20.65 121.15,20.7 119.95,20.75 C118.35,20.85 117.4,20.9 117.05,20.9 C116.95,23.2 116.9,25.05 116.9,26.55 L116.9,31.15 C124.1,27.55 127.75,24.8 127.75,22.9 Z M130.75,40.8 C130.75,39.7 129.25,38.8 126.35,38.2 C124.85,37.95 121.65,37.6 116.75,37.15 L116.75,47.7 C126.05,45.2 130.75,42.9 130.75,40.8 Z M159.809375,51.4 C159.659375,50.1 159.509375,49.05 159.409375,48.15 C159.109375,45.8 158.959375,43.6 158.959375,41.5 C158.959375,41.2 158.959375,40.4 159.059375,39.15 C159.159375,37.9 159.259375,37.2 159.259375,37.05 C159.259375,36.25 158.959375,35.5 158.459375,34.8 C157.959375,34.2 157.359375,33.85 156.609375,33.85 C155.709375,33.85 153.759375,35 150.859375,37.3 C148.059375,39.45 146.159375,41.2 145.059375,42.55 C145.609375,37.95 146.009375,35 146.259375,33.7 L147.759375,25.85 C148.259375,22.95 148.709375,20.8 149.009375,19.35 C149.259375,17.95 149.409375,17.15 149.409375,16.9 C149.409375,16.2 149.159375,15.5 148.659375,14.8 C148.209375,14.1 147.659375,13.75 147.009375,13.75 C146.209375,13.75 145.659375,14.6 145.359375,16.25 L142.459375,32.2 C141.559375,36.8 141.159375,41.5 141.159375,46.3 C141.159375,46.6 141.159375,47.15 141.209375,47.9 L141.209375,49.25 C141.209375,49.95 141.459375,50.65 141.959375,51.3 C142.509375,51.9 143.159375,52.2 143.909375,52.2 C144.309375,52.2 144.759375,51.65 145.359375,50.55 C145.759375,49.8 146.109375,49 146.459375,48.2 C147.759375,45.85 150.659375,43 155.159375,39.65 L155.409375,45.7 C155.609375,50.5 156.709375,52.85 158.809375,52.85 C159.409375,52.85 159.709375,52.35 159.809375,51.4 Z M187.06875,34.4 C187.06875,33 186.46875,32.3 185.26875,32.3 C184.66875,32.3 184.16875,32.65 183.66875,33.35 C177.36875,42.6 173.06875,47.2 170.71875,47.2 C170.31875,47.2 170.11875,47 170.11875,46.6 C170.11875,45.8 170.41875,43.95 171.06875,40.95 C171.66875,38.05 171.96875,36.1 171.96875,35.2 C171.96875,33.1 171.26875,32 169.91875,32 C169.41875,32 169.01875,32.25 168.66875,32.75 C168.26875,33.25 168.06875,33.75 168.06875,34.25 C168.06875,34.4 168.06875,34.6 168.11875,34.8 L168.11875,35.35 C168.11875,36.15 167.71875,38.3 167.01875,41.85 C166.31875,44.9 166.01875,46.9 166.01875,47.9 C166.01875,49.1 166.41875,50 167.21875,50.65 C167.96875,51.25 168.91875,51.55 170.11875,51.55 C172.76875,51.55 176.51875,48.75 181.41875,43.1 C181.01875,46.4 180.81875,48.45 180.81875,49.3 C180.56875,49.7 180.46875,50.05 180.46875,50.45 C180.46875,51.05 180.71875,51.5 181.21875,51.8 C181.66875,52.1 182.21875,52.3 182.81875,52.3 C183.51875,52.3 184.06875,52 184.46875,51.4 C184.86875,50.85 185.06875,50.2 185.06875,49.45 C185.06875,49.3 185.01875,48.9 184.91875,48.25 C184.81875,47.65 184.76875,47.15 184.76875,46.75 C184.76875,46.05 184.96875,44.4 185.41875,41.8 C185.91875,38.95 186.31875,37 186.71875,35.95 C186.91875,35.25 187.06875,34.75 187.06875,34.4 Z M210.828125,33.85 C210.828125,34.45 210.328125,35.05 209.328125,35.55 C208.328125,36.15 207.428125,36.4 206.628125,36.4 C206.578125,36.4 206.278125,36.3 205.678125,36.1 C201.628125,38.1 199.128125,42.15 198.228125,48.25 C197.978125,49.85 197.778125,50.9 197.628125,51.4 C197.328125,52.3 196.828125,52.75 196.228125,52.75 C195.628125,52.75 195.028125,52.4 194.528125,51.8 C194.028125,51.15 193.828125,50.45 193.828125,49.6 C193.828125,49.45 193.928125,48.8 194.228125,47.6 C194.478125,46.5 194.628125,45.3 194.628125,43.95 C194.628125,42.75 194.478125,41.15 194.278125,39.2 C193.378125,37.95 192.928125,36.2 192.928125,34 C192.928125,33.5 193.078125,33 193.378125,32.5 C193.628125,32.1 193.978125,31.85 194.378125,31.85 C195.328125,31.85 196.078125,32.4 196.628125,33.4 C197.028125,34.3 197.378125,35.8 197.678125,37.9 C200.728125,33.3 204.228125,31 208.128125,31 C208.778125,31 209.378125,31.3 209.978125,31.9 C210.528125,32.5 210.828125,33.15 210.828125,33.85 Z M230.3875,16.4 C230.3875,15.9 229.9875,15.2 229.2875,14.35 C228.5375,13.5 227.9375,13.05 227.4875,13.05 C225.9875,13.05 225.2875,13.8 225.2875,15.2 C225.2875,15.6 225.4375,16.1 225.7875,16.65 C225.8875,18.15 226.5375,18.85 227.7875,18.85 C228.4875,18.85 229.1375,18.65 229.6375,18.15 C230.1375,17.75 230.3875,17.15 230.3875,16.4 Z M226.5875,32.85 C226.5875,37.45 226.2375,41.65 225.5875,45.45 C224.5375,51.25 222.8375,55.7 220.4875,58.8 C218.5875,61.25 216.4375,62.5 214.0875,62.5 C210.7375,62.5 209.0375,60.05 209.0375,55.25 C209.0375,53 209.4875,51 210.3375,49.1 C211.0375,47.6 211.7375,46.85 212.4875,46.85 C213.0875,46.85 213.5875,47.05 214.0375,47.45 C214.4375,47.85 214.6875,48.4 214.6875,49 C214.6875,49.6 214.4875,50.25 214.1375,50.9 C213.2875,52.35 212.8875,53.85 212.8875,55.35 C212.8875,57.25 213.3875,58.2 214.4875,58.2 C215.7375,58.2 216.9375,57.25 218.0875,55.35 C220.0875,51.9 221.3875,47.65 221.9875,42.5 C222.0875,41.45 222.2375,38.25 222.4375,32.85 C222.4875,31.3 223.1875,30.5 224.5875,30.5 C225.8875,30.5 226.5875,31.3 226.5875,32.85 Z M244.696875,15.7 C244.696875,13.6 243.846875,12.5 242.146875,12.3 C240.746875,12.8 240.046875,13.55 240.046875,14.6 C240.046875,16.7 240.746875,18 242.196875,18.5 C242.596875,18.65 242.896875,18.7 243.046875,18.7 C244.146875,18.7 244.696875,17.7 244.696875,15.7 Z M242.396875,35.05 C242.396875,32.95 241.296875,31.9 239.096875,31.9 C238.296875,32.3 237.946875,32.85 237.946875,33.5 C237.946875,33.7 237.996875,34.1 238.096875,34.7 C236.746875,40.35 236.096875,44.15 236.096875,46.1 C236.096875,50.2 237.196875,52.25 239.496875,52.25 C239.796875,52.25 240.096875,52.1 240.396875,51.8 C240.696875,51.5 240.896875,51.25 240.896875,50.95 C240.896875,50.05 240.546875,49.3 239.896875,48.7 C239.996875,45.7 240.546875,42.3 241.546875,38.4 L242.396875,35.05 Z" id="Bhurji" stroke="#FFFFFF" stroke-width="1.5" fill="#FFFFFF"></path>
                <path d="M143.95,83.9 C143.95,83.75 143.7,83.25 143.2,82.45 C142,80.65 141.3,77.15 141.1,72.05 C141.05,70.85 140.5,70.25 139.4,70.25 C136.85,70.25 133.25,73.45 128.55,79.75 C128,78.25 127.75,75.55 127.75,71.75 C127.75,70.45 127.65,69.55 127.5,69.15 C127.25,68.55 126.7,68.2 125.9,68.2 C124.6,68.2 121.05,71 115.15,76.55 C116.1,72.25 116.6,69.5 116.6,68.2 C116.6,65.1 115.85,63.5 114.4,63.5 C113.75,63.5 113.15,63.75 112.6,64.25 C112,64.75 111.65,65.4 111.6,66.2 C112.1,67.2 112.35,68.2 112.35,69.15 C112.35,70.25 111.95,72.5 111.2,76 C110.4,79.6 110.05,82.1 110.05,83.6 C110.05,86.4 110.8,87.8 112.35,87.8 C113.4,87.8 114.15,87.1 114.55,85.7 C115.85,81.2 118.8,77.4 123.35,74.3 C123.65,78.45 124.35,81.65 125.55,83.85 C126.15,85.05 126.95,85.65 127.85,85.65 C128.75,85.65 129.7,84.9 130.7,83.35 C132.8,80.25 134.85,77.75 136.9,75.9 C137.7,82.8 139.15,86.25 141.25,86.25 C143.05,86.25 143.95,85.5 143.95,83.9 Z M167.309375,74.4 C167.309375,74.6 167.209375,74.95 167.009375,75.5 C166.309375,77.6 166.009375,79.6 166.009375,81.6 C166.009375,82.2 166.109375,83.1 166.359375,84.25 C166.559375,85.45 166.709375,86.05 166.709375,86.2 C166.709375,86.7 166.459375,87.2 166.059375,87.6 C165.609375,87.9 165.109375,88.1 164.609375,88.1 C163.159375,88.1 162.309375,86.15 162.059375,82.35 C159.259375,85.15 156.759375,86.55 154.509375,86.55 C153.059375,86.55 151.809375,85.95 150.759375,84.7 C149.659375,83.5 149.159375,82.15 149.159375,80.6 C149.159375,77.7 150.859375,74.6 154.309375,71.4 C157.609375,68.3 160.609375,66.7 163.359375,66.7 C164.009375,66.7 164.659375,67 165.309375,67.5 C165.909375,68 166.259375,68.6 166.259375,69.2 C166.259375,69.45 166.209375,69.7 166.159375,69.9 C166.459375,70.8 166.659375,71.8 166.659375,72.95 C167.059375,73.45 167.309375,73.95 167.309375,74.4 Z M162.759375,72.95 C162.759375,71.75 162.459375,71.1 161.859375,71.1 C160.909375,71.1 159.259375,72.25 156.959375,74.45 C154.409375,76.9 153.159375,78.9 153.159375,80.5 C153.159375,81.75 153.659375,82.35 154.709375,82.35 C156.209375,82.35 157.959375,81.25 159.859375,78.95 C161.759375,76.65 162.759375,74.65 162.759375,72.95 Z M192.26875,71.65 C192.26875,70.9 191.91875,70.3 191.31875,69.8 C190.71875,69.35 190.06875,69.1 189.36875,69.05 C185.31875,71.3 181.51875,74.6 177.96875,78.9 C177.96875,76.4 178.21875,73.85 178.71875,71.2 C178.96875,70 179.21875,68.9 179.46875,67.9 C179.46875,67.1 179.21875,66.4 178.71875,65.75 C178.21875,65.2 177.56875,64.9 176.81875,64.9 C176.21875,64.9 175.86875,65.3 175.66875,66 C174.56875,70.05 174.01875,74 174.01875,77.9 C174.01875,83.85 175.01875,86.8 177.11875,86.8 C177.61875,86.8 178.11875,86.35 178.61875,85.55 C178.91875,84.95 179.21875,84.3 179.56875,83.7 C181.26875,80.9 184.16875,77.95 188.31875,74.8 L187.56875,81.2 C187.36875,83.05 187.26875,84 187.26875,84.05 C187.26875,84.85 187.51875,85.55 188.01875,86.2 C188.51875,86.8 189.11875,87.1 189.86875,87.1 C190.56875,87.1 190.96875,86.6 191.06875,85.7 C191.86875,78.65 192.26875,73.95 192.26875,71.65 Z" id="man" stroke="#FAD720" fill="#FAD720"></path>
                <g id="shutterstock_495822766">
                    <path d="M86.0419653,62.0092973 C85.8532582,85.4683243 66.65302,103.215784 43.1435014,103.027459 C19.6367993,102.839135 0.723846446,84.7881081 0.912553496,61.3234595 C1.10126055,37.8644324 20.4620406,0.24172973 43.9715592,0.430054054 C67.4782613,0.618378378 86.2306723,38.5446486 86.0419653,62.0092973" id="Fill-5" fill="#FFFFFF"></path>
                    <path d="M8.42985374,45.4564324 C8.30029368,45.4564324 8.17073362,45.4367568 8.03835703,45.403027 C7.16805138,45.180973 6.6469946,44.2955676 6.86949993,43.4298378 C9.29734287,34.0501622 13.9699548,24.8278919 19.6903132,18.1184865 C20.2789666,17.4354595 21.3013645,17.3539459 21.9829631,17.932973 C22.6645617,18.512 22.7490574,19.5379459 22.1688536,20.2181622 C16.7554961,26.5705946 12.3251052,35.3234595 10.0183728,44.2393514 C9.82684922,44.972973 9.15933324,45.4620541 8.42985374,45.4564324" id="Fill-6" fill="#E4E5E3"></path>
                    <path d="M68.6527514,63.8925405 C68.542907,77.7835676 57.1726031,88.9481081 43.2589788,88.8328649 C29.3453545,88.7204324 18.1553081,77.3788108 18.2679691,63.4905946 C18.3778135,49.6051892 29.7481174,38.435027 43.6645582,38.5474595 C57.5753659,38.6570811 68.7654123,50.0099459 68.6527514,63.8925405" id="Fill-7" fill="#FBD81F"></path>
                    <path d="M22.3800928,63.6142703 C21.481622,63.6058378 20.7634086,62.8694054 20.7690416,61.9783784 C20.8591703,50.7014054 30.1227149,41.6 41.4226058,41.6927568 C42.3210766,41.6983784 43.0421066,42.4263784 43.033657,43.3258378 C43.0252074,44.2196757 42.2957279,44.9420541 41.3944405,44.9336216 C31.8914915,44.8577297 24.0953554,52.5143784 24.0193093,62.0064865 C24.0108597,62.8975135 23.2785637,63.6198919 22.3800928,63.6142703" id="Fill-8" fill="#FFFFFF"></path>
                    <path d="M60.2735951,45.0038919 C64.1857457,49.4702703 66.5544417,55.3139459 66.5037443,61.716973 C66.3910833,75.6023784 55.023596,86.7669189 41.1071552,86.6572973 C34.7108311,86.6067027 28.9087935,84.1641081 24.4953017,80.2064865 C29.0693353,85.4345946 35.7585777,88.7738378 43.2589788,88.8328649 C57.1726031,88.9481081 68.542907,77.7835676 68.6527514,63.8925405 C68.7147149,56.3904865 65.4588142,49.652973 60.2735951,45.0038919" id="Fill-9" fill="#F2BB28"></path>
                    <path d="M42.7576377,94.3561081 C41.8591668,94.3476757 41.1353204,93.6224865 41.14377,92.7202162 C41.1522195,91.8291892 41.8845155,91.104 42.7829864,91.1124324 C58.1865515,91.2361081 70.8214742,78.8263784 70.9425847,63.4568649 C70.9510343,62.5658378 71.6833303,61.8406486 72.5818012,61.8462703 C73.4802721,61.8547027 74.201302,62.5911351 74.1928524,63.4821622 C74.0548428,80.6477838 59.955328,94.4938378 42.7576377,94.3561081" id="Fill-10" fill="#E4E5E3"></path>
                    <path d="M48.7145841,43.9301622 C48.7061346,45.0123243 47.8217463,45.8864865 46.7345684,45.8780541 C45.650207,45.8696216 44.7770848,44.9814054 44.7855344,43.8992432 C44.7939839,42.8142703 45.6811887,41.9457297 46.7655501,41.9541622 C47.8527281,41.9654054 48.7258502,42.8451892 48.7145841,43.9301622" id="Fill-11" fill="#FFFFFF"></path>
                    <path d="M35.8994039,92.3885405 C35.9078535,91.3035676 36.7950582,90.4378378 37.8794196,90.4462703 C38.9665976,90.4575135 39.8425363,91.3344865 39.8284537,92.4194595 C39.8200041,93.5044324 38.9356158,94.3757838 37.8456214,94.3673514 C36.7640765,94.3589189 35.8909543,93.4735135 35.8994039,92.3885405" id="Fill-12" fill="#E4E5E3"></path>
                    <path d="M22.9715627,15.3667027 C22.9800123,14.2845405 23.867217,13.4103784 24.9515785,13.4188108 C26.0387564,13.4300541 26.9146951,14.3154595 26.903429,15.3948108 C26.8921629,16.4825946 26.0077746,17.3511351 24.9177802,17.3427027 C23.8362353,17.3370811 22.9631131,16.4516757 22.9715627,15.3667027" id="Fill-13" fill="#E4E5E3"></path>
                    <path d="M34.4319953,61.9811892 C34.4038301,63.1785946 33.412414,64.123027 32.2153916,64.0949189 C31.0183693,64.0696216 30.069201,63.0774054 30.0973662,61.88 C30.1255315,60.6882162 31.1169476,59.740973 32.3139699,59.7718919 C33.5109923,59.7971892 34.4601606,60.7894054 34.4319953,61.9811892" id="Fill-14" fill="#592F1D"></path>
                    <path d="M56.6628124,62.1582703 C56.6318307,63.3556757 55.6404145,64.3029189 54.4433922,64.272 C53.2491864,64.2467027 52.2972016,63.2572973 52.3253668,62.0570811 C52.353532,60.8652973 53.3449482,59.9180541 54.5419705,59.948973 C55.7389928,59.9770811 56.6909777,60.9664865 56.6628124,62.1582703" id="Fill-15" fill="#592F1D"></path>
                    <path d="M50.8523252,69.8486486 C50.7734626,73.0332973 48.3174544,76.9122162 43.2617954,76.8728649 C38.1582554,76.8307027 35.7022473,72.6847568 35.7782934,69.5057297 C35.8543395,66.3126486 39.1609377,69.7474595 43.3209423,69.8458378 C47.4724974,69.9357838 50.9283713,66.6611892 50.8523252,69.8486486" id="Fill-16" fill="#592F1D"></path>
                </g>
            </g>
        </g>
    </g>
</svg>