<?xml version="1.0" encoding="UTF-8"?>
<svg width="293px" height="226px" viewBox="0 0 293 226" version="1.1" xmlns="http://www.w3.org/2000/svg" xmlns:xlink="http://www.w3.org/1999/xlink">
    <!-- Generator: Sketch 42 (36781) - http://www.bohemiancoding.com/sketch -->
    <title>Group 3</title>
    <desc>Created with Sketch.</desc>
    <defs>
        <polygon id="path-1" points="162.494308 0 324.988329 0 324.988329 249.638489 162.494308 249.638489 0.000287371307 249.638489 0.000287371307 0 162.494308 0"></polygon>
    </defs>
    <g id="Page-1" stroke="none" stroke-width="1" fill="none" fill-rule="evenodd">
        <g id="Artboard-3" transform="translate(-1250.000000, -261.000000)">
            <g id="Group-3" transform="translate(1234.000000, 249.000000)">
                <g id="Page-1">
                    <mask id="mask-2" fill="white">
                        <use xlink:href="#path-1"></use>
                    </mask>
                    <g id="Clip-2"></g>
                    <path d="M305.364979,51.6293559 C303.344862,38.3589822 300.724934,29.6302843 297.573099,25.6829372 C294.359019,21.657048 280.064609,18.3712357 255.080312,15.9186174 C232.17676,13.6700465 203.111003,12.4319965 173.240917,12.4319965 C141.557656,12.4319965 111.647152,13.8668066 88.1922913,16.4878451 C86.291813,16.7016091 84.4252863,16.9194217 82.6113037,17.14938 C53.5027023,20.8076598 36.0604992,26.302367 30.7672913,33.4756077 C21.2883428,46.3208826 15.8439697,74.5490704 16.2012693,108.983702 C16.3548596,123.547187 17.6086417,137.812697 19.7370804,149.151907 C22.631854,164.585022 26.3155968,170.492682 28.8967228,172.730727 C30.8529786,174.427074 34.8746202,175.218163 41.5533745,175.218163 C48.7058337,175.218163 57.5227271,174.274039 63.3543095,173.648131 C66.4333915,173.319388 68.8633522,173.057851 69.8366299,173.057851 C74.5114346,173.605216 83.2660835,180.856999 87.3265269,192.554102 C87.6595754,193.511182 87.9457384,194.456926 88.1922913,195.394572 C89.9238202,201.9581 89.6166395,208.00584 88.1922913,213.379901 C85.7275707,222.685923 79.912964,229.966046 75.5251308,234.391933 C74.9616968,234.96197 74.8865183,235.854273 75.3497144,236.50933 C75.6674039,236.957911 76.1750604,237.206493 76.6956508,237.206493 C77.4789615,237.009733 81.9007463,234.893955 88.1922913,231.081829 C93.3214,227.974964 99.6921653,223.742598 105.97886,218.579063 C114.242828,211.792865 120.758292,204.745939 125.344176,197.633427 C130.921122,188.988129 133.656646,180.220565 133.48123,171.553406 C137.838345,170.692681 157.411412,170.439241 176.380626,170.195518 C239.54748,169.380948 292.474708,167.989862 300.359551,159.177764 C303.535637,155.625556 305.876677,147.178638 307.314768,134.072636 C308.566125,122.690511 309.051147,108.107594 308.685763,93.0096996 C308.324422,78.013829 307.143393,63.3199812 305.364979,51.6293559 Z" id="Fill-1" fill="#3C4651" mask="url(#mask-2)"></path>
                    <path d="M143.619,49.398 C143.619,49.2 143.529,49.002 143.349,48.822 C143.169,48.642 142.989,48.552 142.809,48.552 C142.719,48.552 142.485,48.678 142.125,48.894 C140.991,49.56 139.983,49.884 139.119,49.884 C137.751,49.884 137.067,48.93 137.067,46.986 C137.067,45.42 137.445,43.836 138.219,42.252 C138.993,40.686 139.785,39.894 140.577,39.894 C140.973,39.894 141.369,40.128 141.765,40.56 C142.161,41.01 142.449,41.226 142.665,41.226 C142.881,41.226 143.079,41.154 143.259,40.992 C143.403,40.848 143.493,40.65 143.493,40.416 C143.493,40.164 143.349,39.876 143.097,39.552 C142.845,39.228 142.503,38.922 142.089,38.652 C141.621,38.364 141.189,38.22 140.811,38.22 C139.299,38.22 137.985,39.228 136.905,41.244 C135.951,43.044 135.483,44.898 135.483,46.824 C135.483,48.174 135.753,49.272 136.293,50.1 C136.941,51.036 137.877,51.522 139.101,51.522 C139.533,51.522 140.145,51.414 140.919,51.198 C141.729,50.964 142.377,50.694 142.881,50.37 C143.367,50.064 143.619,49.74 143.619,49.398 Z M151.557,46.824 C151.557,46.896 151.521,47.022 151.449,47.22 C151.197,47.976 151.089,48.696 151.089,49.416 C151.089,49.632 151.125,49.956 151.215,50.37 C151.287,50.802 151.341,51.018 151.341,51.072 C151.341,51.252 151.251,51.432 151.107,51.576 C150.945,51.684 150.765,51.756 150.585,51.756 C150.063,51.756 149.757,51.054 149.667,49.686 C148.659,50.694 147.759,51.198 146.949,51.198 C146.427,51.198 145.977,50.982 145.599,50.532 C145.203,50.1 145.023,49.614 145.023,49.056 C145.023,48.012 145.635,46.896 146.877,45.744 C148.065,44.628 149.145,44.052 150.135,44.052 C150.369,44.052 150.603,44.16 150.837,44.34 C151.053,44.52 151.179,44.736 151.179,44.952 C151.179,45.042 151.161,45.132 151.143,45.204 C151.251,45.528 151.323,45.888 151.323,46.302 C151.467,46.482 151.557,46.662 151.557,46.824 Z M149.919,46.302 C149.919,45.87 149.811,45.636 149.595,45.636 C149.253,45.636 148.659,46.05 147.831,46.842 C146.913,47.724 146.463,48.444 146.463,49.02 C146.463,49.47 146.643,49.686 147.021,49.686 C147.561,49.686 148.191,49.29 148.875,48.462 C149.559,47.634 149.919,46.914 149.919,46.302 Z M156.471,38.832 C156.471,38.616 156.309,38.364 156.021,38.04 C155.733,37.752 155.481,37.59 155.265,37.59 C155.031,37.59 154.815,37.932 154.617,38.58 C153.915,40.812 153.573,43.116 153.573,45.492 C153.573,46.104 153.609,46.95 153.681,48.03 C153.555,48.246 153.501,48.642 153.501,49.2 C153.501,49.812 153.627,50.37 153.897,50.892 C154.149,51.414 154.455,51.684 154.815,51.684 C154.905,51.684 155.013,51.63 155.139,51.522 C155.247,51.432 155.319,51.342 155.319,51.252 C155.319,51.198 155.301,51.09 155.283,50.946 C155.247,50.784 155.247,50.676 155.247,50.604 C155.067,48.408 154.977,46.86 154.977,45.996 C154.977,43.926 155.247,41.856 155.787,39.786 L155.913,39.606 C156.273,39.426 156.471,39.174 156.471,38.832 Z M160.827,38.832 C160.827,38.616 160.665,38.364 160.377,38.04 C160.089,37.752 159.837,37.59 159.621,37.59 C159.387,37.59 159.171,37.932 158.973,38.58 C158.271,40.812 157.929,43.116 157.929,45.492 C157.929,46.104 157.965,46.95 158.037,48.03 C157.911,48.246 157.857,48.642 157.857,49.2 C157.857,49.812 157.983,50.37 158.253,50.892 C158.505,51.414 158.811,51.684 159.171,51.684 C159.261,51.684 159.369,51.63 159.495,51.522 C159.603,51.432 159.675,51.342 159.675,51.252 C159.675,51.198 159.657,51.09 159.639,50.946 C159.603,50.784 159.603,50.676 159.603,50.604 C159.423,48.408 159.333,46.86 159.333,45.996 C159.333,43.926 159.603,41.856 160.143,39.786 L160.269,39.606 C160.629,39.426 160.827,39.174 160.827,38.832 Z M174.939,45.024 C174.939,44.52 174.723,44.268 174.291,44.268 C174.075,44.268 173.895,44.394 173.715,44.646 C171.447,47.976 169.899,49.632 169.053,49.632 C168.909,49.632 168.837,49.56 168.837,49.416 C168.837,49.128 168.945,48.462 169.179,47.382 C169.395,46.338 169.503,45.636 169.503,45.312 C169.503,44.556 169.251,44.16 168.765,44.16 C168.585,44.16 168.441,44.25 168.315,44.43 C168.171,44.61 168.099,44.79 168.099,44.97 C168.099,45.024 168.099,45.096 168.117,45.168 L168.117,45.366 C168.117,45.654 167.973,46.428 167.721,47.706 C167.469,48.804 167.361,49.524 167.361,49.884 C167.361,50.316 167.505,50.64 167.793,50.874 C168.063,51.09 168.405,51.198 168.837,51.198 C169.791,51.198 171.141,50.19 172.905,48.156 C172.761,49.344 172.689,50.082 172.689,50.388 C172.599,50.532 172.563,50.658 172.563,50.802 C172.563,51.018 172.653,51.18 172.833,51.288 C172.995,51.396 173.193,51.468 173.409,51.468 C173.661,51.468 173.859,51.36 174.003,51.144 C174.147,50.946 174.219,50.712 174.219,50.442 C174.219,50.388 174.201,50.244 174.165,50.01 C174.129,49.794 174.111,49.614 174.111,49.47 C174.111,49.218 174.183,48.624 174.345,47.688 C174.525,46.662 174.669,45.96 174.813,45.582 C174.885,45.33 174.939,45.15 174.939,45.024 Z M181.095,44.466 C181.095,44.34 181.059,44.196 180.987,44.052 C180.915,43.512 180.465,43.242 179.637,43.242 C179.097,43.242 178.755,43.404 178.575,43.692 C177.729,43.998 177.315,44.574 177.315,45.402 C177.315,45.906 177.531,46.716 177.963,47.796 C178.395,48.876 178.629,49.56 178.629,49.812 C178.629,50.244 178.323,50.442 177.729,50.442 C177.513,50.442 177.207,50.424 176.847,50.37 C176.487,50.334 176.289,50.298 176.253,50.298 C176.091,50.298 175.947,50.406 175.839,50.586 C175.695,50.766 175.641,50.964 175.641,51.162 C175.641,51.666 176.271,51.936 177.567,51.936 C178.359,51.936 178.989,51.756 179.457,51.414 C179.871,51.072 180.087,50.658 180.087,50.136 C180.087,49.596 179.853,48.75 179.421,47.616 C178.971,46.5 178.755,45.834 178.755,45.618 C178.755,45.276 178.989,45.096 179.457,45.096 C179.565,45.096 179.727,45.114 179.943,45.114 C180.159,45.15 180.321,45.15 180.411,45.15 C180.591,45.15 180.753,45.096 180.897,44.952 C181.023,44.844 181.095,44.682 181.095,44.466 Z M194.325,46.824 C194.325,46.896 194.289,47.022 194.217,47.22 C193.965,47.976 193.857,48.696 193.857,49.416 C193.857,49.632 193.893,49.956 193.983,50.37 C194.055,50.802 194.109,51.018 194.109,51.072 C194.109,51.252 194.019,51.432 193.875,51.576 C193.713,51.684 193.533,51.756 193.353,51.756 C192.831,51.756 192.525,51.054 192.435,49.686 C191.427,50.694 190.527,51.198 189.717,51.198 C189.195,51.198 188.745,50.982 188.367,50.532 C187.971,50.1 187.791,49.614 187.791,49.056 C187.791,48.012 188.403,46.896 189.645,45.744 C190.833,44.628 191.913,44.052 192.903,44.052 C193.137,44.052 193.371,44.16 193.605,44.34 C193.821,44.52 193.947,44.736 193.947,44.952 C193.947,45.042 193.929,45.132 193.911,45.204 C194.019,45.528 194.091,45.888 194.091,46.302 C194.235,46.482 194.325,46.662 194.325,46.824 Z M192.687,46.302 C192.687,45.87 192.579,45.636 192.363,45.636 C192.021,45.636 191.427,46.05 190.599,46.842 C189.681,47.724 189.231,48.444 189.231,49.02 C189.231,49.47 189.411,49.686 189.789,49.686 C190.329,49.686 190.959,49.29 191.643,48.462 C192.327,47.634 192.687,46.914 192.687,46.302 Z M201.885,44.682 C201.885,44.106 201.363,43.8 200.319,43.746 C199.563,43.728 199.113,43.71 198.987,43.71 C199.239,42.522 199.473,41.568 199.689,40.83 C199.851,40.326 199.995,39.894 200.103,39.516 C200.049,38.976 199.797,38.706 199.329,38.706 C199.005,38.706 198.789,38.904 198.681,39.282 C198.357,40.362 197.961,41.838 197.493,43.746 C197.061,43.746 196.791,43.8 196.647,43.872 C196.431,43.98 196.323,44.196 196.323,44.52 C196.323,45.042 196.593,45.294 197.151,45.294 L196.611,47.886 C196.377,49.056 196.269,49.92 196.269,50.46 C196.269,51.432 196.557,51.936 197.151,51.936 C197.331,51.936 197.493,51.864 197.673,51.72 C197.835,51.558 197.925,51.396 197.925,51.216 C197.925,50.928 197.835,50.73 197.655,50.586 C197.691,49.794 197.799,48.876 198.015,47.868 C198.087,47.526 198.285,46.662 198.609,45.258 C198.789,45.258 199.113,45.276 199.617,45.276 C200.121,45.294 200.427,45.294 200.553,45.294 C200.733,45.474 200.967,45.546 201.219,45.546 C201.381,45.546 201.543,45.456 201.687,45.276 C201.813,45.096 201.885,44.898 201.885,44.682 Z" id="Call-us-at" fill="#FAD720" mask="url(#mask-2)"></path>
                    <path d="M127.678571,49.1919643 C127.678571,49.3627241 127.64695,49.5856571 127.583705,49.8607701 C127.520461,50.1358831 127.454055,50.3524918 127.384487,50.5106027 C127.251673,50.8268245 126.865889,51.1620146 126.227121,51.516183 C125.632624,51.8387293 125.04446,52 124.462612,52 C124.291852,52 124.125838,51.9889324 123.964565,51.9667969 C123.803292,51.9446613 123.621467,51.9051342 123.419085,51.8482143 C123.216703,51.7912944 123.0665,51.7454429 122.968471,51.7106585 C122.870442,51.6758741 122.694942,51.6110496 122.441964,51.516183 C122.188987,51.4213165 122.03404,51.3643974 121.977121,51.3454241 C121.357326,51.1240688 120.803946,50.8616087 120.316964,50.5580357 C119.507436,50.0584052 118.671042,49.3769574 117.807757,48.5136719 C116.944471,47.6503863 116.263023,46.8139921 115.763393,46.0044643 C115.45982,45.5174827 115.19736,44.9641028 114.976004,44.344308 C114.957031,44.2873881 114.900112,44.1324417 114.805246,43.8794643 C114.710379,43.6264868 114.645554,43.4509864 114.61077,43.3529576 C114.575986,43.2549288 114.530134,43.1047257 114.473214,42.9023438 C114.416294,42.6999618 114.376767,42.518137 114.354632,42.3568638 C114.332496,42.1955907 114.321429,42.0295767 114.321429,41.858817 C114.321429,41.2769688 114.482699,40.6888051 114.805246,40.094308 C115.159414,39.45554 115.494604,39.0697551 115.810826,38.936942 C115.968937,38.8673732 116.185545,38.8009676 116.460658,38.7377232 C116.735771,38.6744789 116.958705,38.6428571 117.129464,38.6428571 C117.218006,38.6428571 117.284412,38.6523437 117.328683,38.671317 C117.442523,38.7092636 117.610118,38.9495886 117.831473,39.3922991 C117.901042,39.5124634 117.995907,39.6832206 118.116071,39.9045759 C118.236236,40.1259312 118.346912,40.326729 118.448103,40.5069754 C118.549294,40.6872219 118.647321,40.856398 118.742187,41.0145089 C118.761161,41.0398067 118.816499,41.1188609 118.908203,41.2516741 C118.999907,41.3844873 119.067894,41.4967443 119.112165,41.5884487 C119.156436,41.680153 119.178571,41.7702749 119.178571,41.858817 C119.178571,41.9853057 119.08845,42.1434142 118.908203,42.3331473 C118.727957,42.5228804 118.531902,42.6967998 118.320033,42.8549107 C118.108165,43.0130216 117.91211,43.1806167 117.731864,43.3577009 C117.551617,43.5347851 117.461496,43.680245 117.461496,43.7940848 C117.461496,43.8510047 117.477306,43.9221536 117.508929,44.0075335 C117.540551,44.0929134 117.567429,44.1577379 117.589565,44.2020089 C117.6117,44.24628 117.655971,44.3221721 117.722377,44.4296875 C117.788784,44.5372029 117.825149,44.5972842 117.831473,44.609933 C118.31213,45.4763808 118.862348,46.2194909 119.482143,46.8392857 C120.101938,47.4590805 120.845048,48.0092982 121.711496,48.4899554 C121.724144,48.4962798 121.784226,48.5326448 121.891741,48.5990513 C121.999256,48.6654579 122.075149,48.7097283 122.11942,48.7318638 C122.163691,48.7539994 122.228515,48.7808778 122.313895,48.8125 C122.399275,48.8441222 122.470424,48.859933 122.527344,48.859933 C122.641184,48.859933 122.786643,48.7698112 122.963728,48.5895647 C123.140812,48.4093183 123.308407,48.2132637 123.466518,48.0013951 C123.624629,47.7895265 123.798548,47.5934719 123.988281,47.4132254 C124.178014,47.232979 124.336123,47.1428571 124.462612,47.1428571 C124.551154,47.1428571 124.641276,47.1649923 124.73298,47.2092634 C124.824684,47.2535344 124.936941,47.3215211 125.069754,47.4132254 C125.202568,47.5049298 125.281622,47.5602678 125.30692,47.5792411 C125.465031,47.6741076 125.634207,47.7721349 125.814453,47.8733259 C125.9947,47.9745169 126.195497,48.0851929 126.416853,48.2053571 C126.638208,48.3255214 126.808965,48.4203866 126.929129,48.4899554 C127.37184,48.7113106 127.612165,48.8789057 127.650112,48.9927455 C127.669085,49.0370166 127.678571,49.1034222 127.678571,49.1919643 Z" id="" fill="#FAD720" mask="url(#mask-2)"></path>
                    <path d="M129.4125,147.16 C129.4125,147.67 129.8325,148.075 130.3275,148.075 C130.8375,148.075 131.2425,147.67 131.2425,147.16 L131.2425,138.28 C131.2425,137.77 130.8525,137.365 130.3275,137.365 L130.2975,137.365 C130.0275,137.365 129.7575,137.425 129.3975,137.53 L127.8075,138.04 C127.4325,138.145 127.1925,138.445 127.1925,138.835 C127.1925,139.255 127.5675,139.615 128.0025,139.615 C128.0925,139.615 128.2275,139.6 128.3325,139.57 L129.4125,139.24 L129.4125,147.16 Z M138.0975,148.18 C135.3375,148.18 133.5375,145.78 133.5375,142.78 L133.5375,142.75 C133.5375,139.75 135.3675,137.32 138.1275,137.32 C140.8725,137.32 142.6875,139.72 142.6875,142.72 L142.6875,142.75 C142.6875,145.75 140.8575,148.18 138.0975,148.18 Z M138.1275,146.515 C139.7625,146.515 140.7825,144.835 140.7825,142.78 L140.7825,142.75 C140.7825,140.68 139.7175,138.985 138.0975,138.985 C136.4775,138.985 135.4425,140.635 135.4425,142.72 L135.4425,142.75 C135.4425,144.82 136.4925,146.515 138.1275,146.515 Z M144.8925,147.16 L144.8925,138.43 C144.8925,137.905 145.2975,137.5 145.8225,137.5 L149.0325,137.5 C151.4925,137.5 153.0225,138.895 153.0225,141.01 L153.0225,141.04 C153.0225,143.395 151.1325,144.625 148.8225,144.625 L146.7375,144.625 L146.7375,147.16 C146.7375,147.67 146.3325,148.075 145.8225,148.075 C145.2975,148.075 144.8925,147.67 144.8925,147.16 Z M146.7375,142.96 L148.8825,142.96 C150.2775,142.96 151.1475,142.18 151.1475,141.085 L151.1475,141.055 C151.1475,139.825 150.2625,139.18 148.8825,139.18 L146.7375,139.18 L146.7375,142.96 Z M154.9125,147.175 C154.9125,147.685 155.3025,148.075 155.8125,148.075 C156.3225,148.075 156.7275,147.685 156.7275,147.175 L156.7275,140.89 L159.2775,144.715 C159.4725,145.015 159.7125,145.195 160.0425,145.195 C160.3875,145.195 160.6275,145.015 160.8225,144.715 L163.3875,140.86 L163.3875,147.16 C163.3875,147.655 163.8075,148.075 164.3025,148.075 C164.8275,148.075 165.2325,147.67 165.2325,147.16 L165.2325,138.37 C165.2325,137.86 164.8275,137.44 164.3025,137.44 L164.1075,137.44 C163.7325,137.44 163.4625,137.605 163.2675,137.92 L160.0725,142.915 L156.8925,137.935 C156.7125,137.65 156.4425,137.44 156.0375,137.44 L155.8425,137.44 C155.3175,137.44 154.9125,137.86 154.9125,138.37 L154.9125,147.175 Z M172.7325,144.295 L175.5525,144.295 C176.0325,144.295 176.4375,143.89 176.4375,143.41 C176.4375,142.915 176.0325,142.51 175.5525,142.51 L172.7325,142.51 C172.2525,142.51 171.8475,142.915 171.8475,143.41 C171.8475,143.89 172.2525,144.295 172.7325,144.295 Z M184.3725,147.16 C184.3725,147.67 184.7925,148.075 185.2875,148.075 C185.7975,148.075 186.2025,147.67 186.2025,147.16 L186.2025,138.28 C186.2025,137.77 185.8125,137.365 185.2875,137.365 L185.2575,137.365 C184.9875,137.365 184.7175,137.425 184.3575,137.53 L182.7675,138.04 C182.3925,138.145 182.1525,138.445 182.1525,138.835 C182.1525,139.255 182.5275,139.615 182.9625,139.615 C183.0525,139.615 183.1875,139.6 183.2925,139.57 L184.3725,139.24 L184.3725,147.16 Z M188.2725,147.22 C188.2725,147.085 188.3175,146.95 188.3925,146.8 L192.2925,138.1 C192.5025,137.635 192.8775,137.35 193.4025,137.35 L193.4925,137.35 C194.0175,137.35 194.3775,137.635 194.5875,138.1 L198.4875,146.8 C198.5625,146.935 198.5925,147.07 198.5925,147.19 C198.5925,147.685 198.2175,148.075 197.7225,148.075 C197.2875,148.075 196.9875,147.82 196.8225,147.43 L195.9675,145.465 L190.8675,145.465 L189.9825,147.49 C189.8325,147.865 189.5175,148.075 189.1275,148.075 C188.6475,148.075 188.2725,147.7 188.2725,147.22 Z M191.5725,143.83 L195.2625,143.83 L193.4175,139.585 L191.5725,143.83 Z M200.5875,147.175 C200.5875,147.685 200.9775,148.075 201.4875,148.075 C201.9975,148.075 202.4025,147.685 202.4025,147.175 L202.4025,140.89 L204.9525,144.715 C205.1475,145.015 205.3875,145.195 205.7175,145.195 C206.0625,145.195 206.3025,145.015 206.4975,144.715 L209.0625,140.86 L209.0625,147.16 C209.0625,147.655 209.4825,148.075 209.9775,148.075 C210.5025,148.075 210.9075,147.67 210.9075,147.16 L210.9075,138.37 C210.9075,137.86 210.5025,137.44 209.9775,137.44 L209.7825,137.44 C209.4075,137.44 209.1375,137.605 208.9425,137.92 L205.7475,142.915 L202.5675,137.935 C202.3875,137.65 202.1175,137.44 201.7125,137.44 L201.5175,137.44 C200.9925,137.44 200.5875,137.86 200.5875,138.37 L200.5875,147.175 Z" id="10PM---1AM" fill="#6CCE6D" mask="url(#mask-2)"></path>
                </g>
                <path d="M83.046524,86.1557692 C83.046524,86.9957692 83.766524,87.4757692 84.558524,87.4757692 C85.158524,87.4757692 85.614524,87.1637692 85.974524,86.4917692 L92.934524,73.2917692 C93.174524,72.8357692 93.342524,72.3077692 93.342524,71.8757692 C93.342524,71.0357692 92.814524,70.5557692 91.998524,70.5557692 L82.566524,70.5557692 C81.846524,70.5557692 81.270524,71.1317692 81.270524,71.8517692 C81.270524,72.5717692 81.846524,73.1477692 82.566524,73.1477692 L89.838524,73.1477692 L83.310524,85.2437692 C83.166524,85.5077692 83.046524,85.9157692 83.046524,86.1557692 Z M102.462524,87.6437692 C100.398524,87.6437692 98.910524,86.9957692 97.782524,85.8677692 C96.510524,84.5957692 95.742524,82.8437692 95.742524,79.4597692 L95.742524,79.4117692 C95.742524,74.2757692 98.190524,70.2677692 102.942524,70.2677692 C104.670524,70.2677692 106.038524,70.7237692 107.142524,71.4677692 C107.598524,71.7557692 107.886524,72.1397692 107.886524,72.7397692 C107.886524,73.5077692 107.238524,74.1077692 106.470524,74.1077692 C106.206524,74.1077692 105.942524,74.0117692 105.726524,73.8917692 C104.814524,73.2917692 103.974524,72.9557692 102.846524,72.9557692 C100.350524,72.9557692 98.958524,75.2117692 98.814524,78.2837692 C99.702524,77.4197692 100.854524,76.6037692 102.846524,76.6037692 C106.086524,76.6037692 108.702524,78.5237692 108.702524,81.8837692 L108.702524,81.9317692 C108.702524,85.2677692 105.990524,87.6437692 102.462524,87.6437692 Z M102.390524,85.0757692 C104.478524,85.0757692 105.750524,83.7797692 105.750524,82.0517692 L105.750524,82.0037692 C105.750524,80.3237692 104.406524,79.0757692 102.318524,79.0757692 C100.230524,79.0757692 98.910524,80.4197692 98.910524,82.0277692 L98.910524,82.0757692 C98.910524,83.7797692 100.302524,85.0757692 102.390524,85.0757692 Z M117.678524,87.5957692 C114.006524,87.5957692 111.270524,85.6757692 111.270524,82.7717692 L111.270524,82.7237692 C111.270524,80.7077692 112.398524,79.4357692 114.294524,78.6437692 C112.878524,77.8997692 111.846524,76.7717692 111.846524,74.8997692 L111.846524,74.8517692 C111.846524,72.2837692 114.318524,70.3157692 117.678524,70.3157692 C121.038524,70.3157692 123.510524,72.2597692 123.510524,74.8517692 L123.510524,74.8997692 C123.510524,76.7717692 122.478524,77.8997692 121.062524,78.6437692 C122.910524,79.4837692 124.086524,80.6837692 124.086524,82.6757692 L124.086524,82.7237692 C124.086524,85.7237692 121.350524,87.5957692 117.678524,87.5957692 Z M117.678524,77.6597692 C119.406524,77.6597692 120.678524,76.6277692 120.678524,75.1877692 L120.678524,75.1397692 C120.678524,73.8437692 119.478524,72.7877692 117.678524,72.7877692 C115.878524,72.7877692 114.678524,73.8437692 114.678524,75.1157692 L114.678524,75.1637692 C114.678524,76.6277692 115.950524,77.6597692 117.678524,77.6597692 Z M117.678524,85.1237692 C119.886524,85.1237692 121.206524,83.9957692 121.206524,82.6037692 L121.206524,82.5557692 C121.206524,81.0197692 119.670524,80.0117692 117.678524,80.0117692 C115.686524,80.0117692 114.174524,81.0197692 114.174524,82.5557692 L114.174524,82.6037692 C114.174524,83.9717692 115.470524,85.1237692 117.678524,85.1237692 Z M133.470524,85.9637692 C133.470524,86.8277692 134.142524,87.3557692 135.054524,87.3557692 L144.582524,87.3557692 C145.302524,87.3557692 145.878524,86.7797692 145.878524,86.0597692 C145.878524,85.3397692 145.302524,84.7637692 144.582524,84.7637692 L137.766524,84.7637692 L141.222524,81.8837692 C144.198524,79.4597692 145.590524,78.0197692 145.590524,75.3797692 L145.590524,75.3317692 C145.590524,72.3317692 143.334524,70.3157692 140.046524,70.3157692 C137.406524,70.3157692 135.846524,71.3237692 134.478524,73.0277692 C134.262524,73.2917692 134.142524,73.6277692 134.142524,73.9397692 C134.142524,74.6837692 134.742524,75.2837692 135.486524,75.2837692 C135.966524,75.2837692 136.302524,75.0677692 136.518524,74.8277692 C137.550524,73.5797692 138.486524,72.9557692 139.830524,72.9557692 C141.366524,72.9557692 142.542524,73.9157692 142.542524,75.5717692 C142.542524,77.0837692 141.702524,78.1637692 139.398524,80.1077692 L134.238524,84.4997692 C133.734524,84.9077692 133.470524,85.3877692 133.470524,85.9637692 Z M154.326524,87.6437692 C152.430524,87.6437692 151.038524,87.0917692 149.790524,86.2517692 C149.382524,85.9877692 149.118524,85.5797692 149.118524,85.0277692 C149.118524,84.2597692 149.742524,83.6837692 150.510524,83.6837692 C150.822524,83.6837692 151.086524,83.7797692 151.326524,83.9237692 C152.310524,84.6197692 153.246524,84.9557692 154.398524,84.9557692 C156.870524,84.9557692 158.358524,82.7717692 158.454524,79.6757692 C157.614524,80.6837692 156.318524,81.4517692 154.518524,81.4517692 C150.942524,81.4517692 148.566524,79.3637692 148.566524,76.1237692 L148.566524,76.0757692 C148.566524,72.7877692 151.110524,70.2677692 154.830524,70.2677692 C156.942524,70.2677692 158.310524,70.8677692 159.510524,72.0437692 C160.734524,73.2917692 161.526524,75.1397692 161.526524,78.4517692 L161.526524,78.4997692 C161.526524,83.8997692 158.862524,87.6437692 154.326524,87.6437692 Z M154.950524,78.9797692 C157.086524,78.9797692 158.358524,77.5877692 158.358524,75.9557692 L158.358524,75.9077692 C158.358524,74.1557692 156.990524,72.8117692 154.854524,72.8117692 C152.766524,72.8117692 151.518524,74.2037692 151.518524,75.9317692 L151.518524,75.9797692 C151.518524,77.7317692 152.862524,78.9797692 154.950524,78.9797692 Z M163.926524,85.9637692 C163.926524,86.8277692 164.598524,87.3557692 165.510524,87.3557692 L175.038524,87.3557692 C175.758524,87.3557692 176.334524,86.7797692 176.334524,86.0597692 C176.334524,85.3397692 175.758524,84.7637692 175.038524,84.7637692 L168.222524,84.7637692 L171.678524,81.8837692 C174.654524,79.4597692 176.046524,78.0197692 176.046524,75.3797692 L176.046524,75.3317692 C176.046524,72.3317692 173.790524,70.3157692 170.502524,70.3157692 C167.862524,70.3157692 166.302524,71.3237692 164.934524,73.0277692 C164.718524,73.2917692 164.598524,73.6277692 164.598524,73.9397692 C164.598524,74.6837692 165.198524,75.2837692 165.942524,75.2837692 C166.422524,75.2837692 166.758524,75.0677692 166.974524,74.8277692 C168.006524,73.5797692 168.942524,72.9557692 170.286524,72.9557692 C171.822524,72.9557692 172.998524,73.9157692 172.998524,75.5717692 C172.998524,77.0837692 172.158524,78.1637692 169.854524,80.1077692 L164.694524,84.4997692 C164.190524,84.9077692 163.926524,85.3877692 163.926524,85.9637692 Z M184.782524,87.6437692 C182.886524,87.6437692 181.494524,87.0917692 180.246524,86.2517692 C179.838524,85.9877692 179.574524,85.5797692 179.574524,85.0277692 C179.574524,84.2597692 180.198524,83.6837692 180.966524,83.6837692 C181.278524,83.6837692 181.542524,83.7797692 181.782524,83.9237692 C182.766524,84.6197692 183.702524,84.9557692 184.854524,84.9557692 C187.326524,84.9557692 188.814524,82.7717692 188.910524,79.6757692 C188.070524,80.6837692 186.774524,81.4517692 184.974524,81.4517692 C181.398524,81.4517692 179.022524,79.3637692 179.022524,76.1237692 L179.022524,76.0757692 C179.022524,72.7877692 181.566524,70.2677692 185.286524,70.2677692 C187.398524,70.2677692 188.766524,70.8677692 189.966524,72.0437692 C191.190524,73.2917692 191.982524,75.1397692 191.982524,78.4517692 L191.982524,78.4997692 C191.982524,83.8997692 189.318524,87.6437692 184.782524,87.6437692 Z M185.406524,78.9797692 C187.542524,78.9797692 188.814524,77.5877692 188.814524,75.9557692 L188.814524,75.9077692 C188.814524,74.1557692 187.446524,72.8117692 185.310524,72.8117692 C183.222524,72.8117692 181.974524,74.2037692 181.974524,75.9317692 L181.974524,75.9797692 C181.974524,77.7317692 183.318524,78.9797692 185.406524,78.9797692 Z M209.214524,87.6437692 C204.798524,87.6437692 201.918524,83.8037692 201.918524,79.0037692 L201.918524,78.9557692 C201.918524,74.1557692 204.846524,70.2677692 209.262524,70.2677692 C213.654524,70.2677692 216.558524,74.1077692 216.558524,78.9077692 L216.558524,78.9557692 C216.558524,83.7557692 213.630524,87.6437692 209.214524,87.6437692 Z M209.262524,84.9797692 C211.878524,84.9797692 213.510524,82.2917692 213.510524,79.0037692 L213.510524,78.9557692 C213.510524,75.6437692 211.806524,72.9317692 209.214524,72.9317692 C206.622524,72.9317692 204.966524,75.5717692 204.966524,78.9077692 L204.966524,78.9557692 C204.966524,82.2677692 206.646524,84.9797692 209.262524,84.9797692 Z M227.814524,86.0837692 L227.814524,83.5877692 L220.302524,83.5877692 C219.510524,83.5877692 218.862524,83.0117692 218.862524,82.1957692 C218.862524,81.6197692 219.078524,81.1397692 219.510524,80.6357692 L227.406524,71.2757692 C227.934524,70.6517692 228.342524,70.3157692 229.206524,70.3157692 C229.998524,70.3157692 230.646524,70.9397692 230.646524,71.7317692 L230.646524,81.1637692 L231.942524,81.1637692 C232.638524,81.1637692 233.166524,81.7157692 233.166524,82.3877692 C233.166524,83.0597692 232.638524,83.5877692 231.942524,83.5877692 L230.646524,83.5877692 L230.646524,86.0837692 C230.646524,86.8757692 230.022524,87.4757692 229.230524,87.4757692 C228.438524,87.4757692 227.814524,86.8757692 227.814524,86.0837692 Z M222.294524,81.1637692 L227.814524,81.1637692 L227.814524,74.5157692 L222.294524,81.1637692 Z M241.470524,87.6437692 C239.574524,87.6437692 238.182524,87.0917692 236.934524,86.2517692 C236.526524,85.9877692 236.262524,85.5797692 236.262524,85.0277692 C236.262524,84.2597692 236.886524,83.6837692 237.654524,83.6837692 C237.966524,83.6837692 238.230524,83.7797692 238.470524,83.9237692 C239.454524,84.6197692 240.390524,84.9557692 241.542524,84.9557692 C244.014524,84.9557692 245.502524,82.7717692 245.598524,79.6757692 C244.758524,80.6837692 243.462524,81.4517692 241.662524,81.4517692 C238.086524,81.4517692 235.710524,79.3637692 235.710524,76.1237692 L235.710524,76.0757692 C235.710524,72.7877692 238.254524,70.2677692 241.974524,70.2677692 C244.086524,70.2677692 245.454524,70.8677692 246.654524,72.0437692 C247.878524,73.2917692 248.670524,75.1397692 248.670524,78.4517692 L248.670524,78.4997692 C248.670524,83.8997692 246.006524,87.6437692 241.470524,87.6437692 Z M242.094524,78.9797692 C244.230524,78.9797692 245.502524,77.5877692 245.502524,75.9557692 L245.502524,75.9077692 C245.502524,74.1557692 244.134524,72.8117692 241.998524,72.8117692 C239.910524,72.8117692 238.662524,74.2037692 238.662524,75.9317692 L238.662524,75.9797692 C238.662524,77.7317692 240.006524,78.9797692 242.094524,78.9797692 Z" id="768-2929-049" fill="#FFFFFF"></path>
                <path d="M94.0920418,120.288 C92.1960418,120.288 90.8040418,119.736 89.5560418,118.896 C89.1480418,118.632 88.8840418,118.224 88.8840418,117.672 C88.8840418,116.904 89.5080418,116.328 90.2760418,116.328 C90.5880418,116.328 90.8520418,116.424 91.0920418,116.568 C92.0760418,117.264 93.0120418,117.6 94.1640418,117.6 C96.6360418,117.6 98.1240418,115.416 98.2200418,112.32 C97.3800418,113.328 96.0840418,114.096 94.2840418,114.096 C90.7080418,114.096 88.3320418,112.008 88.3320418,108.768 L88.3320418,108.72 C88.3320418,105.432 90.8760418,102.912 94.5960418,102.912 C96.7080418,102.912 98.0760418,103.512 99.2760418,104.688 C100.500042,105.936 101.292042,107.784 101.292042,111.096 L101.292042,111.144 C101.292042,116.544 98.6280418,120.288 94.0920418,120.288 Z M94.7160418,111.624 C96.8520418,111.624 98.1240418,110.232 98.1240418,108.6 L98.1240418,108.552 C98.1240418,106.8 96.7560418,105.456 94.6200418,105.456 C92.5320418,105.456 91.2840418,106.848 91.2840418,108.576 L91.2840418,108.624 C91.2840418,110.376 92.6280418,111.624 94.7160418,111.624 Z M105.948042,118.8 C105.948042,119.64 106.668042,120.12 107.460042,120.12 C108.060042,120.12 108.516042,119.808 108.876042,119.136 L115.836042,105.936 C116.076042,105.48 116.244042,104.952 116.244042,104.52 C116.244042,103.68 115.716042,103.2 114.900042,103.2 L105.468042,103.2 C104.748042,103.2 104.172042,103.776 104.172042,104.496 C104.172042,105.216 104.748042,105.792 105.468042,105.792 L112.740042,105.792 L106.212042,117.888 C106.068042,118.152 105.948042,118.56 105.948042,118.8 Z M120.564042,118.8 C120.564042,119.64 121.284042,120.12 122.076042,120.12 C122.676042,120.12 123.132042,119.808 123.492042,119.136 L130.452042,105.936 C130.692042,105.48 130.860042,104.952 130.860042,104.52 C130.860042,103.68 130.332042,103.2 129.516042,103.2 L120.084042,103.2 C119.364042,103.2 118.788042,103.776 118.788042,104.496 C118.788042,105.216 119.364042,105.792 120.084042,105.792 L127.356042,105.792 L120.828042,117.888 C120.684042,118.152 120.564042,118.56 120.564042,118.8 Z M147.180042,120.288 C145.116042,120.288 143.628042,119.64 142.500042,118.512 C141.228042,117.24 140.460042,115.488 140.460042,112.104 L140.460042,112.056 C140.460042,106.92 142.908042,102.912 147.660042,102.912 C149.388042,102.912 150.756042,103.368 151.860042,104.112 C152.316042,104.4 152.604042,104.784 152.604042,105.384 C152.604042,106.152 151.956042,106.752 151.188042,106.752 C150.924042,106.752 150.660042,106.656 150.444042,106.536 C149.532042,105.936 148.692042,105.6 147.564042,105.6 C145.068042,105.6 143.676042,107.856 143.532042,110.928 C144.420042,110.064 145.572042,109.248 147.564042,109.248 C150.804042,109.248 153.420042,111.168 153.420042,114.528 L153.420042,114.576 C153.420042,117.912 150.708042,120.288 147.180042,120.288 Z M147.108042,117.72 C149.196042,117.72 150.468042,116.424 150.468042,114.696 L150.468042,114.648 C150.468042,112.968 149.124042,111.72 147.036042,111.72 C144.948042,111.72 143.628042,113.064 143.628042,114.672 L143.628042,114.72 C143.628042,116.424 145.020042,117.72 147.108042,117.72 Z M159.108042,118.656 C159.108042,119.472 159.780042,120.12 160.572042,120.12 C161.388042,120.12 162.036042,119.472 162.036042,118.656 L162.036042,104.448 C162.036042,103.632 161.412042,102.984 160.572042,102.984 L160.524042,102.984 C160.092042,102.984 159.660042,103.08 159.084042,103.248 L156.540042,104.064 C155.940042,104.232 155.556042,104.712 155.556042,105.336 C155.556042,106.008 156.156042,106.584 156.852042,106.584 C156.996042,106.584 157.212042,106.56 157.380042,106.512 L159.108042,105.984 L159.108042,118.656 Z M173.004042,120.288 C168.588042,120.288 165.708042,116.448 165.708042,111.648 L165.708042,111.6 C165.708042,106.8 168.636042,102.912 173.052042,102.912 C177.444042,102.912 180.348042,106.752 180.348042,111.552 L180.348042,111.6 C180.348042,116.4 177.420042,120.288 173.004042,120.288 Z M173.052042,117.624 C175.668042,117.624 177.300042,114.936 177.300042,111.648 L177.300042,111.6 C177.300042,108.288 175.596042,105.576 173.004042,105.576 C170.412042,105.576 168.756042,108.216 168.756042,111.552 L168.756042,111.6 C168.756042,114.912 170.436042,117.624 173.052042,117.624 Z M188.892042,120.288 C186.996042,120.288 185.604042,119.736 184.356042,118.896 C183.948042,118.632 183.684042,118.224 183.684042,117.672 C183.684042,116.904 184.308042,116.328 185.076042,116.328 C185.388042,116.328 185.652042,116.424 185.892042,116.568 C186.876042,117.264 187.812042,117.6 188.964042,117.6 C191.436042,117.6 192.924042,115.416 193.020042,112.32 C192.180042,113.328 190.884042,114.096 189.084042,114.096 C185.508042,114.096 183.132042,112.008 183.132042,108.768 L183.132042,108.72 C183.132042,105.432 185.676042,102.912 189.396042,102.912 C191.508042,102.912 192.876042,103.512 194.076042,104.688 C195.300042,105.936 196.092042,107.784 196.092042,111.096 L196.092042,111.144 C196.092042,116.544 193.428042,120.288 188.892042,120.288 Z M189.516042,111.624 C191.652042,111.624 192.924042,110.232 192.924042,108.6 L192.924042,108.552 C192.924042,106.8 191.556042,105.456 189.420042,105.456 C187.332042,105.456 186.084042,106.848 186.084042,108.576 L186.084042,108.624 C186.084042,110.376 187.428042,111.624 189.516042,111.624 Z M212.052042,120.288 C215.652042,120.288 218.196042,118.008 218.196042,114.6 L218.196042,114.552 C218.196042,111 215.628042,109.272 212.340042,109.272 C211.212042,109.272 210.468042,109.464 209.676042,109.752 L209.940042,105.816 L216.252042,105.816 C216.972042,105.816 217.572042,105.24 217.572042,104.52 C217.572042,103.8 216.972042,103.2 216.252042,103.2 L208.644042,103.2 C207.924042,103.2 207.348042,103.752 207.300042,104.52 L206.940042,110.568 C206.916042,111.12 207.084042,111.552 207.516042,111.864 C208.092042,112.272 208.452042,112.44 208.908042,112.44 C209.364042,112.44 210.156042,111.864 211.788042,111.864 C213.828042,111.864 215.268042,112.92 215.268042,114.648 L215.268042,114.696 C215.268042,116.472 213.900042,117.6 212.004042,117.6 C210.684042,117.6 209.508042,117.12 208.356042,116.184 C208.116042,115.992 207.852042,115.896 207.492042,115.896 C206.724042,115.896 206.076042,116.544 206.076042,117.312 C206.076042,117.792 206.316042,118.176 206.676042,118.464 C208.044042,119.52 209.772042,120.288 212.052042,120.288 Z M227.076042,120.288 C230.580042,120.288 232.956042,118.056 232.956042,114.96 L232.956042,114.912 C232.956042,111.816 230.556042,110.52 228.012042,110.208 L231.972042,106.104 C232.476042,105.6 232.812042,105.192 232.812042,104.496 C232.812042,103.704 232.188042,103.2 231.348042,103.2 L222.756042,103.2 C222.036042,103.2 221.460042,103.776 221.460042,104.496 C221.460042,105.192 222.036042,105.768 222.756042,105.768 L228.852042,105.768 L224.916042,109.968 C224.460042,110.424 224.292042,110.784 224.292042,111.168 C224.292042,111.864 224.868042,112.44 225.564042,112.44 L226.164042,112.44 C228.516042,112.44 230.028042,113.376 230.028042,115.032 L230.028042,115.08 C230.028042,116.616 228.780042,117.624 227.124042,117.624 C225.564042,117.624 224.364042,117.072 223.308042,116.016 C223.068042,115.8 222.756042,115.632 222.324042,115.632 C221.556042,115.632 220.908042,116.28 220.908042,117.048 C220.908042,117.48 221.124042,117.888 221.388042,118.104 C222.756042,119.424 224.604042,120.288 227.076042,120.288 Z M238.716042,118.656 C238.716042,119.472 239.388042,120.12 240.180042,120.12 C240.996042,120.12 241.644042,119.472 241.644042,118.656 L241.644042,104.448 C241.644042,103.632 241.020042,102.984 240.180042,102.984 L240.132042,102.984 C239.700042,102.984 239.268042,103.08 238.692042,103.248 L236.148042,104.064 C235.548042,104.232 235.164042,104.712 235.164042,105.336 C235.164042,106.008 235.764042,106.584 236.460042,106.584 C236.604042,106.584 236.820042,106.56 236.988042,106.512 L238.716042,105.984 L238.716042,118.656 Z" id="977-6109-531" fill="#FFFFFF"></path>
            </g>
        </g>
    </g>
</svg>