<?xml version="1.0" encoding="UTF-8"?>
<svg width="348px" height="361px" viewBox="0 0 348 361" version="1.1" xmlns="http://www.w3.org/2000/svg" xmlns:xlink="http://www.w3.org/1999/xlink">
    <!-- Generator: Sketch 42 (36781) - http://www.bohemiancoding.com/sketch -->
    <title>shutterstock_414568261</title>
    <desc>Created with Sketch.</desc>
    <defs></defs>
    <g id="Page-1" stroke="none" stroke-width="1" fill="none" fill-rule="evenodd">
        <g id="Artboard-2" transform="translate(-383.000000, -643.000000)">
            <g id="shutterstock_414568261" transform="translate(383.000000, 643.000000)">
                <path d="M189.183,206.649 L123.302,206.649 C121.717,206.649 120.433,205.364 120.433,203.78 L120.433,120.869 C120.433,119.285 121.717,118 123.302,118 L189.183,118 C190.768,118 192.053,119.285 192.053,120.869 L192.053,203.78 C192.053,205.364 190.768,206.649 189.183,206.649" id="Fill-3" fill="#B49B7C"></path>
                <path d="M134.464,206.649 L77.797,206.649 C76.213,206.649 74.928,205.364 74.928,203.78 L74.928,120.869 C74.928,119.285 76.213,118 77.797,118 L134.464,118 C136.049,118 137.333,119.285 137.333,120.869 L137.333,203.78 C137.333,205.364 136.049,206.649 134.464,206.649" id="Fill-4" fill="#D0BA99"></path>
                <path d="M131.011,209.604 L88.299,209.604 C87.483,209.604 86.821,208.942 86.821,208.126 C86.821,207.31 87.483,206.649 88.299,206.649 L131.011,206.649 C131.827,206.649 132.489,207.31 132.489,208.126 C132.489,208.942 131.827,209.604 131.011,209.604" id="Fill-5" fill="#525354"></path>
                <path d="M242.535,117.777 C232.309,113.358 215.251,93.349 210.497,86.283 C207.452,88.343 207.058,91.936 203.833,93.667 C204.024,93.95 206.794,97.547 207.008,97.86 C208.599,100.193 211.207,103.835 214.597,107.937 C223.051,118.168 231.026,124.894 238.299,127.929 C254.03,134.492 276.461,142.831 277.461,143 L291.017,135.987 C290.785,135.947 260.022,125.333 242.535,117.777" id="Fill-7" fill="#E7A387"></path>
                <path d="M238.551,360.976 L138.214,360.976 C133.559,360.976 129.408,357.607 128.891,352.981 C128.636,350.693 129.222,348.783 130.37,347.155 C132.213,344.542 135.308,343.1 138.506,343.1 L150.41,343.1 C155.169,343.1 159.063,339.615 159.1,334.868 C159.063,330.119 155.169,326.501 150.41,326.501 L84.838,326.501 C79.115,326.501 74.485,321.946 74.962,316.099 C75.371,311.084 79.811,307.348 84.842,307.348 L114.161,307.348 C120.189,312.391 127.583,315.35 135.401,315.35 C136.376,315.35 137.356,315.304 138.343,315.21 C145.166,314.562 151.296,311.721 156.261,307.348 L272.495,307.348 C279.69,314.927 289.274,319.521 299.518,319.522 C300.596,319.522 301.68,319.471 302.772,319.368 C311.927,318.498 319.957,314.055 325.921,307.348 L336.518,307.348 C342.424,307.348 347.211,312.136 347.211,318.042 C347.211,322.714 343.424,326.501 338.752,326.501 L223.124,326.501 C218.389,326.501 214.512,330.217 214.438,334.935 C214.512,339.649 218.389,343.1 223.124,343.1 L238.347,343.1 C241.522,343.1 244.544,344.597 246.373,347.192 C247.571,348.892 248.185,350.603 247.91,352.944 C247.365,357.589 243.228,360.976 238.551,360.976" id="Fill-8" fill="#39424B"></path>
                <path d="M113.56,360.923 C108.905,360.923 105.131,357.15 105.131,352.494 C105.131,347.839 108.905,344.065 113.56,344.065 C118.216,344.065 121.99,347.839 121.99,352.494 C121.99,357.15 118.216,360.923 113.56,360.923" id="Fill-9" fill="#39424B"></path>
                <path d="M284.547,360.798 L262.262,360.798 C257.527,360.798 253.654,356.924 253.654,352.19 C253.654,347.456 257.527,343.583 262.262,343.583 L284.547,343.583 C289.281,343.583 293.154,347.456 293.154,352.19 C293.154,356.924 289.281,360.798 284.547,360.798" id="Fill-10" fill="#39424B"></path>
                <path d="M59.109,326.967 L40.501,326.967 C35.159,326.967 30.789,322.596 30.789,317.255 C30.789,311.913 35.159,307.543 40.501,307.543 L59.109,307.543 C64.451,307.543 68.821,311.913 68.821,317.255 C68.821,322.596 64.451,326.967 59.109,326.967" id="Fill-11" fill="#39424B"></path>
                <polyline id="Fill-12" fill="#474950" points="235.692 244.534 234.333 257.397 223.852 258.234 225.051 243.41 235.692 244.534"></polyline>
                <path d="M224.303,252.66 C231.944,255.389 234.881,252.28 234.881,252.28 C237.345,254.407 250.258,265.799 255.686,263.847 C261.115,261.895 263.921,264.471 263.999,268.31 L264.078,272.149 C264.078,272.149 252.995,277.198 243.105,274.224 L233.216,271.249 L233.149,273.55 L220.689,273.186 C220.689,273.186 218,256.082 224.303,252.66" id="Fill-13" fill="#3B3534"></path>
                <path d="M224.481,250.462 L224.976,244.341 L224.481,250.462 M235.114,250.007 L235.175,249.423 L235.114,250.007" id="Fill-14" fill="#6EB9B9"></path>
                <path d="M224.481,250.462 L224.976,244.341 L235.175,249.423 L235.114,250.007 C232.911,250.039 230.724,250.16 228.627,250.242 C227.243,250.296 225.862,250.374 224.481,250.462" id="Fill-15" fill="#404248"></path>
                <path d="M241.835,257.929 C240.932,257.259 240.069,256.591 239.274,255.956 C240.07,256.591 240.932,257.259 241.835,257.929" id="Fill-16" fill="#81D0D0"></path>
                <path d="M239.312,263.986 C239.231,263.986 239.149,263.984 239.065,263.98 C239.066,263.979 239.066,263.977 239.066,263.976 C238.591,263.956 238.086,263.878 237.558,263.75 C236.258,262.912 234.906,261.935 233.625,260.857 C235.004,259.574 236.4,258.31 237.849,257.106 C238.319,256.716 238.796,256.336 239.274,255.956 C240.069,256.591 240.932,257.259 241.835,257.929 C241.235,260.127 240.657,262.137 240.126,263.918 C239.867,263.964 239.595,263.986 239.312,263.986" id="Fill-17" fill="#453F3E"></path>
                <path d="M293.671,142.833 C293.621,144.097 293.423,146.207 291.046,146.125 C290.21,146.096 287.886,146.784 285.383,147.471 C282.495,148.265 279.369,149.059 278.019,148.75 C273.644,147.75 277.294,142.257 278.463,142.405 C279.436,142.528 281.719,142.282 281.337,140.314 C280.88,137.958 277.213,138.708 277.213,138.708 L275.64,138.686 C278.531,134.936 285.372,134.458 291.017,135.987 C292.766,136.46 293.793,139.755 293.671,142.833" id="Fill-18" fill="#E7A387"></path>
                <path d="M291.18,146.127 C291.136,146.127 291.092,146.127 291.046,146.125 C291.091,146.127 291.136,146.127 291.18,146.127 C292.462,146.127 293.076,145.461 293.376,144.658 C293.077,145.461 292.464,146.127 291.18,146.127" id="Fill-19" fill="#74C3C3"></path>
                <path d="M285.876,147.335 C285.877,147.268 285.877,147.2 285.877,147.133 C285.877,147.007 285.876,146.881 285.873,146.754 C285.873,145.758 285.803,144.813 285.672,143.916 L293.661,143 C293.636,143.505 293.579,144.113 293.376,144.658 C293.076,145.461 292.462,146.127 291.18,146.127 C291.136,146.127 291.091,146.127 291.046,146.125 C291.029,146.124 291.012,146.124 290.993,146.124 C290.174,146.124 288.135,146.71 285.876,147.335" id="Fill-20" fill="#DB9B80"></path>
                <path d="M151.97,57.167 L150.606,59.548 C151.022,63.546 153.757,72.34 153.757,72.34 C153.757,72.34 160.019,77.375 186.584,75.25 C207.299,73.593 215.676,66.272 215.676,66.272 C215.676,66.272 213.837,58.36 214.106,56.149 L151.97,57.167" id="Fill-21" fill="#3D3D3D"></path>
                <path d="M183.282,63.811 L184.766,63.829 C187.97,63.868 190.56,66.522 190.521,69.727 L190.315,86.472 C190.276,89.677 187.622,92.267 184.418,92.227 L182.934,92.209 C179.729,92.17 177.14,89.516 177.179,86.311 L177.384,69.566 C177.424,66.361 180.078,63.772 183.282,63.811" id="Fill-22" fill="#D7937F"></path>
                <polyline id="Fill-23" fill="#6EB9B9" points="177.253 80.263 177.253 80.263 177.281 77.963 177.253 80.263"></polyline>
                <path d="M182.321,80.87 C180.602,80.87 178.911,80.65 177.253,80.263 L177.281,77.963 C177.784,78 178.292,78.019 178.802,78.019 C179.394,78.019 179.992,77.994 180.592,77.942 L189.269,77.196 C189.66,77.162 190.047,77.118 190.431,77.063 L190.408,78.912 C190.182,79.078 189.953,79.233 189.714,79.355 C187.867,80.3 185.554,80.713 183.501,80.835 C183.106,80.859 182.713,80.87 182.321,80.87" id="Fill-24" fill="#C18472"></path>
                <path d="M209.425,188.314 C187.845,189.313 187.176,189.039 168.171,188.552 C166.016,188.497 164.235,186.845 164.023,184.699 L163.416,178.539 L209.584,175.412 L209.425,188.314" id="Fill-25" fill="#2D2B2A"></path>
                <path d="M175.669,20.715 L184.346,19.968 C195.774,18.985 205.929,27.531 206.912,38.959 L208.26,54.631 C209.243,66.058 200.697,76.213 189.269,77.196 L180.592,77.942 C169.164,78.925 159.01,70.379 158.027,58.951 L156.678,43.28 C155.696,31.852 164.241,21.698 175.669,20.715" id="Fill-26" fill="#E7A387"></path>
                <path d="M163.191,70.92 C162.148,69.741 161.232,68.445 160.47,67.05 C160.828,66.152 161.046,65.118 161.034,63.937 C161.021,62.566 160.337,50.522 159.221,40.638 C158.943,38.179 159.949,35.871 161.707,34.384 C163.286,33.532 165.061,32.979 166.962,32.808 L196.901,30.113 C197.283,30.078 197.662,30.062 198.039,30.062 C198.726,30.062 199.402,30.118 200.063,30.226 C200.06,30.231 200.057,30.236 200.054,30.24 C200.107,30.249 200.16,30.258 200.213,30.268 C202.798,31.617 204.799,34.186 205.027,37.06 L207.596,59.925 C207.64,60.308 207.709,60.686 207.804,61.056 C207.332,63.089 206.559,65.02 205.533,66.795 C205.836,60.543 205.373,53.416 204.164,47.269 C203.229,42.512 200.675,38.571 195.963,36.882 C193.44,35.978 190.558,35.678 187.668,35.678 C185.096,35.678 182.519,35.915 180.183,36.175 C175.156,36.735 169.472,38.088 166.569,42.664 C163.133,48.081 165.245,54.469 165.529,60.345 C165.626,62.368 165.859,70.093 163.191,70.92" id="Fill-27" fill="#CF9279"></path>
                <path d="M173.745,60.062 L195.285,58.248 C196.557,58.141 197.521,59.544 197.105,60.907 C195.176,67.239 190.761,71.851 185.381,72.304 C180.001,72.757 175.031,68.936 172.294,62.996 C171.704,61.717 172.474,60.169 173.745,60.062" id="Fill-28" fill="#FFFFFF"></path>
                <path d="M173.745,60.062 L195.285,58.248 C196.54,58.143 197.489,59.507 197.115,60.853 C192.741,60.161 187.854,60.546 183.754,60.544 C180.005,60.543 176.259,60.656 172.512,60.793 C172.806,60.391 173.231,60.105 173.745,60.062" id="Fill-29" fill="#F3F3E9"></path>
                <path d="M197.027,45.582 C198.696,45.477 200.158,47.14 200.294,49.297 C200.43,51.454 199.187,53.288 197.519,53.393 C195.85,53.498 194.388,51.834 194.252,49.677 C194.117,47.52 195.359,45.687 197.027,45.582" id="Fill-30" fill="#6D4D4B"></path>
                <path d="M197.016,45.582 L197.017,45.582 C197.017,45.582 197.017,45.582 197.016,45.582" id="Fill-31" fill="#E9A98F"></path>
                <path d="M200.287,49.745 C198.47,48.862 196.663,47.96 194.875,47.02 C195.374,46.2 196.126,45.646 197.007,45.583 C197.01,45.583 197.013,45.583 197.016,45.582 L197.017,45.582 L197.027,45.582 C197.077,45.578 197.127,45.577 197.177,45.577 C198.782,45.577 200.162,47.205 200.294,49.297 C200.304,49.45 200.291,49.596 200.287,49.745" id="Fill-32" fill="#775A58"></path>
                <path d="M171.027,46.582 C172.696,46.477 174.158,48.14 174.294,50.297 C174.43,52.454 173.187,54.288 171.519,54.393 C169.85,54.498 168.388,52.834 168.252,50.677 C168.117,48.52 169.359,46.687 171.027,46.582" id="Fill-33" fill="#6D4D4B"></path>
                <path d="M171.006,46.583 L171.007,46.583 L171.006,46.583 M171.016,46.582 L171.017,46.582 L171.016,46.582" id="Fill-34" fill="#E9A98F"></path>
                <path d="M174.287,50.745 C172.47,49.862 170.663,48.96 168.875,48.02 C169.374,47.2 170.126,46.646 171.006,46.583 L171.007,46.583 C171.01,46.583 171.013,46.583 171.016,46.582 L171.017,46.582 L171.027,46.582 C171.077,46.578 171.127,46.577 171.177,46.577 C172.782,46.577 174.162,48.205 174.294,50.297 C174.304,50.45 174.291,50.596 174.287,50.745" id="Fill-35" fill="#775A58"></path>
                <path d="M188.408,86.035 C209.98,83.867 209.986,86.663 209.986,86.663 C209.986,86.663 209.566,100.769 209.207,138.259 C209.075,151.987 211.9,161.613 211.812,168.667 C208.726,168.434 205.648,168.33 202.577,168.316 C202.051,168.003 201.415,167.812 200.65,167.836 C194.487,168.029 189.976,167.595 185.805,167.16 C179.568,166.51 174.094,165.86 165,167.311 C164.629,123.619 156.243,96 156.243,96 C154.096,89.508 182.904,86.588 188.408,86.035" id="Fill-36" fill="#D7937F"></path>
                <path d="M210.4,107.468 C210.181,102.384 210.344,88.491 210.497,86.283 C208.513,85.309 202.496,85.07 196.333,85.211 C195.558,91 194.863,96.258 189.557,99.175 C181.141,103.801 173.809,88.812 173.768,87.967 C166.308,88.92 155.622,90.228 156.917,93.583 C158.096,96.642 152.793,103.425 153.205,106.792 C153.785,111.522 154.361,116.252 154.945,120.981 C156.113,130.439 157.313,139.894 158.633,149.332 C160.004,159.131 160.353,169.682 162.75,179.293 C168.66,178.565 178.06,177.885 183.985,177.286 C190.051,176.673 196.124,176.154 202.197,175.615 C203.878,175.466 215.818,171.029 217.494,170.798 C217.77,167.081 210.796,116.634 210.4,107.468" id="Fill-37" fill="#FBB823"></path>
                <path d="M191.341,139.975 C191.239,140.187 191.288,140.078 191.338,139.971 L191.341,139.975" id="Fill-38" fill="#555050"></path>
                <path d="M191.341,139.975 L191.34,139.967 C191.388,139.863 191.435,139.767 191.341,139.975" id="Fill-39" fill="#555050"></path>
                <polyline id="Fill-40" fill="#555050" points="191.341 139.975 191.338 139.971 191.34 139.967 191.341 139.975"></polyline>
                <path d="M157.257,19.974 L157.279,20.069 C157.074,20.192 157.082,20.145 157.257,19.974" id="Fill-41" fill="#6D4D4B"></path>
                <path d="M210.413,107.738 L210.413,107.734 L210.413,107.738 M210.412,107.723 L210.412,107.719 L210.412,107.723 M210.412,107.707 C210.412,107.705 210.412,107.705 210.411,107.704 C210.412,107.705 210.412,107.706 210.412,107.707 M210.41,107.676 C210.41,107.676 210.41,107.676 210.41,107.675 L210.41,107.676 M210.409,107.653 L210.409,107.646 L210.409,107.653 M210.408,107.637 L210.408,107.63 L210.408,107.637 M210.407,107.622 C210.407,107.611 210.406,107.601 210.406,107.591 C210.406,107.601 210.407,107.611 210.407,107.622 M210.406,107.584 C210.405,107.581 210.405,107.577 210.405,107.574 C210.405,107.578 210.405,107.58 210.406,107.584 M210.405,107.569 C210.405,107.565 210.405,107.561 210.404,107.557 C210.405,107.561 210.405,107.565 210.405,107.569 M210.404,107.553 C210.404,107.542 210.403,107.532 210.403,107.521 C210.403,107.531 210.404,107.542 210.404,107.553 M210.402,107.516 L210.402,107.505 L210.402,107.516 M210.402,107.499 C210.402,107.496 210.401,107.493 210.401,107.491 C210.401,107.493 210.402,107.496 210.402,107.499 M210.401,107.483 C210.401,107.478 210.401,107.473 210.4,107.468 C210.401,107.473 210.401,107.478 210.401,107.483" id="Fill-42" fill="#6EB9B9"></path>
                <path d="M210.497,86.283 C210.494,86.282 210.491,86.281 210.488,86.279 C210.491,86.281 210.494,86.282 210.497,86.283 M210.485,86.278 C210.483,86.277 210.482,86.276 210.48,86.275 C210.482,86.276 210.483,86.277 210.485,86.278 M210.476,86.273 C210.474,86.273 210.473,86.272 210.471,86.271 C210.473,86.272 210.474,86.273 210.476,86.273 M210.463,86.267 C210.462,86.267 210.461,86.266 210.46,86.266 C210.461,86.266 210.462,86.267 210.463,86.267" id="Fill-43" fill="#6EB9B9"></path>
                <path d="M162.75,179.293 L162.75,179.293 C162.406,177.912 162.112,176.508 161.846,175.093 C172.588,171.769 182.318,166.016 189.653,156.68 C180.449,155.296 171.505,153.716 166.64,152.235 C162.653,151.021 159.824,147.602 157.798,143.109 C156.945,136.771 156.123,130.428 155.33,124.082 C157.07,132.635 160.303,140.126 166.64,142.056 C176.466,145.047 198.026,147.892 207.548,149.01 C208.042,149.593 208.722,150.014 209.494,150.178 C208.737,150.545 208.233,151.233 208.234,151.931 C208.235,152.632 208.745,153.344 210.019,153.75 C210.025,153.752 210.032,153.754 210.038,153.756 C210.643,153.945 211.524,154.022 212.556,154.022 L212.558,154.022 L212.577,154.022 C213.54,154.021 214.634,153.954 215.755,153.849 C216.029,156.115 216.283,158.251 216.508,160.197 L216.509,160.203 C216.839,163.054 217.106,165.496 217.279,167.334 C205.114,168.608 194.582,170.7 194.093,170.798 L195.181,176.235 C193.018,176.428 190.855,176.623 188.692,176.827 C187.123,176.975 185.554,177.127 183.985,177.286 C178.299,177.861 169.413,178.511 163.481,179.206 C163.232,179.235 162.988,179.264 162.75,179.293 M213.875,138.557 C209.861,137.812 204.963,137.085 199.873,136.372 C204.638,120.096 203.673,102.085 203.284,85.247 C206.552,85.374 209.229,85.684 210.454,86.263 C210.456,86.264 210.458,86.265 210.46,86.266 C210.461,86.266 210.462,86.267 210.463,86.267 C210.466,86.268 210.469,86.27 210.471,86.271 C210.473,86.272 210.474,86.273 210.476,86.273 C210.477,86.274 210.479,86.275 210.48,86.275 C210.482,86.276 210.483,86.277 210.485,86.278 C210.486,86.278 210.487,86.279 210.488,86.279 C210.491,86.281 210.494,86.282 210.497,86.283 C210.396,86.352 210.297,86.422 210.202,86.494 C207.422,88.579 206.951,91.993 203.833,93.667 C204.024,93.95 206.794,97.547 207.008,97.86 C207.839,99.079 208.949,100.657 210.302,102.47 C210.316,104.462 210.347,106.228 210.4,107.468 C210.401,107.473 210.401,107.478 210.401,107.483 L210.401,107.491 C210.401,107.493 210.402,107.496 210.402,107.499 L210.402,107.505 L210.402,107.516 C210.403,107.518 210.403,107.519 210.403,107.521 C210.403,107.532 210.404,107.542 210.404,107.553 L210.404,107.557 C210.405,107.561 210.405,107.565 210.405,107.569 L210.405,107.574 C210.405,107.577 210.405,107.581 210.406,107.584 L210.406,107.591 C210.406,107.601 210.407,107.611 210.407,107.622 C210.408,107.625 210.408,107.627 210.408,107.63 L210.408,107.637 C210.408,107.64 210.408,107.643 210.409,107.646 L210.409,107.653 C210.409,107.66 210.41,107.668 210.41,107.675 L210.41,107.676 C210.411,107.686 210.411,107.695 210.411,107.704 C210.412,107.705 210.412,107.705 210.412,107.707 L210.412,107.719 L210.412,107.723 C210.413,107.727 210.413,107.73 210.413,107.734 L210.413,107.738 C210.651,112.307 212.254,125.434 213.875,138.557 M153.516,109.325 C153.438,108.687 153.359,108.049 153.281,107.411 C153.311,107.307 153.342,107.204 153.375,107.101 C153.418,107.828 153.464,108.571 153.516,109.325" id="Fill-44" fill="#E1A51F"></path>
                <path d="M235.322,249.496 L224.614,244.16 C222.994,243.353 222.338,241.39 223.132,239.763 C234.194,217.101 242.797,194.2 243.337,186.174 C236.661,184.35 216.37,188.059 197.821,189.429 L194.093,170.798 C194.635,170.689 207.528,168.128 221.303,166.951 C244.747,164.947 256.556,168.007 260.789,177.178 C263.373,182.779 264.088,192.068 251.917,221.86 C247.483,232.714 242.777,242.733 240.348,247.776 C239.445,249.651 237.185,250.424 235.322,249.496" id="Fill-45" fill="#2D2B2A"></path>
                <path d="M212.173,149.507 C210.697,149.438 179.154,145.866 166.64,142.056 C155.692,138.721 154.009,118.786 153.281,105.457 C152.945,99.286 153.033,94.13 159.875,91.406 C159.875,91.406 161.097,98.12 161.488,102.098 C163.167,119.199 166.222,130.43 169.844,131.533 C179.149,134.366 213.193,137.219 221.719,140.481 L212.173,149.507" id="Fill-46" fill="#E7A387"></path>
                <path d="M242.535,117.777 C232.309,113.358 215.251,93.349 210.497,86.283 C207.452,88.343 207.058,91.936 203.833,93.667 C204.024,93.95 206.794,97.547 207.008,97.86 C208.599,100.193 211.207,103.835 214.597,107.937 C223.051,118.168 231.026,124.894 238.299,127.929 C254.03,134.492 276.461,142.831 277.461,143 L291.017,135.987 C290.785,135.947 260.022,125.333 242.535,117.777" id="Fill-47" fill="#E7A387"></path>
                <path d="M212.173,149.507 C210.697,149.438 179.154,145.866 166.64,142.056 C155.692,138.721 154.009,118.786 153.281,105.457 C152.945,99.286 153.033,94.13 159.875,91.406 C159.875,91.406 161.097,98.12 161.488,102.098 C163.167,119.199 166.222,130.43 169.844,131.533 C179.149,134.366 213.193,137.219 221.719,140.481 L212.173,149.507" id="Fill-48" fill="#E7A387"></path>
                <path d="M218.746,112.712 C221.341,110.171 223.857,107.555 226.175,104.786 C219.358,97.856 213.093,90.141 210.497,86.283 C207.452,88.343 207.058,91.935 203.833,93.667 C204.024,93.95 206.794,97.547 207.008,97.86 C208.599,100.193 211.207,103.835 214.597,107.937 C215.994,109.628 217.376,111.214 218.746,112.712" id="Fill-49" fill="#FBB823"></path>
                <path d="M218.746,112.712 C217.376,111.214 215.994,109.628 214.597,107.937 C212.979,105.979 211.539,104.126 210.302,102.47 C208.949,100.657 207.839,99.079 207.008,97.86 C206.794,97.547 204.024,93.95 203.833,93.667 C207.058,91.935 207.452,88.343 210.497,86.283 C213.093,90.141 219.358,97.856 226.175,104.786 C223.857,107.555 221.341,110.171 218.746,112.712" id="Fill-50" fill="#E1A51F"></path>
                <path d="M154.458,121.494 C157.651,120.711 160.835,119.899 163.995,118.999 C162.986,114.397 162.99,107.712 162.344,101.125 C161.953,97.148 160.108,90.443 160.108,90.443 C153.265,93.167 152.381,99.307 152.718,105.478 C152.982,110.319 153.449,116.026 154.458,121.494" id="Fill-51" fill="#FBB823"></path>
                <polygon id="Fill-52" fill="#AFAFAF" points="286.418 130.006 288.063 130.006 288.063 115.258 286.418 115.258"></polygon>
                <path d="M291.007,122.632 C291.007,126.705 288.952,130.006 286.418,130.006 C283.884,130.006 281.829,126.705 281.829,122.632 C281.829,118.559 283.884,115.258 286.418,115.258 C288.952,115.258 291.007,118.559 291.007,122.632" id="Fill-53" fill="#AFAFAF"></path>
                <path d="M281.83,122.813 L281.83,122.812 L281.83,122.813 M281.83,122.743 L281.83,122.737 L281.83,122.743 M281.829,122.672 L281.829,122.664 L281.829,122.672 M281.829,122.605 L281.829,122.597 L281.829,122.605 M281.829,122.578 L281.829,122.569 L281.829,122.578 M281.829,122.549 L281.829,122.541 L281.829,122.549 M281.83,122.486 L281.83,122.484 L281.83,122.486 M281.83,122.458 L281.83,122.455 L281.83,122.458 M281.831,122.429 L281.831,122.426 L281.831,122.429" id="Fill-54" fill="#C3E9E9"></path>
                <path d="M284.337,126.937 C283.769,126.88 283.2,126.832 282.631,126.794 C282.145,125.655 281.853,124.288 281.83,122.813 L281.83,122.812 L281.83,122.743 L281.83,122.737 C281.829,122.716 281.829,122.694 281.829,122.672 L281.829,122.664 L281.829,122.632 L281.829,122.605 L281.829,122.597 L281.829,122.578 L281.829,122.569 L281.829,122.549 L281.829,122.541 C281.83,122.523 281.83,122.505 281.83,122.486 L281.83,122.484 L281.83,122.458 L281.83,122.455 C281.831,122.446 281.831,122.438 281.831,122.429 L281.831,122.426 C281.872,120.009 282.639,117.885 283.793,116.589 C284.365,116.567 284.936,116.54 285.507,116.507 C284.281,117.83 283.474,120.08 283.474,122.632 L283.474,122.666 L283.474,122.672 L283.474,122.707 C283.484,124.285 283.802,125.744 284.337,126.937" id="Fill-55" fill="#DBDBDB"></path>
                <path d="M292.652,122.632 C292.652,126.705 290.597,130.006 288.063,130.006 C285.528,130.006 283.474,126.705 283.474,122.632 C283.474,118.559 285.528,115.258 288.063,115.258 C290.597,115.258 292.652,118.559 292.652,122.632" id="Fill-56" fill="#9B9B9B"></path>
                <path d="M183.012,177.153 L161.488,175.083 L163.144,184.75 C163.613,187.344 166.016,188.497 168.171,188.552 C180.584,188.87 185.189,189.096 192.893,188.937 C191.343,187.144 187.456,181.813 183.012,177.153" id="Fill-57" fill="#3C3938"></path>
                <path d="M283.474,122.672 L283.474,122.666 L283.474,122.672" id="Fill-58" fill="#EFEFEF"></path>
                <path d="M288.098,115.258 L288.095,115.258 L288.098,115.258 M288.083,115.258 L288.079,115.258 L288.083,115.258" id="Fill-59" fill="#C3E9E9"></path>
                <path d="M284.327,126.904 C283.8,125.717 283.484,124.272 283.474,122.707 L283.474,122.672 L283.474,122.666 L283.474,122.632 C283.474,118.559 285.528,115.258 288.063,115.258 L288.079,115.258 L288.083,115.258 L288.095,115.258 L288.098,115.258 C288.806,115.267 289.474,115.541 290.071,116.009 C290.113,116.264 290.182,116.527 290.286,116.801 C290.817,118.205 289.832,120.453 288.89,122.113 C288.723,122.034 288.546,121.996 288.372,121.996 C287.882,121.996 287.415,122.294 287.242,122.797 C287.125,123.138 287.263,123.528 287.588,123.684 C287.668,123.723 287.748,123.763 287.825,123.806 C286.946,125.057 285.77,126.336 284.327,126.904" id="Fill-60" fill="#D2D2D2"></path>
                <polygon id="Fill-61" fill="#AFAFAF" points="193.62 122.853 195.558 122.853 195.558 105.478 193.62 105.478"></polygon>
                <path d="M199.026,114.166 C199.026,118.964 196.606,122.853 193.62,122.853 C190.634,122.853 188.214,118.964 188.214,114.166 C188.214,109.368 190.634,105.478 193.62,105.478 C196.606,105.478 199.026,109.368 199.026,114.166" id="Fill-62" fill="#AFAFAF"></path>
                <path d="M188.216,114.401 L188.216,114.399 L188.216,114.401 M188.216,114.381 C188.215,114.378 188.215,114.376 188.215,114.374 C188.215,114.376 188.215,114.379 188.216,114.381 M188.215,114.357 L188.215,114.35 L188.215,114.357 M188.215,114.324 L188.215,114.311 L188.215,114.324 M188.215,114.3 C188.214,114.294 188.214,114.289 188.214,114.283 C188.214,114.289 188.214,114.294 188.215,114.3 M188.214,114.276 L188.214,114.251 L188.214,114.276 M188.214,114.247 L188.214,114.224 L188.214,114.247 M188.214,114.218 L188.214,114.198 L188.214,114.218 M188.214,114.191 L188.214,114.166 L188.214,114.191 M188.214,114.133 L188.214,114.125 L188.214,114.133 M188.214,114.101 L188.214,114.092 L188.214,114.101 M188.214,114.068 L188.214,114.059 L188.214,114.068 M188.215,113.993 L188.215,113.993 C188.215,113.994 188.215,113.993 188.215,113.993 M188.215,113.96 L188.215,113.958 L188.215,113.96" id="Fill-63" fill="#FDDF9C"></path>
                <path d="M191.168,119.237 C190.499,119.17 189.829,119.113 189.158,119.068 C188.589,117.733 188.245,116.131 188.216,114.401 L188.216,114.399 L188.216,114.381 C188.215,114.379 188.215,114.376 188.215,114.374 L188.215,114.357 L188.215,114.35 L188.215,114.324 L188.215,114.311 L188.215,114.3 C188.214,114.294 188.214,114.289 188.214,114.283 L188.214,114.276 L188.214,114.251 L188.214,114.247 L188.214,114.224 L188.214,114.218 L188.214,114.198 L188.214,114.191 L188.214,114.166 L188.214,114.133 L188.214,114.125 L188.214,114.101 L188.214,114.092 L188.214,114.068 L188.214,114.059 C188.214,114.037 188.215,114.015 188.215,113.993 C188.215,113.993 188.215,113.994 188.215,113.993 L188.215,113.96 L188.215,113.958 C188.257,111.095 189.163,108.579 190.528,107.046 C191.201,107.021 191.874,106.988 192.547,106.949 C191.102,108.509 190.151,111.159 190.151,114.166 L190.151,114.191 L190.151,114.199 L190.151,114.217 C190.151,114.22 190.152,114.223 190.152,114.226 L190.152,114.242 L190.152,114.253 L190.152,114.266 L190.152,114.295 L190.152,114.298 C190.169,116.14 190.543,117.844 191.168,119.237" id="Fill-64" fill="#DBDBDB"></path>
                <path d="M200.964,114.166 C200.964,118.964 198.543,122.853 195.558,122.853 C192.572,122.853 190.151,118.964 190.151,114.166 C190.151,109.368 192.572,105.478 195.558,105.478 C198.543,105.478 200.964,109.368 200.964,114.166" id="Fill-65" fill="#9B9B9B"></path>
                <path d="M190.152,114.298 L190.152,114.295 L190.152,114.298 M190.152,114.266 L190.152,114.253 L190.152,114.266 M190.152,114.242 L190.152,114.226 L190.152,114.242 M190.151,114.217 L190.151,114.199 L190.151,114.217 M190.151,114.191 L190.151,114.166 L190.151,114.191" id="Fill-66" fill="#EFEFEF"></path>
                <path d="M195.599,105.478 L195.597,105.478 L195.599,105.478 M195.58,105.478 L195.577,105.478 L195.58,105.478" id="Fill-67" fill="#FDDF9C"></path>
                <path d="M191.157,119.199 C190.541,117.811 190.169,116.125 190.152,114.298 L190.152,114.295 L190.152,114.266 L190.152,114.253 L190.152,114.242 L190.152,114.226 C190.152,114.223 190.151,114.22 190.151,114.217 L190.151,114.199 L190.151,114.191 L190.151,114.166 C190.151,109.368 192.572,105.478 195.558,105.478 L195.577,105.478 L195.58,105.478 L195.597,105.478 L195.599,105.478 C196.433,105.489 197.219,105.811 197.923,106.363 C197.973,106.663 198.055,106.974 198.177,107.296 C198.985,109.434 196.81,113.236 195.616,115.052 C194.552,116.671 193.049,118.454 191.157,119.199" id="Fill-68" fill="#D2D2D2"></path>
                <path d="M228.558,145.978 L228.558,145.978 C228.005,145.978 227.558,145.53 227.558,144.978 L227.558,142.837 C227.558,138.385 225.436,134.125 221.881,131.443 L202.081,116.503 C201.205,115.842 200.119,115.478 199.022,115.478 L196.558,115.478 C196.005,115.478 195.558,115.03 195.558,114.478 C195.558,113.926 196.005,113.478 196.558,113.478 L198.687,113.478 C200.443,113.478 202.151,114.05 203.553,115.108 L222.688,129.547 C227.014,132.811 229.558,137.916 229.558,143.336 L229.558,144.978 C229.558,145.53 229.11,145.978 228.558,145.978" id="Fill-69" fill="#666666"></path>
                <path d="M283.636,142.114 L282.05,140.894 L289.227,131.563 C290.266,130.212 290.721,128.439 290.235,126.805 C289.82,125.412 288.871,124.302 287.588,123.684 C287.263,123.528 287.125,123.138 287.242,122.797 C287.489,122.079 288.334,121.78 288.988,122.165 C290.558,123.09 291.704,124.581 292.2,126.404 C292.802,128.618 292.193,130.988 290.794,132.807 L283.636,142.114" id="Fill-70" fill="#666666"></path>
                <path d="M282.373,150.254 L210.218,150.254 C208.293,150.254 206.718,148.679 206.718,146.754 C206.718,144.829 208.293,143.254 210.218,143.254 L282.373,143.254 C284.298,143.254 285.873,144.829 285.873,146.754 C285.873,148.679 284.298,150.254 282.373,150.254" id="Fill-71" fill="#1E2225"></path>
                <path d="M97.307,271.202 L95.88,271.202 C93.041,271.202 90.719,268.879 90.719,266.041 C90.719,263.202 93.041,260.879 95.88,260.879 L97.307,260.879 C100.146,260.879 102.469,263.202 102.469,266.041 C102.469,268.879 100.146,271.202 97.307,271.202" id="Fill-72" fill="#464747"></path>
                <path d="M252.219,153.421 L232.885,153.421 C230.685,153.421 228.885,151.621 228.885,149.421 L228.885,143.754 C228.885,141.554 230.685,139.754 232.885,139.754 L252.219,139.754 C254.419,139.754 256.219,141.554 256.219,143.754 L256.219,149.421 C256.219,151.621 254.419,153.421 252.219,153.421" id="Fill-73" fill="#C11F1F"></path>
                <path d="M240.469,166.562 C240.469,166.562 230.968,146.004 251.885,134.087 C268.712,124.5 285.528,130.504 285.873,146.754 C286.219,163.004 264.218,168.004 264.218,168.004 L240.469,166.562" id="Fill-74" fill="#DD2424"></path>
                <path d="M264.992,129.657 C254.019,136.518 247.431,150.86 255.954,162.679 C257.618,164.987 259.942,166.663 262.602,167.906 L264.218,168.004 C264.218,168.004 286.219,163.004 285.873,146.754 C285.62,134.824 276.486,128.427 264.992,129.657" id="Fill-75" fill="#C11F1F"></path>
                <path d="M149.801,207.096 C149.801,207.096 125.863,211.243 117.466,248.727 L164.547,248.727 C164.547,248.727 168.745,282.014 220.923,281.714 L273.101,281.414 C273.101,281.414 273.718,255.034 291.394,234.633 C294.771,230.735 297.283,228.272 299.076,226.722 C301.206,224.881 301.953,221.912 300.93,219.288 C296.94,209.057 287.273,185.232 279.342,173.359 C276.496,169.097 271.695,166.562 266.57,166.562 L245.385,166.562 C245.385,166.562 261.317,214.696 257.719,235.087 C254.12,255.479 246.052,272.717 246.052,272.717 L224.489,272.717 C219.07,272.717 214.926,267.879 215.776,262.527 C218.078,248.029 221.383,222.459 217.325,215.741 C213.819,209.939 211.327,208.844 211.327,208.844 L149.801,207.096" id="Fill-76" fill="#C11F1F"></path>
                <path d="M310.561,276.568 L298.22,241.32 C295.845,241.69 293.462,241.984 291.052,241.921 C290.293,241.901 289.64,241.722 289.08,241.439 L302.382,279.432 C303.169,281.681 305.654,282.877 307.903,282.09 C310.153,281.302 311.349,278.817 310.561,276.568" id="Fill-77" fill="#A5ADAE"></path>
                <path d="M294.123,300.577 C282.294,297.889 275.438,284.648 275.527,273.75 C275.626,261.411 282.929,251.857 295.405,250.168 C296.044,249.822 296.831,249.634 297.793,249.717 C307.951,250.592 315.085,257.199 318.133,266.334 C318.544,267.566 318.388,268.632 317.892,269.48 C318.902,272.268 319.511,275.143 319.629,277.927 C320.165,290.549 307.977,303.726 294.123,300.577 M336.606,272.247 C334.133,248.232 314.975,230.393 293.815,232.403 C272.656,234.413 257.507,255.51 259.98,279.524 C262.454,303.539 281.612,321.377 302.772,319.368 C323.931,317.358 339.08,296.261 336.606,272.247" id="Fill-78" fill="#2B3033"></path>
                <path d="M298.448,296.851 C288.291,297.816 279.095,289.254 277.908,277.727 C276.721,266.199 283.992,256.073 294.149,255.108 C304.305,254.144 313.501,262.706 314.689,274.233 C315.876,285.76 308.604,295.887 298.448,296.851 M326.949,273.069 C324.97,253.857 309.643,239.586 292.716,241.194 C275.788,242.802 263.669,259.679 265.648,278.891 C267.626,298.103 282.953,312.373 299.881,310.766 C316.809,309.158 328.927,292.28 326.949,273.069" id="Fill-79" fill="#1E2225"></path>
                <path d="M284.158,277.727 C283.031,266.788 289.527,257.126 298.873,255.342 C297.341,255.043 295.757,254.956 294.149,255.108 C283.992,256.073 276.721,266.199 277.908,277.727 C279.095,289.254 288.291,297.816 298.448,296.851 C298.966,296.802 299.471,296.713 299.974,296.617 C291.83,295.029 285.157,287.428 284.158,277.727" id="Fill-80" fill="#767777"></path>
                <path d="M309.39,276.52 C309.39,279.73 307.282,282.332 304.682,282.332 C302.082,282.332 299.974,279.73 299.974,276.52 C299.974,273.309 302.082,270.707 304.682,270.707 C307.282,270.707 309.39,273.309 309.39,276.52" id="Fill-81" fill="#7F8282"></path>
                <polygon id="Fill-82" fill="#7F8282" points="289.585 282.332 304.974 282.332 304.974 270.707 289.585 270.707"></polygon>
                <path d="M130.521,298.216 C119.824,295.785 113.623,283.81 113.703,273.954 C113.793,262.795 120.398,254.154 131.681,252.627 C132.259,252.314 132.97,252.144 133.841,252.219 C143.028,253.01 149.479,258.985 152.236,267.247 C152.608,268.362 152.467,269.325 152.018,270.092 C152.932,272.614 153.482,275.214 153.589,277.732 C154.074,289.147 143.051,301.064 130.521,298.216 M168.943,272.594 C166.707,250.876 149.38,234.743 130.243,236.56 C111.107,238.378 97.406,257.458 99.643,279.176 C101.88,300.895 119.207,317.028 138.343,315.21 C157.48,313.393 171.18,294.313 168.943,272.594" id="Fill-83" fill="#2B3033"></path>
                <path d="M134.433,294.847 C125.247,295.719 116.931,287.975 115.857,277.551 C114.783,267.125 121.359,257.967 130.545,257.095 C139.731,256.222 148.047,263.966 149.121,274.391 C150.195,284.816 143.619,293.974 134.433,294.847 M160.209,273.338 C158.42,255.963 144.558,243.057 129.249,244.511 C113.94,245.965 102.979,261.229 104.769,278.604 C106.558,295.979 120.42,308.885 135.729,307.431 C151.038,305.977 161.999,290.713 160.209,273.338" id="Fill-84" fill="#1E2225"></path>
                <path d="M121.509,277.551 C120.491,267.657 126.365,258.919 134.817,257.306 C133.432,257.036 131.999,256.957 130.545,257.095 C121.359,257.967 114.783,267.125 115.857,277.551 C116.931,287.975 125.247,295.719 134.433,294.847 C134.902,294.802 135.359,294.722 135.813,294.635 C128.448,293.198 122.413,286.325 121.509,277.551" id="Fill-85" fill="#767777"></path>
                <path d="M144.329,276.459 C144.329,279.362 142.423,281.716 140.071,281.716 C137.72,281.716 135.813,279.362 135.813,276.459 C135.813,273.556 137.72,271.202 140.071,271.202 C142.423,271.202 144.329,273.556 144.329,276.459" id="Fill-86" fill="#7F8282"></path>
                <polygon id="Fill-87" fill="#7F8282" points="126.418 281.716 140.335 281.716 140.335 271.202 126.418 271.202"></polygon>
                <path d="M292.912,276.568 L279.116,237.164 C277.3,239.93 275.291,242.541 272.384,244.163 L284.732,279.432 C285.52,281.681 288.004,282.877 290.254,282.09 C292.503,281.302 293.699,278.817 292.912,276.568" id="Fill-88" fill="#A5ADAE"></path>
                <path d="M212.378,258.234 L200.103,258.234 C198.53,258.234 197.242,256.946 197.242,255.373 L199.242,235.11 C199.242,233.536 200.53,232.249 202.103,232.249 L215.378,232.249 C216.952,232.249 217.239,233.536 217.239,235.11 L215.239,255.373 C215.239,256.946 213.952,258.234 212.378,258.234" id="Fill-89" fill="#E23C34"></path>
                <polyline id="Fill-90" fill="#181B1E" points="279.495 264.475 277.923 259.984 279.495 264.475"></polyline>
                <path d="M279.495,264.475 L277.923,259.984 C278.015,259.858 278.106,259.73 278.195,259.602 C280.204,256.719 282.275,254.273 284.38,252.199 L287.927,262.329 C285.107,263.006 282.295,263.711 279.495,264.475" id="Fill-91" fill="#848A8B"></path>
                <path d="M291.555,276.52 C291.555,278.51 290.248,280.124 288.636,280.124 C287.024,280.124 285.717,278.51 285.717,276.52 C285.717,274.529 287.024,272.915 288.636,272.915 C290.248,272.915 291.555,274.529 291.555,276.52" id="Fill-92" fill="#444444"></path>
                <polygon id="Fill-93" fill="#444444" points="284.674 280.124 288.636 280.124 288.636 272.915 284.674 272.915"></polygon>
                <path d="M287.594,276.52 C287.594,278.51 286.287,280.124 284.674,280.124 C283.062,280.124 281.755,278.51 281.755,276.52 C281.755,274.529 283.062,272.915 284.674,272.915 C286.287,272.915 287.594,274.529 287.594,276.52" id="Fill-94" fill="#686868"></path>
                <path d="M195.168,279.545 C190.622,279.307 185.883,279.72 181.986,276.91 C179.065,274.804 177.774,271.635 177.352,268.27 L131.706,268.27 C126.715,268.27 122.631,272.354 122.631,277.345 C122.631,282.337 126.715,286.421 131.706,286.421 L214.31,286.421 C218.329,286.421 221.756,283.771 222.94,280.133 C213.688,280.324 204.468,280.032 195.168,279.545" id="Fill-95" fill="#1E2225"></path>
                <path d="M166.038,272.915 L99.799,272.915 C96.088,272.915 93.052,269.879 93.052,266.168 C93.052,262.457 96.088,259.421 99.799,259.421 L166.038,259.421 C169.749,259.421 172.785,262.457 172.785,266.168 C172.785,269.879 169.749,272.915 166.038,272.915" id="Fill-96" fill="#525354"></path>
                <path d="M151.404,265.587 L101.404,265.587 C100.304,265.587 99.404,264.687 99.404,263.587 C99.404,262.487 100.304,261.587 101.404,261.587 L148.153,261.587 C149.08,262.901 150.155,264.245 151.404,265.587" id="Fill-97" fill="#646565"></path>
                <polyline id="Fill-98" fill="#474950" points="220.722 244.449 219.364 257.313 208.883 258.149 210.082 243.325 220.722 244.449"></polyline>
                <polyline id="Fill-99" fill="#CB362F" points="209.421 251.491 210.082 243.325 209.421 251.491"></polyline>
                <path d="M209.421,251.491 L210.082,243.325 L220.722,244.449 L220.032,250.988 C219.569,250.977 219.105,250.972 218.642,250.972 C215.569,250.972 212.494,251.199 209.421,251.491" id="Fill-100" fill="#404248"></path>
                <path d="M209.334,252.576 C216.975,255.304 219.912,252.195 219.912,252.195 C222.376,254.322 235.288,265.714 240.717,263.762 C246.146,261.81 248.952,264.386 249.03,268.225 L249.108,272.064 C249.108,272.064 238.026,277.113 228.136,274.139 L218.246,271.165 L218.18,273.465 L205.72,273.102 C205.72,273.102 203.031,255.998 209.334,252.576" id="Fill-101" fill="#3B3534"></path>
                <path d="M237.567,263.757 C232.877,262.628 226.338,257.59 222.55,254.443 C226.336,257.588 232.868,262.619 237.558,263.75 C237.561,263.752 237.564,263.754 237.567,263.757" id="Fill-102" fill="#453F3E"></path>
                <path d="M239.065,263.98 C238.594,263.96 238.092,263.883 237.567,263.757 C237.564,263.754 237.561,263.752 237.558,263.75 C238.086,263.878 238.591,263.956 239.066,263.976 C239.066,263.977 239.066,263.979 239.065,263.98" id="Fill-103" fill="#4E4948"></path>
                <path d="M238.462,269.219 C237.534,269.042 236.609,268.849 235.69,268.628 C231.05,267.514 224.917,265.646 219.746,262.73 C218.761,261.779 217.806,260.788 216.89,259.733 C218.416,257.68 220.407,255.959 222.55,254.443 C226.338,257.59 232.877,262.628 237.567,263.757 C238.092,263.883 238.594,263.96 239.065,263.98 C238.936,265.742 238.733,267.488 238.462,269.219" id="Fill-104" fill="#453F3E"></path>
                <path d="M127.801,207.096 C127.801,207.096 109.148,210.327 98.998,236.868 C96.811,242.586 101.049,248.727 107.171,248.727 L142.547,248.727 C142.547,248.727 146.745,282.014 198.923,281.714 L251.101,281.414 C251.101,281.414 251.719,255.034 269.394,234.633 C272.667,230.856 275.471,228.427 277.671,226.869 C280.622,224.78 281.656,220.872 280.213,217.555 C275.033,205.648 263.76,180.833 255.604,170.762 C253.428,168.075 250.122,166.562 246.664,166.562 L240.819,166.562 C235.465,166.562 231.767,171.927 233.687,176.925 C239.608,192.342 249.459,221.048 246.903,235.533 C243.305,255.924 237.307,272.717 237.307,272.717 L201.545,272.717 C196.563,272.717 192.731,268.32 193.419,263.386 C195.398,249.202 198.455,223.086 195.325,215.741 C192.385,208.844 189.327,208.844 189.327,208.844 L127.801,207.096" id="Fill-105" fill="#DD2424"></path>
                <path d="M195.351,215.805 C195.351,215.804 195.351,215.804 195.35,215.803 C195.351,215.804 195.351,215.804 195.351,215.805 M195.343,215.784 C195.341,215.781 195.34,215.779 195.339,215.775 C195.34,215.778 195.341,215.781 195.343,215.784 M195.334,215.763 C195.331,215.755 195.328,215.748 195.325,215.741 C195.328,215.748 195.331,215.755 195.334,215.763" id="Fill-106" fill="#C73636"></path>
                <path d="M196.617,224.087 L105.552,224.087 C108.748,219.356 112.163,215.912 115.336,213.421 L194.197,213.421 C194.57,214.092 194.948,214.858 195.325,215.741 C195.328,215.748 195.331,215.755 195.334,215.763 C195.335,215.767 195.337,215.771 195.339,215.775 C195.34,215.779 195.341,215.781 195.343,215.784 C195.345,215.79 195.348,215.796 195.35,215.803 C195.351,215.804 195.351,215.804 195.351,215.805 C195.354,215.812 195.357,215.819 195.36,215.826 C196.105,217.635 196.488,220.535 196.617,224.087" id="Fill-107" fill="#E03A3A"></path>
                <path d="M248.842,275.754 L165.924,275.754 C163.849,274.822 161.945,273.817 160.219,272.754 L243.552,272.915 C243.552,272.915 256.552,232.249 250.088,202.636 C247.57,191.097 241.803,180.549 235.249,170.771 C235.053,170.411 234.865,170.047 234.665,169.689 C235.514,168.53 236.685,167.605 238.071,167.07 C256.358,182.715 265.436,216.754 248.842,275.754" id="Fill-108" fill="#E03A3A"></path>
                <path d="M207.808,188.059 L165.682,188.059 C165.268,188.961 164.553,189.784 163.461,190.416 C157.83,193.675 151.778,195.443 145.547,196.408 C145.376,197.165 145.278,197.948 145.278,198.754 C145.278,204.636 150.09,209.448 155.971,209.449 C166.112,209.451 176.252,209.449 186.392,209.449 C191.565,209.449 196.738,209.448 201.911,209.449 C206.414,209.45 214.208,210.285 216.297,205.328 C216.514,204.812 216.669,204.234 216.753,203.585 C217.378,198.732 213.957,188.059 207.808,188.059" id="Fill-109" fill="#BAAB90"></path>
                <path d="M182.999,188.059 C182.999,188.059 150.109,188.318 131.349,188.738 C125.873,188.86 121.216,192.908 120.504,198.338 C120.481,198.516 120.469,198.657 120.469,198.754 C120.469,204.636 125.281,209.448 131.162,209.449 C141.302,209.451 151.443,209.449 161.583,209.449 C166.756,209.449 171.929,209.448 177.102,209.449 C181.605,209.45 189.399,210.285 191.487,205.328 C191.705,204.812 191.86,204.234 191.944,203.585 C192.569,198.732 189.148,188.059 182.999,188.059" id="Fill-110" fill="#F9EDD7"></path>
                <path d="M282.842,146.754 C282.842,154.394 278.198,160.587 272.47,160.587 C266.741,160.587 262.097,154.394 262.097,146.754 C262.097,139.114 266.741,132.921 272.47,132.921 C278.198,132.921 282.842,139.114 282.842,146.754" id="Fill-111" fill="#99988C"></path>
                <path d="M279.246,160.556 C280.095,159.826 280.903,159.033 281.645,158.174 C280.901,159.068 280.092,159.868 279.246,160.556" id="Fill-112" fill="#88D3D3"></path>
                <path d="M285.634,143.921 C285.455,142.74 285.179,141.625 284.816,140.579 L284.835,140.554 C285.208,141.589 285.495,142.708 285.672,143.916 L285.634,143.921" id="Fill-113" fill="#E9AC93"></path>
                <path d="M285.873,146.754 C285.873,146.695 285.872,146.636 285.869,146.578 C285.843,145.659 285.763,144.773 285.634,143.921 L285.672,143.916 C285.803,144.813 285.873,145.758 285.873,146.754" id="Fill-114" fill="#DFA58D"></path>
                <path d="M277.219,131.692 C276.202,131.154 275.116,130.712 273.971,130.369 C274.915,130.605 276.041,131.04 277.219,131.692" id="Fill-115" fill="#E9AC93"></path>
                <path d="M284.816,140.579 C284.61,139.985 284.377,139.414 284.116,138.865 C284.38,139.4 284.622,139.964 284.835,140.554 L284.816,140.579" id="Fill-116" fill="#767676"></path>
                <path d="M285.873,146.754 C285.872,146.695 285.871,146.637 285.869,146.578 C285.872,146.636 285.873,146.695 285.873,146.754" id="Fill-117" fill="#35393B"></path>
                <path d="M285.873,146.754 C285.809,143.729 285.173,141.06 284.074,138.78 C284.088,138.809 284.102,138.836 284.116,138.865 C284.377,139.414 284.61,139.985 284.816,140.579 C285.179,141.625 285.455,142.74 285.634,143.921 C285.763,144.773 285.843,145.659 285.869,146.578 C285.871,146.637 285.872,146.695 285.873,146.754 M277.54,131.874 C276.382,131.229 275.128,130.712 273.797,130.327 C273.854,130.34 273.912,130.354 273.971,130.369 C275.116,130.712 276.202,131.154 277.219,131.692 C277.326,131.751 277.433,131.812 277.54,131.874" id="Fill-118" fill="#E03A3A"></path>
                <path d="M272.47,163.354 C265.595,163.354 260.022,155.922 260.022,146.754 C260.022,137.586 265.595,130.154 272.47,130.154 C272.839,130.154 273.289,130.211 273.797,130.327 C275.128,130.712 276.382,131.229 277.54,131.874 C279.907,133.254 282.432,135.505 284.074,138.78 C285.173,141.06 285.809,143.729 285.873,146.754 C285.873,151.178 284.12,155.198 281.645,158.174 C280.903,159.033 280.095,159.826 279.246,160.556 C277.074,162.323 274.657,163.354 272.47,163.354 M272.47,160.587 L272.47,160.587 C278.198,160.587 282.842,154.394 282.842,146.754 C282.842,139.114 278.198,132.921 272.47,132.921 C266.741,132.921 262.097,139.114 262.097,146.754 C262.097,154.394 266.741,160.587 272.47,160.587" id="Fill-119" fill="#C73636"></path>
                <path d="M272.47,160.587 C266.741,160.587 262.097,154.394 262.097,146.754 C262.097,139.114 266.741,132.921 272.47,132.921 C271.901,132.921 271.347,132.998 270.803,133.115 C273.057,133.602 275.069,135.055 276.59,137.145 C275.376,136.218 273.969,135.687 272.47,135.687 C267.887,135.687 264.171,140.642 264.171,146.754 C264.171,152.866 267.887,157.82 272.47,157.82 C273.969,157.82 275.376,157.29 276.59,156.362 C275.069,158.453 273.057,159.905 270.803,160.392 C271.347,160.51 271.901,160.587 272.47,160.587" id="Fill-120" fill="#A3A398"></path>
                <path d="M272.47,132.921 C271.901,132.921 271.347,132.998 270.803,133.115 C275.737,134.181 279.509,139.872 279.509,146.754 C279.509,153.635 275.737,159.327 270.803,160.392 C271.347,160.51 271.901,160.587 272.47,160.587 C278.198,160.587 282.842,154.394 282.842,146.754 C282.842,139.114 278.198,132.921 272.47,132.921" id="Fill-121" fill="#7F7F79"></path>
                <path d="M280.768,146.754 C280.768,152.866 277.053,157.82 272.47,157.82 C267.887,157.82 264.171,152.866 264.171,146.754 C264.171,140.642 267.887,135.687 272.47,135.687 C277.053,135.687 280.768,140.642 280.768,146.754" id="Fill-122" fill="#D8D8D8"></path>
                <path d="M279.938,146.754 C279.938,152.255 276.594,156.714 272.47,156.714 C268.345,156.714 265.001,152.255 265.001,146.754 C265.001,141.253 268.345,136.794 272.47,136.794 C276.594,136.794 279.938,141.253 279.938,146.754" id="Fill-123" fill="#FFFFFF"></path>
                <path d="M279.938,146.793 L279.938,146.787 L279.938,146.793 M279.938,146.754 L279.938,146.73 L279.938,146.754" id="Fill-124" fill="#CBCBCB"></path>
                <path d="M267.357,154.006 C266.256,152.625 265.466,150.808 265.152,148.758 C269.993,147.251 274.834,145.747 279.689,144.29 C279.84,145.073 279.936,145.885 279.938,146.73 L279.938,146.754 L279.938,146.787 L279.938,146.793 C279.934,148.202 279.707,149.539 279.307,150.753 C275.287,151.719 271.292,152.746 267.357,154.006" id="Fill-125" fill="#F0F0F0"></path>
                <path d="M325.337,240.028 C328.711,238.919 334.602,236.169 329.888,232.525 C320.068,224.934 309.23,219.59 297.155,220.826 C280.504,222.531 266.929,234.762 260.291,251.72 C257.764,258.178 262.436,265.168 269.371,265.168 C273.139,265.168 276.041,262.694 278.195,259.602 C291.438,240.592 307.423,240.604 317.645,240.616 C320.873,240.62 323.527,240.624 325.337,240.028" id="Fill-126" fill="#DD2424"></path>
                <path d="M271.844,254.675 C267.683,254.675 264.879,250.481 266.396,246.607 C270.378,236.432 278.523,229.093 288.514,228.07 C289.217,227.998 289.913,227.964 290.602,227.964 C297.015,227.964 302.834,230.977 308.154,235.09 C310.982,237.276 287.594,236.327 277.138,251.336 C275.846,253.191 274.105,254.675 271.844,254.675" id="Fill-127" fill="#E03A3A"></path>
                <path d="M298.341,224.41 C308.557,226.229 318.51,231.977 326.601,239.573 C329.942,238.264 334.052,235.744 329.888,232.525 C320.068,224.934 309.23,219.59 297.155,220.826 C291.462,221.409 286.129,223.224 281.31,226.036 C286.635,224.049 292.425,223.357 298.341,224.41" id="Fill-128" fill="#C11F1F"></path>
                <path d="M225.969,146.754 C225.969,149.515 224.513,151.754 222.719,151.754 C220.924,151.754 219.469,149.515 219.469,146.754 C219.469,143.992 220.924,141.754 222.719,141.754 C224.513,141.754 225.969,143.992 225.969,146.754" id="Fill-129" fill="#1E2225"></path>
                <path d="M228.219,146.754 C228.219,149.515 226.763,151.754 224.968,151.754 C223.174,151.754 221.719,149.515 221.719,146.754 C221.719,143.992 223.174,141.754 224.968,141.754 C226.763,141.754 228.219,143.992 228.219,146.754" id="Fill-130" fill="#1E2225"></path>
                <polygon id="Fill-131" fill="#1E2225" points="222.719 151.754 224.968 151.754 224.968 141.754 222.719 141.754"></polygon>
                <path d="M98.805,237.427 L98.805,237.426 C98.805,237.426 98.805,237.426 98.805,237.427 M98.812,237.403 C98.813,237.402 98.813,237.401 98.813,237.4 C98.813,237.401 98.813,237.402 98.812,237.403 M98.819,237.38 C98.82,237.379 98.82,237.377 98.821,237.376 C98.82,237.377 98.82,237.379 98.819,237.38 M98.835,237.332 C98.835,237.33 98.836,237.328 98.837,237.326 C98.836,237.328 98.835,237.33 98.835,237.332 M98.843,237.306 C98.843,237.306 98.843,237.305 98.844,237.304 C98.843,237.305 98.843,237.305 98.843,237.306 M98.851,237.283 C98.851,237.281 98.852,237.279 98.853,237.277 C98.852,237.279 98.851,237.281 98.851,237.283 M98.858,237.259 C98.859,237.258 98.859,237.256 98.86,237.255 C98.859,237.257 98.859,237.258 98.858,237.259 M98.867,237.234 C98.868,237.232 98.868,237.23 98.869,237.227 C98.868,237.23 98.868,237.232 98.867,237.234 M98.874,237.212 C98.875,237.21 98.876,237.207 98.877,237.205 C98.876,237.207 98.875,237.21 98.874,237.212 M98.883,237.185 C98.884,237.183 98.885,237.181 98.886,237.178 C98.885,237.181 98.884,237.183 98.883,237.185 M98.891,237.164 C98.892,237.161 98.893,237.158 98.893,237.156 C98.893,237.158 98.891,237.161 98.891,237.164 M98.899,237.139 C98.9,237.136 98.902,237.132 98.903,237.128 C98.902,237.132 98.9,237.136 98.899,237.139 M98.907,237.115 C98.909,237.112 98.91,237.109 98.911,237.106 C98.91,237.109 98.909,237.112 98.907,237.115 M98.916,237.091 C98.917,237.088 98.918,237.085 98.919,237.083 C98.918,237.085 98.917,237.088 98.916,237.091 M98.925,237.066 C98.926,237.063 98.927,237.06 98.928,237.058 C98.927,237.06 98.926,237.063 98.925,237.066 M98.933,237.043 C98.934,237.04 98.935,237.038 98.936,237.036 C98.935,237.038 98.934,237.04 98.933,237.043 M98.943,237.016 C98.944,237.013 98.945,237.011 98.946,237.008 C98.945,237.011 98.944,237.013 98.943,237.016 M98.951,236.995 C98.951,236.992 98.953,236.989 98.953,236.987 C98.952,236.99 98.952,236.992 98.951,236.995 M98.961,236.967 C98.962,236.965 98.962,236.962 98.963,236.961 C98.962,236.962 98.961,236.965 98.961,236.967 M98.969,236.945 C98.97,236.942 98.971,236.94 98.972,236.938 C98.971,236.94 98.97,236.943 98.969,236.945 M98.979,236.917 C98.98,236.916 98.98,236.915 98.981,236.914 C98.98,236.915 98.98,236.916 98.979,236.917 M98.988,236.895 C98.988,236.893 98.989,236.891 98.99,236.89 C98.989,236.891 98.988,236.893 98.988,236.895" id="Fill-132" fill="#6EB9B9"></path>
                <path d="M189.637,248.727 L107.171,248.727 C106.115,248.727 103.527,247.993 102.625,247.443 C99.355,245.445 97.58,241.39 98.805,237.427 L98.805,237.426 C98.808,237.418 98.81,237.41 98.812,237.403 C98.813,237.402 98.813,237.401 98.813,237.4 C98.815,237.394 98.817,237.387 98.819,237.38 C98.82,237.379 98.82,237.377 98.821,237.376 C98.825,237.361 98.83,237.347 98.835,237.332 C98.835,237.33 98.836,237.328 98.837,237.326 C98.839,237.319 98.841,237.313 98.843,237.306 C98.843,237.305 98.843,237.305 98.844,237.304 C98.846,237.297 98.848,237.29 98.851,237.283 C98.851,237.281 98.852,237.279 98.853,237.277 C98.855,237.271 98.857,237.265 98.858,237.259 C98.859,237.258 98.859,237.257 98.86,237.255 C98.862,237.248 98.864,237.241 98.867,237.234 C98.868,237.232 98.868,237.23 98.869,237.227 C98.871,237.222 98.872,237.217 98.874,237.212 C98.875,237.21 98.876,237.207 98.877,237.205 C98.879,237.199 98.881,237.192 98.883,237.185 C98.884,237.183 98.885,237.181 98.886,237.178 C98.887,237.173 98.889,237.169 98.891,237.164 C98.891,237.161 98.893,237.158 98.893,237.156 C98.895,237.15 98.897,237.145 98.899,237.139 C98.9,237.136 98.902,237.132 98.903,237.128 C98.905,237.124 98.906,237.119 98.907,237.115 C98.909,237.112 98.91,237.109 98.911,237.106 C98.912,237.101 98.914,237.096 98.916,237.091 C98.917,237.088 98.918,237.085 98.919,237.083 C98.921,237.077 98.923,237.071 98.925,237.066 C98.926,237.063 98.927,237.06 98.928,237.058 C98.93,237.053 98.931,237.048 98.933,237.043 C98.934,237.04 98.935,237.038 98.936,237.036 C98.938,237.029 98.94,237.023 98.943,237.016 C98.944,237.013 98.945,237.011 98.946,237.008 C98.947,237.004 98.949,236.999 98.951,236.995 C98.952,236.992 98.952,236.99 98.953,236.987 C98.956,236.98 98.958,236.974 98.961,236.967 C98.961,236.965 98.962,236.962 98.963,236.961 C98.965,236.955 98.967,236.95 98.969,236.945 C98.97,236.943 98.971,236.94 98.972,236.938 C98.974,236.931 98.977,236.924 98.979,236.917 C98.98,236.916 98.98,236.915 98.981,236.914 C98.983,236.907 98.985,236.901 98.988,236.895 C98.988,236.893 98.989,236.891 98.99,236.89 C98.992,236.882 98.995,236.875 98.998,236.868 C99.078,236.657 99.164,236.461 99.245,236.254 L189.916,236.254 C193.413,236.254 196.144,239.26 195.832,242.743 L195.821,242.864 C195.546,245.919 192.704,248.727 189.637,248.727 M160.127,243.157 C159.444,243.157 158.885,243.716 158.885,244.399 C158.885,245.082 159.444,245.641 160.127,245.641 L179.81,245.641 C180.493,245.641 181.052,245.082 181.052,244.399 C181.052,243.716 180.493,243.157 179.81,243.157 L160.127,243.157 M160.127,238.587 C159.444,238.587 158.885,239.146 158.885,239.829 C158.885,240.512 159.444,241.071 160.127,241.071 L179.81,241.071 C180.493,241.071 181.052,240.512 181.052,239.829 C181.052,239.146 180.493,238.587 179.81,238.587 L160.127,238.587" id="Fill-133" fill="#C61F1F"></path>
                <path d="M289.295,215.368 C287.822,215.368 285.764,214.137 284.333,211.53 L265.296,174.005 C264.507,172.451 265.283,170.009 267.249,169.971 L267.3,169.971 C269.494,169.971 271.33,172.674 272.217,174.422 L290.992,211.429 C291.839,213.1 292.135,215.004 289.623,215.347 C289.517,215.361 289.408,215.368 289.295,215.368" id="Fill-134" fill="#C73636"></path>
                <path d="M155.199,72.14 C155.199,72.14 161.092,69.956 161.034,63.937 C161.021,62.566 160.337,50.522 159.221,40.638 C158.779,36.731 161.58,33.206 165.485,32.749 C173.595,31.801 186.905,30.287 195.478,29.315 C199.964,28.806 204.67,32.559 205.027,37.06 L207.596,59.925 C207.939,62.972 209.957,65.662 212.884,66.577 C213.374,66.73 213.863,66.82 214.333,66.817 C217.155,66.799 208.469,24.11 207.979,23.918 C207.489,23.726 162.192,29.693 162.192,29.693 C162.192,29.693 150.794,43.477 150.611,45.384 C150.428,47.29 155.199,72.14 155.199,72.14" id="Fill-135" fill="#77726A"></path>
                <path d="M166.962,32.808 L196.901,30.113 C203.793,29.492 209.883,34.577 210.504,41.469 L212.642,65.226 C212.807,67.056 215.361,67.439 216.004,65.718 C218.506,59.022 217.232,51.287 216.633,44.334 C215.774,34.355 215.725,22.72 210.062,14.043 C199.599,-1.989 175.757,-2.015 160.652,7.11 C156.267,9.759 152.579,13.558 150.087,18.036 C147.153,23.31 146.753,29.204 146.583,35.142 C146.38,42.273 147.075,49.41 148.305,56.428 C148.863,59.611 149.601,62.757 150.192,65.93 C150.591,68.074 151.031,71.017 153.224,72.102 C154.838,72.901 156.75,71.596 156.589,69.808 L154.593,47.624 C153.917,40.117 159.455,33.483 166.962,32.808" id="Fill-136" fill="#FBB823"></path>
                <path d="M200.213,30.268 C200.16,30.258 200.107,30.249 200.054,30.24 C200.057,30.236 200.06,30.231 200.063,30.226 C200.098,30.232 200.132,30.238 200.167,30.244 C200.182,30.252 200.198,30.26 200.213,30.268" id="Fill-137" fill="#C48B73"></path>
                <path d="M214.258,66.817 L214.258,66.817 C213.476,66.75 212.729,66.188 212.642,65.226 L210.504,41.469 C209.985,35.711 205.645,31.229 200.213,30.268 C200.198,30.26 200.182,30.252 200.167,30.244 C205.622,31.187 209.984,35.693 210.504,41.469 L212.642,65.226 C212.729,66.188 213.476,66.75 214.258,66.817" id="Fill-138" fill="#716C65"></path>
                <path d="M210.062,14.043 C210.053,14.029 210.045,14.016 210.036,14.003 C210.045,14.016 210.053,14.029 210.062,14.043" id="Fill-139" fill="#74C3C3"></path>
                <path d="M214.416,66.823 C214.363,66.823 214.311,66.821 214.258,66.817 C213.476,66.75 212.729,66.188 212.642,65.226 L210.504,41.469 C209.984,35.693 205.622,31.187 200.167,30.244 C200.132,30.238 200.098,30.232 200.063,30.226 C202.749,25.968 204.924,21.395 206.809,16.616 C207.446,15 207.968,13.394 208.398,11.795 C208.973,12.494 209.525,13.223 210.036,14.003 C210.045,14.016 210.053,14.029 210.062,14.043 C215.725,22.72 215.774,34.355 216.633,44.334 C217.161,50.459 218.212,57.19 216.745,63.283 C216.547,64.108 216.302,64.92 216.004,65.718 C215.722,66.474 215.071,66.823 214.416,66.823" id="Fill-140" fill="#EEAF21"></path>
                <path d="M146.587,35.003 C146.759,29.129 147.174,23.303 150.062,18.081 C147.173,23.303 146.759,29.129 146.587,35.003 M150.066,18.075 C150.073,18.062 150.08,18.049 150.087,18.036 C150.08,18.049 150.073,18.062 150.066,18.075 M160.652,7.11 C160.69,7.087 160.728,7.064 160.766,7.041 C160.74,7.057 160.714,7.073 160.688,7.088 C160.676,7.095 160.664,7.103 160.652,7.11" id="Fill-141" fill="#88D3D3"></path>
                <path d="M146.557,37.185 C146.56,36.504 146.564,35.823 146.583,35.142 C146.585,35.096 146.586,35.05 146.587,35.003 C146.759,29.129 147.173,23.303 150.062,18.081 C149.574,18.965 149.158,19.866 148.802,20.781 C148.959,20.785 149.117,20.788 149.275,20.788 C153.239,20.788 157.359,19.5 161.448,16.8 C166.774,13.284 169.561,8.34 170.712,2.78 C167.139,3.809 163.734,5.253 160.688,7.088 C160.714,7.073 160.74,7.057 160.766,7.041 C167.231,3.167 175.275,0.968 183.182,0.968 C185.301,0.968 187.41,1.126 189.476,1.452 C186.339,16.038 170.033,28.834 157.843,34.082 C153.998,35.737 150.239,36.733 146.557,37.185 M150.066,18.075 C150.073,18.062 150.08,18.049 150.087,18.036 C150.08,18.049 150.073,18.062 150.066,18.075" id="Fill-142" fill="#FBBF39"></path>
                <path d="M150.062,18.081 C150.063,18.079 150.064,18.077 150.066,18.075 C150.064,18.077 150.063,18.079 150.062,18.081" id="Fill-143" fill="#88D3D3"></path>
                <path d="M150.062,18.081 L150.062,18.081 C150.063,18.079 150.064,18.077 150.066,18.075 C150.065,18.077 150.063,18.079 150.062,18.081 M150.087,18.036 C152.481,13.732 155.981,10.056 160.141,7.426 C155.981,10.056 152.481,13.732 150.087,18.036 M160.652,7.11 C160.664,7.103 160.676,7.095 160.688,7.088 C160.676,7.096 160.664,7.103 160.652,7.11" id="Fill-144" fill="#94D7D7"></path>
                <path d="M149.275,20.788 C149.117,20.788 148.959,20.785 148.802,20.781 C149.158,19.866 149.574,18.965 150.062,18.081 C150.063,18.079 150.065,18.077 150.066,18.075 C150.073,18.062 150.08,18.049 150.087,18.036 C152.481,13.732 155.981,10.056 160.141,7.426 C160.31,7.319 160.481,7.213 160.652,7.11 C160.664,7.103 160.676,7.096 160.688,7.088 C163.734,5.253 167.139,3.809 170.712,2.78 C169.561,8.34 166.774,13.284 161.448,16.8 C157.359,19.5 153.239,20.788 149.275,20.788" id="Fill-145" fill="#FBC64D"></path>
                <path d="M156.297,71.811 C155.873,72.644 154.868,72.989 154.025,72.585 L153.519,72.342 C153.126,72.098 152.912,71.836 153.134,71.43 C153.927,69.976 154.881,67.71 154.741,66.696 C154.497,64.926 154.244,62.029 153.95,58.674 C153.619,54.897 153.244,50.615 152.782,46.755 C152.456,44.031 153.372,41.305 155.433,38.872 C160.138,33.317 170.328,29.785 183.39,29.183 C203.128,28.271 210.09,31.408 212.059,42.086 C212.736,45.758 213.066,49.594 213.386,53.304 C213.754,57.573 214.427,62.213 215.269,64.938 C215.595,65.993 215.81,66.583 213.977,67.375 C213.525,67.624 212.804,67.152 212.599,66.679 C211.261,63.584 210.857,58.905 210.397,53.562 C210.083,49.923 209.759,46.16 209.108,42.63 C207.639,34.655 203.595,31.249 183.529,32.18 C171.297,32.744 161.89,35.89 157.722,40.811 C156.215,42.591 155.536,44.523 155.76,46.398 C156.229,50.306 156.606,54.613 156.939,58.413 C157.229,61.728 157.479,64.59 157.713,66.287 C157.963,68.096 157.04,70.351 156.297,71.811" id="Fill-146" fill="#66625C"></path>
                <path d="M157.242,69.595 C157.242,69.595 177.545,76.953 188.074,75.773 C198.603,74.593 212.17,65.537 212.17,65.537 L214.333,67.21 C214.333,67.21 202.269,76.167 185.999,78.833 C171.591,81.195 154.44,72.754 154.44,72.754 L157.242,69.595" id="Fill-147" fill="#66625C"></path>
                <path d="M188.074,75.773 C188.074,75.773 196.444,75.583 197.273,81.417 L192.325,82.013 C192.325,82.013 192.307,78.588 185.573,78.899 L188.074,75.773" id="Fill-148" fill="#4F4C48"></path>
                <path d="M247.766,186.239 L247.546,186.239 C246.858,186.239 246.296,185.676 246.296,184.989 L246.296,173.011 C246.296,172.324 246.858,171.761 247.546,171.761 L247.766,171.761 C248.453,171.761 249.016,172.324 249.016,173.011 L249.016,184.989 C249.016,185.676 248.453,186.239 247.766,186.239" id="Fill-149" fill="#FFFFFF"></path>
                <path d="M240.417,179.11 L240.417,178.89 C240.417,178.203 240.979,177.64 241.667,177.64 L253.645,177.64 C254.332,177.64 254.895,178.203 254.895,178.89 L254.895,179.11 C254.895,179.797 254.332,180.36 253.645,180.36 L241.667,180.36 C240.979,180.36 240.417,179.797 240.417,179.11" id="Fill-150" fill="#FFFFFF"></path>
                <path d="M257.749,192.924 C257.749,194.527 256.45,195.826 254.848,195.826 C253.245,195.826 251.946,194.527 251.946,192.924 C251.946,191.322 253.245,190.023 254.848,190.023 C256.45,190.023 257.749,191.322 257.749,192.924" id="Fill-151" fill="#FFFFFF"></path>
                <path d="M221.992,247.354 L210.124,243.844 C208.711,243.426 207.908,241.945 208.315,240.528 C214.671,218.433 218.764,196.388 217.926,189.108 C211.67,187.474 189.637,188.167 168.019,187.333 L161.488,175.083 C169.68,174.38 184.941,170.306 196.377,169.998 C218.897,169.388 225.991,172.264 229.653,174.836 C237.144,180.096 237.89,191.808 232.406,218.049 C230.017,229.477 227.063,240.335 225.651,245.336 C225.206,246.911 223.562,247.818 221.992,247.354" id="Fill-152" fill="#3C3938"></path>
                <path d="M225.621,149.097 C225.571,150.361 225.06,152.459 222.719,152.875 C219.644,153.421 212.481,154.536 210.019,153.75 C207.081,152.812 208.206,150.254 210.269,149.937 C211.238,149.789 213.602,149.125 213.519,146.25 C213.449,143.852 210.431,143.427 209.213,143.708 C208.311,143.917 207.407,144.68 207.407,144.68 C207.744,139.581 217.644,138.5 223.017,140.987 C224.661,141.748 225.743,146.018 225.621,149.097" id="Fill-153" fill="#E7A387"></path>
                <path d="M215.755,153.849 L215.755,153.849 C218.332,153.609 221.054,153.17 222.676,152.883 C221.053,153.17 218.332,153.609 215.755,153.849" id="Fill-154" fill="#74C3C3"></path>
                <path d="M212.577,154.022 C213.54,154.021 214.634,153.954 215.755,153.849 C214.634,153.954 213.54,154.021 212.577,154.022 M210.038,153.756 C210.032,153.754 210.025,153.752 210.019,153.75 C208.745,153.344 208.235,152.632 208.234,151.931 C208.235,152.632 208.745,153.344 210.019,153.75 C210.025,153.752 210.032,153.754 210.038,153.756" id="Fill-155" fill="#D69D1D"></path>
                <path d="M222.68,152.882 C222.685,152.881 222.691,152.88 222.696,152.879 C222.691,152.88 222.685,152.881 222.68,152.882 M222.719,152.875 L222.719,152.875 C223.641,152.711 224.28,152.286 224.718,151.754 C224.28,152.286 223.641,152.711 222.719,152.875" id="Fill-156" fill="#74C3C3"></path>
                <path d="M224.968,151.405 L224.968,151.405 C225.443,150.647 225.595,149.758 225.621,149.097 C225.624,149.027 225.626,148.956 225.627,148.884 C225.626,148.956 225.624,149.027 225.621,149.097 C225.595,149.758 225.443,150.647 224.968,151.405" id="Fill-157" fill="#1C1F23"></path>
                <path d="M224.718,151.754 L224.718,151.754 C224.81,151.642 224.893,151.525 224.968,151.405 C224.893,151.525 224.81,151.642 224.718,151.754" id="Fill-158" fill="#1C1F23"></path>
                <path d="M210.269,149.937 C210.271,149.937 210.273,149.937 210.275,149.936 C210.273,149.937 210.271,149.937 210.269,149.937 M210.278,149.936 C210.279,149.936 210.281,149.936 210.283,149.935 C210.281,149.936 210.279,149.936 210.278,149.936 M210.284,149.935 C210.591,149.887 211.034,149.782 211.493,149.579 C211.499,149.578 211.504,149.578 211.51,149.577 C211.045,149.785 210.595,149.886 210.284,149.935" id="Fill-159" fill="#1C1F23"></path>
                <path d="M212.558,154.022 L212.556,154.022 C211.525,154.022 210.643,153.945 210.038,153.756 C210.032,153.754 210.025,153.752 210.019,153.75 C208.745,153.344 208.235,152.632 208.234,151.931 C208.233,151.015 209.101,150.117 210.269,149.937 C210.271,149.937 210.273,149.937 210.275,149.936 L210.278,149.936 C210.279,149.936 210.281,149.936 210.283,149.935 L210.284,149.935 C210.595,149.886 211.045,149.785 211.51,149.577 C213.204,149.412 214.896,149.19 216.588,148.899 C219.493,148.398 222.624,147.811 225.506,146.747 C225.597,147.478 225.641,148.206 225.627,148.884 C225.626,148.956 225.624,149.027 225.621,149.097 C225.595,149.758 225.443,150.647 224.968,151.405 C224.893,151.525 224.81,151.642 224.718,151.754 C224.28,152.286 223.641,152.711 222.719,152.875 C222.711,152.876 222.704,152.878 222.696,152.879 C222.691,152.88 222.685,152.881 222.68,152.882 C222.678,152.882 222.677,152.882 222.676,152.883 C221.054,153.17 218.332,153.609 215.755,153.849 C214.634,153.954 213.54,154.021 212.577,154.022 L212.558,154.022" id="Fill-160" fill="#DB9B80"></path>
                <path d="M105.248,141.754 L81.752,141.754 C80.513,141.754 79.5,140.741 79.5,139.502 L79.5,125.105 C79.5,123.866 80.513,122.853 81.752,122.853 L105.248,122.853 C106.487,122.853 107.5,123.866 107.5,125.105 L107.5,139.502 C107.5,140.741 106.487,141.754 105.248,141.754" id="Fill-161" fill="#EBE6E1"></path>
                <path d="M31.289,284.027 C26.976,284.027 23.478,280.53 23.478,276.216 C23.478,271.902 26.976,268.404 31.289,268.404 C35.604,268.404 39.101,271.902 39.101,276.216 C39.101,280.53 35.604,284.027 31.289,284.027" id="Fill-165" fill="#39424B"></path>
                <path d="M68.194,284.357 L54.138,284.357 C49.825,284.357 45.975,281.236 45.496,276.948 C45.26,274.828 45.803,273.058 46.867,271.55 C48.574,269.128 51.443,267.792 54.406,267.792 L65.438,267.792 C69.847,267.792 73.456,264.562 73.49,260.163 C73.456,255.763 69.847,252.41 65.438,252.41 L9.183,252.41 C3.826,252.41 -0.498,248.103 0.046,242.604 C0.499,238.031 4.568,234.661 9.164,234.661 L85.096,234.661 C87.816,234.661 89.502,237.622 88.114,239.961 L73.6,281.278 C72.468,283.187 70.413,284.357 68.194,284.357" id="Fill-166" fill="#39424A"></path>
            </g>
        </g>
    </g>
</svg>